ISO-10303-21;
HEADER;
/* Generated by software containing ST-Developer
 * from STEP Tools, Inc. (www.steptools.com) 
 */

FILE_DESCRIPTION(
/* description */ (''),
/* implementation_level */ '2;1');

FILE_NAME(
/* name */ 'Soundwell EC350302X2A-HA1.step',
/* time_stamp */ '2025-04-01T22:13:12+02:00',
/* author */ (''),
/* organization */ (''),
/* preprocessor_version */ 'ST-DEVELOPER v20.1',
/* originating_system */ 'Autodesk Translation Framework v14.4.0.0',
/* authorisation */ '');

FILE_SCHEMA (('AUTOMOTIVE_DESIGN { 1 0 10303 214 3 1 1 }'));
ENDSEC;

DATA;
#10=MECHANICAL_DESIGN_GEOMETRIC_PRESENTATION_REPRESENTATION('',(#13,#14),
#1400);
#11=SHAPE_REPRESENTATION_RELATIONSHIP('SRR','None',#1407,#12);
#12=ADVANCED_BREP_SHAPE_REPRESENTATION('',(#15,#16),#1399);
#13=STYLED_ITEM('',(#1417),#15);
#14=STYLED_ITEM('',(#1418),#16);
#15=MANIFOLD_SOLID_BREP('Body1',#803);
#16=MANIFOLD_SOLID_BREP('Wheel',#804);
#17=FACE_BOUND('',#103,.T.);
#18=FACE_BOUND('',#113,.T.);
#19=FACE_BOUND('',#115,.T.);
#20=FACE_BOUND('',#116,.T.);
#21=FACE_BOUND('',#117,.T.);
#22=FACE_BOUND('',#145,.T.);
#23=PLANE('',#821);
#24=PLANE('',#825);
#25=PLANE('',#832);
#26=PLANE('',#833);
#27=PLANE('',#843);
#28=PLANE('',#853);
#29=PLANE('',#854);
#30=PLANE('',#855);
#31=PLANE('',#859);
#32=PLANE('',#860);
#33=PLANE('',#862);
#34=PLANE('',#866);
#35=PLANE('',#867);
#36=PLANE('',#869);
#37=PLANE('',#873);
#38=PLANE('',#874);
#39=PLANE('',#888);
#40=PLANE('',#889);
#41=PLANE('',#890);
#42=PLANE('',#892);
#43=PLANE('',#893);
#44=PLANE('',#894);
#45=PLANE('',#897);
#46=PLANE('',#898);
#47=PLANE('',#899);
#48=PLANE('',#901);
#49=PLANE('',#903);
#50=PLANE('',#905);
#51=PLANE('',#909);
#52=FACE_OUTER_BOUND('',#96,.T.);
#53=FACE_OUTER_BOUND('',#97,.T.);
#54=FACE_OUTER_BOUND('',#98,.T.);
#55=FACE_OUTER_BOUND('',#99,.T.);
#56=FACE_OUTER_BOUND('',#100,.T.);
#57=FACE_OUTER_BOUND('',#101,.T.);
#58=FACE_OUTER_BOUND('',#102,.T.);
#59=FACE_OUTER_BOUND('',#104,.T.);
#60=FACE_OUTER_BOUND('',#105,.T.);
#61=FACE_OUTER_BOUND('',#106,.T.);
#62=FACE_OUTER_BOUND('',#107,.T.);
#63=FACE_OUTER_BOUND('',#108,.T.);
#64=FACE_OUTER_BOUND('',#109,.T.);
#65=FACE_OUTER_BOUND('',#110,.T.);
#66=FACE_OUTER_BOUND('',#111,.T.);
#67=FACE_OUTER_BOUND('',#112,.T.);
#68=FACE_OUTER_BOUND('',#114,.T.);
#69=FACE_OUTER_BOUND('',#118,.T.);
#70=FACE_OUTER_BOUND('',#119,.T.);
#71=FACE_OUTER_BOUND('',#120,.T.);
#72=FACE_OUTER_BOUND('',#121,.T.);
#73=FACE_OUTER_BOUND('',#122,.T.);
#74=FACE_OUTER_BOUND('',#123,.T.);
#75=FACE_OUTER_BOUND('',#124,.T.);
#76=FACE_OUTER_BOUND('',#125,.T.);
#77=FACE_OUTER_BOUND('',#126,.T.);
#78=FACE_OUTER_BOUND('',#127,.T.);
#79=FACE_OUTER_BOUND('',#128,.T.);
#80=FACE_OUTER_BOUND('',#129,.T.);
#81=FACE_OUTER_BOUND('',#130,.T.);
#82=FACE_OUTER_BOUND('',#131,.T.);
#83=FACE_OUTER_BOUND('',#132,.T.);
#84=FACE_OUTER_BOUND('',#133,.T.);
#85=FACE_OUTER_BOUND('',#134,.T.);
#86=FACE_OUTER_BOUND('',#135,.T.);
#87=FACE_OUTER_BOUND('',#136,.T.);
#88=FACE_OUTER_BOUND('',#137,.T.);
#89=FACE_OUTER_BOUND('',#138,.T.);
#90=FACE_OUTER_BOUND('',#139,.T.);
#91=FACE_OUTER_BOUND('',#140,.T.);
#92=FACE_OUTER_BOUND('',#141,.T.);
#93=FACE_OUTER_BOUND('',#142,.T.);
#94=FACE_OUTER_BOUND('',#143,.T.);
#95=FACE_OUTER_BOUND('',#144,.T.);
#96=EDGE_LOOP('',(#516,#517,#518,#519));
#97=EDGE_LOOP('',(#520));
#98=EDGE_LOOP('',(#521,#522,#523,#524));
#99=EDGE_LOOP('',(#525));
#100=EDGE_LOOP('',(#526,#527,#528,#529));
#101=EDGE_LOOP('',(#530,#531,#532,#533));
#102=EDGE_LOOP('',(#534));
#103=EDGE_LOOP('',(#535));
#104=EDGE_LOOP('',(#536,#537,#538,#539));
#105=EDGE_LOOP('',(#540,#541,#542,#543));
#106=EDGE_LOOP('',(#544,#545,#546,#547));
#107=EDGE_LOOP('',(#548,#549,#550,#551));
#108=EDGE_LOOP('',(#552,#553,#554,#555));
#109=EDGE_LOOP('',(#556,#557,#558,#559));
#110=EDGE_LOOP('',(#560,#561,#562,#563));
#111=EDGE_LOOP('',(#564,#565,#566,#567));
#112=EDGE_LOOP('',(#568,#569,#570,#571,#572,#573,#574,#575));
#113=EDGE_LOOP('',(#576));
#114=EDGE_LOOP('',(#577,#578,#579,#580,#581,#582,#583,#584));
#115=EDGE_LOOP('',(#585));
#116=EDGE_LOOP('',(#586));
#117=EDGE_LOOP('',(#587));
#118=EDGE_LOOP('',(#588,#589,#590,#591));
#119=EDGE_LOOP('',(#592,#593,#594,#595));
#120=EDGE_LOOP('',(#596,#597,#598,#599));
#121=EDGE_LOOP('',(#600,#601,#602,#603));
#122=EDGE_LOOP('',(#604,#605,#606,#607));
#123=EDGE_LOOP('',(#608,#609,#610,#611));
#124=EDGE_LOOP('',(#612,#613,#614,#615));
#125=EDGE_LOOP('',(#616,#617,#618,#619));
#126=EDGE_LOOP('',(#620,#621,#622,#623));
#127=EDGE_LOOP('',(#624,#625,#626,#627));
#128=EDGE_LOOP('',(#628,#629,#630,#631));
#129=EDGE_LOOP('',(#632,#633,#634,#635));
#130=EDGE_LOOP('',(#636,#637,#638,#639,#640,#641,#642,#643,#644,#645,#646,
#647,#648,#649,#650,#651,#652,#653,#654,#655,#656,#657,#658,#659,#660,#661,
#662,#663));
#131=EDGE_LOOP('',(#664,#665,#666,#667));
#132=EDGE_LOOP('',(#668,#669,#670,#671));
#133=EDGE_LOOP('',(#672,#673,#674,#675));
#134=EDGE_LOOP('',(#676,#677,#678,#679));
#135=EDGE_LOOP('',(#680,#681,#682,#683));
#136=EDGE_LOOP('',(#684,#685,#686,#687,#688,#689));
#137=EDGE_LOOP('',(#690,#691,#692,#693));
#138=EDGE_LOOP('',(#694,#695,#696,#697));
#139=EDGE_LOOP('',(#698,#699,#700,#701));
#140=EDGE_LOOP('',(#702,#703,#704,#705));
#141=EDGE_LOOP('',(#706,#707,#708,#709));
#142=EDGE_LOOP('',(#710,#711,#712,#713));
#143=EDGE_LOOP('',(#714,#715,#716,#717,#718,#719,#720,#721,#722,#723,#724,
#725,#726,#727,#728,#729));
#144=EDGE_LOOP('',(#730,#731,#732,#733,#734,#735,#736,#737,#738,#739,#740,
#741,#742));
#145=EDGE_LOOP('',(#743));
#146=LINE('',#1167,#212);
#147=LINE('',#1174,#213);
#148=LINE('',#1181,#214);
#149=LINE('',#1187,#215);
#150=LINE('',#1193,#216);
#151=LINE('',#1195,#217);
#152=LINE('',#1197,#218);
#153=LINE('',#1198,#219);
#154=LINE('',#1204,#220);
#155=LINE('',#1210,#221);
#156=LINE('',#1216,#222);
#157=LINE('',#1219,#223);
#158=LINE('',#1221,#224);
#159=LINE('',#1222,#225);
#160=LINE('',#1228,#226);
#161=LINE('',#1234,#227);
#162=LINE('',#1243,#228);
#163=LINE('',#1245,#229);
#164=LINE('',#1247,#230);
#165=LINE('',#1248,#231);
#166=LINE('',#1253,#232);
#167=LINE('',#1257,#233);
#168=LINE('',#1259,#234);
#169=LINE('',#1260,#235);
#170=LINE('',#1266,#236);
#171=LINE('',#1268,#237);
#172=LINE('',#1270,#238);
#173=LINE('',#1271,#239);
#174=LINE('',#1276,#240);
#175=LINE('',#1280,#241);
#176=LINE('',#1282,#242);
#177=LINE('',#1283,#243);
#178=LINE('',#1289,#244);
#179=LINE('',#1291,#245);
#180=LINE('',#1293,#246);
#181=LINE('',#1294,#247);
#182=LINE('',#1299,#248);
#183=LINE('',#1303,#249);
#184=LINE('',#1305,#250);
#185=LINE('',#1306,#251);
#186=LINE('',#1314,#252);
#187=LINE('',#1318,#253);
#188=LINE('',#1322,#254);
#189=LINE('',#1326,#255);
#190=LINE('',#1330,#256);
#191=LINE('',#1334,#257);
#192=LINE('',#1338,#258);
#193=LINE('',#1344,#259);
#194=LINE('',#1346,#260);
#195=LINE('',#1347,#261);
#196=LINE('',#1350,#262);
#197=LINE('',#1352,#263);
#198=LINE('',#1353,#264);
#199=LINE('',#1358,#265);
#200=LINE('',#1360,#266);
#201=LINE('',#1361,#267);
#202=LINE('',#1364,#268);
#203=LINE('',#1366,#269);
#204=LINE('',#1367,#270);
#205=LINE('',#1374,#271);
#206=LINE('',#1376,#272);
#207=LINE('',#1377,#273);
#208=LINE('',#1380,#274);
#209=LINE('',#1382,#275);
#210=LINE('',#1383,#276);
#211=LINE('',#1395,#277);
#212=VECTOR('',#916,0.75);
#213=VECTOR('',#925,0.75);
#214=VECTOR('',#934,13.1);
#215=VECTOR('',#941,12.);
#216=VECTOR('',#948,10.);
#217=VECTOR('',#949,10.);
#218=VECTOR('',#950,10.);
#219=VECTOR('',#951,10.);
#220=VECTOR('',#958,10.);
#221=VECTOR('',#965,10.);
#222=VECTOR('',#972,10.);
#223=VECTOR('',#975,10.);
#224=VECTOR('',#976,10.);
#225=VECTOR('',#977,10.);
#226=VECTOR('',#984,10.);
#227=VECTOR('',#991,10.);
#228=VECTOR('',#1004,10.);
#229=VECTOR('',#1005,10.);
#230=VECTOR('',#1006,10.);
#231=VECTOR('',#1007,10.);
#232=VECTOR('',#1012,10.);
#233=VECTOR('',#1017,10.);
#234=VECTOR('',#1018,10.);
#235=VECTOR('',#1019,10.);
#236=VECTOR('',#1026,10.);
#237=VECTOR('',#1027,10.);
#238=VECTOR('',#1028,10.);
#239=VECTOR('',#1029,10.);
#240=VECTOR('',#1034,10.);
#241=VECTOR('',#1039,10.);
#242=VECTOR('',#1040,10.);
#243=VECTOR('',#1041,10.);
#244=VECTOR('',#1048,10.);
#245=VECTOR('',#1049,10.);
#246=VECTOR('',#1050,10.);
#247=VECTOR('',#1051,10.);
#248=VECTOR('',#1056,10.);
#249=VECTOR('',#1061,10.);
#250=VECTOR('',#1062,10.);
#251=VECTOR('',#1063,10.);
#252=VECTOR('',#1074,14.4);
#253=VECTOR('',#1077,10.);
#254=VECTOR('',#1080,10.);
#255=VECTOR('',#1083,10.);
#256=VECTOR('',#1086,10.);
#257=VECTOR('',#1089,10.);
#258=VECTOR('',#1092,10.);
#259=VECTOR('',#1101,10.);
#260=VECTOR('',#1102,10.);
#261=VECTOR('',#1103,10.);
#262=VECTOR('',#1106,10.);
#263=VECTOR('',#1107,10.);
#264=VECTOR('',#1108,10.);
#265=VECTOR('',#1115,10.);
#266=VECTOR('',#1116,10.);
#267=VECTOR('',#1117,10.);
#268=VECTOR('',#1120,10.);
#269=VECTOR('',#1121,10.);
#270=VECTOR('',#1122,10.);
#271=VECTOR('',#1131,10.);
#272=VECTOR('',#1132,10.);
#273=VECTOR('',#1133,10.);
#274=VECTOR('',#1136,10.);
#275=VECTOR('',#1137,10.);
#276=VECTOR('',#1138,10.);
#277=VECTOR('',#1159,13.1);
#278=CIRCLE('',#819,0.75);
#279=CIRCLE('',#820,0.75);
#280=CIRCLE('',#823,0.75);
#281=CIRCLE('',#824,0.75);
#282=CIRCLE('',#827,13.1);
#283=CIRCLE('',#828,13.1);
#284=CIRCLE('',#830,12.);
#285=CIRCLE('',#831,12.);
#286=CIRCLE('',#835,1.06071777722664);
#287=CIRCLE('',#836,1.06071777722664);
#288=CIRCLE('',#838,17.5);
#289=CIRCLE('',#839,17.5);
#290=CIRCLE('',#841,1.06071777722664);
#291=CIRCLE('',#842,1.06071777722664);
#292=CIRCLE('',#845,1.06071777722664);
#293=CIRCLE('',#846,1.06071777722664);
#294=CIRCLE('',#848,17.5);
#295=CIRCLE('',#849,17.5);
#296=CIRCLE('',#851,1.06071777722664);
#297=CIRCLE('',#852,1.06071777722664);
#298=CIRCLE('',#857,13.7);
#299=CIRCLE('',#858,13.7);
#300=CIRCLE('',#861,14.4);
#301=CIRCLE('',#864,13.7);
#302=CIRCLE('',#865,13.7);
#303=CIRCLE('',#868,14.4);
#304=CIRCLE('',#871,13.7);
#305=CIRCLE('',#872,13.7);
#306=CIRCLE('',#875,14.4);
#307=CIRCLE('',#877,14.4);
#308=CIRCLE('',#878,14.4);
#309=CIRCLE('',#879,14.4);
#310=CIRCLE('',#880,14.4);
#311=CIRCLE('',#881,14.4);
#312=CIRCLE('',#882,14.4);
#313=CIRCLE('',#883,14.4);
#314=CIRCLE('',#884,14.4);
#315=CIRCLE('',#885,14.4);
#316=CIRCLE('',#886,14.4);
#317=CIRCLE('',#887,14.4);
#318=CIRCLE('',#891,13.1);
#319=CIRCLE('',#895,13.1);
#320=CIRCLE('',#896,13.1);
#321=CIRCLE('',#900,13.1);
#322=CIRCLE('',#902,13.1);
#323=CIRCLE('',#904,13.1);
#324=CIRCLE('',#906,13.1);
#325=CIRCLE('',#908,13.1);
#326=VERTEX_POINT('',#1164);
#327=VERTEX_POINT('',#1166);
#328=VERTEX_POINT('',#1171);
#329=VERTEX_POINT('',#1173);
#330=VERTEX_POINT('',#1178);
#331=VERTEX_POINT('',#1180);
#332=VERTEX_POINT('',#1184);
#333=VERTEX_POINT('',#1186);
#334=VERTEX_POINT('',#1191);
#335=VERTEX_POINT('',#1192);
#336=VERTEX_POINT('',#1194);
#337=VERTEX_POINT('',#1196);
#338=VERTEX_POINT('',#1200);
#339=VERTEX_POINT('',#1202);
#340=VERTEX_POINT('',#1206);
#341=VERTEX_POINT('',#1208);
#342=VERTEX_POINT('',#1212);
#343=VERTEX_POINT('',#1214);
#344=VERTEX_POINT('',#1218);
#345=VERTEX_POINT('',#1220);
#346=VERTEX_POINT('',#1224);
#347=VERTEX_POINT('',#1226);
#348=VERTEX_POINT('',#1230);
#349=VERTEX_POINT('',#1232);
#350=VERTEX_POINT('',#1241);
#351=VERTEX_POINT('',#1242);
#352=VERTEX_POINT('',#1244);
#353=VERTEX_POINT('',#1246);
#354=VERTEX_POINT('',#1250);
#355=VERTEX_POINT('',#1252);
#356=VERTEX_POINT('',#1256);
#357=VERTEX_POINT('',#1258);
#358=VERTEX_POINT('',#1264);
#359=VERTEX_POINT('',#1265);
#360=VERTEX_POINT('',#1267);
#361=VERTEX_POINT('',#1269);
#362=VERTEX_POINT('',#1273);
#363=VERTEX_POINT('',#1275);
#364=VERTEX_POINT('',#1279);
#365=VERTEX_POINT('',#1281);
#366=VERTEX_POINT('',#1287);
#367=VERTEX_POINT('',#1288);
#368=VERTEX_POINT('',#1290);
#369=VERTEX_POINT('',#1292);
#370=VERTEX_POINT('',#1296);
#371=VERTEX_POINT('',#1298);
#372=VERTEX_POINT('',#1302);
#373=VERTEX_POINT('',#1304);
#374=VERTEX_POINT('',#1311);
#375=VERTEX_POINT('',#1313);
#376=VERTEX_POINT('',#1315);
#377=VERTEX_POINT('',#1317);
#378=VERTEX_POINT('',#1319);
#379=VERTEX_POINT('',#1321);
#380=VERTEX_POINT('',#1323);
#381=VERTEX_POINT('',#1325);
#382=VERTEX_POINT('',#1327);
#383=VERTEX_POINT('',#1329);
#384=VERTEX_POINT('',#1331);
#385=VERTEX_POINT('',#1333);
#386=VERTEX_POINT('',#1335);
#387=VERTEX_POINT('',#1337);
#388=VERTEX_POINT('',#1343);
#389=VERTEX_POINT('',#1345);
#390=VERTEX_POINT('',#1349);
#391=VERTEX_POINT('',#1351);
#392=VERTEX_POINT('',#1357);
#393=VERTEX_POINT('',#1359);
#394=VERTEX_POINT('',#1363);
#395=VERTEX_POINT('',#1365);
#396=VERTEX_POINT('',#1369);
#397=VERTEX_POINT('',#1373);
#398=VERTEX_POINT('',#1375);
#399=VERTEX_POINT('',#1379);
#400=VERTEX_POINT('',#1381);
#401=VERTEX_POINT('',#1393);
#402=EDGE_CURVE('',#326,#326,#278,.T.);
#403=EDGE_CURVE('',#326,#327,#146,.T.);
#404=EDGE_CURVE('',#327,#327,#279,.T.);
#405=EDGE_CURVE('',#328,#328,#280,.T.);
#406=EDGE_CURVE('',#328,#329,#147,.T.);
#407=EDGE_CURVE('',#329,#329,#281,.T.);
#408=EDGE_CURVE('',#330,#330,#282,.T.);
#409=EDGE_CURVE('',#330,#331,#148,.T.);
#410=EDGE_CURVE('',#331,#331,#283,.T.);
#411=EDGE_CURVE('',#332,#332,#284,.T.);
#412=EDGE_CURVE('',#332,#333,#149,.T.);
#413=EDGE_CURVE('',#333,#333,#285,.T.);
#414=EDGE_CURVE('',#334,#335,#150,.T.);
#415=EDGE_CURVE('',#334,#336,#151,.T.);
#416=EDGE_CURVE('',#337,#336,#152,.T.);
#417=EDGE_CURVE('',#335,#337,#153,.T.);
#418=EDGE_CURVE('',#338,#335,#286,.T.);
#419=EDGE_CURVE('',#339,#337,#287,.T.);
#420=EDGE_CURVE('',#338,#339,#154,.T.);
#421=EDGE_CURVE('',#340,#338,#288,.T.);
#422=EDGE_CURVE('',#341,#339,#289,.T.);
#423=EDGE_CURVE('',#340,#341,#155,.T.);
#424=EDGE_CURVE('',#342,#340,#290,.T.);
#425=EDGE_CURVE('',#343,#341,#291,.T.);
#426=EDGE_CURVE('',#342,#343,#156,.T.);
#427=EDGE_CURVE('',#344,#342,#157,.T.);
#428=EDGE_CURVE('',#345,#343,#158,.T.);
#429=EDGE_CURVE('',#344,#345,#159,.T.);
#430=EDGE_CURVE('',#346,#344,#292,.T.);
#431=EDGE_CURVE('',#347,#345,#293,.T.);
#432=EDGE_CURVE('',#346,#347,#160,.T.);
#433=EDGE_CURVE('',#348,#346,#294,.T.);
#434=EDGE_CURVE('',#349,#347,#295,.T.);
#435=EDGE_CURVE('',#348,#349,#161,.T.);
#436=EDGE_CURVE('',#334,#348,#296,.T.);
#437=EDGE_CURVE('',#336,#349,#297,.T.);
#438=EDGE_CURVE('',#350,#351,#162,.T.);
#439=EDGE_CURVE('',#350,#352,#163,.T.);
#440=EDGE_CURVE('',#352,#353,#164,.T.);
#441=EDGE_CURVE('',#351,#353,#165,.T.);
#442=EDGE_CURVE('',#354,#350,#298,.T.);
#443=EDGE_CURVE('',#354,#355,#166,.T.);
#444=EDGE_CURVE('',#355,#352,#299,.T.);
#445=EDGE_CURVE('',#356,#354,#167,.T.);
#446=EDGE_CURVE('',#357,#356,#168,.T.);
#447=EDGE_CURVE('',#357,#355,#169,.T.);
#448=EDGE_CURVE('',#353,#357,#300,.T.);
#449=EDGE_CURVE('',#358,#359,#170,.T.);
#450=EDGE_CURVE('',#358,#360,#171,.T.);
#451=EDGE_CURVE('',#360,#361,#172,.T.);
#452=EDGE_CURVE('',#359,#361,#173,.T.);
#453=EDGE_CURVE('',#362,#358,#301,.T.);
#454=EDGE_CURVE('',#362,#363,#174,.T.);
#455=EDGE_CURVE('',#363,#360,#302,.T.);
#456=EDGE_CURVE('',#364,#362,#175,.T.);
#457=EDGE_CURVE('',#365,#364,#176,.T.);
#458=EDGE_CURVE('',#365,#363,#177,.T.);
#459=EDGE_CURVE('',#361,#365,#303,.T.);
#460=EDGE_CURVE('',#366,#367,#178,.T.);
#461=EDGE_CURVE('',#366,#368,#179,.T.);
#462=EDGE_CURVE('',#368,#369,#180,.T.);
#463=EDGE_CURVE('',#367,#369,#181,.T.);
#464=EDGE_CURVE('',#370,#366,#304,.T.);
#465=EDGE_CURVE('',#370,#371,#182,.T.);
#466=EDGE_CURVE('',#371,#368,#305,.T.);
#467=EDGE_CURVE('',#372,#370,#183,.T.);
#468=EDGE_CURVE('',#373,#372,#184,.T.);
#469=EDGE_CURVE('',#373,#371,#185,.T.);
#470=EDGE_CURVE('',#369,#373,#306,.T.);
#471=EDGE_CURVE('',#367,#356,#307,.T.);
#472=EDGE_CURVE('',#374,#372,#308,.T.);
#473=EDGE_CURVE('',#374,#375,#186,.T.);
#474=EDGE_CURVE('',#375,#376,#309,.T.);
#475=EDGE_CURVE('',#376,#377,#187,.T.);
#476=EDGE_CURVE('',#377,#378,#310,.T.);
#477=EDGE_CURVE('',#378,#379,#188,.T.);
#478=EDGE_CURVE('',#379,#380,#311,.T.);
#479=EDGE_CURVE('',#380,#381,#189,.T.);
#480=EDGE_CURVE('',#381,#382,#312,.T.);
#481=EDGE_CURVE('',#382,#383,#190,.T.);
#482=EDGE_CURVE('',#383,#384,#313,.T.);
#483=EDGE_CURVE('',#384,#385,#191,.T.);
#484=EDGE_CURVE('',#385,#386,#314,.T.);
#485=EDGE_CURVE('',#386,#387,#192,.T.);
#486=EDGE_CURVE('',#387,#375,#315,.T.);
#487=EDGE_CURVE('',#359,#374,#316,.T.);
#488=EDGE_CURVE('',#351,#364,#317,.T.);
#489=EDGE_CURVE('',#388,#382,#193,.T.);
#490=EDGE_CURVE('',#389,#388,#194,.T.);
#491=EDGE_CURVE('',#389,#383,#195,.T.);
#492=EDGE_CURVE('',#385,#390,#196,.T.);
#493=EDGE_CURVE('',#384,#391,#197,.T.);
#494=EDGE_CURVE('',#390,#391,#198,.T.);
#495=EDGE_CURVE('',#391,#389,#318,.T.);
#496=EDGE_CURVE('',#392,#386,#199,.T.);
#497=EDGE_CURVE('',#393,#392,#200,.T.);
#498=EDGE_CURVE('',#393,#387,#201,.T.);
#499=EDGE_CURVE('',#377,#394,#202,.T.);
#500=EDGE_CURVE('',#376,#395,#203,.T.);
#501=EDGE_CURVE('',#394,#395,#204,.T.);
#502=EDGE_CURVE('',#396,#393,#319,.T.);
#503=EDGE_CURVE('',#395,#396,#320,.T.);
#504=EDGE_CURVE('',#397,#378,#205,.T.);
#505=EDGE_CURVE('',#398,#397,#206,.T.);
#506=EDGE_CURVE('',#398,#379,#207,.T.);
#507=EDGE_CURVE('',#381,#399,#208,.T.);
#508=EDGE_CURVE('',#380,#400,#209,.T.);
#509=EDGE_CURVE('',#399,#400,#210,.T.);
#510=EDGE_CURVE('',#400,#398,#321,.T.);
#511=EDGE_CURVE('',#397,#394,#322,.T.);
#512=EDGE_CURVE('',#388,#399,#323,.T.);
#513=EDGE_CURVE('',#392,#390,#324,.T.);
#514=EDGE_CURVE('',#401,#401,#325,.T.);
#515=EDGE_CURVE('',#401,#396,#211,.T.);
#516=ORIENTED_EDGE('',*,*,#402,.F.);
#517=ORIENTED_EDGE('',*,*,#403,.T.);
#518=ORIENTED_EDGE('',*,*,#404,.F.);
#519=ORIENTED_EDGE('',*,*,#403,.F.);
#520=ORIENTED_EDGE('',*,*,#402,.T.);
#521=ORIENTED_EDGE('',*,*,#405,.F.);
#522=ORIENTED_EDGE('',*,*,#406,.T.);
#523=ORIENTED_EDGE('',*,*,#407,.F.);
#524=ORIENTED_EDGE('',*,*,#406,.F.);
#525=ORIENTED_EDGE('',*,*,#405,.T.);
#526=ORIENTED_EDGE('',*,*,#408,.T.);
#527=ORIENTED_EDGE('',*,*,#409,.T.);
#528=ORIENTED_EDGE('',*,*,#410,.F.);
#529=ORIENTED_EDGE('',*,*,#409,.F.);
#530=ORIENTED_EDGE('',*,*,#411,.T.);
#531=ORIENTED_EDGE('',*,*,#412,.T.);
#532=ORIENTED_EDGE('',*,*,#413,.T.);
#533=ORIENTED_EDGE('',*,*,#412,.F.);
#534=ORIENTED_EDGE('',*,*,#408,.F.);
#535=ORIENTED_EDGE('',*,*,#411,.F.);
#536=ORIENTED_EDGE('',*,*,#414,.F.);
#537=ORIENTED_EDGE('',*,*,#415,.T.);
#538=ORIENTED_EDGE('',*,*,#416,.F.);
#539=ORIENTED_EDGE('',*,*,#417,.F.);
#540=ORIENTED_EDGE('',*,*,#418,.T.);
#541=ORIENTED_EDGE('',*,*,#417,.T.);
#542=ORIENTED_EDGE('',*,*,#419,.F.);
#543=ORIENTED_EDGE('',*,*,#420,.F.);
#544=ORIENTED_EDGE('',*,*,#421,.T.);
#545=ORIENTED_EDGE('',*,*,#420,.T.);
#546=ORIENTED_EDGE('',*,*,#422,.F.);
#547=ORIENTED_EDGE('',*,*,#423,.F.);
#548=ORIENTED_EDGE('',*,*,#424,.T.);
#549=ORIENTED_EDGE('',*,*,#423,.T.);
#550=ORIENTED_EDGE('',*,*,#425,.F.);
#551=ORIENTED_EDGE('',*,*,#426,.F.);
#552=ORIENTED_EDGE('',*,*,#427,.T.);
#553=ORIENTED_EDGE('',*,*,#426,.T.);
#554=ORIENTED_EDGE('',*,*,#428,.F.);
#555=ORIENTED_EDGE('',*,*,#429,.F.);
#556=ORIENTED_EDGE('',*,*,#430,.T.);
#557=ORIENTED_EDGE('',*,*,#429,.T.);
#558=ORIENTED_EDGE('',*,*,#431,.F.);
#559=ORIENTED_EDGE('',*,*,#432,.F.);
#560=ORIENTED_EDGE('',*,*,#433,.T.);
#561=ORIENTED_EDGE('',*,*,#432,.T.);
#562=ORIENTED_EDGE('',*,*,#434,.F.);
#563=ORIENTED_EDGE('',*,*,#435,.F.);
#564=ORIENTED_EDGE('',*,*,#436,.T.);
#565=ORIENTED_EDGE('',*,*,#435,.T.);
#566=ORIENTED_EDGE('',*,*,#437,.F.);
#567=ORIENTED_EDGE('',*,*,#415,.F.);
#568=ORIENTED_EDGE('',*,*,#437,.T.);
#569=ORIENTED_EDGE('',*,*,#434,.T.);
#570=ORIENTED_EDGE('',*,*,#431,.T.);
#571=ORIENTED_EDGE('',*,*,#428,.T.);
#572=ORIENTED_EDGE('',*,*,#425,.T.);
#573=ORIENTED_EDGE('',*,*,#422,.T.);
#574=ORIENTED_EDGE('',*,*,#419,.T.);
#575=ORIENTED_EDGE('',*,*,#416,.T.);
#576=ORIENTED_EDGE('',*,*,#410,.T.);
#577=ORIENTED_EDGE('',*,*,#436,.F.);
#578=ORIENTED_EDGE('',*,*,#414,.T.);
#579=ORIENTED_EDGE('',*,*,#418,.F.);
#580=ORIENTED_EDGE('',*,*,#421,.F.);
#581=ORIENTED_EDGE('',*,*,#424,.F.);
#582=ORIENTED_EDGE('',*,*,#427,.F.);
#583=ORIENTED_EDGE('',*,*,#430,.F.);
#584=ORIENTED_EDGE('',*,*,#433,.F.);
#585=ORIENTED_EDGE('',*,*,#404,.T.);
#586=ORIENTED_EDGE('',*,*,#407,.T.);
#587=ORIENTED_EDGE('',*,*,#413,.F.);
#588=ORIENTED_EDGE('',*,*,#438,.F.);
#589=ORIENTED_EDGE('',*,*,#439,.T.);
#590=ORIENTED_EDGE('',*,*,#440,.T.);
#591=ORIENTED_EDGE('',*,*,#441,.F.);
#592=ORIENTED_EDGE('',*,*,#442,.F.);
#593=ORIENTED_EDGE('',*,*,#443,.T.);
#594=ORIENTED_EDGE('',*,*,#444,.T.);
#595=ORIENTED_EDGE('',*,*,#439,.F.);
#596=ORIENTED_EDGE('',*,*,#445,.F.);
#597=ORIENTED_EDGE('',*,*,#446,.F.);
#598=ORIENTED_EDGE('',*,*,#447,.T.);
#599=ORIENTED_EDGE('',*,*,#443,.F.);
#600=ORIENTED_EDGE('',*,*,#448,.F.);
#601=ORIENTED_EDGE('',*,*,#440,.F.);
#602=ORIENTED_EDGE('',*,*,#444,.F.);
#603=ORIENTED_EDGE('',*,*,#447,.F.);
#604=ORIENTED_EDGE('',*,*,#449,.F.);
#605=ORIENTED_EDGE('',*,*,#450,.T.);
#606=ORIENTED_EDGE('',*,*,#451,.T.);
#607=ORIENTED_EDGE('',*,*,#452,.F.);
#608=ORIENTED_EDGE('',*,*,#453,.F.);
#609=ORIENTED_EDGE('',*,*,#454,.T.);
#610=ORIENTED_EDGE('',*,*,#455,.T.);
#611=ORIENTED_EDGE('',*,*,#450,.F.);
#612=ORIENTED_EDGE('',*,*,#456,.F.);
#613=ORIENTED_EDGE('',*,*,#457,.F.);
#614=ORIENTED_EDGE('',*,*,#458,.T.);
#615=ORIENTED_EDGE('',*,*,#454,.F.);
#616=ORIENTED_EDGE('',*,*,#459,.F.);
#617=ORIENTED_EDGE('',*,*,#451,.F.);
#618=ORIENTED_EDGE('',*,*,#455,.F.);
#619=ORIENTED_EDGE('',*,*,#458,.F.);
#620=ORIENTED_EDGE('',*,*,#460,.F.);
#621=ORIENTED_EDGE('',*,*,#461,.T.);
#622=ORIENTED_EDGE('',*,*,#462,.T.);
#623=ORIENTED_EDGE('',*,*,#463,.F.);
#624=ORIENTED_EDGE('',*,*,#464,.F.);
#625=ORIENTED_EDGE('',*,*,#465,.T.);
#626=ORIENTED_EDGE('',*,*,#466,.T.);
#627=ORIENTED_EDGE('',*,*,#461,.F.);
#628=ORIENTED_EDGE('',*,*,#467,.F.);
#629=ORIENTED_EDGE('',*,*,#468,.F.);
#630=ORIENTED_EDGE('',*,*,#469,.T.);
#631=ORIENTED_EDGE('',*,*,#465,.F.);
#632=ORIENTED_EDGE('',*,*,#470,.F.);
#633=ORIENTED_EDGE('',*,*,#462,.F.);
#634=ORIENTED_EDGE('',*,*,#466,.F.);
#635=ORIENTED_EDGE('',*,*,#469,.F.);
#636=ORIENTED_EDGE('',*,*,#441,.T.);
#637=ORIENTED_EDGE('',*,*,#448,.T.);
#638=ORIENTED_EDGE('',*,*,#446,.T.);
#639=ORIENTED_EDGE('',*,*,#471,.F.);
#640=ORIENTED_EDGE('',*,*,#463,.T.);
#641=ORIENTED_EDGE('',*,*,#470,.T.);
#642=ORIENTED_EDGE('',*,*,#468,.T.);
#643=ORIENTED_EDGE('',*,*,#472,.F.);
#644=ORIENTED_EDGE('',*,*,#473,.T.);
#645=ORIENTED_EDGE('',*,*,#474,.T.);
#646=ORIENTED_EDGE('',*,*,#475,.T.);
#647=ORIENTED_EDGE('',*,*,#476,.T.);
#648=ORIENTED_EDGE('',*,*,#477,.T.);
#649=ORIENTED_EDGE('',*,*,#478,.T.);
#650=ORIENTED_EDGE('',*,*,#479,.T.);
#651=ORIENTED_EDGE('',*,*,#480,.T.);
#652=ORIENTED_EDGE('',*,*,#481,.T.);
#653=ORIENTED_EDGE('',*,*,#482,.T.);
#654=ORIENTED_EDGE('',*,*,#483,.T.);
#655=ORIENTED_EDGE('',*,*,#484,.T.);
#656=ORIENTED_EDGE('',*,*,#485,.T.);
#657=ORIENTED_EDGE('',*,*,#486,.T.);
#658=ORIENTED_EDGE('',*,*,#473,.F.);
#659=ORIENTED_EDGE('',*,*,#487,.F.);
#660=ORIENTED_EDGE('',*,*,#452,.T.);
#661=ORIENTED_EDGE('',*,*,#459,.T.);
#662=ORIENTED_EDGE('',*,*,#457,.T.);
#663=ORIENTED_EDGE('',*,*,#488,.F.);
#664=ORIENTED_EDGE('',*,*,#489,.F.);
#665=ORIENTED_EDGE('',*,*,#490,.F.);
#666=ORIENTED_EDGE('',*,*,#491,.T.);
#667=ORIENTED_EDGE('',*,*,#481,.F.);
#668=ORIENTED_EDGE('',*,*,#492,.F.);
#669=ORIENTED_EDGE('',*,*,#483,.F.);
#670=ORIENTED_EDGE('',*,*,#493,.T.);
#671=ORIENTED_EDGE('',*,*,#494,.F.);
#672=ORIENTED_EDGE('',*,*,#493,.F.);
#673=ORIENTED_EDGE('',*,*,#482,.F.);
#674=ORIENTED_EDGE('',*,*,#491,.F.);
#675=ORIENTED_EDGE('',*,*,#495,.F.);
#676=ORIENTED_EDGE('',*,*,#496,.F.);
#677=ORIENTED_EDGE('',*,*,#497,.F.);
#678=ORIENTED_EDGE('',*,*,#498,.T.);
#679=ORIENTED_EDGE('',*,*,#485,.F.);
#680=ORIENTED_EDGE('',*,*,#499,.F.);
#681=ORIENTED_EDGE('',*,*,#475,.F.);
#682=ORIENTED_EDGE('',*,*,#500,.T.);
#683=ORIENTED_EDGE('',*,*,#501,.F.);
#684=ORIENTED_EDGE('',*,*,#500,.F.);
#685=ORIENTED_EDGE('',*,*,#474,.F.);
#686=ORIENTED_EDGE('',*,*,#486,.F.);
#687=ORIENTED_EDGE('',*,*,#498,.F.);
#688=ORIENTED_EDGE('',*,*,#502,.F.);
#689=ORIENTED_EDGE('',*,*,#503,.F.);
#690=ORIENTED_EDGE('',*,*,#504,.F.);
#691=ORIENTED_EDGE('',*,*,#505,.F.);
#692=ORIENTED_EDGE('',*,*,#506,.T.);
#693=ORIENTED_EDGE('',*,*,#477,.F.);
#694=ORIENTED_EDGE('',*,*,#507,.F.);
#695=ORIENTED_EDGE('',*,*,#479,.F.);
#696=ORIENTED_EDGE('',*,*,#508,.T.);
#697=ORIENTED_EDGE('',*,*,#509,.F.);
#698=ORIENTED_EDGE('',*,*,#508,.F.);
#699=ORIENTED_EDGE('',*,*,#478,.F.);
#700=ORIENTED_EDGE('',*,*,#506,.F.);
#701=ORIENTED_EDGE('',*,*,#510,.F.);
#702=ORIENTED_EDGE('',*,*,#499,.T.);
#703=ORIENTED_EDGE('',*,*,#511,.F.);
#704=ORIENTED_EDGE('',*,*,#504,.T.);
#705=ORIENTED_EDGE('',*,*,#476,.F.);
#706=ORIENTED_EDGE('',*,*,#489,.T.);
#707=ORIENTED_EDGE('',*,*,#480,.F.);
#708=ORIENTED_EDGE('',*,*,#507,.T.);
#709=ORIENTED_EDGE('',*,*,#512,.F.);
#710=ORIENTED_EDGE('',*,*,#492,.T.);
#711=ORIENTED_EDGE('',*,*,#513,.F.);
#712=ORIENTED_EDGE('',*,*,#496,.T.);
#713=ORIENTED_EDGE('',*,*,#484,.F.);
#714=ORIENTED_EDGE('',*,*,#514,.F.);
#715=ORIENTED_EDGE('',*,*,#515,.T.);
#716=ORIENTED_EDGE('',*,*,#502,.T.);
#717=ORIENTED_EDGE('',*,*,#497,.T.);
#718=ORIENTED_EDGE('',*,*,#513,.T.);
#719=ORIENTED_EDGE('',*,*,#494,.T.);
#720=ORIENTED_EDGE('',*,*,#495,.T.);
#721=ORIENTED_EDGE('',*,*,#490,.T.);
#722=ORIENTED_EDGE('',*,*,#512,.T.);
#723=ORIENTED_EDGE('',*,*,#509,.T.);
#724=ORIENTED_EDGE('',*,*,#510,.T.);
#725=ORIENTED_EDGE('',*,*,#505,.T.);
#726=ORIENTED_EDGE('',*,*,#511,.T.);
#727=ORIENTED_EDGE('',*,*,#501,.T.);
#728=ORIENTED_EDGE('',*,*,#503,.T.);
#729=ORIENTED_EDGE('',*,*,#515,.F.);
#730=ORIENTED_EDGE('',*,*,#438,.T.);
#731=ORIENTED_EDGE('',*,*,#488,.T.);
#732=ORIENTED_EDGE('',*,*,#456,.T.);
#733=ORIENTED_EDGE('',*,*,#453,.T.);
#734=ORIENTED_EDGE('',*,*,#449,.T.);
#735=ORIENTED_EDGE('',*,*,#487,.T.);
#736=ORIENTED_EDGE('',*,*,#472,.T.);
#737=ORIENTED_EDGE('',*,*,#467,.T.);
#738=ORIENTED_EDGE('',*,*,#464,.T.);
#739=ORIENTED_EDGE('',*,*,#460,.T.);
#740=ORIENTED_EDGE('',*,*,#471,.T.);
#741=ORIENTED_EDGE('',*,*,#445,.T.);
#742=ORIENTED_EDGE('',*,*,#442,.T.);
#743=ORIENTED_EDGE('',*,*,#514,.T.);
#744=CYLINDRICAL_SURFACE('',#818,0.75);
#745=CYLINDRICAL_SURFACE('',#822,0.75);
#746=CYLINDRICAL_SURFACE('',#826,13.1);
#747=CYLINDRICAL_SURFACE('',#829,12.);
#748=CYLINDRICAL_SURFACE('',#834,1.06071777722664);
#749=CYLINDRICAL_SURFACE('',#837,17.5);
#750=CYLINDRICAL_SURFACE('',#840,1.06071777722664);
#751=CYLINDRICAL_SURFACE('',#844,1.06071777722664);
#752=CYLINDRICAL_SURFACE('',#847,17.5);
#753=CYLINDRICAL_SURFACE('',#850,1.06071777722664);
#754=CYLINDRICAL_SURFACE('',#856,13.7);
#755=CYLINDRICAL_SURFACE('',#863,13.7);
#756=CYLINDRICAL_SURFACE('',#870,13.7);
#757=CYLINDRICAL_SURFACE('',#876,14.4);
#758=CYLINDRICAL_SURFACE('',#907,13.1);
#759=ADVANCED_FACE('',(#52),#744,.T.);
#760=ADVANCED_FACE('',(#53),#23,.T.);
#761=ADVANCED_FACE('',(#54),#745,.T.);
#762=ADVANCED_FACE('',(#55),#24,.T.);
#763=ADVANCED_FACE('',(#56),#746,.T.);
#764=ADVANCED_FACE('',(#57),#747,.F.);
#765=ADVANCED_FACE('',(#58,#17),#25,.T.);
#766=ADVANCED_FACE('',(#59),#26,.T.);
#767=ADVANCED_FACE('',(#60),#748,.T.);
#768=ADVANCED_FACE('',(#61),#749,.T.);
#769=ADVANCED_FACE('',(#62),#750,.T.);
#770=ADVANCED_FACE('',(#63),#27,.T.);
#771=ADVANCED_FACE('',(#64),#751,.T.);
#772=ADVANCED_FACE('',(#65),#752,.T.);
#773=ADVANCED_FACE('',(#66),#753,.T.);
#774=ADVANCED_FACE('',(#67,#18),#28,.T.);
#775=ADVANCED_FACE('',(#68,#19,#20,#21),#29,.F.);
#776=ADVANCED_FACE('',(#69),#30,.F.);
#777=ADVANCED_FACE('',(#70),#754,.T.);
#778=ADVANCED_FACE('',(#71),#31,.F.);
#779=ADVANCED_FACE('',(#72),#32,.T.);
#780=ADVANCED_FACE('',(#73),#33,.F.);
#781=ADVANCED_FACE('',(#74),#755,.T.);
#782=ADVANCED_FACE('',(#75),#34,.F.);
#783=ADVANCED_FACE('',(#76),#35,.T.);
#784=ADVANCED_FACE('',(#77),#36,.F.);
#785=ADVANCED_FACE('',(#78),#756,.T.);
#786=ADVANCED_FACE('',(#79),#37,.F.);
#787=ADVANCED_FACE('',(#80),#38,.T.);
#788=ADVANCED_FACE('',(#81),#757,.T.);
#789=ADVANCED_FACE('',(#82),#39,.F.);
#790=ADVANCED_FACE('',(#83),#40,.F.);
#791=ADVANCED_FACE('',(#84),#41,.T.);
#792=ADVANCED_FACE('',(#85),#42,.F.);
#793=ADVANCED_FACE('',(#86),#43,.F.);
#794=ADVANCED_FACE('',(#87),#44,.T.);
#795=ADVANCED_FACE('',(#88),#45,.F.);
#796=ADVANCED_FACE('',(#89),#46,.F.);
#797=ADVANCED_FACE('',(#90),#47,.T.);
#798=ADVANCED_FACE('',(#91),#48,.F.);
#799=ADVANCED_FACE('',(#92),#49,.F.);
#800=ADVANCED_FACE('',(#93),#50,.F.);
#801=ADVANCED_FACE('',(#94),#758,.F.);
#802=ADVANCED_FACE('',(#95,#22),#51,.T.);
#803=CLOSED_SHELL('',(#759,#760,#761,#762,#763,#764,#765,#766,#767,#768,
#769,#770,#771,#772,#773,#774,#775));
#804=CLOSED_SHELL('',(#776,#777,#778,#779,#780,#781,#782,#783,#784,#785,
#786,#787,#788,#789,#790,#791,#792,#793,#794,#795,#796,#797,#798,#799,#800,
#801,#802));
#805=DERIVED_UNIT_ELEMENT(#807,1.);
#806=DERIVED_UNIT_ELEMENT(#1402,-3.);
#807=(
MASS_UNIT()
NAMED_UNIT(*)
SI_UNIT(.KILO.,.GRAM.)
);
#808=DERIVED_UNIT((#805,#806));
#809=MEASURE_REPRESENTATION_ITEM('density measure',
POSITIVE_RATIO_MEASURE(7850.),#808);
#810=PROPERTY_DEFINITION_REPRESENTATION(#815,#812);
#811=PROPERTY_DEFINITION_REPRESENTATION(#816,#813);
#812=REPRESENTATION('material name',(#814),#1399);
#813=REPRESENTATION('density',(#809),#1399);
#814=DESCRIPTIVE_REPRESENTATION_ITEM('Steel','Steel');
#815=PROPERTY_DEFINITION('material property','material name',#1409);
#816=PROPERTY_DEFINITION('material property','density of part',#1409);
#817=AXIS2_PLACEMENT_3D('',#1162,#910,#911);
#818=AXIS2_PLACEMENT_3D('',#1163,#912,#913);
#819=AXIS2_PLACEMENT_3D('',#1165,#914,#915);
#820=AXIS2_PLACEMENT_3D('',#1168,#917,#918);
#821=AXIS2_PLACEMENT_3D('',#1169,#919,#920);
#822=AXIS2_PLACEMENT_3D('',#1170,#921,#922);
#823=AXIS2_PLACEMENT_3D('',#1172,#923,#924);
#824=AXIS2_PLACEMENT_3D('',#1175,#926,#927);
#825=AXIS2_PLACEMENT_3D('',#1176,#928,#929);
#826=AXIS2_PLACEMENT_3D('',#1177,#930,#931);
#827=AXIS2_PLACEMENT_3D('',#1179,#932,#933);
#828=AXIS2_PLACEMENT_3D('',#1182,#935,#936);
#829=AXIS2_PLACEMENT_3D('',#1183,#937,#938);
#830=AXIS2_PLACEMENT_3D('',#1185,#939,#940);
#831=AXIS2_PLACEMENT_3D('',#1188,#942,#943);
#832=AXIS2_PLACEMENT_3D('',#1189,#944,#945);
#833=AXIS2_PLACEMENT_3D('',#1190,#946,#947);
#834=AXIS2_PLACEMENT_3D('',#1199,#952,#953);
#835=AXIS2_PLACEMENT_3D('',#1201,#954,#955);
#836=AXIS2_PLACEMENT_3D('',#1203,#956,#957);
#837=AXIS2_PLACEMENT_3D('',#1205,#959,#960);
#838=AXIS2_PLACEMENT_3D('',#1207,#961,#962);
#839=AXIS2_PLACEMENT_3D('',#1209,#963,#964);
#840=AXIS2_PLACEMENT_3D('',#1211,#966,#967);
#841=AXIS2_PLACEMENT_3D('',#1213,#968,#969);
#842=AXIS2_PLACEMENT_3D('',#1215,#970,#971);
#843=AXIS2_PLACEMENT_3D('',#1217,#973,#974);
#844=AXIS2_PLACEMENT_3D('',#1223,#978,#979);
#845=AXIS2_PLACEMENT_3D('',#1225,#980,#981);
#846=AXIS2_PLACEMENT_3D('',#1227,#982,#983);
#847=AXIS2_PLACEMENT_3D('',#1229,#985,#986);
#848=AXIS2_PLACEMENT_3D('',#1231,#987,#988);
#849=AXIS2_PLACEMENT_3D('',#1233,#989,#990);
#850=AXIS2_PLACEMENT_3D('',#1235,#992,#993);
#851=AXIS2_PLACEMENT_3D('',#1236,#994,#995);
#852=AXIS2_PLACEMENT_3D('',#1237,#996,#997);
#853=AXIS2_PLACEMENT_3D('',#1238,#998,#999);
#854=AXIS2_PLACEMENT_3D('',#1239,#1000,#1001);
#855=AXIS2_PLACEMENT_3D('',#1240,#1002,#1003);
#856=AXIS2_PLACEMENT_3D('',#1249,#1008,#1009);
#857=AXIS2_PLACEMENT_3D('',#1251,#1010,#1011);
#858=AXIS2_PLACEMENT_3D('',#1254,#1013,#1014);
#859=AXIS2_PLACEMENT_3D('',#1255,#1015,#1016);
#860=AXIS2_PLACEMENT_3D('',#1261,#1020,#1021);
#861=AXIS2_PLACEMENT_3D('',#1262,#1022,#1023);
#862=AXIS2_PLACEMENT_3D('',#1263,#1024,#1025);
#863=AXIS2_PLACEMENT_3D('',#1272,#1030,#1031);
#864=AXIS2_PLACEMENT_3D('',#1274,#1032,#1033);
#865=AXIS2_PLACEMENT_3D('',#1277,#1035,#1036);
#866=AXIS2_PLACEMENT_3D('',#1278,#1037,#1038);
#867=AXIS2_PLACEMENT_3D('',#1284,#1042,#1043);
#868=AXIS2_PLACEMENT_3D('',#1285,#1044,#1045);
#869=AXIS2_PLACEMENT_3D('',#1286,#1046,#1047);
#870=AXIS2_PLACEMENT_3D('',#1295,#1052,#1053);
#871=AXIS2_PLACEMENT_3D('',#1297,#1054,#1055);
#872=AXIS2_PLACEMENT_3D('',#1300,#1057,#1058);
#873=AXIS2_PLACEMENT_3D('',#1301,#1059,#1060);
#874=AXIS2_PLACEMENT_3D('',#1307,#1064,#1065);
#875=AXIS2_PLACEMENT_3D('',#1308,#1066,#1067);
#876=AXIS2_PLACEMENT_3D('',#1309,#1068,#1069);
#877=AXIS2_PLACEMENT_3D('',#1310,#1070,#1071);
#878=AXIS2_PLACEMENT_3D('',#1312,#1072,#1073);
#879=AXIS2_PLACEMENT_3D('',#1316,#1075,#1076);
#880=AXIS2_PLACEMENT_3D('',#1320,#1078,#1079);
#881=AXIS2_PLACEMENT_3D('',#1324,#1081,#1082);
#882=AXIS2_PLACEMENT_3D('',#1328,#1084,#1085);
#883=AXIS2_PLACEMENT_3D('',#1332,#1087,#1088);
#884=AXIS2_PLACEMENT_3D('',#1336,#1090,#1091);
#885=AXIS2_PLACEMENT_3D('',#1339,#1093,#1094);
#886=AXIS2_PLACEMENT_3D('',#1340,#1095,#1096);
#887=AXIS2_PLACEMENT_3D('',#1341,#1097,#1098);
#888=AXIS2_PLACEMENT_3D('',#1342,#1099,#1100);
#889=AXIS2_PLACEMENT_3D('',#1348,#1104,#1105);
#890=AXIS2_PLACEMENT_3D('',#1354,#1109,#1110);
#891=AXIS2_PLACEMENT_3D('',#1355,#1111,#1112);
#892=AXIS2_PLACEMENT_3D('',#1356,#1113,#1114);
#893=AXIS2_PLACEMENT_3D('',#1362,#1118,#1119);
#894=AXIS2_PLACEMENT_3D('',#1368,#1123,#1124);
#895=AXIS2_PLACEMENT_3D('',#1370,#1125,#1126);
#896=AXIS2_PLACEMENT_3D('',#1371,#1127,#1128);
#897=AXIS2_PLACEMENT_3D('',#1372,#1129,#1130);
#898=AXIS2_PLACEMENT_3D('',#1378,#1134,#1135);
#899=AXIS2_PLACEMENT_3D('',#1384,#1139,#1140);
#900=AXIS2_PLACEMENT_3D('',#1385,#1141,#1142);
#901=AXIS2_PLACEMENT_3D('',#1386,#1143,#1144);
#902=AXIS2_PLACEMENT_3D('',#1387,#1145,#1146);
#903=AXIS2_PLACEMENT_3D('',#1388,#1147,#1148);
#904=AXIS2_PLACEMENT_3D('',#1389,#1149,#1150);
#905=AXIS2_PLACEMENT_3D('',#1390,#1151,#1152);
#906=AXIS2_PLACEMENT_3D('',#1391,#1153,#1154);
#907=AXIS2_PLACEMENT_3D('',#1392,#1155,#1156);
#908=AXIS2_PLACEMENT_3D('',#1394,#1157,#1158);
#909=AXIS2_PLACEMENT_3D('',#1396,#1160,#1161);
#910=DIRECTION('axis',(0.,0.,1.));
#911=DIRECTION('refdir',(1.,0.,0.));
#912=DIRECTION('center_axis',(0.,0.,-1.));
#913=DIRECTION('ref_axis',(1.,0.,0.));
#914=DIRECTION('center_axis',(0.,0.,-1.));
#915=DIRECTION('ref_axis',(1.,0.,0.));
#916=DIRECTION('',(0.,0.,1.));
#917=DIRECTION('center_axis',(0.,0.,1.));
#918=DIRECTION('ref_axis',(1.,0.,0.));
#919=DIRECTION('center_axis',(0.,0.,-1.));
#920=DIRECTION('ref_axis',(1.,0.,0.));
#921=DIRECTION('center_axis',(0.,0.,-1.));
#922=DIRECTION('ref_axis',(1.,0.,0.));
#923=DIRECTION('center_axis',(0.,0.,-1.));
#924=DIRECTION('ref_axis',(1.,0.,0.));
#925=DIRECTION('',(0.,0.,1.));
#926=DIRECTION('center_axis',(0.,0.,1.));
#927=DIRECTION('ref_axis',(1.,0.,0.));
#928=DIRECTION('center_axis',(0.,0.,-1.));
#929=DIRECTION('ref_axis',(1.,0.,0.));
#930=DIRECTION('center_axis',(0.,0.,1.));
#931=DIRECTION('ref_axis',(1.,0.,0.));
#932=DIRECTION('center_axis',(0.,0.,-1.));
#933=DIRECTION('ref_axis',(1.,0.,0.));
#934=DIRECTION('',(0.,0.,-1.));
#935=DIRECTION('center_axis',(0.,0.,-1.));
#936=DIRECTION('ref_axis',(1.,0.,0.));
#937=DIRECTION('center_axis',(0.,0.,1.));
#938=DIRECTION('ref_axis',(1.,0.,0.));
#939=DIRECTION('center_axis',(0.,0.,1.));
#940=DIRECTION('ref_axis',(1.,0.,0.));
#941=DIRECTION('',(0.,0.,-1.));
#942=DIRECTION('center_axis',(0.,0.,-1.));
#943=DIRECTION('ref_axis',(1.,0.,0.));
#944=DIRECTION('center_axis',(0.,0.,1.));
#945=DIRECTION('ref_axis',(1.,0.,0.));
#946=DIRECTION('center_axis',(4.72025741101251E-14,1.,0.));
#947=DIRECTION('ref_axis',(-1.,4.72025741101251E-14,0.));
#948=DIRECTION('',(1.,-4.72025741101251E-14,0.));
#949=DIRECTION('',(0.,0.,1.));
#950=DIRECTION('',(-1.,4.72025741101251E-14,0.));
#951=DIRECTION('',(0.,0.,1.));
#952=DIRECTION('center_axis',(0.,0.,1.));
#953=DIRECTION('ref_axis',(1.,4.4169535615477E-13,0.));
#954=DIRECTION('center_axis',(0.,0.,1.));
#955=DIRECTION('ref_axis',(1.,4.4169535615477E-13,0.));
#956=DIRECTION('center_axis',(0.,0.,1.));
#957=DIRECTION('ref_axis',(1.,4.4169535615477E-13,0.));
#958=DIRECTION('',(0.,0.,1.));
#959=DIRECTION('center_axis',(0.,0.,1.));
#960=DIRECTION('ref_axis',(0.342857142857143,-0.939387555587063,0.));
#961=DIRECTION('center_axis',(0.,0.,1.));
#962=DIRECTION('ref_axis',(0.342857142857143,-0.939387555587063,0.));
#963=DIRECTION('center_axis',(0.,0.,1.));
#964=DIRECTION('ref_axis',(0.342857142857143,-0.939387555587063,0.));
#965=DIRECTION('',(0.,0.,1.));
#966=DIRECTION('center_axis',(0.,0.,1.));
#967=DIRECTION('ref_axis',(4.60535442436252E-14,-1.,0.));
#968=DIRECTION('center_axis',(0.,0.,1.));
#969=DIRECTION('ref_axis',(4.60535442436252E-14,-1.,0.));
#970=DIRECTION('center_axis',(0.,0.,1.));
#971=DIRECTION('ref_axis',(4.60535442436252E-14,-1.,0.));
#972=DIRECTION('',(0.,0.,1.));
#973=DIRECTION('center_axis',(4.72025741101251E-14,-1.,0.));
#974=DIRECTION('ref_axis',(1.,4.72025741101251E-14,0.));
#975=DIRECTION('',(1.,4.72025741101251E-14,0.));
#976=DIRECTION('',(1.,4.72025741101251E-14,0.));
#977=DIRECTION('',(0.,0.,1.));
#978=DIRECTION('center_axis',(0.,0.,1.));
#979=DIRECTION('ref_axis',(-1.,0.,0.));
#980=DIRECTION('center_axis',(0.,0.,1.));
#981=DIRECTION('ref_axis',(-1.,0.,0.));
#982=DIRECTION('center_axis',(0.,0.,1.));
#983=DIRECTION('ref_axis',(-1.,0.,0.));
#984=DIRECTION('',(0.,0.,1.));
#985=DIRECTION('center_axis',(0.,0.,1.));
#986=DIRECTION('ref_axis',(-0.342857142857143,0.939387555587063,0.));
#987=DIRECTION('center_axis',(0.,0.,1.));
#988=DIRECTION('ref_axis',(-0.342857142857143,0.939387555587063,0.));
#989=DIRECTION('center_axis',(0.,0.,1.));
#990=DIRECTION('ref_axis',(-0.342857142857143,0.939387555587063,0.));
#991=DIRECTION('',(0.,0.,1.));
#992=DIRECTION('center_axis',(0.,0.,1.));
#993=DIRECTION('ref_axis',(4.76235514337489E-14,1.,0.));
#994=DIRECTION('center_axis',(0.,0.,1.));
#995=DIRECTION('ref_axis',(4.76235514337489E-14,1.,0.));
#996=DIRECTION('center_axis',(0.,0.,1.));
#997=DIRECTION('ref_axis',(4.76235514337489E-14,1.,0.));
#998=DIRECTION('center_axis',(0.,0.,1.));
#999=DIRECTION('ref_axis',(1.,0.,0.));
#1000=DIRECTION('center_axis',(0.,0.,1.));
#1001=DIRECTION('ref_axis',(1.,0.,0.));
#1002=DIRECTION('center_axis',(3.94240612860262E-16,1.,0.));
#1003=DIRECTION('ref_axis',(1.,-3.94240612860262E-16,0.));
#1004=DIRECTION('',(1.,-3.94240612860262E-16,0.));
#1005=DIRECTION('',(0.,0.,-1.));
#1006=DIRECTION('',(1.,-3.94240612860262E-16,0.));
#1007=DIRECTION('',(0.,0.,-1.));
#1008=DIRECTION('center_axis',(0.,0.,-1.));
#1009=DIRECTION('ref_axis',(0.993988001783895,-0.109489051094891,0.));
#1010=DIRECTION('center_axis',(0.,0.,1.));
#1011=DIRECTION('ref_axis',(0.993988001783895,-0.109489051094891,0.));
#1012=DIRECTION('',(0.,0.,-1.));
#1013=DIRECTION('center_axis',(0.,0.,1.));
#1014=DIRECTION('ref_axis',(0.993988001783895,-0.109489051094891,0.));
#1015=DIRECTION('center_axis',(0.,-1.,0.));
#1016=DIRECTION('ref_axis',(-1.,0.,0.));
#1017=DIRECTION('',(-1.,0.,0.));
#1018=DIRECTION('',(0.,0.,1.));
#1019=DIRECTION('',(-1.,0.,0.));
#1020=DIRECTION('center_axis',(0.,0.,1.));
#1021=DIRECTION('ref_axis',(-1.,0.,0.));
#1022=DIRECTION('center_axis',(0.,0.,-1.));
#1023=DIRECTION('ref_axis',(1.,0.,0.));
#1024=DIRECTION('center_axis',(-0.866025403784439,-0.5,0.));
#1025=DIRECTION('ref_axis',(-0.5,0.866025403784439,0.));
#1026=DIRECTION('',(-0.5,0.866025403784439,0.));
#1027=DIRECTION('',(0.,0.,-1.));
#1028=DIRECTION('',(-0.5,0.866025403784439,0.));
#1029=DIRECTION('',(0.,0.,-1.));
#1030=DIRECTION('center_axis',(0.,0.,-1.));
#1031=DIRECTION('ref_axis',(-0.402173701207519,0.91556338614923,0.));
#1032=DIRECTION('center_axis',(0.,0.,1.));
#1033=DIRECTION('ref_axis',(-0.402173701207519,0.91556338614923,0.));
#1034=DIRECTION('',(0.,0.,-1.));
#1035=DIRECTION('center_axis',(0.,0.,1.));
#1036=DIRECTION('ref_axis',(-0.402173701207519,0.91556338614923,0.));
#1037=DIRECTION('center_axis',(0.866025403784438,0.500000000000001,0.));
#1038=DIRECTION('ref_axis',(0.500000000000001,-0.866025403784438,0.));
#1039=DIRECTION('',(0.500000000000001,-0.866025403784438,0.));
#1040=DIRECTION('',(0.,0.,1.));
#1041=DIRECTION('',(0.500000000000001,-0.866025403784438,0.));
#1042=DIRECTION('center_axis',(0.,0.,1.));
#1043=DIRECTION('ref_axis',(-1.,0.,0.));
#1044=DIRECTION('center_axis',(0.,0.,-1.));
#1045=DIRECTION('ref_axis',(1.,0.,0.));
#1046=DIRECTION('center_axis',(0.866025403784439,-0.5,0.));
#1047=DIRECTION('ref_axis',(-0.5,-0.866025403784439,0.));
#1048=DIRECTION('',(-0.5,-0.866025403784439,0.));
#1049=DIRECTION('',(0.,0.,-1.));
#1050=DIRECTION('',(-0.5,-0.866025403784439,0.));
#1051=DIRECTION('',(0.,0.,-1.));
#1052=DIRECTION('center_axis',(0.,0.,-1.));
#1053=DIRECTION('ref_axis',(-0.591814300576376,-0.806074335054339,0.));
#1054=DIRECTION('center_axis',(0.,0.,1.));
#1055=DIRECTION('ref_axis',(-0.591814300576376,-0.806074335054339,0.));
#1056=DIRECTION('',(0.,0.,-1.));
#1057=DIRECTION('center_axis',(0.,0.,1.));
#1058=DIRECTION('ref_axis',(-0.591814300576376,-0.806074335054339,0.));
#1059=DIRECTION('center_axis',(-0.866025403784439,0.5,0.));
#1060=DIRECTION('ref_axis',(0.5,0.866025403784439,0.));
#1061=DIRECTION('',(0.5,0.866025403784439,0.));
#1062=DIRECTION('',(0.,0.,1.));
#1063=DIRECTION('',(0.5,0.866025403784439,0.));
#1064=DIRECTION('center_axis',(0.,0.,1.));
#1065=DIRECTION('ref_axis',(-1.,0.,0.));
#1066=DIRECTION('center_axis',(0.,0.,-1.));
#1067=DIRECTION('ref_axis',(1.,0.,0.));
#1068=DIRECTION('center_axis',(0.,0.,1.));
#1069=DIRECTION('ref_axis',(1.,0.,0.));
#1070=DIRECTION('center_axis',(0.,0.,1.));
#1071=DIRECTION('ref_axis',(1.,0.,0.));
#1072=DIRECTION('center_axis',(0.,0.,1.));
#1073=DIRECTION('ref_axis',(1.,0.,0.));
#1074=DIRECTION('',(0.,0.,-1.));
#1075=DIRECTION('center_axis',(0.,0.,1.));
#1076=DIRECTION('ref_axis',(1.,0.,0.));
#1077=DIRECTION('',(0.,0.,-1.));
#1078=DIRECTION('center_axis',(0.,0.,1.));
#1079=DIRECTION('ref_axis',(1.,0.,0.));
#1080=DIRECTION('',(0.,0.,1.));
#1081=DIRECTION('center_axis',(0.,0.,1.));
#1082=DIRECTION('ref_axis',(1.,0.,0.));
#1083=DIRECTION('',(0.,0.,-1.));
#1084=DIRECTION('center_axis',(0.,0.,1.));
#1085=DIRECTION('ref_axis',(1.,0.,0.));
#1086=DIRECTION('',(0.,0.,1.));
#1087=DIRECTION('center_axis',(0.,0.,1.));
#1088=DIRECTION('ref_axis',(1.,0.,0.));
#1089=DIRECTION('',(0.,0.,-1.));
#1090=DIRECTION('center_axis',(0.,0.,1.));
#1091=DIRECTION('ref_axis',(1.,0.,0.));
#1092=DIRECTION('',(0.,0.,1.));
#1093=DIRECTION('center_axis',(0.,0.,1.));
#1094=DIRECTION('ref_axis',(1.,0.,0.));
#1095=DIRECTION('center_axis',(0.,0.,1.));
#1096=DIRECTION('ref_axis',(1.,0.,0.));
#1097=DIRECTION('center_axis',(0.,0.,1.));
#1098=DIRECTION('ref_axis',(1.,0.,0.));
#1099=DIRECTION('center_axis',(0.866025403784438,-0.5,0.));
#1100=DIRECTION('ref_axis',(0.5,0.866025403784438,0.));
#1101=DIRECTION('',(0.5,0.866025403784438,0.));
#1102=DIRECTION('',(0.,0.,-1.));
#1103=DIRECTION('',(0.5,0.866025403784438,0.));
#1104=DIRECTION('center_axis',(-0.866025403784439,0.5,0.));
#1105=DIRECTION('ref_axis',(-0.5,-0.866025403784439,0.));
#1106=DIRECTION('',(-0.5,-0.866025403784439,0.));
#1107=DIRECTION('',(-0.5,-0.866025403784439,0.));
#1108=DIRECTION('',(0.,0.,1.));
#1109=DIRECTION('center_axis',(0.,0.,-1.));
#1110=DIRECTION('ref_axis',(1.,0.,0.));
#1111=DIRECTION('center_axis',(0.,0.,-1.));
#1112=DIRECTION('ref_axis',(1.,0.,0.));
#1113=DIRECTION('center_axis',(0.,1.,0.));
#1114=DIRECTION('ref_axis',(-1.,0.,0.));
#1115=DIRECTION('',(-1.,0.,0.));
#1116=DIRECTION('',(0.,0.,-1.));
#1117=DIRECTION('',(-1.,0.,0.));
#1118=DIRECTION('center_axis',(0.,-1.,0.));
#1119=DIRECTION('ref_axis',(1.,0.,0.));
#1120=DIRECTION('',(1.,0.,0.));
#1121=DIRECTION('',(1.,0.,0.));
#1122=DIRECTION('',(0.,0.,1.));
#1123=DIRECTION('center_axis',(0.,0.,-1.));
#1124=DIRECTION('ref_axis',(1.,0.,0.));
#1125=DIRECTION('center_axis',(0.,0.,-1.));
#1126=DIRECTION('ref_axis',(1.,0.,0.));
#1127=DIRECTION('center_axis',(0.,0.,-1.));
#1128=DIRECTION('ref_axis',(1.,0.,0.));
#1129=DIRECTION('center_axis',(-0.866025403784438,-0.5,0.));
#1130=DIRECTION('ref_axis',(0.5,-0.866025403784438,0.));
#1131=DIRECTION('',(0.5,-0.866025403784438,0.));
#1132=DIRECTION('',(0.,0.,-1.));
#1133=DIRECTION('',(0.5,-0.866025403784438,0.));
#1134=DIRECTION('center_axis',(0.866025403784438,0.5,0.));
#1135=DIRECTION('ref_axis',(-0.5,0.866025403784438,0.));
#1136=DIRECTION('',(-0.5,0.866025403784438,0.));
#1137=DIRECTION('',(-0.5,0.866025403784438,0.));
#1138=DIRECTION('',(0.,0.,1.));
#1139=DIRECTION('center_axis',(0.,0.,-1.));
#1140=DIRECTION('ref_axis',(1.,0.,0.));
#1141=DIRECTION('center_axis',(0.,0.,-1.));
#1142=DIRECTION('ref_axis',(1.,0.,0.));
#1143=DIRECTION('center_axis',(0.,0.,1.));
#1144=DIRECTION('ref_axis',(1.,0.,0.));
#1145=DIRECTION('center_axis',(0.,0.,-1.));
#1146=DIRECTION('ref_axis',(1.,0.,0.));
#1147=DIRECTION('center_axis',(0.,0.,1.));
#1148=DIRECTION('ref_axis',(1.,0.,0.));
#1149=DIRECTION('center_axis',(0.,0.,-1.));
#1150=DIRECTION('ref_axis',(1.,0.,0.));
#1151=DIRECTION('center_axis',(0.,0.,1.));
#1152=DIRECTION('ref_axis',(1.,0.,0.));
#1153=DIRECTION('center_axis',(0.,0.,-1.));
#1154=DIRECTION('ref_axis',(1.,0.,0.));
#1155=DIRECTION('center_axis',(0.,0.,1.));
#1156=DIRECTION('ref_axis',(1.,0.,0.));
#1157=DIRECTION('center_axis',(0.,0.,-1.));
#1158=DIRECTION('ref_axis',(1.,0.,0.));
#1159=DIRECTION('',(0.,0.,-1.));
#1160=DIRECTION('center_axis',(0.,0.,1.));
#1161=DIRECTION('ref_axis',(1.,0.,0.));
#1162=CARTESIAN_POINT('',(0.,0.,0.));
#1163=CARTESIAN_POINT('Origin',(5.02769610688733,-13.8134815255529,0.));
#1164=CARTESIAN_POINT('',(4.27769610688733,-13.8134815255529,-1.5));
#1165=CARTESIAN_POINT('Origin',(5.02769610688733,-13.8134815255529,-1.5));
#1166=CARTESIAN_POINT('',(4.27769610688733,-13.8134815255529,0.));
#1167=CARTESIAN_POINT('',(4.27769610688733,-13.8134815255529,0.));
#1168=CARTESIAN_POINT('Origin',(5.02769610688733,-13.8134815255529,0.));
#1169=CARTESIAN_POINT('Origin',(5.02769610688733,-13.8134815255529,-1.5));
#1170=CARTESIAN_POINT('Origin',(-5.02769610688733,13.8134815255529,0.));
#1171=CARTESIAN_POINT('',(-5.77769610688733,13.8134815255529,-1.5));
#1172=CARTESIAN_POINT('Origin',(-5.02769610688733,13.8134815255529,-1.5));
#1173=CARTESIAN_POINT('',(-5.77769610688733,13.8134815255529,0.));
#1174=CARTESIAN_POINT('',(-5.77769610688733,13.8134815255529,0.));
#1175=CARTESIAN_POINT('Origin',(-5.02769610688733,13.8134815255529,0.));
#1176=CARTESIAN_POINT('Origin',(-5.02769610688733,13.8134815255529,-1.5));
#1177=CARTESIAN_POINT('Origin',(0.,0.,0.));
#1178=CARTESIAN_POINT('',(-13.1,1.60428730688303E-15,16.));
#1179=CARTESIAN_POINT('Origin',(0.,0.,16.));
#1180=CARTESIAN_POINT('',(-13.1,1.60428730688303E-15,4.5));
#1181=CARTESIAN_POINT('',(-13.1,-1.60428730688303E-15,0.));
#1182=CARTESIAN_POINT('Origin',(0.,0.,4.5));
#1183=CARTESIAN_POINT('Origin',(0.,0.,0.));
#1184=CARTESIAN_POINT('',(-12.,-1.46957615897682E-15,16.));
#1185=CARTESIAN_POINT('Origin',(0.,0.,16.));
#1186=CARTESIAN_POINT('',(-12.,-1.46957615897682E-15,0.));
#1187=CARTESIAN_POINT('',(-12.,-1.46957615897682E-15,0.));
#1188=CARTESIAN_POINT('Origin',(0.,0.,0.));
#1189=CARTESIAN_POINT('Origin',(0.,0.,16.));
#1190=CARTESIAN_POINT('Origin',(4.93928222277341,17.4999999999998,0.));
#1191=CARTESIAN_POINT('',(-4.93928222277331,17.5000000000002,0.));
#1192=CARTESIAN_POINT('',(4.93928222277341,17.4999999999998,0.));
#1193=CARTESIAN_POINT('',(-4.93928222277331,17.5000000000002,0.));
#1194=CARTESIAN_POINT('',(-4.93928222277331,17.5000000000002,4.5));
#1195=CARTESIAN_POINT('',(-4.93928222277331,17.5000000000002,0.));
#1196=CARTESIAN_POINT('',(4.93928222277341,17.4999999999998,4.5));
#1197=CARTESIAN_POINT('',(-4.93928222277331,17.5000000000002,4.5));
#1198=CARTESIAN_POINT('',(4.93928222277341,17.4999999999998,0.));
#1199=CARTESIAN_POINT('Origin',(4.93928222277336,16.4392822227731,0.));
#1200=CARTESIAN_POINT('',(6.,16.4392822227736,0.));
#1201=CARTESIAN_POINT('Origin',(4.93928222277336,16.4392822227731,0.));
#1202=CARTESIAN_POINT('',(6.,16.4392822227736,4.5));
#1203=CARTESIAN_POINT('Origin',(4.93928222277336,16.4392822227731,4.5));
#1204=CARTESIAN_POINT('',(6.,16.4392822227736,0.));
#1205=CARTESIAN_POINT('Origin',(0.,0.,0.));
#1206=CARTESIAN_POINT('',(6.,-16.4392822227736,0.));
#1207=CARTESIAN_POINT('Origin',(0.,0.,0.));
#1208=CARTESIAN_POINT('',(6.,-16.4392822227736,4.5));
#1209=CARTESIAN_POINT('Origin',(0.,0.,4.5));
#1210=CARTESIAN_POINT('',(6.,-16.4392822227736,0.));
#1211=CARTESIAN_POINT('Origin',(4.93928222277336,-16.4392822227731,0.));
#1212=CARTESIAN_POINT('',(4.93928222277341,-17.4999999999998,0.));
#1213=CARTESIAN_POINT('Origin',(4.93928222277336,-16.4392822227731,0.));
#1214=CARTESIAN_POINT('',(4.93928222277341,-17.4999999999998,4.5));
#1215=CARTESIAN_POINT('Origin',(4.93928222277336,-16.4392822227731,4.5));
#1216=CARTESIAN_POINT('',(4.93928222277341,-17.4999999999998,0.));
#1217=CARTESIAN_POINT('Origin',(-4.93928222277331,-17.5000000000002,0.));
#1218=CARTESIAN_POINT('',(-4.93928222277331,-17.5000000000002,0.));
#1219=CARTESIAN_POINT('',(-4.93928222277331,-17.5000000000002,0.));
#1220=CARTESIAN_POINT('',(-4.93928222277331,-17.5000000000002,4.5));
#1221=CARTESIAN_POINT('',(-4.93928222277331,-17.5000000000002,4.5));
#1222=CARTESIAN_POINT('',(-4.93928222277331,-17.5000000000002,0.));
#1223=CARTESIAN_POINT('Origin',(-4.93928222277336,-16.4392822227736,0.));
#1224=CARTESIAN_POINT('',(-6.,-16.4392822227736,0.));
#1225=CARTESIAN_POINT('Origin',(-4.93928222277336,-16.4392822227736,0.));
#1226=CARTESIAN_POINT('',(-6.,-16.4392822227736,4.5));
#1227=CARTESIAN_POINT('Origin',(-4.93928222277336,-16.4392822227736,4.5));
#1228=CARTESIAN_POINT('',(-6.,-16.4392822227736,0.));
#1229=CARTESIAN_POINT('Origin',(0.,0.,0.));
#1230=CARTESIAN_POINT('',(-6.,16.4392822227736,0.));
#1231=CARTESIAN_POINT('Origin',(0.,0.,0.));
#1232=CARTESIAN_POINT('',(-6.,16.4392822227736,4.5));
#1233=CARTESIAN_POINT('Origin',(0.,0.,4.5));
#1234=CARTESIAN_POINT('',(-6.,16.4392822227736,0.));
#1235=CARTESIAN_POINT('Origin',(-4.93928222277336,16.4392822227736,0.));
#1236=CARTESIAN_POINT('Origin',(-4.93928222277336,16.4392822227736,0.));
#1237=CARTESIAN_POINT('Origin',(-4.93928222277336,16.4392822227736,4.5));
#1238=CARTESIAN_POINT('Origin',(-2.22044604925031E-15,0.,4.5));
#1239=CARTESIAN_POINT('Origin',(-2.22044604925031E-15,0.,0.));
#1240=CARTESIAN_POINT('Origin',(13.6176356244394,1.5,16.));
#1241=CARTESIAN_POINT('',(13.6176356244394,1.5,16.));
#1242=CARTESIAN_POINT('',(14.321661914736,1.5,16.));
#1243=CARTESIAN_POINT('',(6.80881781221968,1.5,16.));
#1244=CARTESIAN_POINT('',(13.6176356244394,1.5,9.5));
#1245=CARTESIAN_POINT('',(13.6176356244394,1.5,16.));
#1246=CARTESIAN_POINT('',(14.321661914736,1.5,9.5));
#1247=CARTESIAN_POINT('',(13.6176356244394,1.5,9.5));
#1248=CARTESIAN_POINT('',(14.321661914736,1.5,4.5));
#1249=CARTESIAN_POINT('Origin',(0.,0.,16.));
#1250=CARTESIAN_POINT('',(13.6176356244394,-1.5,16.));
#1251=CARTESIAN_POINT('Origin',(0.,0.,16.));
#1252=CARTESIAN_POINT('',(13.6176356244394,-1.5,9.5));
#1253=CARTESIAN_POINT('',(13.6176356244394,-1.5,16.));
#1254=CARTESIAN_POINT('Origin',(0.,0.,9.5));
#1255=CARTESIAN_POINT('Origin',(14.321661914736,-1.5,16.));
#1256=CARTESIAN_POINT('',(14.321661914736,-1.5,16.));
#1257=CARTESIAN_POINT('',(7.16083095736801,-1.5,16.));
#1258=CARTESIAN_POINT('',(14.321661914736,-1.5,9.5));
#1259=CARTESIAN_POINT('',(14.321661914736,-1.5,4.5));
#1260=CARTESIAN_POINT('',(14.321661914736,-1.5,9.5));
#1261=CARTESIAN_POINT('Origin',(14.0088178122197,-5.55111512312578E-15,
9.5));
#1262=CARTESIAN_POINT('Origin',(0.,0.,9.5));
#1263=CARTESIAN_POINT('Origin',(-8.10785591789633,11.0432183902445,16.));
#1264=CARTESIAN_POINT('',(-8.10785591789633,11.0432183902445,16.));
#1265=CARTESIAN_POINT('',(-8.45986906304466,11.6529230425735,16.));
#1266=CARTESIAN_POINT('',(-4.70344701178649,5.14660919512223,16.));
#1267=CARTESIAN_POINT('',(-8.10785591789633,11.0432183902445,9.5));
#1268=CARTESIAN_POINT('',(-8.10785591789633,11.0432183902445,16.));
#1269=CARTESIAN_POINT('',(-8.45986906304466,11.6529230425735,9.5));
#1270=CARTESIAN_POINT('',(-8.10785591789633,11.0432183902445,9.5));
#1271=CARTESIAN_POINT('',(-8.45986906304466,11.6529230425735,4.5));
#1272=CARTESIAN_POINT('Origin',(0.,0.,16.));
#1273=CARTESIAN_POINT('',(-5.50977970654301,12.5432183902445,16.));
#1274=CARTESIAN_POINT('Origin',(0.,0.,16.));
#1275=CARTESIAN_POINT('',(-5.50977970654301,12.5432183902445,9.5));
#1276=CARTESIAN_POINT('',(-5.50977970654301,12.5432183902445,16.));
#1277=CARTESIAN_POINT('Origin',(0.,0.,9.5));
#1278=CARTESIAN_POINT('Origin',(-5.86179285169134,13.1529230425735,16.));
#1279=CARTESIAN_POINT('',(-5.86179285169134,13.1529230425735,16.));
#1280=CARTESIAN_POINT('',(-2.28137737300733,6.95146152128675,16.));
#1281=CARTESIAN_POINT('',(-5.86179285169134,13.1529230425735,9.5));
#1282=CARTESIAN_POINT('',(-5.86179285169134,13.1529230425735,4.5));
#1283=CARTESIAN_POINT('',(-5.86179285169134,13.1529230425735,9.5));
#1284=CARTESIAN_POINT('Origin',(-6.98482438479383,12.098070716409,9.5));
#1285=CARTESIAN_POINT('Origin',(0.,0.,9.5));
#1286=CARTESIAN_POINT('Origin',(-5.50977970654303,-12.5432183902444,16.));
#1287=CARTESIAN_POINT('',(-5.50977970654303,-12.5432183902444,16.));
#1288=CARTESIAN_POINT('',(-5.86179285169135,-13.1529230425735,16.));
#1289=CARTESIAN_POINT('',(-2.10537080043319,-6.64660919512222,16.));
#1290=CARTESIAN_POINT('',(-5.50977970654303,-12.5432183902444,9.5));
#1291=CARTESIAN_POINT('',(-5.50977970654303,-12.5432183902444,16.));
#1292=CARTESIAN_POINT('',(-5.86179285169135,-13.1529230425735,9.5));
#1293=CARTESIAN_POINT('',(-5.50977970654303,-12.5432183902444,9.5));
#1294=CARTESIAN_POINT('',(-5.86179285169136,-13.1529230425735,4.5));
#1295=CARTESIAN_POINT('Origin',(0.,0.,16.));
#1296=CARTESIAN_POINT('',(-8.10785591789634,-11.0432183902444,16.));
#1297=CARTESIAN_POINT('Origin',(0.,0.,16.));
#1298=CARTESIAN_POINT('',(-8.10785591789634,-11.0432183902444,9.5));
#1299=CARTESIAN_POINT('',(-8.10785591789634,-11.0432183902444,16.));
#1300=CARTESIAN_POINT('Origin',(0.,0.,9.5));
#1301=CARTESIAN_POINT('Origin',(-8.45986906304467,-11.6529230425735,16.));
#1302=CARTESIAN_POINT('',(-8.45986906304467,-11.6529230425735,16.));
#1303=CARTESIAN_POINT('',(-4.87945358436067,-5.45146152128673,16.));
#1304=CARTESIAN_POINT('',(-8.45986906304467,-11.6529230425735,9.5));
#1305=CARTESIAN_POINT('',(-8.45986906304467,-11.6529230425735,4.5));
#1306=CARTESIAN_POINT('',(-8.45986906304467,-11.6529230425735,9.5));
#1307=CARTESIAN_POINT('Origin',(-6.98482438479385,-12.098070716409,9.5));
#1308=CARTESIAN_POINT('Origin',(0.,0.,9.5));
#1309=CARTESIAN_POINT('Origin',(0.,0.,4.5));
#1310=CARTESIAN_POINT('Origin',(0.,0.,16.));
#1311=CARTESIAN_POINT('',(-14.4,-1.76349139077219E-15,16.));
#1312=CARTESIAN_POINT('Origin',(0.,0.,16.));
#1313=CARTESIAN_POINT('',(-14.4,-1.76349139077219E-15,13.));
#1314=CARTESIAN_POINT('',(-14.4,-1.76349139077219E-15,4.5));
#1315=CARTESIAN_POINT('',(-14.321661914736,-1.49999999999967,13.));
#1316=CARTESIAN_POINT('Origin',(0.,0.,13.));
#1317=CARTESIAN_POINT('',(-14.321661914736,-1.49999999999967,4.5));
#1318=CARTESIAN_POINT('',(-14.321661914736,-1.49999999999967,4.5));
#1319=CARTESIAN_POINT('',(5.86179285169105,-13.1529230425736,4.5));
#1320=CARTESIAN_POINT('Origin',(0.,0.,4.5));
#1321=CARTESIAN_POINT('',(5.86179285169105,-13.1529230425736,13.));
#1322=CARTESIAN_POINT('',(5.86179285169105,-13.1529230425736,4.5));
#1323=CARTESIAN_POINT('',(8.4598690630444,-11.6529230425737,13.));
#1324=CARTESIAN_POINT('Origin',(0.,0.,13.));
#1325=CARTESIAN_POINT('',(8.4598690630444,-11.6529230425737,4.5));
#1326=CARTESIAN_POINT('',(8.4598690630444,-11.6529230425737,4.5));
#1327=CARTESIAN_POINT('',(8.45986906304493,11.6529230425733,4.5));
#1328=CARTESIAN_POINT('Origin',(0.,0.,4.5));
#1329=CARTESIAN_POINT('',(8.45986906304493,11.6529230425733,13.));
#1330=CARTESIAN_POINT('',(8.45986906304493,11.6529230425733,4.5));
#1331=CARTESIAN_POINT('',(5.86179285169165,13.1529230425733,13.));
#1332=CARTESIAN_POINT('Origin',(0.,0.,13.));
#1333=CARTESIAN_POINT('',(5.86179285169165,13.1529230425733,4.5));
#1334=CARTESIAN_POINT('',(5.86179285169165,13.1529230425733,4.5));
#1335=CARTESIAN_POINT('',(-14.321661914736,1.50000000000033,4.5));
#1336=CARTESIAN_POINT('Origin',(0.,0.,4.5));
#1337=CARTESIAN_POINT('',(-14.321661914736,1.50000000000033,13.));
#1338=CARTESIAN_POINT('',(-14.321661914736,1.50000000000033,4.5));
#1339=CARTESIAN_POINT('Origin',(0.,0.,13.));
#1340=CARTESIAN_POINT('Origin',(0.,0.,16.));
#1341=CARTESIAN_POINT('Origin',(0.,0.,16.));
#1342=CARTESIAN_POINT('Origin',(7.8059574996759,10.5203149911613,4.5));
#1343=CARTESIAN_POINT('',(7.8059574996759,10.5203149911613,4.5));
#1344=CARTESIAN_POINT('',(4.55249780267642,4.88515749558058,4.5));
#1345=CARTESIAN_POINT('',(7.8059574996759,10.5203149911613,13.));
#1346=CARTESIAN_POINT('',(7.8059574996759,10.5203149911613,4.5));
#1347=CARTESIAN_POINT('',(8.45986906304493,11.6529230425733,13.));
#1348=CARTESIAN_POINT('Origin',(5.86179285169165,13.1529230425733,4.5));
#1349=CARTESIAN_POINT('',(5.20788128832262,12.0203149911614,4.5));
#1350=CARTESIAN_POINT('',(2.28137737300764,6.95146152128658,4.5));
#1351=CARTESIAN_POINT('',(5.20788128832262,12.0203149911614,13.));
#1352=CARTESIAN_POINT('',(5.20788128832262,12.0203149911614,13.));
#1353=CARTESIAN_POINT('',(5.20788128832262,12.0203149911614,4.5));
#1354=CARTESIAN_POINT('Origin',(6.83387517568378,11.8366190168673,13.));
#1355=CARTESIAN_POINT('Origin',(0.,0.,13.));
#1356=CARTESIAN_POINT('Origin',(-13.0138387879979,1.50000000000033,4.5));
#1357=CARTESIAN_POINT('',(-13.0138387879979,1.50000000000033,4.5));
#1358=CARTESIAN_POINT('',(-6.50691939399896,1.50000000000033,4.5));
#1359=CARTESIAN_POINT('',(-13.0138387879979,1.50000000000033,13.));
#1360=CARTESIAN_POINT('',(-13.0138387879979,1.50000000000033,4.5));
#1361=CARTESIAN_POINT('',(-14.321661914736,1.50000000000033,13.));
#1362=CARTESIAN_POINT('Origin',(-14.321661914736,-1.49999999999967,4.5));
#1363=CARTESIAN_POINT('',(-13.013838787998,-1.49999999999967,4.5));
#1364=CARTESIAN_POINT('',(-7.16083095736802,-1.49999999999967,4.5));
#1365=CARTESIAN_POINT('',(-13.013838787998,-1.49999999999967,13.));
#1366=CARTESIAN_POINT('',(-13.013838787998,-1.49999999999967,13.));
#1367=CARTESIAN_POINT('',(-13.013838787998,-1.49999999999967,4.5));
#1368=CARTESIAN_POINT('Origin',(-13.706919393999,3.30291349825984E-13,13.));
#1369=CARTESIAN_POINT('',(-13.1,-1.60428730688303E-15,13.));
#1370=CARTESIAN_POINT('Origin',(0.,0.,13.));
#1371=CARTESIAN_POINT('Origin',(0.,0.,13.));
#1372=CARTESIAN_POINT('Origin',(5.20788128832202,-12.0203149911616,4.5));
#1373=CARTESIAN_POINT('',(5.20788128832202,-12.0203149911616,4.5));
#1374=CARTESIAN_POINT('',(1.95442159132254,-6.38515749558091,4.5));
#1375=CARTESIAN_POINT('',(5.20788128832202,-12.0203149911616,13.));
#1376=CARTESIAN_POINT('',(5.20788128832202,-12.0203149911616,4.5));
#1377=CARTESIAN_POINT('',(5.86179285169105,-13.1529230425736,13.));
#1378=CARTESIAN_POINT('Origin',(8.4598690630444,-11.6529230425737,4.5));
#1379=CARTESIAN_POINT('',(7.80595749967537,-10.5203149911617,4.5));
#1380=CARTESIAN_POINT('',(4.87945358436038,-5.45146152128691,4.5));
#1381=CARTESIAN_POINT('',(7.80595749967537,-10.5203149911617,13.));
#1382=CARTESIAN_POINT('',(7.80595749967537,-10.5203149911617,13.));
#1383=CARTESIAN_POINT('',(7.80595749967537,-10.5203149911617,4.5));
#1384=CARTESIAN_POINT('Origin',(6.83387517568321,-11.8366190168677,13.));
#1385=CARTESIAN_POINT('Origin',(0.,0.,13.));
#1386=CARTESIAN_POINT('Origin',(0.,0.,4.5));
#1387=CARTESIAN_POINT('Origin',(0.,0.,4.5));
#1388=CARTESIAN_POINT('Origin',(0.,0.,4.5));
#1389=CARTESIAN_POINT('Origin',(0.,0.,4.5));
#1390=CARTESIAN_POINT('Origin',(0.,0.,4.5));
#1391=CARTESIAN_POINT('Origin',(0.,0.,4.5));
#1392=CARTESIAN_POINT('Origin',(0.,0.,4.5));
#1393=CARTESIAN_POINT('',(-13.1,-1.60428730688303E-15,16.));
#1394=CARTESIAN_POINT('Origin',(0.,0.,16.));
#1395=CARTESIAN_POINT('',(-13.1,-1.60428730688303E-15,4.5));
#1396=CARTESIAN_POINT('Origin',(0.,0.,16.));
#1397=UNCERTAINTY_MEASURE_WITH_UNIT(LENGTH_MEASURE(0.01),#1401,
'DISTANCE_ACCURACY_VALUE',
'Maximum model space distance between geometric entities at asserted c
onnectivities');
#1398=UNCERTAINTY_MEASURE_WITH_UNIT(LENGTH_MEASURE(0.01),#1401,
'DISTANCE_ACCURACY_VALUE',
'Maximum model space distance between geometric entities at asserted c
onnectivities');
#1399=(
GEOMETRIC_REPRESENTATION_CONTEXT(3)
GLOBAL_UNCERTAINTY_ASSIGNED_CONTEXT((#1397))
GLOBAL_UNIT_ASSIGNED_CONTEXT((#1401,#1403,#1404))
REPRESENTATION_CONTEXT('','3D')
);
#1400=(
GEOMETRIC_REPRESENTATION_CONTEXT(3)
GLOBAL_UNCERTAINTY_ASSIGNED_CONTEXT((#1398))
GLOBAL_UNIT_ASSIGNED_CONTEXT((#1401,#1403,#1404))
REPRESENTATION_CONTEXT('','3D')
);
#1401=(
LENGTH_UNIT()
NAMED_UNIT(*)
SI_UNIT(.MILLI.,.METRE.)
);
#1402=(
LENGTH_UNIT()
NAMED_UNIT(*)
SI_UNIT($,.METRE.)
);
#1403=(
NAMED_UNIT(*)
PLANE_ANGLE_UNIT()
SI_UNIT($,.RADIAN.)
);
#1404=(
NAMED_UNIT(*)
SI_UNIT($,.STERADIAN.)
SOLID_ANGLE_UNIT()
);
#1405=SHAPE_DEFINITION_REPRESENTATION(#1406,#1407);
#1406=PRODUCT_DEFINITION_SHAPE('',$,#1409);
#1407=SHAPE_REPRESENTATION('',(#817),#1399);
#1408=PRODUCT_DEFINITION_CONTEXT('part definition',#1413,'design');
#1409=PRODUCT_DEFINITION('Soundwell EC350302X2A-HA1',
'Soundwell EC350302X2A-HA1 v6',#1410,#1408);
#1410=PRODUCT_DEFINITION_FORMATION('',$,#1415);
#1411=PRODUCT_RELATED_PRODUCT_CATEGORY('Soundwell EC350302X2A-HA1 v6',
'Soundwell EC350302X2A-HA1 v6',(#1415));
#1412=APPLICATION_PROTOCOL_DEFINITION('international standard',
'automotive_design',2009,#1413);
#1413=APPLICATION_CONTEXT(
'Core Data for Automotive Mechanical Design Process');
#1414=PRODUCT_CONTEXT('part definition',#1413,'mechanical');
#1415=PRODUCT('Soundwell EC350302X2A-HA1',
'Soundwell EC350302X2A-HA1 v6',$,(#1414));
#1416=PRESENTATION_STYLE_ASSIGNMENT((#1419));
#1417=PRESENTATION_STYLE_ASSIGNMENT((#1420));
#1418=PRESENTATION_STYLE_ASSIGNMENT((#1421));
#1419=SURFACE_STYLE_USAGE(.BOTH.,#1422);
#1420=SURFACE_STYLE_USAGE(.BOTH.,#1423);
#1421=SURFACE_STYLE_USAGE(.BOTH.,#1424);
#1422=SURFACE_SIDE_STYLE('',(#1425));
#1423=SURFACE_SIDE_STYLE('',(#1426));
#1424=SURFACE_SIDE_STYLE('',(#1427));
#1425=SURFACE_STYLE_FILL_AREA(#1428);
#1426=SURFACE_STYLE_FILL_AREA(#1429);
#1427=SURFACE_STYLE_FILL_AREA(#1430);
#1428=FILL_AREA_STYLE('Steel - Satin',(#1431));
#1429=FILL_AREA_STYLE('Plastic - Matte (White)',(#1432));
#1430=FILL_AREA_STYLE('Plastic - Glossy (Black)',(#1433));
#1431=FILL_AREA_STYLE_COLOUR('Steel - Satin',#1434);
#1432=FILL_AREA_STYLE_COLOUR('Plastic - Matte (White)',#1435);
#1433=FILL_AREA_STYLE_COLOUR('Plastic - Glossy (Black)',#1436);
#1434=COLOUR_RGB('Steel - Satin',0.627450980392157,0.627450980392157,0.627450980392157);
#1435=COLOUR_RGB('Plastic - Matte (White)',0.964705882352941,0.964705882352941,
0.952941176470588);
#1436=COLOUR_RGB('Plastic - Glossy (Black)',0.0980392156862745,0.0980392156862745,
0.0980392156862745);
ENDSEC;
END-ISO-10303-21;
