ISO-10303-21;
HEADER;
/* Generated by software containing ST-Developer
 * from STEP Tools, Inc. (www.steptools.com) 
 */

FILE_DESCRIPTION(
/* description */ ('',
'CAx-IF Rec.Pracs.---Representation and Presentation of Product Manufa
cturing Information (PMI)---4.0---2014-10-13'),
/* implementation_level */ '2;1');

FILE_NAME(
/* name */ 'Y Axis Carriage.step',
/* time_stamp */ '2024-12-26T20:05:33+01:00',
/* author */ (''),
/* organization */ (''),
/* preprocessor_version */ 'ST-DEVELOPER v20',
/* originating_system */ 'Autodesk Translation Framework v13.20.0.188',

/* authorisation */ '');

FILE_SCHEMA (('AP242_MANAGED_MODEL_BASED_3D_ENGINEERING_MIM_LF { 1 0 10303 442 1 1 4 }'));
ENDSEC;

DATA;
#10=MECHANICAL_DESIGN_GEOMETRIC_PRESENTATION_REPRESENTATION('',(#13),#1253);
#11=SHAPE_REPRESENTATION_RELATIONSHIP('SRR','None',#1260,#12);
#12=ADVANCED_BREP_SHAPE_REPRESENTATION('',(#14),#1252);
#13=STYLED_ITEM('',(#1269),#14);
#14=MANIFOLD_SOLID_BREP('Plate',#737);
#15=FACE_BOUND('',#113,.T.);
#16=FACE_BOUND('',#114,.T.);
#17=FACE_BOUND('',#115,.T.);
#18=FACE_BOUND('',#116,.T.);
#19=FACE_BOUND('',#117,.T.);
#20=FACE_BOUND('',#118,.T.);
#21=FACE_BOUND('',#119,.T.);
#22=FACE_BOUND('',#120,.T.);
#23=FACE_BOUND('',#121,.T.);
#24=FACE_BOUND('',#122,.T.);
#25=FACE_BOUND('',#133,.T.);
#26=FACE_BOUND('',#134,.T.);
#27=FACE_BOUND('',#135,.T.);
#28=FACE_BOUND('',#136,.T.);
#29=FACE_BOUND('',#137,.T.);
#30=FACE_BOUND('',#138,.T.);
#31=FACE_BOUND('',#139,.T.);
#32=FACE_BOUND('',#140,.T.);
#33=FACE_BOUND('',#141,.T.);
#34=FACE_BOUND('',#142,.T.);
#35=PLANE('',#754);
#36=PLANE('',#755);
#37=PLANE('',#756);
#38=PLANE('',#757);
#39=PLANE('',#758);
#40=PLANE('',#762);
#41=PLANE('',#781);
#42=PLANE('',#785);
#43=PLANE('',#786);
#44=PLANE('',#787);
#45=PLANE('',#788);
#46=PLANE('',#789);
#47=PLANE('',#799);
#48=PLANE('',#800);
#49=PLANE('',#825);
#50=PLANE('',#826);
#51=FACE_OUTER_BOUND('',#87,.T.);
#52=FACE_OUTER_BOUND('',#88,.T.);
#53=FACE_OUTER_BOUND('',#89,.T.);
#54=FACE_OUTER_BOUND('',#90,.T.);
#55=FACE_OUTER_BOUND('',#91,.T.);
#56=FACE_OUTER_BOUND('',#92,.T.);
#57=FACE_OUTER_BOUND('',#93,.T.);
#58=FACE_OUTER_BOUND('',#94,.T.);
#59=FACE_OUTER_BOUND('',#95,.T.);
#60=FACE_OUTER_BOUND('',#96,.T.);
#61=FACE_OUTER_BOUND('',#97,.T.);
#62=FACE_OUTER_BOUND('',#98,.T.);
#63=FACE_OUTER_BOUND('',#99,.T.);
#64=FACE_OUTER_BOUND('',#100,.T.);
#65=FACE_OUTER_BOUND('',#101,.T.);
#66=FACE_OUTER_BOUND('',#102,.T.);
#67=FACE_OUTER_BOUND('',#103,.T.);
#68=FACE_OUTER_BOUND('',#104,.T.);
#69=FACE_OUTER_BOUND('',#105,.T.);
#70=FACE_OUTER_BOUND('',#106,.T.);
#71=FACE_OUTER_BOUND('',#107,.T.);
#72=FACE_OUTER_BOUND('',#108,.T.);
#73=FACE_OUTER_BOUND('',#109,.T.);
#74=FACE_OUTER_BOUND('',#110,.T.);
#75=FACE_OUTER_BOUND('',#111,.T.);
#76=FACE_OUTER_BOUND('',#112,.T.);
#77=FACE_OUTER_BOUND('',#123,.T.);
#78=FACE_OUTER_BOUND('',#124,.T.);
#79=FACE_OUTER_BOUND('',#125,.T.);
#80=FACE_OUTER_BOUND('',#126,.T.);
#81=FACE_OUTER_BOUND('',#127,.T.);
#82=FACE_OUTER_BOUND('',#128,.T.);
#83=FACE_OUTER_BOUND('',#129,.T.);
#84=FACE_OUTER_BOUND('',#130,.T.);
#85=FACE_OUTER_BOUND('',#131,.T.);
#86=FACE_OUTER_BOUND('',#132,.T.);
#87=EDGE_LOOP('',(#477,#478,#479,#480));
#88=EDGE_LOOP('',(#481,#482,#483,#484));
#89=EDGE_LOOP('',(#485,#486,#487,#488));
#90=EDGE_LOOP('',(#489,#490,#491,#492));
#91=EDGE_LOOP('',(#493,#494,#495,#496));
#92=EDGE_LOOP('',(#497,#498,#499,#500));
#93=EDGE_LOOP('',(#501,#502,#503,#504));
#94=EDGE_LOOP('',(#505,#506,#507,#508));
#95=EDGE_LOOP('',(#509,#510,#511,#512));
#96=EDGE_LOOP('',(#513,#514,#515,#516));
#97=EDGE_LOOP('',(#517,#518,#519,#520));
#98=EDGE_LOOP('',(#521,#522,#523,#524));
#99=EDGE_LOOP('',(#525,#526,#527,#528));
#100=EDGE_LOOP('',(#529,#530,#531,#532));
#101=EDGE_LOOP('',(#533,#534,#535,#536));
#102=EDGE_LOOP('',(#537,#538,#539,#540));
#103=EDGE_LOOP('',(#541,#542,#543,#544));
#104=EDGE_LOOP('',(#545,#546,#547,#548));
#105=EDGE_LOOP('',(#549,#550,#551,#552));
#106=EDGE_LOOP('',(#553,#554,#555,#556));
#107=EDGE_LOOP('',(#557,#558,#559,#560));
#108=EDGE_LOOP('',(#561,#562,#563,#564));
#109=EDGE_LOOP('',(#565,#566,#567,#568));
#110=EDGE_LOOP('',(#569,#570,#571,#572));
#111=EDGE_LOOP('',(#573,#574,#575,#576));
#112=EDGE_LOOP('',(#577,#578,#579,#580,#581,#582,#583,#584,#585,#586,#587,
#588,#589,#590,#591,#592,#593,#594,#595,#596,#597,#598,#599,#600));
#113=EDGE_LOOP('',(#601));
#114=EDGE_LOOP('',(#602));
#115=EDGE_LOOP('',(#603));
#116=EDGE_LOOP('',(#604));
#117=EDGE_LOOP('',(#605));
#118=EDGE_LOOP('',(#606));
#119=EDGE_LOOP('',(#607));
#120=EDGE_LOOP('',(#608));
#121=EDGE_LOOP('',(#609));
#122=EDGE_LOOP('',(#610));
#123=EDGE_LOOP('',(#611,#612,#613,#614));
#124=EDGE_LOOP('',(#615,#616,#617,#618));
#125=EDGE_LOOP('',(#619,#620,#621,#622));
#126=EDGE_LOOP('',(#623,#624,#625,#626));
#127=EDGE_LOOP('',(#627,#628,#629,#630));
#128=EDGE_LOOP('',(#631,#632,#633,#634));
#129=EDGE_LOOP('',(#635,#636,#637,#638));
#130=EDGE_LOOP('',(#639,#640,#641,#642));
#131=EDGE_LOOP('',(#643,#644,#645,#646));
#132=EDGE_LOOP('',(#647,#648,#649,#650,#651,#652,#653,#654,#655,#656,#657,
#658,#659,#660,#661,#662,#663,#664,#665,#666,#667,#668,#669,#670));
#133=EDGE_LOOP('',(#671));
#134=EDGE_LOOP('',(#672));
#135=EDGE_LOOP('',(#673));
#136=EDGE_LOOP('',(#674));
#137=EDGE_LOOP('',(#675));
#138=EDGE_LOOP('',(#676));
#139=EDGE_LOOP('',(#677));
#140=EDGE_LOOP('',(#678));
#141=EDGE_LOOP('',(#679));
#142=EDGE_LOOP('',(#680));
#143=LINE('',#1048,#205);
#144=LINE('',#1053,#206);
#145=LINE('',#1055,#207);
#146=LINE('',#1057,#208);
#147=LINE('',#1058,#209);
#148=LINE('',#1061,#210);
#149=LINE('',#1063,#211);
#150=LINE('',#1064,#212);
#151=LINE('',#1067,#213);
#152=LINE('',#1069,#214);
#153=LINE('',#1070,#215);
#154=LINE('',#1074,#216);
#155=LINE('',#1076,#217);
#156=LINE('',#1078,#218);
#157=LINE('',#1079,#219);
#158=LINE('',#1081,#220);
#159=LINE('',#1082,#221);
#160=LINE('',#1087,#222);
#161=LINE('',#1091,#223);
#162=LINE('',#1093,#224);
#163=LINE('',#1094,#225);
#164=LINE('',#1099,#226);
#165=LINE('',#1106,#227);
#166=LINE('',#1109,#228);
#167=LINE('',#1115,#229);
#168=LINE('',#1120,#230);
#169=LINE('',#1127,#231);
#170=LINE('',#1130,#232);
#171=LINE('',#1135,#233);
#172=LINE('',#1136,#234);
#173=LINE('',#1141,#235);
#174=LINE('',#1146,#236);
#175=LINE('',#1148,#237);
#176=LINE('',#1150,#238);
#177=LINE('',#1151,#239);
#178=LINE('',#1154,#240);
#179=LINE('',#1156,#241);
#180=LINE('',#1157,#242);
#181=LINE('',#1160,#243);
#182=LINE('',#1162,#244);
#183=LINE('',#1163,#245);
#184=LINE('',#1167,#246);
#185=LINE('',#1169,#247);
#186=LINE('',#1171,#248);
#187=LINE('',#1172,#249);
#188=LINE('',#1174,#250);
#189=LINE('',#1175,#251);
#190=LINE('',#1180,#252);
#191=LINE('',#1186,#253);
#192=LINE('',#1192,#254);
#193=LINE('',#1196,#255);
#194=LINE('',#1198,#256);
#195=LINE('',#1199,#257);
#196=LINE('',#1207,#258);
#197=LINE('',#1219,#259);
#198=LINE('',#1224,#260);
#199=LINE('',#1228,#261);
#200=LINE('',#1232,#262);
#201=LINE('',#1235,#263);
#202=LINE('',#1240,#264);
#203=LINE('',#1244,#265);
#204=LINE('',#1248,#266);
#205=VECTOR('',#833,3.525);
#206=VECTOR('',#838,10.);
#207=VECTOR('',#839,10.);
#208=VECTOR('',#840,10.);
#209=VECTOR('',#841,10.);
#210=VECTOR('',#844,10.);
#211=VECTOR('',#845,10.);
#212=VECTOR('',#846,10.);
#213=VECTOR('',#849,10.);
#214=VECTOR('',#850,10.);
#215=VECTOR('',#851,10.);
#216=VECTOR('',#854,10.);
#217=VECTOR('',#855,10.);
#218=VECTOR('',#856,10.);
#219=VECTOR('',#857,10.);
#220=VECTOR('',#860,10.);
#221=VECTOR('',#861,10.);
#222=VECTOR('',#866,2.55);
#223=VECTOR('',#871,10.);
#224=VECTOR('',#872,10.);
#225=VECTOR('',#873,10.);
#226=VECTOR('',#878,2.05);
#227=VECTOR('',#885,10.);
#228=VECTOR('',#888,10.);
#229=VECTOR('',#895,10.);
#230=VECTOR('',#900,2.05);
#231=VECTOR('',#907,10.);
#232=VECTOR('',#910,10.);
#233=VECTOR('',#919,10.);
#234=VECTOR('',#920,10.);
#235=VECTOR('',#925,3.525);
#236=VECTOR('',#930,10.);
#237=VECTOR('',#931,10.);
#238=VECTOR('',#932,10.);
#239=VECTOR('',#933,10.);
#240=VECTOR('',#936,10.);
#241=VECTOR('',#937,10.);
#242=VECTOR('',#938,10.);
#243=VECTOR('',#941,10.);
#244=VECTOR('',#942,10.);
#245=VECTOR('',#943,10.);
#246=VECTOR('',#946,10.);
#247=VECTOR('',#947,10.);
#248=VECTOR('',#948,10.);
#249=VECTOR('',#949,10.);
#250=VECTOR('',#952,10.);
#251=VECTOR('',#953,10.);
#252=VECTOR('',#958,2.55);
#253=VECTOR('',#965,2.55);
#254=VECTOR('',#972,3.525);
#255=VECTOR('',#977,10.);
#256=VECTOR('',#978,10.);
#257=VECTOR('',#979,10.);
#258=VECTOR('',#988,10.);
#259=VECTOR('',#1001,2.05);
#260=VECTOR('',#1008,10.);
#261=VECTOR('',#1013,10.);
#262=VECTOR('',#1018,10.);
#263=VECTOR('',#1021,2.05);
#264=VECTOR('',#1028,10.);
#265=VECTOR('',#1033,10.);
#266=VECTOR('',#1040,10.);
#267=CIRCLE('',#752,3.525);
#268=CIRCLE('',#753,3.525);
#269=CIRCLE('',#760,2.55);
#270=CIRCLE('',#761,2.55);
#271=CIRCLE('',#764,2.05);
#272=CIRCLE('',#765,2.05);
#273=CIRCLE('',#767,12.4999999999122);
#274=CIRCLE('',#768,12.4999999999122);
#275=CIRCLE('',#770,96.5131578949389);
#276=CIRCLE('',#771,96.5131578949389);
#277=CIRCLE('',#773,2.05);
#278=CIRCLE('',#774,2.05);
#279=CIRCLE('',#776,12.4999999999122);
#280=CIRCLE('',#777,12.4999999999122);
#281=CIRCLE('',#779,96.5131578949389);
#282=CIRCLE('',#780,96.5131578949389);
#283=CIRCLE('',#783,3.525);
#284=CIRCLE('',#784,3.525);
#285=CIRCLE('',#791,2.55);
#286=CIRCLE('',#792,2.55);
#287=CIRCLE('',#794,2.55);
#288=CIRCLE('',#795,2.55);
#289=CIRCLE('',#797,3.525);
#290=CIRCLE('',#798,3.525);
#291=CIRCLE('',#801,527.583333336314);
#292=CIRCLE('',#802,12.4999999999122);
#293=CIRCLE('',#803,96.5131578949389);
#294=CIRCLE('',#804,96.5131578949389);
#295=CIRCLE('',#805,12.4999999999122);
#296=CIRCLE('',#806,527.583333336314);
#297=CIRCLE('',#807,2.05);
#298=CIRCLE('',#808,2.05);
#299=CIRCLE('',#810,2.05);
#300=CIRCLE('',#812,527.583333336314);
#301=CIRCLE('',#814,12.4999999999122);
#302=CIRCLE('',#816,96.5131578949389);
#303=CIRCLE('',#818,2.05);
#304=CIRCLE('',#820,527.583333336314);
#305=CIRCLE('',#822,12.4999999999122);
#306=CIRCLE('',#824,96.5131578949389);
#307=VERTEX_POINT('',#1045);
#308=VERTEX_POINT('',#1047);
#309=VERTEX_POINT('',#1051);
#310=VERTEX_POINT('',#1052);
#311=VERTEX_POINT('',#1054);
#312=VERTEX_POINT('',#1056);
#313=VERTEX_POINT('',#1060);
#314=VERTEX_POINT('',#1062);
#315=VERTEX_POINT('',#1066);
#316=VERTEX_POINT('',#1068);
#317=VERTEX_POINT('',#1072);
#318=VERTEX_POINT('',#1073);
#319=VERTEX_POINT('',#1075);
#320=VERTEX_POINT('',#1077);
#321=VERTEX_POINT('',#1084);
#322=VERTEX_POINT('',#1086);
#323=VERTEX_POINT('',#1090);
#324=VERTEX_POINT('',#1092);
#325=VERTEX_POINT('',#1096);
#326=VERTEX_POINT('',#1098);
#327=VERTEX_POINT('',#1102);
#328=VERTEX_POINT('',#1103);
#329=VERTEX_POINT('',#1105);
#330=VERTEX_POINT('',#1107);
#331=VERTEX_POINT('',#1111);
#332=VERTEX_POINT('',#1113);
#333=VERTEX_POINT('',#1117);
#334=VERTEX_POINT('',#1119);
#335=VERTEX_POINT('',#1123);
#336=VERTEX_POINT('',#1124);
#337=VERTEX_POINT('',#1126);
#338=VERTEX_POINT('',#1128);
#339=VERTEX_POINT('',#1138);
#340=VERTEX_POINT('',#1140);
#341=VERTEX_POINT('',#1144);
#342=VERTEX_POINT('',#1145);
#343=VERTEX_POINT('',#1147);
#344=VERTEX_POINT('',#1149);
#345=VERTEX_POINT('',#1153);
#346=VERTEX_POINT('',#1155);
#347=VERTEX_POINT('',#1159);
#348=VERTEX_POINT('',#1161);
#349=VERTEX_POINT('',#1165);
#350=VERTEX_POINT('',#1166);
#351=VERTEX_POINT('',#1168);
#352=VERTEX_POINT('',#1170);
#353=VERTEX_POINT('',#1177);
#354=VERTEX_POINT('',#1179);
#355=VERTEX_POINT('',#1183);
#356=VERTEX_POINT('',#1185);
#357=VERTEX_POINT('',#1189);
#358=VERTEX_POINT('',#1191);
#359=VERTEX_POINT('',#1195);
#360=VERTEX_POINT('',#1197);
#361=VERTEX_POINT('',#1201);
#362=VERTEX_POINT('',#1203);
#363=VERTEX_POINT('',#1205);
#364=VERTEX_POINT('',#1208);
#365=VERTEX_POINT('',#1210);
#366=VERTEX_POINT('',#1213);
#367=VERTEX_POINT('',#1215);
#368=VERTEX_POINT('',#1218);
#369=VERTEX_POINT('',#1222);
#370=VERTEX_POINT('',#1226);
#371=VERTEX_POINT('',#1230);
#372=VERTEX_POINT('',#1234);
#373=VERTEX_POINT('',#1238);
#374=VERTEX_POINT('',#1242);
#375=EDGE_CURVE('',#307,#307,#267,.T.);
#376=EDGE_CURVE('',#307,#308,#143,.T.);
#377=EDGE_CURVE('',#308,#308,#268,.T.);
#378=EDGE_CURVE('',#309,#310,#144,.T.);
#379=EDGE_CURVE('',#311,#310,#145,.T.);
#380=EDGE_CURVE('',#311,#312,#146,.T.);
#381=EDGE_CURVE('',#312,#309,#147,.T.);
#382=EDGE_CURVE('',#310,#313,#148,.T.);
#383=EDGE_CURVE('',#314,#313,#149,.T.);
#384=EDGE_CURVE('',#314,#311,#150,.T.);
#385=EDGE_CURVE('',#313,#315,#151,.T.);
#386=EDGE_CURVE('',#315,#316,#152,.T.);
#387=EDGE_CURVE('',#316,#314,#153,.T.);
#388=EDGE_CURVE('',#317,#318,#154,.T.);
#389=EDGE_CURVE('',#319,#318,#155,.T.);
#390=EDGE_CURVE('',#319,#320,#156,.T.);
#391=EDGE_CURVE('',#320,#317,#157,.T.);
#392=EDGE_CURVE('',#318,#309,#158,.T.);
#393=EDGE_CURVE('',#312,#319,#159,.T.);
#394=EDGE_CURVE('',#321,#321,#269,.T.);
#395=EDGE_CURVE('',#321,#322,#160,.T.);
#396=EDGE_CURVE('',#322,#322,#270,.T.);
#397=EDGE_CURVE('',#323,#320,#161,.T.);
#398=EDGE_CURVE('',#324,#323,#162,.T.);
#399=EDGE_CURVE('',#317,#324,#163,.T.);
#400=EDGE_CURVE('',#325,#325,#271,.T.);
#401=EDGE_CURVE('',#325,#326,#164,.T.);
#402=EDGE_CURVE('',#326,#326,#272,.T.);
#403=EDGE_CURVE('',#327,#328,#273,.T.);
#404=EDGE_CURVE('',#328,#329,#165,.T.);
#405=EDGE_CURVE('',#330,#329,#274,.T.);
#406=EDGE_CURVE('',#327,#330,#166,.T.);
#407=EDGE_CURVE('',#327,#331,#275,.T.);
#408=EDGE_CURVE('',#332,#330,#276,.T.);
#409=EDGE_CURVE('',#331,#332,#167,.T.);
#410=EDGE_CURVE('',#333,#333,#277,.T.);
#411=EDGE_CURVE('',#333,#334,#168,.T.);
#412=EDGE_CURVE('',#334,#334,#278,.T.);
#413=EDGE_CURVE('',#335,#336,#279,.T.);
#414=EDGE_CURVE('',#335,#337,#169,.T.);
#415=EDGE_CURVE('',#337,#338,#280,.T.);
#416=EDGE_CURVE('',#336,#338,#170,.T.);
#417=EDGE_CURVE('',#335,#324,#281,.T.);
#418=EDGE_CURVE('',#323,#337,#282,.T.);
#419=EDGE_CURVE('',#331,#315,#171,.T.);
#420=EDGE_CURVE('',#316,#332,#172,.T.);
#421=EDGE_CURVE('',#339,#339,#283,.T.);
#422=EDGE_CURVE('',#339,#340,#173,.T.);
#423=EDGE_CURVE('',#340,#340,#284,.T.);
#424=EDGE_CURVE('',#341,#342,#174,.T.);
#425=EDGE_CURVE('',#343,#341,#175,.T.);
#426=EDGE_CURVE('',#344,#343,#176,.T.);
#427=EDGE_CURVE('',#344,#342,#177,.T.);
#428=EDGE_CURVE('',#342,#345,#178,.T.);
#429=EDGE_CURVE('',#346,#344,#179,.T.);
#430=EDGE_CURVE('',#346,#345,#180,.T.);
#431=EDGE_CURVE('',#345,#347,#181,.T.);
#432=EDGE_CURVE('',#348,#346,#182,.T.);
#433=EDGE_CURVE('',#347,#348,#183,.T.);
#434=EDGE_CURVE('',#349,#350,#184,.T.);
#435=EDGE_CURVE('',#351,#349,#185,.T.);
#436=EDGE_CURVE('',#352,#351,#186,.T.);
#437=EDGE_CURVE('',#352,#350,#187,.T.);
#438=EDGE_CURVE('',#350,#341,#188,.T.);
#439=EDGE_CURVE('',#343,#352,#189,.T.);
#440=EDGE_CURVE('',#353,#353,#285,.T.);
#441=EDGE_CURVE('',#353,#354,#190,.T.);
#442=EDGE_CURVE('',#354,#354,#286,.T.);
#443=EDGE_CURVE('',#355,#355,#287,.T.);
#444=EDGE_CURVE('',#355,#356,#191,.T.);
#445=EDGE_CURVE('',#356,#356,#288,.T.);
#446=EDGE_CURVE('',#357,#357,#289,.T.);
#447=EDGE_CURVE('',#357,#358,#192,.T.);
#448=EDGE_CURVE('',#358,#358,#290,.T.);
#449=EDGE_CURVE('',#349,#359,#193,.T.);
#450=EDGE_CURVE('',#359,#360,#194,.T.);
#451=EDGE_CURVE('',#360,#351,#195,.T.);
#452=EDGE_CURVE('',#361,#329,#291,.T.);
#453=EDGE_CURVE('',#362,#361,#292,.T.);
#454=EDGE_CURVE('',#363,#362,#293,.T.);
#455=EDGE_CURVE('',#348,#363,#196,.T.);
#456=EDGE_CURVE('',#360,#364,#294,.T.);
#457=EDGE_CURVE('',#364,#365,#295,.T.);
#458=EDGE_CURVE('',#365,#338,#296,.T.);
#459=EDGE_CURVE('',#366,#366,#297,.T.);
#460=EDGE_CURVE('',#367,#367,#298,.T.);
#461=EDGE_CURVE('',#367,#368,#197,.T.);
#462=EDGE_CURVE('',#368,#368,#299,.T.);
#463=EDGE_CURVE('',#369,#328,#300,.T.);
#464=EDGE_CURVE('',#369,#361,#198,.T.);
#465=EDGE_CURVE('',#370,#369,#301,.T.);
#466=EDGE_CURVE('',#370,#362,#199,.T.);
#467=EDGE_CURVE('',#370,#371,#302,.T.);
#468=EDGE_CURVE('',#371,#363,#200,.T.);
#469=EDGE_CURVE('',#366,#372,#201,.T.);
#470=EDGE_CURVE('',#372,#372,#303,.T.);
#471=EDGE_CURVE('',#336,#373,#304,.T.);
#472=EDGE_CURVE('',#373,#365,#202,.T.);
#473=EDGE_CURVE('',#374,#373,#305,.T.);
#474=EDGE_CURVE('',#374,#364,#203,.T.);
#475=EDGE_CURVE('',#374,#359,#306,.T.);
#476=EDGE_CURVE('',#371,#347,#204,.T.);
#477=ORIENTED_EDGE('',*,*,#375,.T.);
#478=ORIENTED_EDGE('',*,*,#376,.T.);
#479=ORIENTED_EDGE('',*,*,#377,.T.);
#480=ORIENTED_EDGE('',*,*,#376,.F.);
#481=ORIENTED_EDGE('',*,*,#378,.T.);
#482=ORIENTED_EDGE('',*,*,#379,.F.);
#483=ORIENTED_EDGE('',*,*,#380,.T.);
#484=ORIENTED_EDGE('',*,*,#381,.T.);
#485=ORIENTED_EDGE('',*,*,#382,.T.);
#486=ORIENTED_EDGE('',*,*,#383,.F.);
#487=ORIENTED_EDGE('',*,*,#384,.T.);
#488=ORIENTED_EDGE('',*,*,#379,.T.);
#489=ORIENTED_EDGE('',*,*,#385,.T.);
#490=ORIENTED_EDGE('',*,*,#386,.T.);
#491=ORIENTED_EDGE('',*,*,#387,.T.);
#492=ORIENTED_EDGE('',*,*,#383,.T.);
#493=ORIENTED_EDGE('',*,*,#388,.T.);
#494=ORIENTED_EDGE('',*,*,#389,.F.);
#495=ORIENTED_EDGE('',*,*,#390,.T.);
#496=ORIENTED_EDGE('',*,*,#391,.T.);
#497=ORIENTED_EDGE('',*,*,#392,.T.);
#498=ORIENTED_EDGE('',*,*,#381,.F.);
#499=ORIENTED_EDGE('',*,*,#393,.T.);
#500=ORIENTED_EDGE('',*,*,#389,.T.);
#501=ORIENTED_EDGE('',*,*,#394,.T.);
#502=ORIENTED_EDGE('',*,*,#395,.T.);
#503=ORIENTED_EDGE('',*,*,#396,.T.);
#504=ORIENTED_EDGE('',*,*,#395,.F.);
#505=ORIENTED_EDGE('',*,*,#391,.F.);
#506=ORIENTED_EDGE('',*,*,#397,.F.);
#507=ORIENTED_EDGE('',*,*,#398,.F.);
#508=ORIENTED_EDGE('',*,*,#399,.F.);
#509=ORIENTED_EDGE('',*,*,#400,.F.);
#510=ORIENTED_EDGE('',*,*,#401,.T.);
#511=ORIENTED_EDGE('',*,*,#402,.T.);
#512=ORIENTED_EDGE('',*,*,#401,.F.);
#513=ORIENTED_EDGE('',*,*,#403,.T.);
#514=ORIENTED_EDGE('',*,*,#404,.T.);
#515=ORIENTED_EDGE('',*,*,#405,.F.);
#516=ORIENTED_EDGE('',*,*,#406,.F.);
#517=ORIENTED_EDGE('',*,*,#407,.F.);
#518=ORIENTED_EDGE('',*,*,#406,.T.);
#519=ORIENTED_EDGE('',*,*,#408,.F.);
#520=ORIENTED_EDGE('',*,*,#409,.F.);
#521=ORIENTED_EDGE('',*,*,#410,.T.);
#522=ORIENTED_EDGE('',*,*,#411,.T.);
#523=ORIENTED_EDGE('',*,*,#412,.F.);
#524=ORIENTED_EDGE('',*,*,#411,.F.);
#525=ORIENTED_EDGE('',*,*,#413,.F.);
#526=ORIENTED_EDGE('',*,*,#414,.T.);
#527=ORIENTED_EDGE('',*,*,#415,.T.);
#528=ORIENTED_EDGE('',*,*,#416,.F.);
#529=ORIENTED_EDGE('',*,*,#417,.T.);
#530=ORIENTED_EDGE('',*,*,#398,.T.);
#531=ORIENTED_EDGE('',*,*,#418,.T.);
#532=ORIENTED_EDGE('',*,*,#414,.F.);
#533=ORIENTED_EDGE('',*,*,#386,.F.);
#534=ORIENTED_EDGE('',*,*,#419,.F.);
#535=ORIENTED_EDGE('',*,*,#409,.T.);
#536=ORIENTED_EDGE('',*,*,#420,.F.);
#537=ORIENTED_EDGE('',*,*,#421,.F.);
#538=ORIENTED_EDGE('',*,*,#422,.T.);
#539=ORIENTED_EDGE('',*,*,#423,.F.);
#540=ORIENTED_EDGE('',*,*,#422,.F.);
#541=ORIENTED_EDGE('',*,*,#424,.F.);
#542=ORIENTED_EDGE('',*,*,#425,.F.);
#543=ORIENTED_EDGE('',*,*,#426,.F.);
#544=ORIENTED_EDGE('',*,*,#427,.T.);
#545=ORIENTED_EDGE('',*,*,#428,.F.);
#546=ORIENTED_EDGE('',*,*,#427,.F.);
#547=ORIENTED_EDGE('',*,*,#429,.F.);
#548=ORIENTED_EDGE('',*,*,#430,.T.);
#549=ORIENTED_EDGE('',*,*,#431,.F.);
#550=ORIENTED_EDGE('',*,*,#430,.F.);
#551=ORIENTED_EDGE('',*,*,#432,.F.);
#552=ORIENTED_EDGE('',*,*,#433,.F.);
#553=ORIENTED_EDGE('',*,*,#434,.F.);
#554=ORIENTED_EDGE('',*,*,#435,.F.);
#555=ORIENTED_EDGE('',*,*,#436,.F.);
#556=ORIENTED_EDGE('',*,*,#437,.T.);
#557=ORIENTED_EDGE('',*,*,#438,.F.);
#558=ORIENTED_EDGE('',*,*,#437,.F.);
#559=ORIENTED_EDGE('',*,*,#439,.F.);
#560=ORIENTED_EDGE('',*,*,#425,.T.);
#561=ORIENTED_EDGE('',*,*,#440,.T.);
#562=ORIENTED_EDGE('',*,*,#441,.T.);
#563=ORIENTED_EDGE('',*,*,#442,.T.);
#564=ORIENTED_EDGE('',*,*,#441,.F.);
#565=ORIENTED_EDGE('',*,*,#443,.F.);
#566=ORIENTED_EDGE('',*,*,#444,.T.);
#567=ORIENTED_EDGE('',*,*,#445,.F.);
#568=ORIENTED_EDGE('',*,*,#444,.F.);
#569=ORIENTED_EDGE('',*,*,#446,.T.);
#570=ORIENTED_EDGE('',*,*,#447,.T.);
#571=ORIENTED_EDGE('',*,*,#448,.F.);
#572=ORIENTED_EDGE('',*,*,#447,.F.);
#573=ORIENTED_EDGE('',*,*,#435,.T.);
#574=ORIENTED_EDGE('',*,*,#449,.T.);
#575=ORIENTED_EDGE('',*,*,#450,.T.);
#576=ORIENTED_EDGE('',*,*,#451,.T.);
#577=ORIENTED_EDGE('',*,*,#452,.F.);
#578=ORIENTED_EDGE('',*,*,#453,.F.);
#579=ORIENTED_EDGE('',*,*,#454,.F.);
#580=ORIENTED_EDGE('',*,*,#455,.F.);
#581=ORIENTED_EDGE('',*,*,#432,.T.);
#582=ORIENTED_EDGE('',*,*,#429,.T.);
#583=ORIENTED_EDGE('',*,*,#426,.T.);
#584=ORIENTED_EDGE('',*,*,#439,.T.);
#585=ORIENTED_EDGE('',*,*,#436,.T.);
#586=ORIENTED_EDGE('',*,*,#451,.F.);
#587=ORIENTED_EDGE('',*,*,#456,.T.);
#588=ORIENTED_EDGE('',*,*,#457,.T.);
#589=ORIENTED_EDGE('',*,*,#458,.T.);
#590=ORIENTED_EDGE('',*,*,#415,.F.);
#591=ORIENTED_EDGE('',*,*,#418,.F.);
#592=ORIENTED_EDGE('',*,*,#397,.T.);
#593=ORIENTED_EDGE('',*,*,#390,.F.);
#594=ORIENTED_EDGE('',*,*,#393,.F.);
#595=ORIENTED_EDGE('',*,*,#380,.F.);
#596=ORIENTED_EDGE('',*,*,#384,.F.);
#597=ORIENTED_EDGE('',*,*,#387,.F.);
#598=ORIENTED_EDGE('',*,*,#420,.T.);
#599=ORIENTED_EDGE('',*,*,#408,.T.);
#600=ORIENTED_EDGE('',*,*,#405,.T.);
#601=ORIENTED_EDGE('',*,*,#446,.F.);
#602=ORIENTED_EDGE('',*,*,#375,.F.);
#603=ORIENTED_EDGE('',*,*,#394,.F.);
#604=ORIENTED_EDGE('',*,*,#400,.T.);
#605=ORIENTED_EDGE('',*,*,#410,.F.);
#606=ORIENTED_EDGE('',*,*,#459,.T.);
#607=ORIENTED_EDGE('',*,*,#460,.F.);
#608=ORIENTED_EDGE('',*,*,#443,.T.);
#609=ORIENTED_EDGE('',*,*,#421,.T.);
#610=ORIENTED_EDGE('',*,*,#440,.F.);
#611=ORIENTED_EDGE('',*,*,#460,.T.);
#612=ORIENTED_EDGE('',*,*,#461,.T.);
#613=ORIENTED_EDGE('',*,*,#462,.F.);
#614=ORIENTED_EDGE('',*,*,#461,.F.);
#615=ORIENTED_EDGE('',*,*,#463,.F.);
#616=ORIENTED_EDGE('',*,*,#464,.T.);
#617=ORIENTED_EDGE('',*,*,#452,.T.);
#618=ORIENTED_EDGE('',*,*,#404,.F.);
#619=ORIENTED_EDGE('',*,*,#465,.F.);
#620=ORIENTED_EDGE('',*,*,#466,.T.);
#621=ORIENTED_EDGE('',*,*,#453,.T.);
#622=ORIENTED_EDGE('',*,*,#464,.F.);
#623=ORIENTED_EDGE('',*,*,#467,.T.);
#624=ORIENTED_EDGE('',*,*,#468,.T.);
#625=ORIENTED_EDGE('',*,*,#454,.T.);
#626=ORIENTED_EDGE('',*,*,#466,.F.);
#627=ORIENTED_EDGE('',*,*,#459,.F.);
#628=ORIENTED_EDGE('',*,*,#469,.T.);
#629=ORIENTED_EDGE('',*,*,#470,.T.);
#630=ORIENTED_EDGE('',*,*,#469,.F.);
#631=ORIENTED_EDGE('',*,*,#471,.F.);
#632=ORIENTED_EDGE('',*,*,#416,.T.);
#633=ORIENTED_EDGE('',*,*,#458,.F.);
#634=ORIENTED_EDGE('',*,*,#472,.F.);
#635=ORIENTED_EDGE('',*,*,#473,.T.);
#636=ORIENTED_EDGE('',*,*,#472,.T.);
#637=ORIENTED_EDGE('',*,*,#457,.F.);
#638=ORIENTED_EDGE('',*,*,#474,.F.);
#639=ORIENTED_EDGE('',*,*,#475,.F.);
#640=ORIENTED_EDGE('',*,*,#474,.T.);
#641=ORIENTED_EDGE('',*,*,#456,.F.);
#642=ORIENTED_EDGE('',*,*,#450,.F.);
#643=ORIENTED_EDGE('',*,*,#433,.T.);
#644=ORIENTED_EDGE('',*,*,#455,.T.);
#645=ORIENTED_EDGE('',*,*,#468,.F.);
#646=ORIENTED_EDGE('',*,*,#476,.T.);
#647=ORIENTED_EDGE('',*,*,#463,.T.);
#648=ORIENTED_EDGE('',*,*,#403,.F.);
#649=ORIENTED_EDGE('',*,*,#407,.T.);
#650=ORIENTED_EDGE('',*,*,#419,.T.);
#651=ORIENTED_EDGE('',*,*,#385,.F.);
#652=ORIENTED_EDGE('',*,*,#382,.F.);
#653=ORIENTED_EDGE('',*,*,#378,.F.);
#654=ORIENTED_EDGE('',*,*,#392,.F.);
#655=ORIENTED_EDGE('',*,*,#388,.F.);
#656=ORIENTED_EDGE('',*,*,#399,.T.);
#657=ORIENTED_EDGE('',*,*,#417,.F.);
#658=ORIENTED_EDGE('',*,*,#413,.T.);
#659=ORIENTED_EDGE('',*,*,#471,.T.);
#660=ORIENTED_EDGE('',*,*,#473,.F.);
#661=ORIENTED_EDGE('',*,*,#475,.T.);
#662=ORIENTED_EDGE('',*,*,#449,.F.);
#663=ORIENTED_EDGE('',*,*,#434,.T.);
#664=ORIENTED_EDGE('',*,*,#438,.T.);
#665=ORIENTED_EDGE('',*,*,#424,.T.);
#666=ORIENTED_EDGE('',*,*,#428,.T.);
#667=ORIENTED_EDGE('',*,*,#431,.T.);
#668=ORIENTED_EDGE('',*,*,#476,.F.);
#669=ORIENTED_EDGE('',*,*,#467,.F.);
#670=ORIENTED_EDGE('',*,*,#465,.T.);
#671=ORIENTED_EDGE('',*,*,#442,.F.);
#672=ORIENTED_EDGE('',*,*,#412,.T.);
#673=ORIENTED_EDGE('',*,*,#402,.F.);
#674=ORIENTED_EDGE('',*,*,#396,.F.);
#675=ORIENTED_EDGE('',*,*,#377,.F.);
#676=ORIENTED_EDGE('',*,*,#448,.T.);
#677=ORIENTED_EDGE('',*,*,#423,.T.);
#678=ORIENTED_EDGE('',*,*,#445,.T.);
#679=ORIENTED_EDGE('',*,*,#462,.T.);
#680=ORIENTED_EDGE('',*,*,#470,.F.);
#681=CYLINDRICAL_SURFACE('',#751,3.525);
#682=CYLINDRICAL_SURFACE('',#759,2.55);
#683=CYLINDRICAL_SURFACE('',#763,2.05);
#684=CYLINDRICAL_SURFACE('',#766,12.4999999999122);
#685=CYLINDRICAL_SURFACE('',#769,96.5131578949389);
#686=CYLINDRICAL_SURFACE('',#772,2.05);
#687=CYLINDRICAL_SURFACE('',#775,12.4999999999122);
#688=CYLINDRICAL_SURFACE('',#778,96.5131578949389);
#689=CYLINDRICAL_SURFACE('',#782,3.525);
#690=CYLINDRICAL_SURFACE('',#790,2.55);
#691=CYLINDRICAL_SURFACE('',#793,2.55);
#692=CYLINDRICAL_SURFACE('',#796,3.525);
#693=CYLINDRICAL_SURFACE('',#809,2.05);
#694=CYLINDRICAL_SURFACE('',#811,527.583333336314);
#695=CYLINDRICAL_SURFACE('',#813,12.4999999999122);
#696=CYLINDRICAL_SURFACE('',#815,96.5131578949389);
#697=CYLINDRICAL_SURFACE('',#817,2.05);
#698=CYLINDRICAL_SURFACE('',#819,527.583333336314);
#699=CYLINDRICAL_SURFACE('',#821,12.4999999999122);
#700=CYLINDRICAL_SURFACE('',#823,96.5131578949389);
#701=ADVANCED_FACE('',(#51),#681,.F.);
#702=ADVANCED_FACE('',(#52),#35,.T.);
#703=ADVANCED_FACE('',(#53),#36,.T.);
#704=ADVANCED_FACE('',(#54),#37,.T.);
#705=ADVANCED_FACE('',(#55),#38,.T.);
#706=ADVANCED_FACE('',(#56),#39,.T.);
#707=ADVANCED_FACE('',(#57),#682,.F.);
#708=ADVANCED_FACE('',(#58),#40,.F.);
#709=ADVANCED_FACE('',(#59),#683,.F.);
#710=ADVANCED_FACE('',(#60),#684,.T.);
#711=ADVANCED_FACE('',(#61),#685,.F.);
#712=ADVANCED_FACE('',(#62),#686,.F.);
#713=ADVANCED_FACE('',(#63),#687,.T.);
#714=ADVANCED_FACE('',(#64),#688,.F.);
#715=ADVANCED_FACE('',(#65),#41,.F.);
#716=ADVANCED_FACE('',(#66),#689,.F.);
#717=ADVANCED_FACE('',(#67),#42,.F.);
#718=ADVANCED_FACE('',(#68),#43,.F.);
#719=ADVANCED_FACE('',(#69),#44,.F.);
#720=ADVANCED_FACE('',(#70),#45,.F.);
#721=ADVANCED_FACE('',(#71),#46,.F.);
#722=ADVANCED_FACE('',(#72),#690,.F.);
#723=ADVANCED_FACE('',(#73),#691,.F.);
#724=ADVANCED_FACE('',(#74),#692,.F.);
#725=ADVANCED_FACE('',(#75),#47,.T.);
#726=ADVANCED_FACE('',(#76,#15,#16,#17,#18,#19,#20,#21,#22,#23,#24),#48,
 .T.);
#727=ADVANCED_FACE('',(#77),#693,.F.);
#728=ADVANCED_FACE('',(#78),#694,.F.);
#729=ADVANCED_FACE('',(#79),#695,.T.);
#730=ADVANCED_FACE('',(#80),#696,.F.);
#731=ADVANCED_FACE('',(#81),#697,.F.);
#732=ADVANCED_FACE('',(#82),#698,.F.);
#733=ADVANCED_FACE('',(#83),#699,.T.);
#734=ADVANCED_FACE('',(#84),#700,.F.);
#735=ADVANCED_FACE('',(#85),#49,.T.);
#736=ADVANCED_FACE('',(#86,#25,#26,#27,#28,#29,#30,#31,#32,#33,#34),#50,
 .F.);
#737=CLOSED_SHELL('',(#701,#702,#703,#704,#705,#706,#707,#708,#709,#710,
#711,#712,#713,#714,#715,#716,#717,#718,#719,#720,#721,#722,#723,#724,#725,
#726,#727,#728,#729,#730,#731,#732,#733,#734,#735,#736));
#738=DERIVED_UNIT_ELEMENT(#740,1.);
#739=DERIVED_UNIT_ELEMENT(#1255,-3.);
#740=(
MASS_UNIT()
NAMED_UNIT(*)
SI_UNIT(.KILO.,.GRAM.)
);
#741=DERIVED_UNIT((#738,#739));
#742=MEASURE_REPRESENTATION_ITEM('density measure',
POSITIVE_RATIO_MEASURE(7850.),#741);
#743=PROPERTY_DEFINITION_REPRESENTATION(#748,#745);
#744=PROPERTY_DEFINITION_REPRESENTATION(#749,#746);
#745=REPRESENTATION('material name',(#747),#1252);
#746=REPRESENTATION('density',(#742),#1252);
#747=DESCRIPTIVE_REPRESENTATION_ITEM('Steel','Steel');
#748=PROPERTY_DEFINITION('material property','material name',#1262);
#749=PROPERTY_DEFINITION('material property','density of part',#1262);
#750=AXIS2_PLACEMENT_3D('',#1043,#827,#828);
#751=AXIS2_PLACEMENT_3D('',#1044,#829,#830);
#752=AXIS2_PLACEMENT_3D('',#1046,#831,#832);
#753=AXIS2_PLACEMENT_3D('',#1049,#834,#835);
#754=AXIS2_PLACEMENT_3D('',#1050,#836,#837);
#755=AXIS2_PLACEMENT_3D('',#1059,#842,#843);
#756=AXIS2_PLACEMENT_3D('',#1065,#847,#848);
#757=AXIS2_PLACEMENT_3D('',#1071,#852,#853);
#758=AXIS2_PLACEMENT_3D('',#1080,#858,#859);
#759=AXIS2_PLACEMENT_3D('',#1083,#862,#863);
#760=AXIS2_PLACEMENT_3D('',#1085,#864,#865);
#761=AXIS2_PLACEMENT_3D('',#1088,#867,#868);
#762=AXIS2_PLACEMENT_3D('',#1089,#869,#870);
#763=AXIS2_PLACEMENT_3D('',#1095,#874,#875);
#764=AXIS2_PLACEMENT_3D('',#1097,#876,#877);
#765=AXIS2_PLACEMENT_3D('',#1100,#879,#880);
#766=AXIS2_PLACEMENT_3D('',#1101,#881,#882);
#767=AXIS2_PLACEMENT_3D('',#1104,#883,#884);
#768=AXIS2_PLACEMENT_3D('',#1108,#886,#887);
#769=AXIS2_PLACEMENT_3D('',#1110,#889,#890);
#770=AXIS2_PLACEMENT_3D('',#1112,#891,#892);
#771=AXIS2_PLACEMENT_3D('',#1114,#893,#894);
#772=AXIS2_PLACEMENT_3D('',#1116,#896,#897);
#773=AXIS2_PLACEMENT_3D('',#1118,#898,#899);
#774=AXIS2_PLACEMENT_3D('',#1121,#901,#902);
#775=AXIS2_PLACEMENT_3D('',#1122,#903,#904);
#776=AXIS2_PLACEMENT_3D('',#1125,#905,#906);
#777=AXIS2_PLACEMENT_3D('',#1129,#908,#909);
#778=AXIS2_PLACEMENT_3D('',#1131,#911,#912);
#779=AXIS2_PLACEMENT_3D('',#1132,#913,#914);
#780=AXIS2_PLACEMENT_3D('',#1133,#915,#916);
#781=AXIS2_PLACEMENT_3D('',#1134,#917,#918);
#782=AXIS2_PLACEMENT_3D('',#1137,#921,#922);
#783=AXIS2_PLACEMENT_3D('',#1139,#923,#924);
#784=AXIS2_PLACEMENT_3D('',#1142,#926,#927);
#785=AXIS2_PLACEMENT_3D('',#1143,#928,#929);
#786=AXIS2_PLACEMENT_3D('',#1152,#934,#935);
#787=AXIS2_PLACEMENT_3D('',#1158,#939,#940);
#788=AXIS2_PLACEMENT_3D('',#1164,#944,#945);
#789=AXIS2_PLACEMENT_3D('',#1173,#950,#951);
#790=AXIS2_PLACEMENT_3D('',#1176,#954,#955);
#791=AXIS2_PLACEMENT_3D('',#1178,#956,#957);
#792=AXIS2_PLACEMENT_3D('',#1181,#959,#960);
#793=AXIS2_PLACEMENT_3D('',#1182,#961,#962);
#794=AXIS2_PLACEMENT_3D('',#1184,#963,#964);
#795=AXIS2_PLACEMENT_3D('',#1187,#966,#967);
#796=AXIS2_PLACEMENT_3D('',#1188,#968,#969);
#797=AXIS2_PLACEMENT_3D('',#1190,#970,#971);
#798=AXIS2_PLACEMENT_3D('',#1193,#973,#974);
#799=AXIS2_PLACEMENT_3D('',#1194,#975,#976);
#800=AXIS2_PLACEMENT_3D('',#1200,#980,#981);
#801=AXIS2_PLACEMENT_3D('',#1202,#982,#983);
#802=AXIS2_PLACEMENT_3D('',#1204,#984,#985);
#803=AXIS2_PLACEMENT_3D('',#1206,#986,#987);
#804=AXIS2_PLACEMENT_3D('',#1209,#989,#990);
#805=AXIS2_PLACEMENT_3D('',#1211,#991,#992);
#806=AXIS2_PLACEMENT_3D('',#1212,#993,#994);
#807=AXIS2_PLACEMENT_3D('',#1214,#995,#996);
#808=AXIS2_PLACEMENT_3D('',#1216,#997,#998);
#809=AXIS2_PLACEMENT_3D('',#1217,#999,#1000);
#810=AXIS2_PLACEMENT_3D('',#1220,#1002,#1003);
#811=AXIS2_PLACEMENT_3D('',#1221,#1004,#1005);
#812=AXIS2_PLACEMENT_3D('',#1223,#1006,#1007);
#813=AXIS2_PLACEMENT_3D('',#1225,#1009,#1010);
#814=AXIS2_PLACEMENT_3D('',#1227,#1011,#1012);
#815=AXIS2_PLACEMENT_3D('',#1229,#1014,#1015);
#816=AXIS2_PLACEMENT_3D('',#1231,#1016,#1017);
#817=AXIS2_PLACEMENT_3D('',#1233,#1019,#1020);
#818=AXIS2_PLACEMENT_3D('',#1236,#1022,#1023);
#819=AXIS2_PLACEMENT_3D('',#1237,#1024,#1025);
#820=AXIS2_PLACEMENT_3D('',#1239,#1026,#1027);
#821=AXIS2_PLACEMENT_3D('',#1241,#1029,#1030);
#822=AXIS2_PLACEMENT_3D('',#1243,#1031,#1032);
#823=AXIS2_PLACEMENT_3D('',#1245,#1034,#1035);
#824=AXIS2_PLACEMENT_3D('',#1246,#1036,#1037);
#825=AXIS2_PLACEMENT_3D('',#1247,#1038,#1039);
#826=AXIS2_PLACEMENT_3D('',#1249,#1041,#1042);
#827=DIRECTION('axis',(0.,0.,1.));
#828=DIRECTION('refdir',(1.,0.,0.));
#829=DIRECTION('center_axis',(0.,0.,1.));
#830=DIRECTION('ref_axis',(-1.,1.00186315766413E-12,0.));
#831=DIRECTION('center_axis',(0.,0.,1.));
#832=DIRECTION('ref_axis',(-1.,1.00186315766413E-12,0.));
#833=DIRECTION('',(0.,0.,-1.));
#834=DIRECTION('center_axis',(0.,0.,-1.));
#835=DIRECTION('ref_axis',(-1.,1.00186315766413E-12,0.));
#836=DIRECTION('center_axis',(-1.,1.00186315766413E-12,0.));
#837=DIRECTION('ref_axis',(1.00186315766413E-12,1.,0.));
#838=DIRECTION('',(-1.00186315766413E-12,-1.,0.));
#839=DIRECTION('',(0.,0.,-1.));
#840=DIRECTION('',(1.00186315766413E-12,1.,0.));
#841=DIRECTION('',(0.,0.,-1.));
#842=DIRECTION('center_axis',(1.00186315766413E-12,1.,0.));
#843=DIRECTION('ref_axis',(1.,-1.00186315766413E-12,0.));
#844=DIRECTION('',(-1.,1.00186315766413E-12,0.));
#845=DIRECTION('',(0.,0.,-1.));
#846=DIRECTION('',(1.,-1.00186315766413E-12,0.));
#847=DIRECTION('center_axis',(1.,-1.00186315766413E-12,0.));
#848=DIRECTION('ref_axis',(-1.00186315766413E-12,-1.,0.));
#849=DIRECTION('',(1.00186315766413E-12,1.,0.));
#850=DIRECTION('',(0.,0.,1.));
#851=DIRECTION('',(-1.00186315766413E-12,-1.,0.));
#852=DIRECTION('center_axis',(-1.,1.00192349587199E-12,0.));
#853=DIRECTION('ref_axis',(1.00192349587199E-12,1.,0.));
#854=DIRECTION('',(-1.00192349587199E-12,-1.,0.));
#855=DIRECTION('',(0.,0.,-1.));
#856=DIRECTION('',(1.00192349587199E-12,1.,0.));
#857=DIRECTION('',(0.,0.,-1.));
#858=DIRECTION('center_axis',(-1.00186315766413E-12,-1.,0.));
#859=DIRECTION('ref_axis',(-1.,1.00186315766413E-12,0.));
#860=DIRECTION('',(1.,-1.00186315766413E-12,0.));
#861=DIRECTION('',(-1.,1.00186315766413E-12,0.));
#862=DIRECTION('center_axis',(0.,0.,1.));
#863=DIRECTION('ref_axis',(-1.,1.00186315766413E-12,0.));
#864=DIRECTION('center_axis',(0.,0.,1.));
#865=DIRECTION('ref_axis',(-1.,1.00186315766413E-12,0.));
#866=DIRECTION('',(0.,0.,-1.));
#867=DIRECTION('center_axis',(0.,0.,-1.));
#868=DIRECTION('ref_axis',(-1.,1.00186315766413E-12,0.));
#869=DIRECTION('center_axis',(-1.02850851025513E-12,-1.,0.));
#870=DIRECTION('ref_axis',(1.,-1.02850851025513E-12,0.));
#871=DIRECTION('',(-1.,9.75217805073124E-13,0.));
#872=DIRECTION('',(0.,0.,1.));
#873=DIRECTION('',(1.,-1.02850851025513E-12,0.));
#874=DIRECTION('center_axis',(0.,0.,1.));
#875=DIRECTION('ref_axis',(-1.,1.00186315766413E-12,0.));
#876=DIRECTION('center_axis',(0.,0.,-1.));
#877=DIRECTION('ref_axis',(-1.,1.00186315766413E-12,0.));
#878=DIRECTION('',(0.,0.,-1.));
#879=DIRECTION('center_axis',(0.,0.,-1.));
#880=DIRECTION('ref_axis',(-1.,1.00186315766413E-12,0.));
#881=DIRECTION('center_axis',(0.,0.,1.));
#882=DIRECTION('ref_axis',(0.825588412793915,0.564272782136818,0.));
#883=DIRECTION('center_axis',(0.,0.,1.));
#884=DIRECTION('ref_axis',(0.825588412793915,0.564272782136818,0.));
#885=DIRECTION('',(0.,0.,1.));
#886=DIRECTION('center_axis',(0.,0.,1.));
#887=DIRECTION('ref_axis',(0.825588412793915,0.564272782136818,0.));
#888=DIRECTION('',(0.,0.,1.));
#889=DIRECTION('center_axis',(0.,0.,1.));
#890=DIRECTION('ref_axis',(-0.825588412793905,-0.564272782136832,0.));
#891=DIRECTION('center_axis',(0.,0.,1.));
#892=DIRECTION('ref_axis',(-0.825588412793905,-0.564272782136832,0.));
#893=DIRECTION('center_axis',(0.,0.,-1.));
#894=DIRECTION('ref_axis',(-0.825588412793905,-0.564272782136832,0.));
#895=DIRECTION('',(0.,0.,1.));
#896=DIRECTION('center_axis',(0.,0.,-1.));
#897=DIRECTION('ref_axis',(1.,-1.00186315766413E-12,0.));
#898=DIRECTION('center_axis',(0.,0.,1.));
#899=DIRECTION('ref_axis',(1.,-1.00186315766413E-12,0.));
#900=DIRECTION('',(0.,0.,-1.));
#901=DIRECTION('center_axis',(0.,0.,1.));
#902=DIRECTION('ref_axis',(1.,-1.00186315766413E-12,0.));
#903=DIRECTION('center_axis',(0.,0.,-1.));
#904=DIRECTION('ref_axis',(-0.825588412792784,0.564272782138472,0.));
#905=DIRECTION('center_axis',(0.,0.,-1.));
#906=DIRECTION('ref_axis',(-0.825588412792784,0.564272782138472,0.));
#907=DIRECTION('',(0.,0.,1.));
#908=DIRECTION('center_axis',(0.,0.,-1.));
#909=DIRECTION('ref_axis',(-0.825588412792784,0.564272782138472,0.));
#910=DIRECTION('',(0.,0.,1.));
#911=DIRECTION('center_axis',(0.,0.,-1.));
#912=DIRECTION('ref_axis',(0.825588412792774,-0.564272782138486,0.));
#913=DIRECTION('center_axis',(0.,0.,-1.));
#914=DIRECTION('ref_axis',(0.825588412792774,-0.564272782138486,0.));
#915=DIRECTION('center_axis',(0.,0.,1.));
#916=DIRECTION('ref_axis',(0.825588412792774,-0.564272782138486,0.));
#917=DIRECTION('center_axis',(-1.02850851025513E-12,-1.,0.));
#918=DIRECTION('ref_axis',(1.,-1.02850851025513E-12,0.));
#919=DIRECTION('',(1.,-1.02850851025513E-12,0.));
#920=DIRECTION('',(-1.,9.75217805073124E-13,0.));
#921=DIRECTION('center_axis',(0.,0.,-1.));
#922=DIRECTION('ref_axis',(-1.,0.,0.));
#923=DIRECTION('center_axis',(0.,0.,-1.));
#924=DIRECTION('ref_axis',(-1.,0.,0.));
#925=DIRECTION('',(0.,0.,-1.));
#926=DIRECTION('center_axis',(0.,0.,1.));
#927=DIRECTION('ref_axis',(-1.,0.,0.));
#928=DIRECTION('center_axis',(1.,0.,0.));
#929=DIRECTION('ref_axis',(0.,-1.,0.));
#930=DIRECTION('',(0.,1.,0.));
#931=DIRECTION('',(0.,0.,-1.));
#932=DIRECTION('',(0.,-1.,0.));
#933=DIRECTION('',(0.,0.,-1.));
#934=DIRECTION('center_axis',(0.,1.,0.));
#935=DIRECTION('ref_axis',(1.,0.,0.));
#936=DIRECTION('',(-1.,0.,0.));
#937=DIRECTION('',(1.,0.,0.));
#938=DIRECTION('',(0.,0.,-1.));
#939=DIRECTION('center_axis',(-1.,0.,0.));
#940=DIRECTION('ref_axis',(0.,1.,0.));
#941=DIRECTION('',(0.,-1.,0.));
#942=DIRECTION('',(0.,1.,0.));
#943=DIRECTION('',(0.,0.,1.));
#944=DIRECTION('center_axis',(1.,6.03382078600627E-17,0.));
#945=DIRECTION('ref_axis',(6.03382078600627E-17,-1.,0.));
#946=DIRECTION('',(-6.03382078600627E-17,1.,0.));
#947=DIRECTION('',(0.,0.,-1.));
#948=DIRECTION('',(6.03382078600627E-17,-1.,0.));
#949=DIRECTION('',(0.,0.,-1.));
#950=DIRECTION('center_axis',(0.,-1.,0.));
#951=DIRECTION('ref_axis',(-1.,0.,0.));
#952=DIRECTION('',(1.,0.,0.));
#953=DIRECTION('',(-1.,0.,0.));
#954=DIRECTION('center_axis',(0.,0.,-1.));
#955=DIRECTION('ref_axis',(-1.,0.,0.));
#956=DIRECTION('center_axis',(0.,0.,1.));
#957=DIRECTION('ref_axis',(-1.,1.00186315766413E-12,0.));
#958=DIRECTION('',(0.,0.,-1.));
#959=DIRECTION('center_axis',(0.,0.,-1.));
#960=DIRECTION('ref_axis',(-1.,1.00186315766413E-12,0.));
#961=DIRECTION('center_axis',(0.,0.,-1.));
#962=DIRECTION('ref_axis',(-1.,0.,0.));
#963=DIRECTION('center_axis',(0.,0.,-1.));
#964=DIRECTION('ref_axis',(-1.,0.,0.));
#965=DIRECTION('',(0.,0.,-1.));
#966=DIRECTION('center_axis',(0.,0.,1.));
#967=DIRECTION('ref_axis',(-1.,0.,0.));
#968=DIRECTION('center_axis',(0.,0.,-1.));
#969=DIRECTION('ref_axis',(-1.,0.,0.));
#970=DIRECTION('center_axis',(0.,0.,1.));
#971=DIRECTION('ref_axis',(-1.,1.00186315766413E-12,0.));
#972=DIRECTION('',(0.,0.,-1.));
#973=DIRECTION('center_axis',(0.,0.,1.));
#974=DIRECTION('ref_axis',(-1.,0.,0.));
#975=DIRECTION('center_axis',(2.66453525910038E-14,-1.,0.));
#976=DIRECTION('ref_axis',(1.,2.66453525910038E-14,0.));
#977=DIRECTION('',(1.,2.66453525910038E-14,0.));
#978=DIRECTION('',(0.,0.,1.));
#979=DIRECTION('',(-1.,2.66453525910038E-14,0.));
#980=DIRECTION('center_axis',(0.,0.,1.));
#981=DIRECTION('ref_axis',(1.,0.,0.));
#982=DIRECTION('center_axis',(0.,0.,1.));
#983=DIRECTION('ref_axis',(1.,0.,0.));
#984=DIRECTION('center_axis',(0.,0.,-1.));
#985=DIRECTION('ref_axis',(0.825588412793349,-0.564272782137645,0.));
#986=DIRECTION('center_axis',(0.,0.,1.));
#987=DIRECTION('ref_axis',(-0.82558841279334,0.564272782137659,0.));
#988=DIRECTION('',(-1.,2.66453525910038E-14,0.));
#989=DIRECTION('center_axis',(0.,0.,-1.));
#990=DIRECTION('ref_axis',(0.82558841279334,0.564272782137659,0.));
#991=DIRECTION('center_axis',(0.,0.,1.));
#992=DIRECTION('ref_axis',(-0.825588412793349,-0.564272782137645,0.));
#993=DIRECTION('center_axis',(0.,0.,-1.));
#994=DIRECTION('ref_axis',(-1.,0.,0.));
#995=DIRECTION('center_axis',(0.,0.,-1.));
#996=DIRECTION('ref_axis',(1.,0.,0.));
#997=DIRECTION('center_axis',(0.,0.,1.));
#998=DIRECTION('ref_axis',(-1.,0.,0.));
#999=DIRECTION('center_axis',(0.,0.,-1.));
#1000=DIRECTION('ref_axis',(-1.,0.,0.));
#1001=DIRECTION('',(0.,0.,-1.));
#1002=DIRECTION('center_axis',(0.,0.,1.));
#1003=DIRECTION('ref_axis',(-1.,0.,0.));
#1004=DIRECTION('center_axis',(0.,0.,-1.));
#1005=DIRECTION('ref_axis',(1.,0.,0.));
#1006=DIRECTION('center_axis',(0.,0.,1.));
#1007=DIRECTION('ref_axis',(1.,-1.00186315766413E-12,0.));
#1008=DIRECTION('',(0.,0.,1.));
#1009=DIRECTION('center_axis',(0.,0.,-1.));
#1010=DIRECTION('ref_axis',(0.825588412793349,-0.564272782137645,0.));
#1011=DIRECTION('center_axis',(0.,0.,-1.));
#1012=DIRECTION('ref_axis',(0.825588412793349,-0.564272782137645,0.));
#1013=DIRECTION('',(0.,0.,1.));
#1014=DIRECTION('center_axis',(0.,0.,-1.));
#1015=DIRECTION('ref_axis',(-0.82558841279334,0.564272782137659,0.));
#1016=DIRECTION('center_axis',(0.,0.,-1.));
#1017=DIRECTION('ref_axis',(-0.82558841279334,0.564272782137659,0.));
#1018=DIRECTION('',(0.,0.,1.));
#1019=DIRECTION('center_axis',(0.,0.,1.));
#1020=DIRECTION('ref_axis',(1.,0.,0.));
#1021=DIRECTION('',(0.,0.,-1.));
#1022=DIRECTION('center_axis',(0.,0.,-1.));
#1023=DIRECTION('ref_axis',(1.,0.,0.));
#1024=DIRECTION('center_axis',(0.,0.,1.));
#1025=DIRECTION('ref_axis',(-1.,0.,0.));
#1026=DIRECTION('center_axis',(0.,0.,1.));
#1027=DIRECTION('ref_axis',(-1.,0.,0.));
#1028=DIRECTION('',(0.,0.,1.));
#1029=DIRECTION('center_axis',(0.,0.,1.));
#1030=DIRECTION('ref_axis',(-0.825588412793349,-0.564272782137645,0.));
#1031=DIRECTION('center_axis',(0.,0.,1.));
#1032=DIRECTION('ref_axis',(-0.825588412793349,-0.564272782137645,0.));
#1033=DIRECTION('',(0.,0.,1.));
#1034=DIRECTION('center_axis',(0.,0.,1.));
#1035=DIRECTION('ref_axis',(0.82558841279334,0.564272782137659,0.));
#1036=DIRECTION('center_axis',(0.,0.,1.));
#1037=DIRECTION('ref_axis',(0.82558841279334,0.564272782137659,0.));
#1038=DIRECTION('center_axis',(2.66453525910038E-14,-1.,0.));
#1039=DIRECTION('ref_axis',(1.,2.66453525910038E-14,0.));
#1040=DIRECTION('',(1.,2.66453525910038E-14,0.));
#1041=DIRECTION('center_axis',(0.,0.,1.));
#1042=DIRECTION('ref_axis',(1.,0.,0.));
#1043=CARTESIAN_POINT('',(0.,0.,0.));
#1044=CARTESIAN_POINT('Origin',(-29.9999999999399,59.9999999999435,4.04));
#1045=CARTESIAN_POINT('',(-26.4749999999399,59.99999999994,4.04));
#1046=CARTESIAN_POINT('Origin',(-29.9999999999399,59.9999999999435,4.04));
#1047=CARTESIAN_POINT('',(-26.4749999999399,59.99999999994,0.));
#1048=CARTESIAN_POINT('',(-26.4749999999399,59.99999999994,4.04));
#1049=CARTESIAN_POINT('Origin',(-29.9999999999399,59.9999999999435,0.));
#1050=CARTESIAN_POINT('Origin',(4.00000000007885,78.6999999998502,4.04));
#1051=CARTESIAN_POINT('',(4.00000000008055,80.3999999998502,0.));
#1052=CARTESIAN_POINT('',(4.00000000007885,78.6999999998502,0.));
#1053=CARTESIAN_POINT('',(4.00000000007261,72.474999999828,0.));
#1054=CARTESIAN_POINT('',(4.00000000007885,78.6999999998502,4.04));
#1055=CARTESIAN_POINT('',(4.00000000007885,78.6999999998502,4.04));
#1056=CARTESIAN_POINT('',(4.00000000008055,80.3999999998502,4.04));
#1057=CARTESIAN_POINT('',(4.00000000007261,72.474999999828,4.04));
#1058=CARTESIAN_POINT('',(4.00000000008055,80.3999999998502,4.04));
#1059=CARTESIAN_POINT('Origin',(-3.99999999992115,78.6999999998582,4.04));
#1060=CARTESIAN_POINT('',(-3.99999999992115,78.6999999998582,0.));
#1061=CARTESIAN_POINT('',(31.1250000000569,78.699999999823,0.));
#1062=CARTESIAN_POINT('',(-3.99999999992115,78.6999999998582,4.04));
#1063=CARTESIAN_POINT('',(-3.99999999992115,78.6999999998582,4.04));
#1064=CARTESIAN_POINT('',(31.1250000000569,78.699999999823,4.04));
#1065=CARTESIAN_POINT('Origin',(-3.99999999991484,84.9999999998582,4.04));
#1066=CARTESIAN_POINT('',(-3.99999999991484,84.9999999998586,0.));
#1067=CARTESIAN_POINT('',(-3.99999999992424,75.624999999836,0.));
#1068=CARTESIAN_POINT('',(-3.99999999991484,84.9999999998582,4.04));
#1069=CARTESIAN_POINT('',(-3.99999999991484,84.9999999998586,2.02));
#1070=CARTESIAN_POINT('',(-3.99999999992424,75.624999999836,4.04));
#1071=CARTESIAN_POINT('Origin',(-2.29999999991945,80.3999999998565,4.04));
#1072=CARTESIAN_POINT('',(-2.29999999991484,84.9999999998568,0.));
#1073=CARTESIAN_POINT('',(-2.29999999991945,80.3999999998565,0.));
#1074=CARTESIAN_POINT('',(-2.29999999992654,73.3249999998343,0.));
#1075=CARTESIAN_POINT('',(-2.29999999991945,80.3999999998565,4.04));
#1076=CARTESIAN_POINT('',(-2.29999999991945,80.3999999998565,4.04));
#1077=CARTESIAN_POINT('',(-2.29999999991484,84.9999999998565,4.04));
#1078=CARTESIAN_POINT('',(-2.29999999992654,73.3249999998343,4.04));
#1079=CARTESIAN_POINT('',(-2.29999999991484,84.9999999998568,2.02));
#1080=CARTESIAN_POINT('Origin',(4.00000000008055,80.3999999998502,4.04));
#1081=CARTESIAN_POINT('',(35.1250000000586,80.399999999819,0.));
#1082=CARTESIAN_POINT('',(35.1250000000586,80.399999999819,4.04));
#1083=CARTESIAN_POINT('Origin',(30.0000000000601,59.9999999998834,4.04));
#1084=CARTESIAN_POINT('',(32.5500000000601,59.9999999998809,4.04));
#1085=CARTESIAN_POINT('Origin',(30.0000000000601,59.9999999998834,4.04));
#1086=CARTESIAN_POINT('',(32.5500000000601,59.9999999998809,0.));
#1087=CARTESIAN_POINT('',(32.5500000000601,59.9999999998809,4.04));
#1088=CARTESIAN_POINT('Origin',(30.0000000000601,59.9999999998834,0.));
#1089=CARTESIAN_POINT('Origin',(8.51583684014517E-11,84.9999999998545,0.));
#1090=CARTESIAN_POINT('',(30.0000000000852,84.9999999998241,4.04));
#1091=CARTESIAN_POINT('',(8.51583684014517E-11,84.9999999998545,4.04));
#1092=CARTESIAN_POINT('',(30.0000000000852,84.9999999998241,0.));
#1093=CARTESIAN_POINT('',(30.0000000000852,84.9999999998241,0.));
#1094=CARTESIAN_POINT('',(8.51583684014517E-11,84.9999999998545,0.));
#1095=CARTESIAN_POINT('Origin',(-119.99999999988,119.999999999974,0.));
#1096=CARTESIAN_POINT('',(-117.94999999988,119.999999999972,4.04));
#1097=CARTESIAN_POINT('Origin',(-119.99999999988,119.999999999974,4.04));
#1098=CARTESIAN_POINT('',(-117.94999999988,119.999999999972,0.));
#1099=CARTESIAN_POINT('',(-117.94999999988,119.999999999972,0.));
#1100=CARTESIAN_POINT('Origin',(-119.99999999988,119.999999999974,0.));
#1101=CARTESIAN_POINT('Origin',(-119.99999999988,119.999999999974,0.));
#1102=CARTESIAN_POINT('',(-109.680144840028,127.053409776635,0.));
#1103=CARTESIAN_POINT('',(-132.187548217668,117.222650825512,0.));
#1104=CARTESIAN_POINT('Origin',(-119.99999999988,119.999999999974,0.));
#1105=CARTESIAN_POINT('',(-132.187548217668,117.222650825512,4.04));
#1106=CARTESIAN_POINT('',(-132.187548217668,117.222650825512,0.));
#1107=CARTESIAN_POINT('',(-109.680144840028,127.053409776635,4.04));
#1108=CARTESIAN_POINT('Origin',(-119.99999999988,119.999999999974,4.04));
#1109=CARTESIAN_POINT('',(-109.680144840028,127.053409776635,0.));
#1110=CARTESIAN_POINT('Origin',(-29.9999999998182,181.513157894823,0.));
#1111=CARTESIAN_POINT('',(-29.9999999999148,84.9999999998842,0.));
#1112=CARTESIAN_POINT('Origin',(-29.9999999998182,181.513157894823,0.));
#1113=CARTESIAN_POINT('',(-29.9999999999148,84.9999999998842,4.04));
#1114=CARTESIAN_POINT('Origin',(-29.9999999998182,181.513157894823,4.04));
#1115=CARTESIAN_POINT('',(-29.9999999999148,84.9999999998842,0.));
#1116=CARTESIAN_POINT('Origin',(120.00000000012,119.999999999733,0.));
#1117=CARTESIAN_POINT('',(117.95000000012,119.999999999736,4.04));
#1118=CARTESIAN_POINT('Origin',(120.00000000012,119.999999999733,4.04));
#1119=CARTESIAN_POINT('',(117.95000000012,119.999999999736,0.));
#1120=CARTESIAN_POINT('',(117.95000000012,119.999999999736,0.));
#1121=CARTESIAN_POINT('Origin',(120.00000000012,119.999999999733,0.));
#1122=CARTESIAN_POINT('Origin',(120.00000000012,119.999999999733,0.));
#1123=CARTESIAN_POINT('',(109.680144840283,127.053409776415,0.));
#1124=CARTESIAN_POINT('',(132.187548217903,117.222650825247,0.));
#1125=CARTESIAN_POINT('Origin',(120.00000000012,119.999999999733,0.));
#1126=CARTESIAN_POINT('',(109.680144840283,127.053409776415,4.04));
#1127=CARTESIAN_POINT('',(109.680144840283,127.053409776415,0.));
#1128=CARTESIAN_POINT('',(132.187548217903,117.222650825247,4.04));
#1129=CARTESIAN_POINT('Origin',(120.00000000012,119.999999999733,4.04));
#1130=CARTESIAN_POINT('',(132.187548217903,117.222650825247,0.));
#1131=CARTESIAN_POINT('Origin',(30.0000000001818,181.513157894763,0.));
#1132=CARTESIAN_POINT('Origin',(30.0000000001818,181.513157894763,0.));
#1133=CARTESIAN_POINT('Origin',(30.0000000001818,181.513157894763,4.04));
#1134=CARTESIAN_POINT('Origin',(8.51583684014517E-11,84.9999999998545,0.));
#1135=CARTESIAN_POINT('',(8.51583684014517E-11,84.9999999998545,0.));
#1136=CARTESIAN_POINT('',(8.51583684014517E-11,84.9999999998545,4.04));
#1137=CARTESIAN_POINT('Origin',(-30.,-60.0000000000598,4.04));
#1138=CARTESIAN_POINT('',(-26.475,-60.0000000000598,4.04));
#1139=CARTESIAN_POINT('Origin',(-30.,-60.0000000000598,4.04));
#1140=CARTESIAN_POINT('',(-26.475,-60.0000000000598,0.));
#1141=CARTESIAN_POINT('',(-26.475,-60.0000000000598,4.04));
#1142=CARTESIAN_POINT('Origin',(-30.,-60.0000000000598,0.));
#1143=CARTESIAN_POINT('Origin',(4.,-78.7000000000005,4.04));
#1144=CARTESIAN_POINT('',(4.,-80.4000000000005,0.));
#1145=CARTESIAN_POINT('',(4.,-78.7000000000005,0.));
#1146=CARTESIAN_POINT('',(4.,-72.4749999999783,0.));
#1147=CARTESIAN_POINT('',(4.,-80.4000000000005,4.04));
#1148=CARTESIAN_POINT('',(4.,-80.4000000000005,4.04));
#1149=CARTESIAN_POINT('',(4.,-78.7000000000005,4.04));
#1150=CARTESIAN_POINT('',(4.,-72.4749999999783,4.04));
#1151=CARTESIAN_POINT('',(4.,-78.7000000000005,4.04));
#1152=CARTESIAN_POINT('Origin',(-4.,-78.7000000000005,4.04));
#1153=CARTESIAN_POINT('',(-4.,-78.7000000000005,0.));
#1154=CARTESIAN_POINT('',(31.1249999999781,-78.7000000000005,0.));
#1155=CARTESIAN_POINT('',(-4.,-78.7000000000005,4.04));
#1156=CARTESIAN_POINT('',(31.1249999999781,-78.7000000000005,4.04));
#1157=CARTESIAN_POINT('',(-4.,-78.7000000000005,4.04));
#1158=CARTESIAN_POINT('Origin',(-4.,-85.0000000000005,4.04));
#1159=CARTESIAN_POINT('',(-4.,-85.0000000000009,0.));
#1160=CARTESIAN_POINT('',(-4.,-75.6249999999783,0.));
#1161=CARTESIAN_POINT('',(-4.,-85.0000000000005,4.04));
#1162=CARTESIAN_POINT('',(-4.,-75.6249999999783,4.04));
#1163=CARTESIAN_POINT('',(-4.,-85.0000000000009,2.02));
#1164=CARTESIAN_POINT('Origin',(-2.3,-80.4000000000005,4.04));
#1165=CARTESIAN_POINT('',(-2.3,-85.0000000000009,0.));
#1166=CARTESIAN_POINT('',(-2.3,-80.4000000000005,0.));
#1167=CARTESIAN_POINT('',(-2.3,-73.3249999999783,0.));
#1168=CARTESIAN_POINT('',(-2.3,-85.0000000000005,4.04));
#1169=CARTESIAN_POINT('',(-2.3,-85.0000000000009,2.02));
#1170=CARTESIAN_POINT('',(-2.3,-80.4000000000005,4.04));
#1171=CARTESIAN_POINT('',(-2.3,-73.3249999999783,4.04));
#1172=CARTESIAN_POINT('',(-2.3,-80.4000000000005,4.04));
#1173=CARTESIAN_POINT('Origin',(4.,-80.4000000000005,4.04));
#1174=CARTESIAN_POINT('',(35.1249999999781,-80.4000000000005,0.));
#1175=CARTESIAN_POINT('',(35.1249999999781,-80.4000000000005,4.04));
#1176=CARTESIAN_POINT('Origin',(-30.,-5.97141757143312E-11,4.04));
#1177=CARTESIAN_POINT('',(-27.45,-5.9714487999265E-11,4.04));
#1178=CARTESIAN_POINT('Origin',(-30.,-5.65405863728903E-11,4.04));
#1179=CARTESIAN_POINT('',(-27.45,-5.9714487999265E-11,0.));
#1180=CARTESIAN_POINT('',(-27.45,-5.9714487999265E-11,4.04));
#1181=CARTESIAN_POINT('Origin',(-30.,-5.65405863728903E-11,0.));
#1182=CARTESIAN_POINT('Origin',(30.,-60.0000000000598,4.04));
#1183=CARTESIAN_POINT('',(32.55,-60.0000000000598,4.04));
#1184=CARTESIAN_POINT('Origin',(30.,-60.0000000000598,4.04));
#1185=CARTESIAN_POINT('',(32.55,-60.0000000000598,0.));
#1186=CARTESIAN_POINT('',(32.55,-60.0000000000598,4.04));
#1187=CARTESIAN_POINT('Origin',(30.,-60.0000000000598,0.));
#1188=CARTESIAN_POINT('Origin',(30.,-5.97813488721237E-11,4.04));
#1189=CARTESIAN_POINT('',(33.525,-5.97817805601204E-11,4.04));
#1190=CARTESIAN_POINT('Origin',(30.,-1.16585202674945E-10,4.04));
#1191=CARTESIAN_POINT('',(33.525,-5.97817805601204E-11,0.));
#1192=CARTESIAN_POINT('',(33.525,-5.97817805601204E-11,4.04));
#1193=CARTESIAN_POINT('Origin',(30.,-5.97813488721237E-11,0.));
#1194=CARTESIAN_POINT('Origin',(0.,-85.0000000000008,0.));
#1195=CARTESIAN_POINT('',(30.,-85.0000000000005,0.));
#1196=CARTESIAN_POINT('',(0.,-85.0000000000008,0.));
#1197=CARTESIAN_POINT('',(30.,-85.0000000000005,4.04));
#1198=CARTESIAN_POINT('',(30.,-85.0000000000005,0.));
#1199=CARTESIAN_POINT('',(0.,-85.0000000000008,4.04));
#1200=CARTESIAN_POINT('Origin',(66.2499999999561,-66.2499999999561,4.04));
#1201=CARTESIAN_POINT('',(-132.187548217786,-117.222650825526,4.04));
#1202=CARTESIAN_POINT('Origin',(-646.583333336314,-5.96108578810156E-11,
4.04));
#1203=CARTESIAN_POINT('',(-109.680144840156,-127.053409776671,4.04));
#1204=CARTESIAN_POINT('Origin',(-120.,-120.,4.04));
#1205=CARTESIAN_POINT('',(-30.,-85.0000000000005,4.04));
#1206=CARTESIAN_POINT('Origin',(-30.,-181.513157894939,4.04));
#1207=CARTESIAN_POINT('',(0.,-85.0000000000008,4.04));
#1208=CARTESIAN_POINT('',(109.680144840156,-127.053409776671,4.04));
#1209=CARTESIAN_POINT('Origin',(30.,-181.513157894939,4.04));
#1210=CARTESIAN_POINT('',(132.187548217786,-117.222650825526,4.04));
#1211=CARTESIAN_POINT('Origin',(120.,-120.,4.04));
#1212=CARTESIAN_POINT('Origin',(646.583333336314,-5.96108578810156E-11,
4.04));
#1213=CARTESIAN_POINT('',(117.95,-120.,4.04));
#1214=CARTESIAN_POINT('Origin',(120.,-120.,4.04));
#1215=CARTESIAN_POINT('',(-117.95,-120.,4.04));
#1216=CARTESIAN_POINT('Origin',(-120.,-120.,4.04));
#1217=CARTESIAN_POINT('Origin',(-120.,-120.,0.));
#1218=CARTESIAN_POINT('',(-117.95,-120.,0.));
#1219=CARTESIAN_POINT('',(-117.95,-120.,0.));
#1220=CARTESIAN_POINT('Origin',(-120.,-120.,0.));
#1221=CARTESIAN_POINT('Origin',(-646.583333336314,-5.96108578810156E-11,
0.));
#1222=CARTESIAN_POINT('',(-132.187548217786,-117.222650825526,0.));
#1223=CARTESIAN_POINT('Origin',(-646.583333336314,5.61088221093188E-10,
0.));
#1224=CARTESIAN_POINT('',(-132.187548217786,-117.222650825526,0.));
#1225=CARTESIAN_POINT('Origin',(-120.,-120.,0.));
#1226=CARTESIAN_POINT('',(-109.680144840156,-127.053409776671,0.));
#1227=CARTESIAN_POINT('Origin',(-120.,-120.,0.));
#1228=CARTESIAN_POINT('',(-109.680144840156,-127.053409776671,0.));
#1229=CARTESIAN_POINT('Origin',(-30.,-181.513157894939,0.));
#1230=CARTESIAN_POINT('',(-30.,-85.0000000000005,0.));
#1231=CARTESIAN_POINT('Origin',(-30.,-181.513157894939,0.));
#1232=CARTESIAN_POINT('',(-30.,-85.0000000000005,0.));
#1233=CARTESIAN_POINT('Origin',(120.,-120.,0.));
#1234=CARTESIAN_POINT('',(117.95,-120.,0.));
#1235=CARTESIAN_POINT('',(117.95,-120.,0.));
#1236=CARTESIAN_POINT('Origin',(120.,-120.,0.));
#1237=CARTESIAN_POINT('Origin',(646.583333336314,-5.96108578810156E-11,
0.));
#1238=CARTESIAN_POINT('',(132.187548217786,-117.222650825526,0.));
#1239=CARTESIAN_POINT('Origin',(646.583333336314,-5.96108578810156E-11,
0.));
#1240=CARTESIAN_POINT('',(132.187548217786,-117.222650825526,0.));
#1241=CARTESIAN_POINT('Origin',(120.,-120.,0.));
#1242=CARTESIAN_POINT('',(109.680144840156,-127.053409776671,0.));
#1243=CARTESIAN_POINT('Origin',(120.,-120.,0.));
#1244=CARTESIAN_POINT('',(109.680144840156,-127.053409776671,0.));
#1245=CARTESIAN_POINT('Origin',(30.,-181.513157894939,0.));
#1246=CARTESIAN_POINT('Origin',(30.,-181.513157894939,0.));
#1247=CARTESIAN_POINT('Origin',(0.,-85.0000000000008,0.));
#1248=CARTESIAN_POINT('',(0.,-85.0000000000008,0.));
#1249=CARTESIAN_POINT('Origin',(66.2499999999561,-66.2499999999561,0.));
#1250=UNCERTAINTY_MEASURE_WITH_UNIT(LENGTH_MEASURE(0.01),#1254,
'DISTANCE_ACCURACY_VALUE',
'Maximum model space distance between geometric entities at asserted c
onnectivities');
#1251=UNCERTAINTY_MEASURE_WITH_UNIT(LENGTH_MEASURE(0.01),#1254,
'DISTANCE_ACCURACY_VALUE',
'Maximum model space distance between geometric entities at asserted c
onnectivities');
#1252=(
GEOMETRIC_REPRESENTATION_CONTEXT(3)
GLOBAL_UNCERTAINTY_ASSIGNED_CONTEXT((#1250))
GLOBAL_UNIT_ASSIGNED_CONTEXT((#1254,#1256,#1257))
REPRESENTATION_CONTEXT('','3D')
);
#1253=(
GEOMETRIC_REPRESENTATION_CONTEXT(3)
GLOBAL_UNCERTAINTY_ASSIGNED_CONTEXT((#1251))
GLOBAL_UNIT_ASSIGNED_CONTEXT((#1254,#1256,#1257))
REPRESENTATION_CONTEXT('','3D')
);
#1254=(
LENGTH_UNIT()
NAMED_UNIT(*)
SI_UNIT(.MILLI.,.METRE.)
);
#1255=(
LENGTH_UNIT()
NAMED_UNIT(*)
SI_UNIT($,.METRE.)
);
#1256=(
NAMED_UNIT(*)
PLANE_ANGLE_UNIT()
SI_UNIT($,.RADIAN.)
);
#1257=(
NAMED_UNIT(*)
SI_UNIT($,.STERADIAN.)
SOLID_ANGLE_UNIT()
);
#1258=SHAPE_DEFINITION_REPRESENTATION(#1259,#1260);
#1259=PRODUCT_DEFINITION_SHAPE('',$,#1262);
#1260=SHAPE_REPRESENTATION('',(#750),#1252);
#1261=PRODUCT_DEFINITION_CONTEXT('part definition',#1266,'design');
#1262=PRODUCT_DEFINITION('Y Axis Carriage','Y Axis Carriage v3',#1263,#1261);
#1263=PRODUCT_DEFINITION_FORMATION('',$,#1268);
#1264=PRODUCT_RELATED_PRODUCT_CATEGORY('Y Axis Carriage v3',
'Y Axis Carriage v3',(#1268));
#1265=APPLICATION_PROTOCOL_DEFINITION('international standard',
'ap242_managed_model_based_3d_engineering',2011,#1266);
#1266=APPLICATION_CONTEXT('Managed model based 3d engineering');
#1267=PRODUCT_CONTEXT('part definition',#1266,'mechanical');
#1268=PRODUCT('Y Axis Carriage','Y Axis Carriage v3',$,(#1267));
#1269=PRESENTATION_STYLE_ASSIGNMENT((#1270));
#1270=SURFACE_STYLE_USAGE(.BOTH.,#1271);
#1271=SURFACE_SIDE_STYLE('',(#1272));
#1272=SURFACE_STYLE_FILL_AREA(#1273);
#1273=FILL_AREA_STYLE('Steel - Satin',(#1274));
#1274=FILL_AREA_STYLE_COLOUR('Steel - Satin',#1275);
#1275=COLOUR_RGB('Steel - Satin',0.627450980392157,0.627450980392157,0.627450980392157);
ENDSEC;
END-ISO-10303-21;
