ISO-10303-21;
HEADER;
/* Generated by software containing ST-Developer
 * from STEP Tools, Inc. (www.steptools.com) 
 */

FILE_DESCRIPTION(
/* description */ (''),
/* implementation_level */ '2;1');

FILE_NAME(
/* name */ '37mm Analog Hygrometer or Thermometer_step.stp',
/* time_stamp */ '2025-08-23T17:57:11+02:00',
/* author */ (''),
/* organization */ (''),
/* preprocessor_version */ 'ST-DEVELOPER v20.1',
/* originating_system */ 'Autodesk Translation Framework v14.10.0.0',
/* authorisation */ '');

FILE_SCHEMA (('AUTOMOTIVE_DESIGN { 1 0 10303 214 3 1 1 }'));
ENDSEC;

DATA;
#10=MECHANICAL_DESIGN_GEOMETRIC_PRESENTATION_REPRESENTATION('',(#14,#15),
#202);
#11=SHAPE_REPRESENTATION_RELATIONSHIP('SRR','None',#209,#12);
#12=ADVANCED_BREP_SHAPE_REPRESENTATION('',(#13),#201);
#13=MANIFOLD_SOLID_BREP('Body1',#107);
#14=STYLED_ITEM('',(#220),#104);
#15=STYLED_ITEM('',(#219),#13);
#16=CYLINDRICAL_SURFACE('',#128,18.5);
#17=CYLINDRICAL_SURFACE('',#135,8.4);
#18=LINE('',#181,#22);
#19=LINE('',#188,#23);
#20=LINE('',#192,#24);
#21=LINE('',#198,#25);
#22=VECTOR('',#148,15.8);
#23=VECTOR('',#157,18.5);
#24=VECTOR('',#162,16.75);
#25=VECTOR('',#171,8.4);
#26=CONICAL_SURFACE('',#124,15.8,0.0133325432941454);
#27=CONICAL_SURFACE('',#130,16.75,1.29249666778979);
#28=FACE_BOUND('',#39,.T.);
#29=FACE_BOUND('',#42,.T.);
#30=FACE_OUTER_BOUND('',#38,.T.);
#31=FACE_OUTER_BOUND('',#40,.T.);
#32=FACE_OUTER_BOUND('',#41,.T.);
#33=FACE_OUTER_BOUND('',#43,.T.);
#34=FACE_OUTER_BOUND('',#44,.T.);
#35=FACE_OUTER_BOUND('',#45,.T.);
#36=FACE_OUTER_BOUND('',#46,.T.);
#37=FACE_OUTER_BOUND('',#47,.T.);
#38=EDGE_LOOP('',(#73));
#39=EDGE_LOOP('',(#74));
#40=EDGE_LOOP('',(#75,#76,#77,#78));
#41=EDGE_LOOP('',(#79));
#42=EDGE_LOOP('',(#80));
#43=EDGE_LOOP('',(#81,#82,#83,#84));
#44=EDGE_LOOP('',(#85,#86,#87,#88));
#45=EDGE_LOOP('',(#89));
#46=EDGE_LOOP('',(#90));
#47=EDGE_LOOP('',(#91,#92,#93,#94));
#48=CIRCLE('',#122,15.75);
#49=CIRCLE('',#123,8.4);
#50=CIRCLE('',#125,15.85);
#51=CIRCLE('',#127,18.5);
#52=CIRCLE('',#129,18.5);
#53=CIRCLE('',#131,15.);
#54=CIRCLE('',#134,8.4);
#55=VERTEX_POINT('',#174);
#56=VERTEX_POINT('',#176);
#57=VERTEX_POINT('',#179);
#58=VERTEX_POINT('',#183);
#59=VERTEX_POINT('',#186);
#60=VERTEX_POINT('',#190);
#61=VERTEX_POINT('',#195);
#62=EDGE_CURVE('',#55,#55,#48,.T.);
#63=EDGE_CURVE('',#56,#56,#49,.T.);
#64=EDGE_CURVE('',#57,#57,#50,.T.);
#65=EDGE_CURVE('',#57,#55,#18,.T.);
#66=EDGE_CURVE('',#58,#58,#51,.T.);
#67=EDGE_CURVE('',#59,#59,#52,.T.);
#68=EDGE_CURVE('',#59,#58,#19,.T.);
#69=EDGE_CURVE('',#60,#60,#53,.T.);
#70=EDGE_CURVE('',#60,#59,#20,.T.);
#71=EDGE_CURVE('',#61,#61,#54,.T.);
#72=EDGE_CURVE('',#61,#56,#21,.T.);
#73=ORIENTED_EDGE('',*,*,#62,.F.);
#74=ORIENTED_EDGE('',*,*,#63,.T.);
#75=ORIENTED_EDGE('',*,*,#64,.F.);
#76=ORIENTED_EDGE('',*,*,#65,.T.);
#77=ORIENTED_EDGE('',*,*,#62,.T.);
#78=ORIENTED_EDGE('',*,*,#65,.F.);
#79=ORIENTED_EDGE('',*,*,#66,.F.);
#80=ORIENTED_EDGE('',*,*,#64,.T.);
#81=ORIENTED_EDGE('',*,*,#67,.F.);
#82=ORIENTED_EDGE('',*,*,#68,.T.);
#83=ORIENTED_EDGE('',*,*,#66,.T.);
#84=ORIENTED_EDGE('',*,*,#68,.F.);
#85=ORIENTED_EDGE('',*,*,#69,.F.);
#86=ORIENTED_EDGE('',*,*,#70,.T.);
#87=ORIENTED_EDGE('',*,*,#67,.T.);
#88=ORIENTED_EDGE('',*,*,#70,.F.);
#89=ORIENTED_EDGE('',*,*,#69,.T.);
#90=ORIENTED_EDGE('',*,*,#71,.F.);
#91=ORIENTED_EDGE('',*,*,#71,.T.);
#92=ORIENTED_EDGE('',*,*,#72,.T.);
#93=ORIENTED_EDGE('',*,*,#63,.F.);
#94=ORIENTED_EDGE('',*,*,#72,.F.);
#95=PLANE('',#121);
#96=PLANE('',#126);
#97=PLANE('',#132);
#98=PLANE('',#133);
#99=ADVANCED_FACE('',(#30,#28),#95,.T.);
#100=ADVANCED_FACE('',(#31),#26,.T.);
#101=ADVANCED_FACE('',(#32,#29),#96,.T.);
#102=ADVANCED_FACE('',(#33),#16,.T.);
#103=ADVANCED_FACE('',(#34),#27,.T.);
#104=ADVANCED_FACE('',(#35),#97,.T.);
#105=ADVANCED_FACE('',(#36),#98,.T.);
#106=ADVANCED_FACE('',(#37),#17,.F.);
#107=CLOSED_SHELL('',(#99,#100,#101,#102,#103,#104,#105,#106));
#108=DERIVED_UNIT_ELEMENT(#110,1.);
#109=DERIVED_UNIT_ELEMENT(#204,-3.);
#110=(
MASS_UNIT()
NAMED_UNIT(*)
SI_UNIT(.KILO.,.GRAM.)
);
#111=DERIVED_UNIT((#108,#109));
#112=MEASURE_REPRESENTATION_ITEM('density measure',
POSITIVE_RATIO_MEASURE(7850.),#111);
#113=PROPERTY_DEFINITION_REPRESENTATION(#118,#115);
#114=PROPERTY_DEFINITION_REPRESENTATION(#119,#116);
#115=REPRESENTATION('material name',(#117),#201);
#116=REPRESENTATION('density',(#112),#201);
#117=DESCRIPTIVE_REPRESENTATION_ITEM('Steel','Steel');
#118=PROPERTY_DEFINITION('material property','material name',#211);
#119=PROPERTY_DEFINITION('material property','density of part',#211);
#120=AXIS2_PLACEMENT_3D('',#172,#136,#137);
#121=AXIS2_PLACEMENT_3D('',#173,#138,#139);
#122=AXIS2_PLACEMENT_3D('',#175,#140,#141);
#123=AXIS2_PLACEMENT_3D('',#177,#142,#143);
#124=AXIS2_PLACEMENT_3D('',#178,#144,#145);
#125=AXIS2_PLACEMENT_3D('',#180,#146,#147);
#126=AXIS2_PLACEMENT_3D('',#182,#149,#150);
#127=AXIS2_PLACEMENT_3D('',#184,#151,#152);
#128=AXIS2_PLACEMENT_3D('',#185,#153,#154);
#129=AXIS2_PLACEMENT_3D('',#187,#155,#156);
#130=AXIS2_PLACEMENT_3D('',#189,#158,#159);
#131=AXIS2_PLACEMENT_3D('',#191,#160,#161);
#132=AXIS2_PLACEMENT_3D('',#193,#163,#164);
#133=AXIS2_PLACEMENT_3D('',#194,#165,#166);
#134=AXIS2_PLACEMENT_3D('',#196,#167,#168);
#135=AXIS2_PLACEMENT_3D('',#197,#169,#170);
#136=DIRECTION('axis',(0.,0.,1.));
#137=DIRECTION('refdir',(1.,0.,0.));
#138=DIRECTION('center_axis',(0.,0.,-1.));
#139=DIRECTION('ref_axis',(-1.,0.,0.));
#140=DIRECTION('center_axis',(0.,0.,1.));
#141=DIRECTION('ref_axis',(1.,0.,0.));
#142=DIRECTION('center_axis',(0.,0.,1.));
#143=DIRECTION('ref_axis',(1.,0.,0.));
#144=DIRECTION('center_axis',(0.,0.,1.));
#145=DIRECTION('ref_axis',(1.,0.,0.));
#146=DIRECTION('center_axis',(0.,0.,1.));
#147=DIRECTION('ref_axis',(1.,0.,0.));
#148=DIRECTION('',(0.0133321483061491,1.63271727488834E-18,-0.999911122961207));
#149=DIRECTION('center_axis',(0.,0.,-1.));
#150=DIRECTION('ref_axis',(-1.,0.,0.));
#151=DIRECTION('center_axis',(0.,0.,1.));
#152=DIRECTION('ref_axis',(1.,0.,0.));
#153=DIRECTION('center_axis',(0.,0.,1.));
#154=DIRECTION('ref_axis',(1.,0.,0.));
#155=DIRECTION('center_axis',(0.,0.,1.));
#156=DIRECTION('ref_axis',(1.,0.,0.));
#157=DIRECTION('',(0.,0.,-1.));
#158=DIRECTION('center_axis',(0.,0.,-1.));
#159=DIRECTION('ref_axis',(1.,0.,0.));
#160=DIRECTION('center_axis',(0.,0.,1.));
#161=DIRECTION('ref_axis',(1.,0.,0.));
#162=DIRECTION('',(-0.961523947640823,-1.17752722478186E-16,-0.274721127897378));
#163=DIRECTION('center_axis',(0.,0.,1.));
#164=DIRECTION('ref_axis',(1.,0.,0.));
#165=DIRECTION('center_axis',(0.,0.,-1.));
#166=DIRECTION('ref_axis',(-1.,0.,0.));
#167=DIRECTION('center_axis',(0.,0.,1.));
#168=DIRECTION('ref_axis',(1.,0.,0.));
#169=DIRECTION('center_axis',(0.,0.,1.));
#170=DIRECTION('ref_axis',(1.,0.,0.));
#171=DIRECTION('',(0.,0.,-1.));
#172=CARTESIAN_POINT('',(0.,0.,0.));
#173=CARTESIAN_POINT('Origin',(15.75,0.,-1.84889274661175E-31));
#174=CARTESIAN_POINT('',(-15.75,-1.92881870865708E-15,0.));
#175=CARTESIAN_POINT('Origin',(0.,0.,0.));
#176=CARTESIAN_POINT('',(-8.4,-1.02870331128378E-15,0.));
#177=CARTESIAN_POINT('Origin',(0.,0.,0.));
#178=CARTESIAN_POINT('Origin',(0.,0.,3.75));
#179=CARTESIAN_POINT('',(-15.85,-1.94106517664855E-15,7.5));
#180=CARTESIAN_POINT('Origin',(0.,0.,7.5));
#181=CARTESIAN_POINT('',(-15.8,-1.93494194265282E-15,3.75));
#182=CARTESIAN_POINT('Origin',(18.5,0.,7.5));
#183=CARTESIAN_POINT('',(-18.5,-2.2655965784226E-15,7.5));
#184=CARTESIAN_POINT('Origin',(0.,0.,7.5));
#185=CARTESIAN_POINT('Origin',(0.,0.,8.15));
#186=CARTESIAN_POINT('',(-18.5,-2.2655965784226E-15,8.8));
#187=CARTESIAN_POINT('Origin',(0.,0.,8.8));
#188=CARTESIAN_POINT('',(-18.5,-2.2655965784226E-15,8.15));
#189=CARTESIAN_POINT('Origin',(0.,0.,9.3));
#190=CARTESIAN_POINT('',(-15.,-1.83697019872103E-15,9.8));
#191=CARTESIAN_POINT('Origin',(0.,0.,9.8));
#192=CARTESIAN_POINT('',(-16.75,-2.05128338857182E-15,9.3));
#193=CARTESIAN_POINT('Origin',(0.,0.,9.8));
#194=CARTESIAN_POINT('Origin',(8.4,0.,0.35));
#195=CARTESIAN_POINT('',(-8.4,-1.02870331128378E-15,0.35));
#196=CARTESIAN_POINT('Origin',(0.,0.,0.35));
#197=CARTESIAN_POINT('Origin',(0.,0.,0.175));
#198=CARTESIAN_POINT('',(-8.4,-1.02870331128378E-15,0.175));
#199=UNCERTAINTY_MEASURE_WITH_UNIT(LENGTH_MEASURE(0.01),#203,
'DISTANCE_ACCURACY_VALUE',
'Maximum model space distance between geometric entities at asserted c
onnectivities');
#200=UNCERTAINTY_MEASURE_WITH_UNIT(LENGTH_MEASURE(0.01),#203,
'DISTANCE_ACCURACY_VALUE',
'Maximum model space distance between geometric entities at asserted c
onnectivities');
#201=(
GEOMETRIC_REPRESENTATION_CONTEXT(3)
GLOBAL_UNCERTAINTY_ASSIGNED_CONTEXT((#199))
GLOBAL_UNIT_ASSIGNED_CONTEXT((#203,#205,#206))
REPRESENTATION_CONTEXT('','3D')
);
#202=(
GEOMETRIC_REPRESENTATION_CONTEXT(3)
GLOBAL_UNCERTAINTY_ASSIGNED_CONTEXT((#200))
GLOBAL_UNIT_ASSIGNED_CONTEXT((#203,#205,#206))
REPRESENTATION_CONTEXT('','3D')
);
#203=(
LENGTH_UNIT()
NAMED_UNIT(*)
SI_UNIT(.MILLI.,.METRE.)
);
#204=(
LENGTH_UNIT()
NAMED_UNIT(*)
SI_UNIT($,.METRE.)
);
#205=(
NAMED_UNIT(*)
PLANE_ANGLE_UNIT()
SI_UNIT($,.RADIAN.)
);
#206=(
NAMED_UNIT(*)
SI_UNIT($,.STERADIAN.)
SOLID_ANGLE_UNIT()
);
#207=SHAPE_DEFINITION_REPRESENTATION(#208,#209);
#208=PRODUCT_DEFINITION_SHAPE('',$,#211);
#209=SHAPE_REPRESENTATION('',(#120),#201);
#210=PRODUCT_DEFINITION_CONTEXT('part definition',#215,'design');
#211=PRODUCT_DEFINITION('37mm Analog Hygrometer or Thermometer',
'37mm Analog Hygrometer or Thermometer v1',#212,#210);
#212=PRODUCT_DEFINITION_FORMATION('',$,#217);
#213=PRODUCT_RELATED_PRODUCT_CATEGORY(
'37mm Analog Hygrometer or Thermometer v1',
'37mm Analog Hygrometer or Thermometer v1',(#217));
#214=APPLICATION_PROTOCOL_DEFINITION('international standard',
'automotive_design',2009,#215);
#215=APPLICATION_CONTEXT(
'Core Data for Automotive Mechanical Design Process');
#216=PRODUCT_CONTEXT('part definition',#215,'mechanical');
#217=PRODUCT('37mm Analog Hygrometer or Thermometer',
'37mm Analog Hygrometer or Thermometer v1',$,(#216));
#218=PRESENTATION_STYLE_ASSIGNMENT((#221));
#219=PRESENTATION_STYLE_ASSIGNMENT((#222));
#220=PRESENTATION_STYLE_ASSIGNMENT((#223));
#221=SURFACE_STYLE_USAGE(.BOTH.,#224);
#222=SURFACE_STYLE_USAGE(.BOTH.,#225);
#223=SURFACE_STYLE_USAGE(.BOTH.,#226);
#224=SURFACE_SIDE_STYLE('',(#227));
#225=SURFACE_SIDE_STYLE('',(#228));
#226=SURFACE_SIDE_STYLE('',(#229));
#227=SURFACE_STYLE_FILL_AREA(#230);
#228=SURFACE_STYLE_FILL_AREA(#231);
#229=SURFACE_STYLE_FILL_AREA(#232);
#230=FILL_AREA_STYLE('Steel - Satin',(#233));
#231=FILL_AREA_STYLE('Brass - Polished',(#234));
#232=FILL_AREA_STYLE('ABS (White)',(#235));
#233=FILL_AREA_STYLE_COLOUR('Steel - Satin',#236);
#234=FILL_AREA_STYLE_COLOUR('Brass - Polished',#237);
#235=FILL_AREA_STYLE_COLOUR('ABS (White)',#238);
#236=COLOUR_RGB('Steel - Satin',0.627450980392157,0.627450980392157,0.627450980392157);
#237=COLOUR_RGB('Brass - Polished',0.952941176470588,0.796078431372549,
0.486274509803922);
#238=COLOUR_RGB('ABS (White)',0.964705882352941,0.964705882352941,0.952941176470588);
ENDSEC;
END-ISO-10303-21;
