ISO-10303-21;
HEADER;
/* Generated by software containing ST-Developer
 * from STEP Tools, Inc. (www.steptools.com) 
 */

FILE_DESCRIPTION(
/* description */ (''),
/* implementation_level */ '2;1');

FILE_NAME(
/* name */ 'Saturn 8K Cover v3.step',
/* time_stamp */ '2025-03-25T18:34:44+01:00',
/* author */ (''),
/* organization */ (''),
/* preprocessor_version */ 'ST-DEVELOPER v20.1',
/* originating_system */ 'Autodesk Translation Framework v14.4.0.0',
/* authorisation */ '');

FILE_SCHEMA (('AUTOMOTIVE_DESIGN { 1 0 10303 214 3 1 1 }'));
ENDSEC;

DATA;
#10=MECHANICAL_DESIGN_GEOMETRIC_PRESENTATION_REPRESENTATION('',(#31,#32,
#33),#2043);
#11=ITEM_DEFINED_TRANSFORMATION($,$,#1191,#1329);
#12=ITEM_DEFINED_TRANSFORMATION($,$,#1191,#1330);
#13=ITEM_DEFINED_TRANSFORMATION($,$,#1191,#1331);
#14=ITEM_DEFINED_TRANSFORMATION($,$,#1191,#1332);
#15=(
REPRESENTATION_RELATIONSHIP($,$,#2057,#2056)
REPRESENTATION_RELATIONSHIP_WITH_TRANSFORMATION(#11)
SHAPE_REPRESENTATION_RELATIONSHIP()
);
#16=(
REPRESENTATION_RELATIONSHIP($,$,#2057,#2056)
REPRESENTATION_RELATIONSHIP_WITH_TRANSFORMATION(#12)
SHAPE_REPRESENTATION_RELATIONSHIP()
);
#17=(
REPRESENTATION_RELATIONSHIP($,$,#2057,#2056)
REPRESENTATION_RELATIONSHIP_WITH_TRANSFORMATION(#13)
SHAPE_REPRESENTATION_RELATIONSHIP()
);
#18=(
REPRESENTATION_RELATIONSHIP($,$,#2057,#2056)
REPRESENTATION_RELATIONSHIP_WITH_TRANSFORMATION(#14)
SHAPE_REPRESENTATION_RELATIONSHIP()
);
#19=CONTEXT_DEPENDENT_SHAPE_REPRESENTATION(#15,#2052);
#20=CONTEXT_DEPENDENT_SHAPE_REPRESENTATION(#16,#2053);
#21=CONTEXT_DEPENDENT_SHAPE_REPRESENTATION(#17,#2054);
#22=CONTEXT_DEPENDENT_SHAPE_REPRESENTATION(#18,#2055);
#23=NEXT_ASSEMBLY_USAGE_OCCURRENCE(
'Broached Hexagon Socket Head Cap Screw ASME B18.3.1M - M3x0.5 x 6 Ste
el Grade 2 Plain v1:1',
'Broached Hexagon Socket Head Cap Screw ASME B18.3.1M - M3x0.5 x 6 Ste
el Grade 2 Plain v1:1',
'Broached Hexagon Socket Head Cap Screw ASME B18.3.1M - M3x0.5 x 6 Ste
el Grade 2 Plain v1:1',#2059,#2060,
'Broached Hexagon Socket Head Cap Screw ASME B18.3.1M - M3x0.5 x 6 Ste
el Grade 2 Plain v1:1');
#24=NEXT_ASSEMBLY_USAGE_OCCURRENCE(
'Broached Hexagon Socket Head Cap Screw ASME B18.3.1M - M3x0.5 x 6 Ste
el Grade 2 Plain v1:2',
'Broached Hexagon Socket Head Cap Screw ASME B18.3.1M - M3x0.5 x 6 Ste
el Grade 2 Plain v1:2',
'Broached Hexagon Socket Head Cap Screw ASME B18.3.1M - M3x0.5 x 6 Ste
el Grade 2 Plain v1:2',#2059,#2060,
'Broached Hexagon Socket Head Cap Screw ASME B18.3.1M - M3x0.5 x 6 Ste
el Grade 2 Plain v1:2');
#25=NEXT_ASSEMBLY_USAGE_OCCURRENCE(
'Broached Hexagon Socket Head Cap Screw ASME B18.3.1M - M3x0.5 x 6 Ste
el Grade 2 Plain v1:3',
'Broached Hexagon Socket Head Cap Screw ASME B18.3.1M - M3x0.5 x 6 Ste
el Grade 2 Plain v1:3',
'Broached Hexagon Socket Head Cap Screw ASME B18.3.1M - M3x0.5 x 6 Ste
el Grade 2 Plain v1:3',#2059,#2060,
'Broached Hexagon Socket Head Cap Screw ASME B18.3.1M - M3x0.5 x 6 Ste
el Grade 2 Plain v1:3');
#26=NEXT_ASSEMBLY_USAGE_OCCURRENCE(
'Broached Hexagon Socket Head Cap Screw ASME B18.3.1M - M3x0.5 x 6 Ste
el Grade 2 Plain v1:4',
'Broached Hexagon Socket Head Cap Screw ASME B18.3.1M - M3x0.5 x 6 Ste
el Grade 2 Plain v1:4',
'Broached Hexagon Socket Head Cap Screw ASME B18.3.1M - M3x0.5 x 6 Ste
el Grade 2 Plain v1:4',#2059,#2060,
'Broached Hexagon Socket Head Cap Screw ASME B18.3.1M - M3x0.5 x 6 Ste
el Grade 2 Plain v1:4');
#27=SHAPE_REPRESENTATION_RELATIONSHIP('SRR','None',#2057,#29);
#28=SHAPE_REPRESENTATION_RELATIONSHIP('SRR','None',#2056,#30);
#29=ADVANCED_BREP_SHAPE_REPRESENTATION('',(#34),#2042);
#30=ADVANCED_BREP_SHAPE_REPRESENTATION('',(#35,#36),#2041);
#31=STYLED_ITEM('',(#2070),#34);
#32=STYLED_ITEM('',(#2070),#35);
#33=STYLED_ITEM('',(#2070),#36);
#34=MANIFOLD_SOLID_BREP('Body1',#1175);
#35=MANIFOLD_SOLID_BREP('Main',#1176);
#36=MANIFOLD_SOLID_BREP('Exhaust Plate',#1177);
#37=CYLINDRICAL_SURFACE('',#1200,2.75000000000002);
#38=CYLINDRICAL_SURFACE('',#1214,1.4635);
#39=CYLINDRICAL_SURFACE('',#1218,1.5);
#40=CYLINDRICAL_SURFACE('',#1221,1.5);
#41=CYLINDRICAL_SURFACE('',#1224,1.5);
#42=CYLINDRICAL_SURFACE('',#1227,1.5);
#43=CYLINDRICAL_SURFACE('',#1230,37.45);
#44=CYLINDRICAL_SURFACE('',#1234,6.00000000011318);
#45=CYLINDRICAL_SURFACE('',#1238,6.00000000009473);
#46=CYLINDRICAL_SURFACE('',#1242,6.00000000000091);
#47=CYLINDRICAL_SURFACE('',#1246,6.00000000008035);
#48=CYLINDRICAL_SURFACE('',#1251,10.0000000000001);
#49=CYLINDRICAL_SURFACE('',#1255,10.0000000000016);
#50=CYLINDRICAL_SURFACE('',#1259,10.0000000000001);
#51=CYLINDRICAL_SURFACE('',#1263,9.99999999999998);
#52=CYLINDRICAL_SURFACE('',#1273,5.);
#53=CYLINDRICAL_SURFACE('',#1277,1.2645);
#54=CYLINDRICAL_SURFACE('',#1292,5.);
#55=CYLINDRICAL_SURFACE('',#1295,1.2645);
#56=CYLINDRICAL_SURFACE('',#1301,5.);
#57=CYLINDRICAL_SURFACE('',#1304,1.2645);
#58=CYLINDRICAL_SURFACE('',#1311,5.);
#59=CYLINDRICAL_SURFACE('',#1314,1.2645);
#60=CYLINDRICAL_SURFACE('',#1317,7.38758243433591);
#61=CYLINDRICAL_SURFACE('',#1320,7.38758243433592);
#62=CYLINDRICAL_SURFACE('',#1323,7.3875824343359);
#63=CYLINDRICAL_SURFACE('',#1326,7.3875824343359);
#64=FACE_BOUND('',#202,.T.);
#65=FACE_BOUND('',#219,.T.);
#66=FACE_BOUND('',#230,.T.);
#67=FACE_BOUND('',#231,.T.);
#68=FACE_BOUND('',#232,.T.);
#69=FACE_BOUND('',#233,.T.);
#70=FACE_BOUND('',#234,.T.);
#71=FACE_BOUND('',#240,.T.);
#72=FACE_BOUND('',#241,.T.);
#73=FACE_BOUND('',#242,.T.);
#74=FACE_BOUND('',#243,.T.);
#75=FACE_BOUND('',#244,.T.);
#76=FACE_BOUND('',#254,.T.);
#77=FACE_BOUND('',#258,.T.);
#78=FACE_BOUND('',#261,.T.);
#79=FACE_BOUND('',#262,.T.);
#80=FACE_BOUND('',#263,.T.);
#81=FACE_BOUND('',#264,.T.);
#82=FACE_BOUND('',#268,.T.);
#83=FACE_BOUND('',#273,.T.);
#84=FACE_BOUND('',#278,.T.);
#85=FACE_BOUND('',#289,.T.);
#86=FACE_BOUND('',#290,.T.);
#87=FACE_BOUND('',#291,.T.);
#88=FACE_BOUND('',#292,.T.);
#89=PLANE('',#1199);
#90=PLANE('',#1202);
#91=PLANE('',#1203);
#92=PLANE('',#1204);
#93=PLANE('',#1205);
#94=PLANE('',#1206);
#95=PLANE('',#1207);
#96=PLANE('',#1208);
#97=PLANE('',#1209);
#98=PLANE('',#1210);
#99=PLANE('',#1211);
#100=PLANE('',#1212);
#101=PLANE('',#1213);
#102=PLANE('',#1216);
#103=PLANE('',#1217);
#104=PLANE('',#1233);
#105=PLANE('',#1237);
#106=PLANE('',#1241);
#107=PLANE('',#1245);
#108=PLANE('',#1249);
#109=PLANE('',#1250);
#110=PLANE('',#1254);
#111=PLANE('',#1258);
#112=PLANE('',#1262);
#113=PLANE('',#1266);
#114=PLANE('',#1267);
#115=PLANE('',#1275);
#116=PLANE('',#1279);
#117=PLANE('',#1293);
#118=PLANE('',#1302);
#119=PLANE('',#1312);
#120=PLANE('',#1316);
#121=PLANE('',#1319);
#122=PLANE('',#1322);
#123=PLANE('',#1325);
#124=PLANE('',#1328);
#125=TOROIDAL_SURFACE('',#1195,2.45000000000002,0.3);
#126=TOROIDAL_SURFACE('',#1268,4.,1.);
#127=TOROIDAL_SURFACE('',#1287,4.,1.);
#128=TOROIDAL_SURFACE('',#1297,4.,1.);
#129=TOROIDAL_SURFACE('',#1306,4.,1.);
#130=FACE_OUTER_BOUND('',#199,.T.);
#131=FACE_OUTER_BOUND('',#200,.T.);
#132=FACE_OUTER_BOUND('',#201,.T.);
#133=FACE_OUTER_BOUND('',#203,.T.);
#134=FACE_OUTER_BOUND('',#204,.T.);
#135=FACE_OUTER_BOUND('',#205,.T.);
#136=FACE_OUTER_BOUND('',#206,.T.);
#137=FACE_OUTER_BOUND('',#207,.T.);
#138=FACE_OUTER_BOUND('',#208,.T.);
#139=FACE_OUTER_BOUND('',#209,.T.);
#140=FACE_OUTER_BOUND('',#210,.T.);
#141=FACE_OUTER_BOUND('',#211,.T.);
#142=FACE_OUTER_BOUND('',#212,.T.);
#143=FACE_OUTER_BOUND('',#213,.T.);
#144=FACE_OUTER_BOUND('',#214,.T.);
#145=FACE_OUTER_BOUND('',#215,.T.);
#146=FACE_OUTER_BOUND('',#216,.T.);
#147=FACE_OUTER_BOUND('',#217,.T.);
#148=FACE_OUTER_BOUND('',#218,.T.);
#149=FACE_OUTER_BOUND('',#220,.T.);
#150=FACE_OUTER_BOUND('',#221,.T.);
#151=FACE_OUTER_BOUND('',#222,.T.);
#152=FACE_OUTER_BOUND('',#223,.T.);
#153=FACE_OUTER_BOUND('',#224,.T.);
#154=FACE_OUTER_BOUND('',#225,.T.);
#155=FACE_OUTER_BOUND('',#226,.T.);
#156=FACE_OUTER_BOUND('',#227,.T.);
#157=FACE_OUTER_BOUND('',#228,.T.);
#158=FACE_OUTER_BOUND('',#229,.T.);
#159=FACE_OUTER_BOUND('',#235,.T.);
#160=FACE_OUTER_BOUND('',#236,.T.);
#161=FACE_OUTER_BOUND('',#237,.T.);
#162=FACE_OUTER_BOUND('',#238,.T.);
#163=FACE_OUTER_BOUND('',#239,.T.);
#164=FACE_OUTER_BOUND('',#245,.T.);
#165=FACE_OUTER_BOUND('',#246,.T.);
#166=FACE_OUTER_BOUND('',#247,.T.);
#167=FACE_OUTER_BOUND('',#248,.T.);
#168=FACE_OUTER_BOUND('',#249,.T.);
#169=FACE_OUTER_BOUND('',#250,.T.);
#170=FACE_OUTER_BOUND('',#251,.T.);
#171=FACE_OUTER_BOUND('',#252,.T.);
#172=FACE_OUTER_BOUND('',#253,.T.);
#173=FACE_OUTER_BOUND('',#255,.T.);
#174=FACE_OUTER_BOUND('',#256,.T.);
#175=FACE_OUTER_BOUND('',#257,.T.);
#176=FACE_OUTER_BOUND('',#259,.T.);
#177=FACE_OUTER_BOUND('',#260,.T.);
#178=FACE_OUTER_BOUND('',#265,.T.);
#179=FACE_OUTER_BOUND('',#266,.T.);
#180=FACE_OUTER_BOUND('',#267,.T.);
#181=FACE_OUTER_BOUND('',#269,.T.);
#182=FACE_OUTER_BOUND('',#270,.T.);
#183=FACE_OUTER_BOUND('',#271,.T.);
#184=FACE_OUTER_BOUND('',#272,.T.);
#185=FACE_OUTER_BOUND('',#274,.T.);
#186=FACE_OUTER_BOUND('',#275,.T.);
#187=FACE_OUTER_BOUND('',#276,.T.);
#188=FACE_OUTER_BOUND('',#277,.T.);
#189=FACE_OUTER_BOUND('',#279,.T.);
#190=FACE_OUTER_BOUND('',#280,.T.);
#191=FACE_OUTER_BOUND('',#281,.T.);
#192=FACE_OUTER_BOUND('',#282,.T.);
#193=FACE_OUTER_BOUND('',#283,.T.);
#194=FACE_OUTER_BOUND('',#284,.T.);
#195=FACE_OUTER_BOUND('',#285,.T.);
#196=FACE_OUTER_BOUND('',#286,.T.);
#197=FACE_OUTER_BOUND('',#287,.T.);
#198=FACE_OUTER_BOUND('',#288,.T.);
#199=EDGE_LOOP('',(#793,#794,#795,#796));
#200=EDGE_LOOP('',(#797,#798,#799,#800));
#201=EDGE_LOOP('',(#801));
#202=EDGE_LOOP('',(#802,#803,#804,#805,#806,#807));
#203=EDGE_LOOP('',(#808,#809,#810,#811));
#204=EDGE_LOOP('',(#812,#813,#814));
#205=EDGE_LOOP('',(#815,#816,#817));
#206=EDGE_LOOP('',(#818,#819,#820));
#207=EDGE_LOOP('',(#821,#822,#823));
#208=EDGE_LOOP('',(#824,#825,#826));
#209=EDGE_LOOP('',(#827,#828,#829));
#210=EDGE_LOOP('',(#830,#831,#832,#833));
#211=EDGE_LOOP('',(#834,#835,#836,#837));
#212=EDGE_LOOP('',(#838,#839,#840,#841));
#213=EDGE_LOOP('',(#842,#843,#844,#845));
#214=EDGE_LOOP('',(#846,#847,#848,#849));
#215=EDGE_LOOP('',(#850,#851,#852,#853));
#216=EDGE_LOOP('',(#854,#855,#856,#857));
#217=EDGE_LOOP('',(#858));
#218=EDGE_LOOP('',(#859));
#219=EDGE_LOOP('',(#860));
#220=EDGE_LOOP('',(#861,#862,#863,#864));
#221=EDGE_LOOP('',(#865,#866,#867,#868));
#222=EDGE_LOOP('',(#869,#870,#871,#872));
#223=EDGE_LOOP('',(#873,#874,#875,#876));
#224=EDGE_LOOP('',(#877,#878,#879,#880));
#225=EDGE_LOOP('',(#881,#882,#883,#884));
#226=EDGE_LOOP('',(#885,#886,#887,#888));
#227=EDGE_LOOP('',(#889,#890,#891,#892));
#228=EDGE_LOOP('',(#893,#894,#895,#896));
#229=EDGE_LOOP('',(#897,#898,#899,#900));
#230=EDGE_LOOP('',(#901));
#231=EDGE_LOOP('',(#902));
#232=EDGE_LOOP('',(#903));
#233=EDGE_LOOP('',(#904));
#234=EDGE_LOOP('',(#905));
#235=EDGE_LOOP('',(#906,#907,#908,#909));
#236=EDGE_LOOP('',(#910,#911,#912,#913));
#237=EDGE_LOOP('',(#914,#915,#916,#917));
#238=EDGE_LOOP('',(#918,#919,#920,#921,#922,#923,#924,#925));
#239=EDGE_LOOP('',(#926,#927,#928,#929));
#240=EDGE_LOOP('',(#930));
#241=EDGE_LOOP('',(#931));
#242=EDGE_LOOP('',(#932));
#243=EDGE_LOOP('',(#933));
#244=EDGE_LOOP('',(#934));
#245=EDGE_LOOP('',(#935,#936,#937,#938));
#246=EDGE_LOOP('',(#939,#940,#941,#942));
#247=EDGE_LOOP('',(#943,#944,#945,#946));
#248=EDGE_LOOP('',(#947,#948,#949,#950));
#249=EDGE_LOOP('',(#951,#952,#953,#954));
#250=EDGE_LOOP('',(#955,#956,#957,#958));
#251=EDGE_LOOP('',(#959,#960,#961,#962));
#252=EDGE_LOOP('',(#963,#964,#965,#966,#967,#968,#969,#970));
#253=EDGE_LOOP('',(#971,#972,#973,#974,#975,#976,#977,#978));
#254=EDGE_LOOP('',(#979,#980,#981,#982,#983,#984,#985,#986));
#255=EDGE_LOOP('',(#987,#988,#989,#990,#991));
#256=EDGE_LOOP('',(#992,#993,#994,#995,#996));
#257=EDGE_LOOP('',(#997));
#258=EDGE_LOOP('',(#998));
#259=EDGE_LOOP('',(#999,#1000,#1001,#1002));
#260=EDGE_LOOP('',(#1003,#1004,#1005,#1006,#1007,#1008,#1009,#1010));
#261=EDGE_LOOP('',(#1011));
#262=EDGE_LOOP('',(#1012));
#263=EDGE_LOOP('',(#1013));
#264=EDGE_LOOP('',(#1014));
#265=EDGE_LOOP('',(#1015,#1016,#1017,#1018,#1019));
#266=EDGE_LOOP('',(#1020,#1021,#1022,#1023,#1024));
#267=EDGE_LOOP('',(#1025));
#268=EDGE_LOOP('',(#1026));
#269=EDGE_LOOP('',(#1027,#1028,#1029,#1030));
#270=EDGE_LOOP('',(#1031,#1032,#1033,#1034));
#271=EDGE_LOOP('',(#1035,#1036,#1037,#1038));
#272=EDGE_LOOP('',(#1039));
#273=EDGE_LOOP('',(#1040));
#274=EDGE_LOOP('',(#1041,#1042,#1043,#1044));
#275=EDGE_LOOP('',(#1045,#1046,#1047,#1048,#1049));
#276=EDGE_LOOP('',(#1050,#1051,#1052,#1053,#1054));
#277=EDGE_LOOP('',(#1055));
#278=EDGE_LOOP('',(#1056));
#279=EDGE_LOOP('',(#1057,#1058,#1059,#1060));
#280=EDGE_LOOP('',(#1061,#1062,#1063,#1064));
#281=EDGE_LOOP('',(#1065,#1066,#1067,#1068));
#282=EDGE_LOOP('',(#1069,#1070,#1071,#1072));
#283=EDGE_LOOP('',(#1073,#1074,#1075,#1076));
#284=EDGE_LOOP('',(#1077,#1078,#1079,#1080));
#285=EDGE_LOOP('',(#1081,#1082,#1083,#1084));
#286=EDGE_LOOP('',(#1085,#1086,#1087,#1088));
#287=EDGE_LOOP('',(#1089,#1090,#1091,#1092));
#288=EDGE_LOOP('',(#1093,#1094,#1095,#1096,#1097,#1098,#1099,#1100));
#289=EDGE_LOOP('',(#1101));
#290=EDGE_LOOP('',(#1102));
#291=EDGE_LOOP('',(#1103));
#292=EDGE_LOOP('',(#1104));
#293=LINE('',#1713,#381);
#294=LINE('',#1724,#382);
#295=LINE('',#1726,#383);
#296=LINE('',#1728,#384);
#297=LINE('',#1730,#385);
#298=LINE('',#1732,#386);
#299=LINE('',#1733,#387);
#300=LINE('',#1737,#388);
#301=LINE('',#1741,#389);
#302=LINE('',#1743,#390);
#303=LINE('',#1744,#391);
#304=LINE('',#1747,#392);
#305=LINE('',#1748,#393);
#306=LINE('',#1751,#394);
#307=LINE('',#1752,#395);
#308=LINE('',#1755,#396);
#309=LINE('',#1756,#397);
#310=LINE('',#1759,#398);
#311=LINE('',#1760,#399);
#312=LINE('',#1762,#400);
#313=LINE('',#1764,#401);
#314=LINE('',#1765,#402);
#315=LINE('',#1767,#403);
#316=LINE('',#1769,#404);
#317=LINE('',#1771,#405);
#318=LINE('',#1773,#406);
#319=LINE('',#1777,#407);
#320=LINE('',#1785,#408);
#321=LINE('',#1791,#409);
#322=LINE('',#1797,#410);
#323=LINE('',#1803,#411);
#324=LINE('',#1809,#412);
#325=LINE('',#1814,#413);
#326=LINE('',#1816,#414);
#327=LINE('',#1818,#415);
#328=LINE('',#1819,#416);
#329=LINE('',#1825,#417);
#330=LINE('',#1828,#418);
#331=LINE('',#1830,#419);
#332=LINE('',#1831,#420);
#333=LINE('',#1837,#421);
#334=LINE('',#1840,#422);
#335=LINE('',#1842,#423);
#336=LINE('',#1843,#424);
#337=LINE('',#1849,#425);
#338=LINE('',#1852,#426);
#339=LINE('',#1854,#427);
#340=LINE('',#1855,#428);
#341=LINE('',#1863,#429);
#342=LINE('',#1865,#430);
#343=LINE('',#1867,#431);
#344=LINE('',#1868,#432);
#345=LINE('',#1874,#433);
#346=LINE('',#1877,#434);
#347=LINE('',#1879,#435);
#348=LINE('',#1880,#436);
#349=LINE('',#1886,#437);
#350=LINE('',#1889,#438);
#351=LINE('',#1891,#439);
#352=LINE('',#1892,#440);
#353=LINE('',#1898,#441);
#354=LINE('',#1901,#442);
#355=LINE('',#1903,#443);
#356=LINE('',#1904,#444);
#357=LINE('',#1920,#445);
#358=LINE('',#1927,#446);
#359=LINE('',#1934,#447);
#360=LINE('',#1938,#448);
#361=LINE('',#1942,#449);
#362=LINE('',#1945,#450);
#363=LINE('',#1961,#451);
#364=LINE('',#1967,#452);
#365=LINE('',#1976,#453);
#366=LINE('',#1982,#454);
#367=LINE('',#1993,#455);
#368=LINE('',#1999,#456);
#369=LINE('',#2004,#457);
#370=LINE('',#2005,#458);
#371=LINE('',#2006,#459);
#372=LINE('',#2010,#460);
#373=LINE('',#2013,#461);
#374=LINE('',#2014,#462);
#375=LINE('',#2018,#463);
#376=LINE('',#2021,#464);
#377=LINE('',#2022,#465);
#378=LINE('',#2026,#466);
#379=LINE('',#2029,#467);
#380=LINE('',#2030,#468);
#381=VECTOR('',#1341,1.36163750000003);
#382=VECTOR('',#1354,10.);
#383=VECTOR('',#1355,10.);
#384=VECTOR('',#1356,10.);
#385=VECTOR('',#1357,10.);
#386=VECTOR('',#1358,10.);
#387=VECTOR('',#1359,10.);
#388=VECTOR('',#1364,2.75000000000002);
#389=VECTOR('',#1367,10.);
#390=VECTOR('',#1368,10.);
#391=VECTOR('',#1369,10.);
#392=VECTOR('',#1372,10.);
#393=VECTOR('',#1373,10.);
#394=VECTOR('',#1376,10.);
#395=VECTOR('',#1377,10.);
#396=VECTOR('',#1380,10.);
#397=VECTOR('',#1381,10.);
#398=VECTOR('',#1384,10.);
#399=VECTOR('',#1385,10.);
#400=VECTOR('',#1388,10.);
#401=VECTOR('',#1391,10.);
#402=VECTOR('',#1392,10.);
#403=VECTOR('',#1395,10.);
#404=VECTOR('',#1398,10.);
#405=VECTOR('',#1401,10.);
#406=VECTOR('',#1404,10.);
#407=VECTOR('',#1409,1.50000000000001);
#408=VECTOR('',#1420,1.5);
#409=VECTOR('',#1427,1.5);
#410=VECTOR('',#1434,1.5);
#411=VECTOR('',#1441,1.5);
#412=VECTOR('',#1448,37.45);
#413=VECTOR('',#1453,10.);
#414=VECTOR('',#1454,10.);
#415=VECTOR('',#1455,10.);
#416=VECTOR('',#1456,10.);
#417=VECTOR('',#1463,10.);
#418=VECTOR('',#1466,10.);
#419=VECTOR('',#1467,10.);
#420=VECTOR('',#1468,10.);
#421=VECTOR('',#1475,10.);
#422=VECTOR('',#1478,10.);
#423=VECTOR('',#1479,10.);
#424=VECTOR('',#1480,10.);
#425=VECTOR('',#1487,10.);
#426=VECTOR('',#1490,10.);
#427=VECTOR('',#1491,10.);
#428=VECTOR('',#1492,10.);
#429=VECTOR('',#1503,10.);
#430=VECTOR('',#1504,10.);
#431=VECTOR('',#1505,10.);
#432=VECTOR('',#1506,10.);
#433=VECTOR('',#1513,10.);
#434=VECTOR('',#1516,10.);
#435=VECTOR('',#1517,10.);
#436=VECTOR('',#1518,10.);
#437=VECTOR('',#1525,10.);
#438=VECTOR('',#1528,10.);
#439=VECTOR('',#1529,10.);
#440=VECTOR('',#1530,10.);
#441=VECTOR('',#1537,10.);
#442=VECTOR('',#1540,10.);
#443=VECTOR('',#1541,10.);
#444=VECTOR('',#1542,10.);
#445=VECTOR('',#1565,5.);
#446=VECTOR('',#1574,1.5);
#447=VECTOR('',#1581,10.);
#448=VECTOR('',#1584,10.);
#449=VECTOR('',#1587,10.);
#450=VECTOR('',#1590,10.);
#451=VECTOR('',#1609,5.);
#452=VECTOR('',#1616,1.5);
#453=VECTOR('',#1629,5.);
#454=VECTOR('',#1636,1.5);
#455=VECTOR('',#1651,5.);
#456=VECTOR('',#1658,1.5);
#457=VECTOR('',#1663,10.);
#458=VECTOR('',#1664,10.);
#459=VECTOR('',#1665,10.);
#460=VECTOR('',#1670,10.);
#461=VECTOR('',#1673,10.);
#462=VECTOR('',#1674,10.);
#463=VECTOR('',#1679,10.);
#464=VECTOR('',#1682,10.);
#465=VECTOR('',#1683,10.);
#466=VECTOR('',#1688,10.);
#467=VECTOR('',#1691,10.);
#468=VECTOR('',#1692,10.);
#469=CIRCLE('',#1193,1.4635);
#470=CIRCLE('',#1194,1.19327500000001);
#471=CIRCLE('',#1196,2.75000000000002);
#472=CIRCLE('',#1197,0.3);
#473=CIRCLE('',#1198,2.45000000000002);
#474=CIRCLE('',#1201,2.75000000000001);
#475=CIRCLE('',#1215,1.4635);
#476=CIRCLE('',#1219,1.5);
#477=CIRCLE('',#1220,1.5);
#478=CIRCLE('',#1222,1.5);
#479=CIRCLE('',#1223,1.5);
#480=CIRCLE('',#1225,1.5);
#481=CIRCLE('',#1226,1.5);
#482=CIRCLE('',#1228,1.5);
#483=CIRCLE('',#1229,1.5);
#484=CIRCLE('',#1231,37.45);
#485=CIRCLE('',#1232,37.45);
#486=CIRCLE('',#1235,6.00000000011318);
#487=CIRCLE('',#1236,6.00000000011318);
#488=CIRCLE('',#1239,6.00000000009473);
#489=CIRCLE('',#1240,6.00000000009473);
#490=CIRCLE('',#1243,6.00000000000091);
#491=CIRCLE('',#1244,6.00000000000091);
#492=CIRCLE('',#1247,6.00000000008035);
#493=CIRCLE('',#1248,6.00000000008035);
#494=CIRCLE('',#1252,10.0000000000001);
#495=CIRCLE('',#1253,10.0000000000001);
#496=CIRCLE('',#1256,10.0000000000016);
#497=CIRCLE('',#1257,10.0000000000016);
#498=CIRCLE('',#1260,10.0000000000001);
#499=CIRCLE('',#1261,10.0000000000001);
#500=CIRCLE('',#1264,9.99999999999998);
#501=CIRCLE('',#1265,9.99999999999998);
#502=CIRCLE('',#1269,4.);
#503=CIRCLE('',#1270,1.);
#504=CIRCLE('',#1271,5.);
#505=CIRCLE('',#1272,5.);
#506=CIRCLE('',#1274,5.);
#507=CIRCLE('',#1276,1.2645);
#508=CIRCLE('',#1278,1.2645);
#509=CIRCLE('',#1280,7.3875824343359);
#510=CIRCLE('',#1281,7.3875824343359);
#511=CIRCLE('',#1282,7.38758243433592);
#512=CIRCLE('',#1283,7.38758243433591);
#513=CIRCLE('',#1284,5.);
#514=CIRCLE('',#1285,5.);
#515=CIRCLE('',#1286,5.);
#516=CIRCLE('',#1288,4.);
#517=CIRCLE('',#1289,1.);
#518=CIRCLE('',#1290,5.);
#519=CIRCLE('',#1291,5.);
#520=CIRCLE('',#1294,1.2645);
#521=CIRCLE('',#1296,1.2645);
#522=CIRCLE('',#1298,4.);
#523=CIRCLE('',#1299,1.);
#524=CIRCLE('',#1300,5.);
#525=CIRCLE('',#1303,1.2645);
#526=CIRCLE('',#1305,1.2645);
#527=CIRCLE('',#1307,4.);
#528=CIRCLE('',#1308,1.);
#529=CIRCLE('',#1309,5.);
#530=CIRCLE('',#1310,5.);
#531=CIRCLE('',#1313,1.2645);
#532=CIRCLE('',#1315,1.2645);
#533=CIRCLE('',#1318,7.38758243433591);
#534=CIRCLE('',#1321,7.38758243433592);
#535=CIRCLE('',#1324,7.3875824343359);
#536=CIRCLE('',#1327,7.3875824343359);
#537=VERTEX_POINT('',#1710);
#538=VERTEX_POINT('',#1712);
#539=VERTEX_POINT('',#1716);
#540=VERTEX_POINT('',#1718);
#541=VERTEX_POINT('',#1722);
#542=VERTEX_POINT('',#1723);
#543=VERTEX_POINT('',#1725);
#544=VERTEX_POINT('',#1727);
#545=VERTEX_POINT('',#1729);
#546=VERTEX_POINT('',#1731);
#547=VERTEX_POINT('',#1735);
#548=VERTEX_POINT('',#1739);
#549=VERTEX_POINT('',#1740);
#550=VERTEX_POINT('',#1742);
#551=VERTEX_POINT('',#1746);
#552=VERTEX_POINT('',#1750);
#553=VERTEX_POINT('',#1754);
#554=VERTEX_POINT('',#1758);
#555=VERTEX_POINT('',#1776);
#556=VERTEX_POINT('',#1782);
#557=VERTEX_POINT('',#1784);
#558=VERTEX_POINT('',#1788);
#559=VERTEX_POINT('',#1790);
#560=VERTEX_POINT('',#1794);
#561=VERTEX_POINT('',#1796);
#562=VERTEX_POINT('',#1800);
#563=VERTEX_POINT('',#1802);
#564=VERTEX_POINT('',#1806);
#565=VERTEX_POINT('',#1808);
#566=VERTEX_POINT('',#1812);
#567=VERTEX_POINT('',#1813);
#568=VERTEX_POINT('',#1815);
#569=VERTEX_POINT('',#1817);
#570=VERTEX_POINT('',#1821);
#571=VERTEX_POINT('',#1823);
#572=VERTEX_POINT('',#1827);
#573=VERTEX_POINT('',#1829);
#574=VERTEX_POINT('',#1833);
#575=VERTEX_POINT('',#1835);
#576=VERTEX_POINT('',#1839);
#577=VERTEX_POINT('',#1841);
#578=VERTEX_POINT('',#1845);
#579=VERTEX_POINT('',#1847);
#580=VERTEX_POINT('',#1851);
#581=VERTEX_POINT('',#1853);
#582=VERTEX_POINT('',#1861);
#583=VERTEX_POINT('',#1862);
#584=VERTEX_POINT('',#1864);
#585=VERTEX_POINT('',#1866);
#586=VERTEX_POINT('',#1870);
#587=VERTEX_POINT('',#1872);
#588=VERTEX_POINT('',#1876);
#589=VERTEX_POINT('',#1878);
#590=VERTEX_POINT('',#1882);
#591=VERTEX_POINT('',#1884);
#592=VERTEX_POINT('',#1888);
#593=VERTEX_POINT('',#1890);
#594=VERTEX_POINT('',#1894);
#595=VERTEX_POINT('',#1896);
#596=VERTEX_POINT('',#1900);
#597=VERTEX_POINT('',#1902);
#598=VERTEX_POINT('',#1911);
#599=VERTEX_POINT('',#1913);
#600=VERTEX_POINT('',#1915);
#601=VERTEX_POINT('',#1919);
#602=VERTEX_POINT('',#1923);
#603=VERTEX_POINT('',#1926);
#604=VERTEX_POINT('',#1930);
#605=VERTEX_POINT('',#1931);
#606=VERTEX_POINT('',#1933);
#607=VERTEX_POINT('',#1935);
#608=VERTEX_POINT('',#1937);
#609=VERTEX_POINT('',#1939);
#610=VERTEX_POINT('',#1941);
#611=VERTEX_POINT('',#1943);
#612=VERTEX_POINT('',#1946);
#613=VERTEX_POINT('',#1948);
#614=VERTEX_POINT('',#1950);
#615=VERTEX_POINT('',#1953);
#616=VERTEX_POINT('',#1955);
#617=VERTEX_POINT('',#1957);
#618=VERTEX_POINT('',#1963);
#619=VERTEX_POINT('',#1966);
#620=VERTEX_POINT('',#1970);
#621=VERTEX_POINT('',#1972);
#622=VERTEX_POINT('',#1978);
#623=VERTEX_POINT('',#1981);
#624=VERTEX_POINT('',#1985);
#625=VERTEX_POINT('',#1987);
#626=VERTEX_POINT('',#1989);
#627=VERTEX_POINT('',#1995);
#628=VERTEX_POINT('',#1998);
#629=VERTEX_POINT('',#2002);
#630=VERTEX_POINT('',#2003);
#631=VERTEX_POINT('',#2008);
#632=VERTEX_POINT('',#2012);
#633=VERTEX_POINT('',#2016);
#634=VERTEX_POINT('',#2020);
#635=VERTEX_POINT('',#2024);
#636=VERTEX_POINT('',#2028);
#637=EDGE_CURVE('',#537,#537,#469,.T.);
#638=EDGE_CURVE('',#537,#538,#293,.T.);
#639=EDGE_CURVE('',#538,#538,#470,.T.);
#640=EDGE_CURVE('',#539,#539,#471,.T.);
#641=EDGE_CURVE('',#539,#540,#472,.T.);
#642=EDGE_CURVE('',#540,#540,#473,.T.);
#643=EDGE_CURVE('',#541,#542,#294,.T.);
#644=EDGE_CURVE('',#542,#543,#295,.T.);
#645=EDGE_CURVE('',#543,#544,#296,.T.);
#646=EDGE_CURVE('',#544,#545,#297,.T.);
#647=EDGE_CURVE('',#545,#546,#298,.T.);
#648=EDGE_CURVE('',#546,#541,#299,.T.);
#649=EDGE_CURVE('',#547,#547,#474,.T.);
#650=EDGE_CURVE('',#547,#539,#300,.T.);
#651=EDGE_CURVE('',#548,#549,#301,.T.);
#652=EDGE_CURVE('',#550,#548,#302,.T.);
#653=EDGE_CURVE('',#550,#549,#303,.T.);
#654=EDGE_CURVE('',#551,#550,#304,.T.);
#655=EDGE_CURVE('',#551,#549,#305,.T.);
#656=EDGE_CURVE('',#552,#551,#306,.T.);
#657=EDGE_CURVE('',#552,#549,#307,.T.);
#658=EDGE_CURVE('',#553,#552,#308,.T.);
#659=EDGE_CURVE('',#553,#549,#309,.T.);
#660=EDGE_CURVE('',#554,#553,#310,.T.);
#661=EDGE_CURVE('',#554,#549,#311,.T.);
#662=EDGE_CURVE('',#548,#554,#312,.T.);
#663=EDGE_CURVE('',#541,#554,#313,.T.);
#664=EDGE_CURVE('',#542,#553,#314,.T.);
#665=EDGE_CURVE('',#543,#552,#315,.T.);
#666=EDGE_CURVE('',#544,#551,#316,.T.);
#667=EDGE_CURVE('',#545,#550,#317,.T.);
#668=EDGE_CURVE('',#546,#548,#318,.T.);
#669=EDGE_CURVE('',#537,#555,#319,.T.);
#670=EDGE_CURVE('',#555,#555,#475,.F.);
#671=EDGE_CURVE('',#556,#556,#476,.T.);
#672=EDGE_CURVE('',#556,#557,#320,.T.);
#673=EDGE_CURVE('',#557,#557,#477,.T.);
#674=EDGE_CURVE('',#558,#558,#478,.T.);
#675=EDGE_CURVE('',#558,#559,#321,.T.);
#676=EDGE_CURVE('',#559,#559,#479,.T.);
#677=EDGE_CURVE('',#560,#560,#480,.T.);
#678=EDGE_CURVE('',#560,#561,#322,.T.);
#679=EDGE_CURVE('',#561,#561,#481,.T.);
#680=EDGE_CURVE('',#562,#562,#482,.T.);
#681=EDGE_CURVE('',#562,#563,#323,.T.);
#682=EDGE_CURVE('',#563,#563,#483,.T.);
#683=EDGE_CURVE('',#564,#564,#484,.T.);
#684=EDGE_CURVE('',#564,#565,#324,.T.);
#685=EDGE_CURVE('',#565,#565,#485,.T.);
#686=EDGE_CURVE('',#566,#567,#325,.F.);
#687=EDGE_CURVE('',#568,#566,#326,.T.);
#688=EDGE_CURVE('',#569,#568,#327,.T.);
#689=EDGE_CURVE('',#569,#567,#328,.T.);
#690=EDGE_CURVE('',#567,#570,#486,.F.);
#691=EDGE_CURVE('',#571,#569,#487,.T.);
#692=EDGE_CURVE('',#571,#570,#329,.T.);
#693=EDGE_CURVE('',#570,#572,#330,.F.);
#694=EDGE_CURVE('',#573,#571,#331,.T.);
#695=EDGE_CURVE('',#573,#572,#332,.T.);
#696=EDGE_CURVE('',#572,#574,#488,.F.);
#697=EDGE_CURVE('',#575,#573,#489,.T.);
#698=EDGE_CURVE('',#575,#574,#333,.T.);
#699=EDGE_CURVE('',#574,#576,#334,.F.);
#700=EDGE_CURVE('',#577,#575,#335,.T.);
#701=EDGE_CURVE('',#577,#576,#336,.T.);
#702=EDGE_CURVE('',#576,#578,#490,.F.);
#703=EDGE_CURVE('',#579,#577,#491,.T.);
#704=EDGE_CURVE('',#579,#578,#337,.T.);
#705=EDGE_CURVE('',#578,#580,#338,.F.);
#706=EDGE_CURVE('',#581,#579,#339,.T.);
#707=EDGE_CURVE('',#581,#580,#340,.T.);
#708=EDGE_CURVE('',#580,#566,#492,.F.);
#709=EDGE_CURVE('',#568,#581,#493,.T.);
#710=EDGE_CURVE('',#582,#583,#341,.T.);
#711=EDGE_CURVE('',#582,#584,#342,.T.);
#712=EDGE_CURVE('',#585,#584,#343,.T.);
#713=EDGE_CURVE('',#583,#585,#344,.T.);
#714=EDGE_CURVE('',#586,#583,#494,.T.);
#715=EDGE_CURVE('',#587,#585,#495,.T.);
#716=EDGE_CURVE('',#586,#587,#345,.T.);
#717=EDGE_CURVE('',#586,#588,#346,.T.);
#718=EDGE_CURVE('',#589,#587,#347,.T.);
#719=EDGE_CURVE('',#588,#589,#348,.T.);
#720=EDGE_CURVE('',#590,#588,#496,.T.);
#721=EDGE_CURVE('',#591,#589,#497,.T.);
#722=EDGE_CURVE('',#590,#591,#349,.T.);
#723=EDGE_CURVE('',#590,#592,#350,.T.);
#724=EDGE_CURVE('',#593,#591,#351,.T.);
#725=EDGE_CURVE('',#592,#593,#352,.T.);
#726=EDGE_CURVE('',#594,#592,#498,.T.);
#727=EDGE_CURVE('',#595,#593,#499,.T.);
#728=EDGE_CURVE('',#594,#595,#353,.T.);
#729=EDGE_CURVE('',#594,#596,#354,.T.);
#730=EDGE_CURVE('',#597,#595,#355,.T.);
#731=EDGE_CURVE('',#596,#597,#356,.T.);
#732=EDGE_CURVE('',#582,#596,#500,.T.);
#733=EDGE_CURVE('',#584,#597,#501,.T.);
#734=EDGE_CURVE('',#598,#598,#502,.T.);
#735=EDGE_CURVE('',#598,#599,#503,.T.);
#736=EDGE_CURVE('',#599,#600,#504,.T.);
#737=EDGE_CURVE('',#600,#599,#505,.T.);
#738=EDGE_CURVE('',#600,#601,#357,.T.);
#739=EDGE_CURVE('',#601,#601,#506,.T.);
#740=EDGE_CURVE('',#602,#602,#507,.F.);
#741=EDGE_CURVE('',#602,#603,#358,.T.);
#742=EDGE_CURVE('',#603,#603,#508,.T.);
#743=EDGE_CURVE('',#604,#605,#509,.T.);
#744=EDGE_CURVE('',#605,#606,#359,.T.);
#745=EDGE_CURVE('',#606,#607,#510,.T.);
#746=EDGE_CURVE('',#607,#608,#360,.T.);
#747=EDGE_CURVE('',#608,#609,#511,.T.);
#748=EDGE_CURVE('',#609,#610,#361,.T.);
#749=EDGE_CURVE('',#610,#611,#512,.T.);
#750=EDGE_CURVE('',#611,#604,#362,.T.);
#751=EDGE_CURVE('',#612,#612,#513,.T.);
#752=EDGE_CURVE('',#613,#613,#514,.T.);
#753=EDGE_CURVE('',#614,#614,#515,.T.);
#754=EDGE_CURVE('',#615,#615,#516,.T.);
#755=EDGE_CURVE('',#615,#616,#517,.T.);
#756=EDGE_CURVE('',#616,#617,#518,.T.);
#757=EDGE_CURVE('',#617,#616,#519,.T.);
#758=EDGE_CURVE('',#617,#612,#363,.T.);
#759=EDGE_CURVE('',#618,#618,#520,.F.);
#760=EDGE_CURVE('',#618,#619,#364,.T.);
#761=EDGE_CURVE('',#619,#619,#521,.T.);
#762=EDGE_CURVE('',#620,#620,#522,.T.);
#763=EDGE_CURVE('',#620,#621,#523,.T.);
#764=EDGE_CURVE('',#621,#621,#524,.T.);
#765=EDGE_CURVE('',#621,#614,#365,.T.);
#766=EDGE_CURVE('',#622,#622,#525,.F.);
#767=EDGE_CURVE('',#622,#623,#366,.T.);
#768=EDGE_CURVE('',#623,#623,#526,.T.);
#769=EDGE_CURVE('',#624,#624,#527,.T.);
#770=EDGE_CURVE('',#624,#625,#528,.T.);
#771=EDGE_CURVE('',#625,#626,#529,.T.);
#772=EDGE_CURVE('',#626,#625,#530,.T.);
#773=EDGE_CURVE('',#626,#613,#367,.T.);
#774=EDGE_CURVE('',#627,#627,#531,.F.);
#775=EDGE_CURVE('',#627,#628,#368,.T.);
#776=EDGE_CURVE('',#628,#628,#532,.T.);
#777=EDGE_CURVE('',#629,#630,#369,.T.);
#778=EDGE_CURVE('',#629,#604,#370,.T.);
#779=EDGE_CURVE('',#630,#611,#371,.T.);
#780=EDGE_CURVE('',#631,#630,#533,.T.);
#781=EDGE_CURVE('',#631,#610,#372,.T.);
#782=EDGE_CURVE('',#631,#632,#373,.T.);
#783=EDGE_CURVE('',#632,#609,#374,.T.);
#784=EDGE_CURVE('',#633,#632,#534,.T.);
#785=EDGE_CURVE('',#633,#608,#375,.T.);
#786=EDGE_CURVE('',#633,#634,#376,.T.);
#787=EDGE_CURVE('',#634,#607,#377,.T.);
#788=EDGE_CURVE('',#635,#634,#535,.T.);
#789=EDGE_CURVE('',#635,#606,#378,.T.);
#790=EDGE_CURVE('',#635,#636,#379,.T.);
#791=EDGE_CURVE('',#636,#605,#380,.T.);
#792=EDGE_CURVE('',#629,#636,#536,.T.);
#793=ORIENTED_EDGE('',*,*,#637,.F.);
#794=ORIENTED_EDGE('',*,*,#638,.T.);
#795=ORIENTED_EDGE('',*,*,#639,.F.);
#796=ORIENTED_EDGE('',*,*,#638,.F.);
#797=ORIENTED_EDGE('',*,*,#640,.T.);
#798=ORIENTED_EDGE('',*,*,#641,.T.);
#799=ORIENTED_EDGE('',*,*,#642,.T.);
#800=ORIENTED_EDGE('',*,*,#641,.F.);
#801=ORIENTED_EDGE('',*,*,#642,.F.);
#802=ORIENTED_EDGE('',*,*,#643,.T.);
#803=ORIENTED_EDGE('',*,*,#644,.T.);
#804=ORIENTED_EDGE('',*,*,#645,.T.);
#805=ORIENTED_EDGE('',*,*,#646,.T.);
#806=ORIENTED_EDGE('',*,*,#647,.T.);
#807=ORIENTED_EDGE('',*,*,#648,.T.);
#808=ORIENTED_EDGE('',*,*,#649,.F.);
#809=ORIENTED_EDGE('',*,*,#650,.T.);
#810=ORIENTED_EDGE('',*,*,#640,.F.);
#811=ORIENTED_EDGE('',*,*,#650,.F.);
#812=ORIENTED_EDGE('',*,*,#651,.F.);
#813=ORIENTED_EDGE('',*,*,#652,.F.);
#814=ORIENTED_EDGE('',*,*,#653,.T.);
#815=ORIENTED_EDGE('',*,*,#653,.F.);
#816=ORIENTED_EDGE('',*,*,#654,.F.);
#817=ORIENTED_EDGE('',*,*,#655,.T.);
#818=ORIENTED_EDGE('',*,*,#655,.F.);
#819=ORIENTED_EDGE('',*,*,#656,.F.);
#820=ORIENTED_EDGE('',*,*,#657,.T.);
#821=ORIENTED_EDGE('',*,*,#657,.F.);
#822=ORIENTED_EDGE('',*,*,#658,.F.);
#823=ORIENTED_EDGE('',*,*,#659,.T.);
#824=ORIENTED_EDGE('',*,*,#659,.F.);
#825=ORIENTED_EDGE('',*,*,#660,.F.);
#826=ORIENTED_EDGE('',*,*,#661,.T.);
#827=ORIENTED_EDGE('',*,*,#661,.F.);
#828=ORIENTED_EDGE('',*,*,#662,.F.);
#829=ORIENTED_EDGE('',*,*,#651,.T.);
#830=ORIENTED_EDGE('',*,*,#643,.F.);
#831=ORIENTED_EDGE('',*,*,#663,.T.);
#832=ORIENTED_EDGE('',*,*,#660,.T.);
#833=ORIENTED_EDGE('',*,*,#664,.F.);
#834=ORIENTED_EDGE('',*,*,#644,.F.);
#835=ORIENTED_EDGE('',*,*,#664,.T.);
#836=ORIENTED_EDGE('',*,*,#658,.T.);
#837=ORIENTED_EDGE('',*,*,#665,.F.);
#838=ORIENTED_EDGE('',*,*,#645,.F.);
#839=ORIENTED_EDGE('',*,*,#665,.T.);
#840=ORIENTED_EDGE('',*,*,#656,.T.);
#841=ORIENTED_EDGE('',*,*,#666,.F.);
#842=ORIENTED_EDGE('',*,*,#646,.F.);
#843=ORIENTED_EDGE('',*,*,#666,.T.);
#844=ORIENTED_EDGE('',*,*,#654,.T.);
#845=ORIENTED_EDGE('',*,*,#667,.F.);
#846=ORIENTED_EDGE('',*,*,#647,.F.);
#847=ORIENTED_EDGE('',*,*,#667,.T.);
#848=ORIENTED_EDGE('',*,*,#652,.T.);
#849=ORIENTED_EDGE('',*,*,#668,.F.);
#850=ORIENTED_EDGE('',*,*,#648,.F.);
#851=ORIENTED_EDGE('',*,*,#668,.T.);
#852=ORIENTED_EDGE('',*,*,#662,.T.);
#853=ORIENTED_EDGE('',*,*,#663,.F.);
#854=ORIENTED_EDGE('',*,*,#637,.T.);
#855=ORIENTED_EDGE('',*,*,#669,.T.);
#856=ORIENTED_EDGE('',*,*,#670,.T.);
#857=ORIENTED_EDGE('',*,*,#669,.F.);
#858=ORIENTED_EDGE('',*,*,#639,.T.);
#859=ORIENTED_EDGE('',*,*,#649,.T.);
#860=ORIENTED_EDGE('',*,*,#670,.F.);
#861=ORIENTED_EDGE('',*,*,#671,.F.);
#862=ORIENTED_EDGE('',*,*,#672,.T.);
#863=ORIENTED_EDGE('',*,*,#673,.F.);
#864=ORIENTED_EDGE('',*,*,#672,.F.);
#865=ORIENTED_EDGE('',*,*,#674,.F.);
#866=ORIENTED_EDGE('',*,*,#675,.T.);
#867=ORIENTED_EDGE('',*,*,#676,.F.);
#868=ORIENTED_EDGE('',*,*,#675,.F.);
#869=ORIENTED_EDGE('',*,*,#677,.F.);
#870=ORIENTED_EDGE('',*,*,#678,.T.);
#871=ORIENTED_EDGE('',*,*,#679,.F.);
#872=ORIENTED_EDGE('',*,*,#678,.F.);
#873=ORIENTED_EDGE('',*,*,#680,.F.);
#874=ORIENTED_EDGE('',*,*,#681,.T.);
#875=ORIENTED_EDGE('',*,*,#682,.F.);
#876=ORIENTED_EDGE('',*,*,#681,.F.);
#877=ORIENTED_EDGE('',*,*,#683,.F.);
#878=ORIENTED_EDGE('',*,*,#684,.T.);
#879=ORIENTED_EDGE('',*,*,#685,.F.);
#880=ORIENTED_EDGE('',*,*,#684,.F.);
#881=ORIENTED_EDGE('',*,*,#686,.F.);
#882=ORIENTED_EDGE('',*,*,#687,.F.);
#883=ORIENTED_EDGE('',*,*,#688,.F.);
#884=ORIENTED_EDGE('',*,*,#689,.T.);
#885=ORIENTED_EDGE('',*,*,#690,.F.);
#886=ORIENTED_EDGE('',*,*,#689,.F.);
#887=ORIENTED_EDGE('',*,*,#691,.F.);
#888=ORIENTED_EDGE('',*,*,#692,.T.);
#889=ORIENTED_EDGE('',*,*,#693,.F.);
#890=ORIENTED_EDGE('',*,*,#692,.F.);
#891=ORIENTED_EDGE('',*,*,#694,.F.);
#892=ORIENTED_EDGE('',*,*,#695,.T.);
#893=ORIENTED_EDGE('',*,*,#696,.F.);
#894=ORIENTED_EDGE('',*,*,#695,.F.);
#895=ORIENTED_EDGE('',*,*,#697,.F.);
#896=ORIENTED_EDGE('',*,*,#698,.T.);
#897=ORIENTED_EDGE('',*,*,#699,.F.);
#898=ORIENTED_EDGE('',*,*,#698,.F.);
#899=ORIENTED_EDGE('',*,*,#700,.F.);
#900=ORIENTED_EDGE('',*,*,#701,.T.);
#901=ORIENTED_EDGE('',*,*,#671,.T.);
#902=ORIENTED_EDGE('',*,*,#674,.T.);
#903=ORIENTED_EDGE('',*,*,#677,.T.);
#904=ORIENTED_EDGE('',*,*,#680,.T.);
#905=ORIENTED_EDGE('',*,*,#685,.T.);
#906=ORIENTED_EDGE('',*,*,#702,.F.);
#907=ORIENTED_EDGE('',*,*,#701,.F.);
#908=ORIENTED_EDGE('',*,*,#703,.F.);
#909=ORIENTED_EDGE('',*,*,#704,.T.);
#910=ORIENTED_EDGE('',*,*,#705,.F.);
#911=ORIENTED_EDGE('',*,*,#704,.F.);
#912=ORIENTED_EDGE('',*,*,#706,.F.);
#913=ORIENTED_EDGE('',*,*,#707,.T.);
#914=ORIENTED_EDGE('',*,*,#708,.F.);
#915=ORIENTED_EDGE('',*,*,#707,.F.);
#916=ORIENTED_EDGE('',*,*,#709,.F.);
#917=ORIENTED_EDGE('',*,*,#687,.T.);
#918=ORIENTED_EDGE('',*,*,#699,.T.);
#919=ORIENTED_EDGE('',*,*,#702,.T.);
#920=ORIENTED_EDGE('',*,*,#705,.T.);
#921=ORIENTED_EDGE('',*,*,#708,.T.);
#922=ORIENTED_EDGE('',*,*,#686,.T.);
#923=ORIENTED_EDGE('',*,*,#690,.T.);
#924=ORIENTED_EDGE('',*,*,#693,.T.);
#925=ORIENTED_EDGE('',*,*,#696,.T.);
#926=ORIENTED_EDGE('',*,*,#710,.F.);
#927=ORIENTED_EDGE('',*,*,#711,.T.);
#928=ORIENTED_EDGE('',*,*,#712,.F.);
#929=ORIENTED_EDGE('',*,*,#713,.F.);
#930=ORIENTED_EDGE('',*,*,#673,.T.);
#931=ORIENTED_EDGE('',*,*,#676,.T.);
#932=ORIENTED_EDGE('',*,*,#679,.T.);
#933=ORIENTED_EDGE('',*,*,#682,.T.);
#934=ORIENTED_EDGE('',*,*,#683,.T.);
#935=ORIENTED_EDGE('',*,*,#714,.T.);
#936=ORIENTED_EDGE('',*,*,#713,.T.);
#937=ORIENTED_EDGE('',*,*,#715,.F.);
#938=ORIENTED_EDGE('',*,*,#716,.F.);
#939=ORIENTED_EDGE('',*,*,#717,.F.);
#940=ORIENTED_EDGE('',*,*,#716,.T.);
#941=ORIENTED_EDGE('',*,*,#718,.F.);
#942=ORIENTED_EDGE('',*,*,#719,.F.);
#943=ORIENTED_EDGE('',*,*,#720,.T.);
#944=ORIENTED_EDGE('',*,*,#719,.T.);
#945=ORIENTED_EDGE('',*,*,#721,.F.);
#946=ORIENTED_EDGE('',*,*,#722,.F.);
#947=ORIENTED_EDGE('',*,*,#723,.F.);
#948=ORIENTED_EDGE('',*,*,#722,.T.);
#949=ORIENTED_EDGE('',*,*,#724,.F.);
#950=ORIENTED_EDGE('',*,*,#725,.F.);
#951=ORIENTED_EDGE('',*,*,#726,.T.);
#952=ORIENTED_EDGE('',*,*,#725,.T.);
#953=ORIENTED_EDGE('',*,*,#727,.F.);
#954=ORIENTED_EDGE('',*,*,#728,.F.);
#955=ORIENTED_EDGE('',*,*,#729,.F.);
#956=ORIENTED_EDGE('',*,*,#728,.T.);
#957=ORIENTED_EDGE('',*,*,#730,.F.);
#958=ORIENTED_EDGE('',*,*,#731,.F.);
#959=ORIENTED_EDGE('',*,*,#732,.T.);
#960=ORIENTED_EDGE('',*,*,#731,.T.);
#961=ORIENTED_EDGE('',*,*,#733,.F.);
#962=ORIENTED_EDGE('',*,*,#711,.F.);
#963=ORIENTED_EDGE('',*,*,#733,.T.);
#964=ORIENTED_EDGE('',*,*,#730,.T.);
#965=ORIENTED_EDGE('',*,*,#727,.T.);
#966=ORIENTED_EDGE('',*,*,#724,.T.);
#967=ORIENTED_EDGE('',*,*,#721,.T.);
#968=ORIENTED_EDGE('',*,*,#718,.T.);
#969=ORIENTED_EDGE('',*,*,#715,.T.);
#970=ORIENTED_EDGE('',*,*,#712,.T.);
#971=ORIENTED_EDGE('',*,*,#732,.F.);
#972=ORIENTED_EDGE('',*,*,#710,.T.);
#973=ORIENTED_EDGE('',*,*,#714,.F.);
#974=ORIENTED_EDGE('',*,*,#717,.T.);
#975=ORIENTED_EDGE('',*,*,#720,.F.);
#976=ORIENTED_EDGE('',*,*,#723,.T.);
#977=ORIENTED_EDGE('',*,*,#726,.F.);
#978=ORIENTED_EDGE('',*,*,#729,.T.);
#979=ORIENTED_EDGE('',*,*,#688,.T.);
#980=ORIENTED_EDGE('',*,*,#709,.T.);
#981=ORIENTED_EDGE('',*,*,#706,.T.);
#982=ORIENTED_EDGE('',*,*,#703,.T.);
#983=ORIENTED_EDGE('',*,*,#700,.T.);
#984=ORIENTED_EDGE('',*,*,#697,.T.);
#985=ORIENTED_EDGE('',*,*,#694,.T.);
#986=ORIENTED_EDGE('',*,*,#691,.T.);
#987=ORIENTED_EDGE('',*,*,#734,.T.);
#988=ORIENTED_EDGE('',*,*,#735,.T.);
#989=ORIENTED_EDGE('',*,*,#736,.T.);
#990=ORIENTED_EDGE('',*,*,#737,.T.);
#991=ORIENTED_EDGE('',*,*,#735,.F.);
#992=ORIENTED_EDGE('',*,*,#737,.F.);
#993=ORIENTED_EDGE('',*,*,#738,.T.);
#994=ORIENTED_EDGE('',*,*,#739,.F.);
#995=ORIENTED_EDGE('',*,*,#738,.F.);
#996=ORIENTED_EDGE('',*,*,#736,.F.);
#997=ORIENTED_EDGE('',*,*,#734,.F.);
#998=ORIENTED_EDGE('',*,*,#740,.T.);
#999=ORIENTED_EDGE('',*,*,#740,.F.);
#1000=ORIENTED_EDGE('',*,*,#741,.T.);
#1001=ORIENTED_EDGE('',*,*,#742,.F.);
#1002=ORIENTED_EDGE('',*,*,#741,.F.);
#1003=ORIENTED_EDGE('',*,*,#743,.T.);
#1004=ORIENTED_EDGE('',*,*,#744,.T.);
#1005=ORIENTED_EDGE('',*,*,#745,.T.);
#1006=ORIENTED_EDGE('',*,*,#746,.T.);
#1007=ORIENTED_EDGE('',*,*,#747,.T.);
#1008=ORIENTED_EDGE('',*,*,#748,.T.);
#1009=ORIENTED_EDGE('',*,*,#749,.T.);
#1010=ORIENTED_EDGE('',*,*,#750,.T.);
#1011=ORIENTED_EDGE('',*,*,#751,.T.);
#1012=ORIENTED_EDGE('',*,*,#752,.T.);
#1013=ORIENTED_EDGE('',*,*,#753,.T.);
#1014=ORIENTED_EDGE('',*,*,#739,.T.);
#1015=ORIENTED_EDGE('',*,*,#754,.T.);
#1016=ORIENTED_EDGE('',*,*,#755,.T.);
#1017=ORIENTED_EDGE('',*,*,#756,.T.);
#1018=ORIENTED_EDGE('',*,*,#757,.T.);
#1019=ORIENTED_EDGE('',*,*,#755,.F.);
#1020=ORIENTED_EDGE('',*,*,#757,.F.);
#1021=ORIENTED_EDGE('',*,*,#758,.T.);
#1022=ORIENTED_EDGE('',*,*,#751,.F.);
#1023=ORIENTED_EDGE('',*,*,#758,.F.);
#1024=ORIENTED_EDGE('',*,*,#756,.F.);
#1025=ORIENTED_EDGE('',*,*,#754,.F.);
#1026=ORIENTED_EDGE('',*,*,#759,.T.);
#1027=ORIENTED_EDGE('',*,*,#759,.F.);
#1028=ORIENTED_EDGE('',*,*,#760,.T.);
#1029=ORIENTED_EDGE('',*,*,#761,.F.);
#1030=ORIENTED_EDGE('',*,*,#760,.F.);
#1031=ORIENTED_EDGE('',*,*,#762,.T.);
#1032=ORIENTED_EDGE('',*,*,#763,.T.);
#1033=ORIENTED_EDGE('',*,*,#764,.T.);
#1034=ORIENTED_EDGE('',*,*,#763,.F.);
#1035=ORIENTED_EDGE('',*,*,#764,.F.);
#1036=ORIENTED_EDGE('',*,*,#765,.T.);
#1037=ORIENTED_EDGE('',*,*,#753,.F.);
#1038=ORIENTED_EDGE('',*,*,#765,.F.);
#1039=ORIENTED_EDGE('',*,*,#762,.F.);
#1040=ORIENTED_EDGE('',*,*,#766,.T.);
#1041=ORIENTED_EDGE('',*,*,#766,.F.);
#1042=ORIENTED_EDGE('',*,*,#767,.T.);
#1043=ORIENTED_EDGE('',*,*,#768,.F.);
#1044=ORIENTED_EDGE('',*,*,#767,.F.);
#1045=ORIENTED_EDGE('',*,*,#769,.T.);
#1046=ORIENTED_EDGE('',*,*,#770,.T.);
#1047=ORIENTED_EDGE('',*,*,#771,.T.);
#1048=ORIENTED_EDGE('',*,*,#772,.T.);
#1049=ORIENTED_EDGE('',*,*,#770,.F.);
#1050=ORIENTED_EDGE('',*,*,#772,.F.);
#1051=ORIENTED_EDGE('',*,*,#773,.T.);
#1052=ORIENTED_EDGE('',*,*,#752,.F.);
#1053=ORIENTED_EDGE('',*,*,#773,.F.);
#1054=ORIENTED_EDGE('',*,*,#771,.F.);
#1055=ORIENTED_EDGE('',*,*,#769,.F.);
#1056=ORIENTED_EDGE('',*,*,#774,.T.);
#1057=ORIENTED_EDGE('',*,*,#774,.F.);
#1058=ORIENTED_EDGE('',*,*,#775,.T.);
#1059=ORIENTED_EDGE('',*,*,#776,.F.);
#1060=ORIENTED_EDGE('',*,*,#775,.F.);
#1061=ORIENTED_EDGE('',*,*,#777,.F.);
#1062=ORIENTED_EDGE('',*,*,#778,.T.);
#1063=ORIENTED_EDGE('',*,*,#750,.F.);
#1064=ORIENTED_EDGE('',*,*,#779,.F.);
#1065=ORIENTED_EDGE('',*,*,#780,.T.);
#1066=ORIENTED_EDGE('',*,*,#779,.T.);
#1067=ORIENTED_EDGE('',*,*,#749,.F.);
#1068=ORIENTED_EDGE('',*,*,#781,.F.);
#1069=ORIENTED_EDGE('',*,*,#782,.F.);
#1070=ORIENTED_EDGE('',*,*,#781,.T.);
#1071=ORIENTED_EDGE('',*,*,#748,.F.);
#1072=ORIENTED_EDGE('',*,*,#783,.F.);
#1073=ORIENTED_EDGE('',*,*,#784,.T.);
#1074=ORIENTED_EDGE('',*,*,#783,.T.);
#1075=ORIENTED_EDGE('',*,*,#747,.F.);
#1076=ORIENTED_EDGE('',*,*,#785,.F.);
#1077=ORIENTED_EDGE('',*,*,#786,.F.);
#1078=ORIENTED_EDGE('',*,*,#785,.T.);
#1079=ORIENTED_EDGE('',*,*,#746,.F.);
#1080=ORIENTED_EDGE('',*,*,#787,.F.);
#1081=ORIENTED_EDGE('',*,*,#788,.T.);
#1082=ORIENTED_EDGE('',*,*,#787,.T.);
#1083=ORIENTED_EDGE('',*,*,#745,.F.);
#1084=ORIENTED_EDGE('',*,*,#789,.F.);
#1085=ORIENTED_EDGE('',*,*,#790,.F.);
#1086=ORIENTED_EDGE('',*,*,#789,.T.);
#1087=ORIENTED_EDGE('',*,*,#744,.F.);
#1088=ORIENTED_EDGE('',*,*,#791,.F.);
#1089=ORIENTED_EDGE('',*,*,#792,.T.);
#1090=ORIENTED_EDGE('',*,*,#791,.T.);
#1091=ORIENTED_EDGE('',*,*,#743,.F.);
#1092=ORIENTED_EDGE('',*,*,#778,.F.);
#1093=ORIENTED_EDGE('',*,*,#792,.F.);
#1094=ORIENTED_EDGE('',*,*,#777,.T.);
#1095=ORIENTED_EDGE('',*,*,#780,.F.);
#1096=ORIENTED_EDGE('',*,*,#782,.T.);
#1097=ORIENTED_EDGE('',*,*,#784,.F.);
#1098=ORIENTED_EDGE('',*,*,#786,.T.);
#1099=ORIENTED_EDGE('',*,*,#788,.F.);
#1100=ORIENTED_EDGE('',*,*,#790,.T.);
#1101=ORIENTED_EDGE('',*,*,#742,.T.);
#1102=ORIENTED_EDGE('',*,*,#761,.T.);
#1103=ORIENTED_EDGE('',*,*,#768,.T.);
#1104=ORIENTED_EDGE('',*,*,#776,.T.);
#1105=CONICAL_SURFACE('',#1192,1.36163750000003,0.831988093683075);
#1106=ADVANCED_FACE('',(#130),#1105,.T.);
#1107=ADVANCED_FACE('',(#131),#125,.T.);
#1108=ADVANCED_FACE('',(#132,#64),#89,.T.);
#1109=ADVANCED_FACE('',(#133),#37,.T.);
#1110=ADVANCED_FACE('',(#134),#90,.F.);
#1111=ADVANCED_FACE('',(#135),#91,.F.);
#1112=ADVANCED_FACE('',(#136),#92,.F.);
#1113=ADVANCED_FACE('',(#137),#93,.F.);
#1114=ADVANCED_FACE('',(#138),#94,.F.);
#1115=ADVANCED_FACE('',(#139),#95,.F.);
#1116=ADVANCED_FACE('',(#140),#96,.F.);
#1117=ADVANCED_FACE('',(#141),#97,.F.);
#1118=ADVANCED_FACE('',(#142),#98,.F.);
#1119=ADVANCED_FACE('',(#143),#99,.F.);
#1120=ADVANCED_FACE('',(#144),#100,.F.);
#1121=ADVANCED_FACE('',(#145),#101,.F.);
#1122=ADVANCED_FACE('',(#146),#38,.T.);
#1123=ADVANCED_FACE('',(#147),#102,.T.);
#1124=ADVANCED_FACE('',(#148,#65),#103,.T.);
#1125=ADVANCED_FACE('',(#149),#39,.F.);
#1126=ADVANCED_FACE('',(#150),#40,.F.);
#1127=ADVANCED_FACE('',(#151),#41,.F.);
#1128=ADVANCED_FACE('',(#152),#42,.F.);
#1129=ADVANCED_FACE('',(#153),#43,.F.);
#1130=ADVANCED_FACE('',(#154),#104,.F.);
#1131=ADVANCED_FACE('',(#155),#44,.F.);
#1132=ADVANCED_FACE('',(#156),#105,.F.);
#1133=ADVANCED_FACE('',(#157),#45,.F.);
#1134=ADVANCED_FACE('',(#158,#66,#67,#68,#69,#70),#106,.F.);
#1135=ADVANCED_FACE('',(#159),#46,.F.);
#1136=ADVANCED_FACE('',(#160),#107,.F.);
#1137=ADVANCED_FACE('',(#161),#47,.F.);
#1138=ADVANCED_FACE('',(#162),#108,.F.);
#1139=ADVANCED_FACE('',(#163,#71,#72,#73,#74,#75),#109,.T.);
#1140=ADVANCED_FACE('',(#164),#48,.T.);
#1141=ADVANCED_FACE('',(#165),#110,.T.);
#1142=ADVANCED_FACE('',(#166),#49,.T.);
#1143=ADVANCED_FACE('',(#167),#111,.T.);
#1144=ADVANCED_FACE('',(#168),#50,.T.);
#1145=ADVANCED_FACE('',(#169),#112,.T.);
#1146=ADVANCED_FACE('',(#170),#51,.T.);
#1147=ADVANCED_FACE('',(#171),#113,.T.);
#1148=ADVANCED_FACE('',(#172,#76),#114,.F.);
#1149=ADVANCED_FACE('',(#173),#126,.T.);
#1150=ADVANCED_FACE('',(#174),#52,.T.);
#1151=ADVANCED_FACE('',(#175,#77),#115,.T.);
#1152=ADVANCED_FACE('',(#176),#53,.F.);
#1153=ADVANCED_FACE('',(#177,#78,#79,#80,#81),#116,.T.);
#1154=ADVANCED_FACE('',(#178),#127,.T.);
#1155=ADVANCED_FACE('',(#179),#54,.T.);
#1156=ADVANCED_FACE('',(#180,#82),#117,.T.);
#1157=ADVANCED_FACE('',(#181),#55,.F.);
#1158=ADVANCED_FACE('',(#182),#128,.T.);
#1159=ADVANCED_FACE('',(#183),#56,.T.);
#1160=ADVANCED_FACE('',(#184,#83),#118,.T.);
#1161=ADVANCED_FACE('',(#185),#57,.F.);
#1162=ADVANCED_FACE('',(#186),#129,.T.);
#1163=ADVANCED_FACE('',(#187),#58,.T.);
#1164=ADVANCED_FACE('',(#188,#84),#119,.T.);
#1165=ADVANCED_FACE('',(#189),#59,.F.);
#1166=ADVANCED_FACE('',(#190),#120,.T.);
#1167=ADVANCED_FACE('',(#191),#60,.T.);
#1168=ADVANCED_FACE('',(#192),#121,.T.);
#1169=ADVANCED_FACE('',(#193),#61,.T.);
#1170=ADVANCED_FACE('',(#194),#122,.T.);
#1171=ADVANCED_FACE('',(#195),#62,.T.);
#1172=ADVANCED_FACE('',(#196),#123,.T.);
#1173=ADVANCED_FACE('',(#197),#63,.T.);
#1174=ADVANCED_FACE('',(#198,#85,#86,#87,#88),#124,.F.);
#1175=CLOSED_SHELL('',(#1106,#1107,#1108,#1109,#1110,#1111,#1112,#1113,
#1114,#1115,#1116,#1117,#1118,#1119,#1120,#1121,#1122,#1123,#1124));
#1176=CLOSED_SHELL('',(#1125,#1126,#1127,#1128,#1129,#1130,#1131,#1132,
#1133,#1134,#1135,#1136,#1137,#1138,#1139,#1140,#1141,#1142,#1143,#1144,
#1145,#1146,#1147,#1148));
#1177=CLOSED_SHELL('',(#1149,#1150,#1151,#1152,#1153,#1154,#1155,#1156,
#1157,#1158,#1159,#1160,#1161,#1162,#1163,#1164,#1165,#1166,#1167,#1168,
#1169,#1170,#1171,#1172,#1173,#1174));
#1178=DERIVED_UNIT_ELEMENT(#1180,1.);
#1179=DERIVED_UNIT_ELEMENT(#2045,-3.);
#1180=(
MASS_UNIT()
NAMED_UNIT(*)
SI_UNIT(.KILO.,.GRAM.)
);
#1181=DERIVED_UNIT((#1178,#1179));
#1182=MEASURE_REPRESENTATION_ITEM('density measure',
POSITIVE_RATIO_MEASURE(7750.),#1181);
#1183=PROPERTY_DEFINITION_REPRESENTATION(#1188,#1185);
#1184=PROPERTY_DEFINITION_REPRESENTATION(#1189,#1186);
#1185=REPRESENTATION('material name',(#1187),#2042);
#1186=REPRESENTATION('density',(#1182),#2042);
#1187=DESCRIPTIVE_REPRESENTATION_ITEM('Steel Grade 2, Plain',
'Steel Grade 2, Plain');
#1188=PROPERTY_DEFINITION('material property','material name',#2060);
#1189=PROPERTY_DEFINITION('material property','density of part',#2060);
#1190=AXIS2_PLACEMENT_3D('',#1707,#1333,#1334);
#1191=AXIS2_PLACEMENT_3D('',#1708,#1335,#1336);
#1192=AXIS2_PLACEMENT_3D('',#1709,#1337,#1338);
#1193=AXIS2_PLACEMENT_3D('',#1711,#1339,#1340);
#1194=AXIS2_PLACEMENT_3D('',#1714,#1342,#1343);
#1195=AXIS2_PLACEMENT_3D('',#1715,#1344,#1345);
#1196=AXIS2_PLACEMENT_3D('',#1717,#1346,#1347);
#1197=AXIS2_PLACEMENT_3D('',#1719,#1348,#1349);
#1198=AXIS2_PLACEMENT_3D('',#1720,#1350,#1351);
#1199=AXIS2_PLACEMENT_3D('',#1721,#1352,#1353);
#1200=AXIS2_PLACEMENT_3D('',#1734,#1360,#1361);
#1201=AXIS2_PLACEMENT_3D('',#1736,#1362,#1363);
#1202=AXIS2_PLACEMENT_3D('',#1738,#1365,#1366);
#1203=AXIS2_PLACEMENT_3D('',#1745,#1370,#1371);
#1204=AXIS2_PLACEMENT_3D('',#1749,#1374,#1375);
#1205=AXIS2_PLACEMENT_3D('',#1753,#1378,#1379);
#1206=AXIS2_PLACEMENT_3D('',#1757,#1382,#1383);
#1207=AXIS2_PLACEMENT_3D('',#1761,#1386,#1387);
#1208=AXIS2_PLACEMENT_3D('',#1763,#1389,#1390);
#1209=AXIS2_PLACEMENT_3D('',#1766,#1393,#1394);
#1210=AXIS2_PLACEMENT_3D('',#1768,#1396,#1397);
#1211=AXIS2_PLACEMENT_3D('',#1770,#1399,#1400);
#1212=AXIS2_PLACEMENT_3D('',#1772,#1402,#1403);
#1213=AXIS2_PLACEMENT_3D('',#1774,#1405,#1406);
#1214=AXIS2_PLACEMENT_3D('',#1775,#1407,#1408);
#1215=AXIS2_PLACEMENT_3D('',#1778,#1410,#1411);
#1216=AXIS2_PLACEMENT_3D('',#1779,#1412,#1413);
#1217=AXIS2_PLACEMENT_3D('',#1780,#1414,#1415);
#1218=AXIS2_PLACEMENT_3D('',#1781,#1416,#1417);
#1219=AXIS2_PLACEMENT_3D('',#1783,#1418,#1419);
#1220=AXIS2_PLACEMENT_3D('',#1786,#1421,#1422);
#1221=AXIS2_PLACEMENT_3D('',#1787,#1423,#1424);
#1222=AXIS2_PLACEMENT_3D('',#1789,#1425,#1426);
#1223=AXIS2_PLACEMENT_3D('',#1792,#1428,#1429);
#1224=AXIS2_PLACEMENT_3D('',#1793,#1430,#1431);
#1225=AXIS2_PLACEMENT_3D('',#1795,#1432,#1433);
#1226=AXIS2_PLACEMENT_3D('',#1798,#1435,#1436);
#1227=AXIS2_PLACEMENT_3D('',#1799,#1437,#1438);
#1228=AXIS2_PLACEMENT_3D('',#1801,#1439,#1440);
#1229=AXIS2_PLACEMENT_3D('',#1804,#1442,#1443);
#1230=AXIS2_PLACEMENT_3D('',#1805,#1444,#1445);
#1231=AXIS2_PLACEMENT_3D('',#1807,#1446,#1447);
#1232=AXIS2_PLACEMENT_3D('',#1810,#1449,#1450);
#1233=AXIS2_PLACEMENT_3D('',#1811,#1451,#1452);
#1234=AXIS2_PLACEMENT_3D('',#1820,#1457,#1458);
#1235=AXIS2_PLACEMENT_3D('',#1822,#1459,#1460);
#1236=AXIS2_PLACEMENT_3D('',#1824,#1461,#1462);
#1237=AXIS2_PLACEMENT_3D('',#1826,#1464,#1465);
#1238=AXIS2_PLACEMENT_3D('',#1832,#1469,#1470);
#1239=AXIS2_PLACEMENT_3D('',#1834,#1471,#1472);
#1240=AXIS2_PLACEMENT_3D('',#1836,#1473,#1474);
#1241=AXIS2_PLACEMENT_3D('',#1838,#1476,#1477);
#1242=AXIS2_PLACEMENT_3D('',#1844,#1481,#1482);
#1243=AXIS2_PLACEMENT_3D('',#1846,#1483,#1484);
#1244=AXIS2_PLACEMENT_3D('',#1848,#1485,#1486);
#1245=AXIS2_PLACEMENT_3D('',#1850,#1488,#1489);
#1246=AXIS2_PLACEMENT_3D('',#1856,#1493,#1494);
#1247=AXIS2_PLACEMENT_3D('',#1857,#1495,#1496);
#1248=AXIS2_PLACEMENT_3D('',#1858,#1497,#1498);
#1249=AXIS2_PLACEMENT_3D('',#1859,#1499,#1500);
#1250=AXIS2_PLACEMENT_3D('',#1860,#1501,#1502);
#1251=AXIS2_PLACEMENT_3D('',#1869,#1507,#1508);
#1252=AXIS2_PLACEMENT_3D('',#1871,#1509,#1510);
#1253=AXIS2_PLACEMENT_3D('',#1873,#1511,#1512);
#1254=AXIS2_PLACEMENT_3D('',#1875,#1514,#1515);
#1255=AXIS2_PLACEMENT_3D('',#1881,#1519,#1520);
#1256=AXIS2_PLACEMENT_3D('',#1883,#1521,#1522);
#1257=AXIS2_PLACEMENT_3D('',#1885,#1523,#1524);
#1258=AXIS2_PLACEMENT_3D('',#1887,#1526,#1527);
#1259=AXIS2_PLACEMENT_3D('',#1893,#1531,#1532);
#1260=AXIS2_PLACEMENT_3D('',#1895,#1533,#1534);
#1261=AXIS2_PLACEMENT_3D('',#1897,#1535,#1536);
#1262=AXIS2_PLACEMENT_3D('',#1899,#1538,#1539);
#1263=AXIS2_PLACEMENT_3D('',#1905,#1543,#1544);
#1264=AXIS2_PLACEMENT_3D('',#1906,#1545,#1546);
#1265=AXIS2_PLACEMENT_3D('',#1907,#1547,#1548);
#1266=AXIS2_PLACEMENT_3D('',#1908,#1549,#1550);
#1267=AXIS2_PLACEMENT_3D('',#1909,#1551,#1552);
#1268=AXIS2_PLACEMENT_3D('',#1910,#1553,#1554);
#1269=AXIS2_PLACEMENT_3D('',#1912,#1555,#1556);
#1270=AXIS2_PLACEMENT_3D('',#1914,#1557,#1558);
#1271=AXIS2_PLACEMENT_3D('',#1916,#1559,#1560);
#1272=AXIS2_PLACEMENT_3D('',#1917,#1561,#1562);
#1273=AXIS2_PLACEMENT_3D('',#1918,#1563,#1564);
#1274=AXIS2_PLACEMENT_3D('',#1921,#1566,#1567);
#1275=AXIS2_PLACEMENT_3D('',#1922,#1568,#1569);
#1276=AXIS2_PLACEMENT_3D('',#1924,#1570,#1571);
#1277=AXIS2_PLACEMENT_3D('',#1925,#1572,#1573);
#1278=AXIS2_PLACEMENT_3D('',#1928,#1575,#1576);
#1279=AXIS2_PLACEMENT_3D('',#1929,#1577,#1578);
#1280=AXIS2_PLACEMENT_3D('',#1932,#1579,#1580);
#1281=AXIS2_PLACEMENT_3D('',#1936,#1582,#1583);
#1282=AXIS2_PLACEMENT_3D('',#1940,#1585,#1586);
#1283=AXIS2_PLACEMENT_3D('',#1944,#1588,#1589);
#1284=AXIS2_PLACEMENT_3D('',#1947,#1591,#1592);
#1285=AXIS2_PLACEMENT_3D('',#1949,#1593,#1594);
#1286=AXIS2_PLACEMENT_3D('',#1951,#1595,#1596);
#1287=AXIS2_PLACEMENT_3D('',#1952,#1597,#1598);
#1288=AXIS2_PLACEMENT_3D('',#1954,#1599,#1600);
#1289=AXIS2_PLACEMENT_3D('',#1956,#1601,#1602);
#1290=AXIS2_PLACEMENT_3D('',#1958,#1603,#1604);
#1291=AXIS2_PLACEMENT_3D('',#1959,#1605,#1606);
#1292=AXIS2_PLACEMENT_3D('',#1960,#1607,#1608);
#1293=AXIS2_PLACEMENT_3D('',#1962,#1610,#1611);
#1294=AXIS2_PLACEMENT_3D('',#1964,#1612,#1613);
#1295=AXIS2_PLACEMENT_3D('',#1965,#1614,#1615);
#1296=AXIS2_PLACEMENT_3D('',#1968,#1617,#1618);
#1297=AXIS2_PLACEMENT_3D('',#1969,#1619,#1620);
#1298=AXIS2_PLACEMENT_3D('',#1971,#1621,#1622);
#1299=AXIS2_PLACEMENT_3D('',#1973,#1623,#1624);
#1300=AXIS2_PLACEMENT_3D('',#1974,#1625,#1626);
#1301=AXIS2_PLACEMENT_3D('',#1975,#1627,#1628);
#1302=AXIS2_PLACEMENT_3D('',#1977,#1630,#1631);
#1303=AXIS2_PLACEMENT_3D('',#1979,#1632,#1633);
#1304=AXIS2_PLACEMENT_3D('',#1980,#1634,#1635);
#1305=AXIS2_PLACEMENT_3D('',#1983,#1637,#1638);
#1306=AXIS2_PLACEMENT_3D('',#1984,#1639,#1640);
#1307=AXIS2_PLACEMENT_3D('',#1986,#1641,#1642);
#1308=AXIS2_PLACEMENT_3D('',#1988,#1643,#1644);
#1309=AXIS2_PLACEMENT_3D('',#1990,#1645,#1646);
#1310=AXIS2_PLACEMENT_3D('',#1991,#1647,#1648);
#1311=AXIS2_PLACEMENT_3D('',#1992,#1649,#1650);
#1312=AXIS2_PLACEMENT_3D('',#1994,#1652,#1653);
#1313=AXIS2_PLACEMENT_3D('',#1996,#1654,#1655);
#1314=AXIS2_PLACEMENT_3D('',#1997,#1656,#1657);
#1315=AXIS2_PLACEMENT_3D('',#2000,#1659,#1660);
#1316=AXIS2_PLACEMENT_3D('',#2001,#1661,#1662);
#1317=AXIS2_PLACEMENT_3D('',#2007,#1666,#1667);
#1318=AXIS2_PLACEMENT_3D('',#2009,#1668,#1669);
#1319=AXIS2_PLACEMENT_3D('',#2011,#1671,#1672);
#1320=AXIS2_PLACEMENT_3D('',#2015,#1675,#1676);
#1321=AXIS2_PLACEMENT_3D('',#2017,#1677,#1678);
#1322=AXIS2_PLACEMENT_3D('',#2019,#1680,#1681);
#1323=AXIS2_PLACEMENT_3D('',#2023,#1684,#1685);
#1324=AXIS2_PLACEMENT_3D('',#2025,#1686,#1687);
#1325=AXIS2_PLACEMENT_3D('',#2027,#1689,#1690);
#1326=AXIS2_PLACEMENT_3D('',#2031,#1693,#1694);
#1327=AXIS2_PLACEMENT_3D('',#2032,#1695,#1696);
#1328=AXIS2_PLACEMENT_3D('',#2033,#1697,#1698);
#1329=AXIS2_PLACEMENT_3D('',#2034,#1699,#1700);
#1330=AXIS2_PLACEMENT_3D('',#2035,#1701,#1702);
#1331=AXIS2_PLACEMENT_3D('',#2036,#1703,#1704);
#1332=AXIS2_PLACEMENT_3D('',#2037,#1705,#1706);
#1333=DIRECTION('axis',(0.,0.,1.));
#1334=DIRECTION('refdir',(1.,0.,0.));
#1335=DIRECTION('axis',(0.,0.,1.));
#1336=DIRECTION('refdir',(1.,0.,0.));
#1337=DIRECTION('center_axis',(0.,0.,1.));
#1338=DIRECTION('ref_axis',(-1.,0.,0.));
#1339=DIRECTION('center_axis',(8.52519016323187E-16,0.,1.));
#1340=DIRECTION('ref_axis',(-1.,0.,1.08689353422154E-15));
#1341=DIRECTION('',(-0.739271628119084,9.05346633076489E-17,-0.673407350611915));
#1342=DIRECTION('center_axis',(-8.52519016323187E-16,0.,-1.));
#1343=DIRECTION('ref_axis',(-1.,0.,0.));
#1344=DIRECTION('center_axis',(-8.52519016323187E-16,0.,-1.));
#1345=DIRECTION('ref_axis',(-1.,0.,9.6892191240013E-16));
#1346=DIRECTION('center_axis',(8.52519016323187E-16,0.,1.));
#1347=DIRECTION('ref_axis',(1.,0.,-8.57899609937614E-16));
#1348=DIRECTION('center_axis',(-1.22464679914735E-16,-1.,1.04403468455244E-31));
#1349=DIRECTION('ref_axis',(1.,-1.22464679914735E-16,-8.07434927000109E-16));
#1350=DIRECTION('center_axis',(-8.52519016323187E-16,0.,-1.));
#1351=DIRECTION('ref_axis',(1.,0.,-8.52519016323187E-16));
#1352=DIRECTION('center_axis',(8.52519016323187E-16,0.,1.));
#1353=DIRECTION('ref_axis',(1.,0.,-8.52519016323187E-16));
#1354=DIRECTION('',(0.866025403784439,0.499999999999999,-7.38303125345201E-16));
#1355=DIRECTION('',(0.866025403784438,-0.5,-7.383031253452E-16));
#1356=DIRECTION('',(-1.22464679914735E-16,-1.,1.04403468455244E-31));
#1357=DIRECTION('',(-0.866025403784439,-0.5,7.383031253452E-16));
#1358=DIRECTION('',(-0.866025403784439,0.5,7.383031253452E-16));
#1359=DIRECTION('',(0.,1.,0.));
#1360=DIRECTION('center_axis',(-8.52519016323187E-16,0.,-1.));
#1361=DIRECTION('ref_axis',(-1.,0.,1.08689353422154E-15));
#1362=DIRECTION('center_axis',(-8.52519016323187E-16,0.,-1.));
#1363=DIRECTION('ref_axis',(1.,0.,-8.52519016323187E-16));
#1364=DIRECTION('',(8.52519016323187E-16,0.,1.));
#1365=DIRECTION('center_axis',(-0.0435778713738291,-0.0754790873051733,
-0.996194698091746));
#1366=DIRECTION('ref_axis',(-0.866025403784439,0.5,0.));
#1367=DIRECTION('',(0.863550259614423,0.498570974847158,-0.0755508581011305));
#1368=DIRECTION('',(-0.866025403784439,0.5,0.));
#1369=DIRECTION('',(1.59381164582915E-16,0.997141949694316,-0.0755508581011305));
#1370=DIRECTION('center_axis',(0.043577871373829,-0.0754790873051733,-0.996194698091746));
#1371=DIRECTION('ref_axis',(-0.866025403784439,-0.5,0.));
#1372=DIRECTION('',(-0.866025403784439,-0.5,0.));
#1373=DIRECTION('',(-0.863550259614423,0.498570974847158,-0.0755508581011305));
#1374=DIRECTION('center_axis',(0.0871557427476581,-1.0673500138323E-17,
-0.996194698091746));
#1375=DIRECTION('ref_axis',(-1.22464679914735E-16,-1.,0.));
#1376=DIRECTION('',(-1.22464679914735E-16,-1.,0.));
#1377=DIRECTION('',(-0.863550259614423,-0.498570974847158,-0.0755508581011305));
#1378=DIRECTION('center_axis',(0.0435778713738291,0.0754790873051733,-0.996194698091746));
#1379=DIRECTION('ref_axis',(0.866025403784438,-0.5,0.));
#1380=DIRECTION('',(0.866025403784438,-0.5,0.));
#1381=DIRECTION('',(-6.37524658331659E-16,-0.997141949694316,-0.0755508581011305));
#1382=DIRECTION('center_axis',(-0.043577871373829,0.0754790873051733,-0.996194698091746));
#1383=DIRECTION('ref_axis',(0.866025403784439,0.499999999999999,0.));
#1384=DIRECTION('',(0.866025403784439,0.499999999999999,0.));
#1385=DIRECTION('',(0.863550259614423,-0.498570974847159,-0.0755508581011305));
#1386=DIRECTION('center_axis',(-0.0871557427476582,0.,-0.996194698091746));
#1387=DIRECTION('ref_axis',(0.,1.,0.));
#1388=DIRECTION('',(0.,1.,0.));
#1389=DIRECTION('center_axis',(-0.499999999999999,0.866025403784439,0.));
#1390=DIRECTION('ref_axis',(0.866025403784439,0.499999999999999,0.));
#1391=DIRECTION('',(0.,0.,-1.));
#1392=DIRECTION('',(0.,0.,-1.));
#1393=DIRECTION('center_axis',(0.5,0.866025403784438,0.));
#1394=DIRECTION('ref_axis',(0.866025403784438,-0.5,0.));
#1395=DIRECTION('',(0.,0.,-1.));
#1396=DIRECTION('center_axis',(1.,-1.22464679914735E-16,0.));
#1397=DIRECTION('ref_axis',(-1.22464679914735E-16,-1.,0.));
#1398=DIRECTION('',(0.,0.,-1.));
#1399=DIRECTION('center_axis',(0.5,-0.866025403784439,0.));
#1400=DIRECTION('ref_axis',(-0.866025403784439,-0.5,0.));
#1401=DIRECTION('',(0.,0.,-1.));
#1402=DIRECTION('center_axis',(-0.5,-0.866025403784439,0.));
#1403=DIRECTION('ref_axis',(-0.866025403784439,0.5,0.));
#1404=DIRECTION('',(0.,0.,-1.));
#1405=DIRECTION('center_axis',(-1.,0.,0.));
#1406=DIRECTION('ref_axis',(0.,1.,0.));
#1407=DIRECTION('center_axis',(-8.52519016323187E-16,0.,-1.));
#1408=DIRECTION('ref_axis',(-1.,0.,1.08689353422154E-15));
#1409=DIRECTION('',(8.52519016323187E-16,0.,1.));
#1410=DIRECTION('center_axis',(8.52519016323187E-16,0.,1.));
#1411=DIRECTION('ref_axis',(-1.,0.,1.08689353422154E-15));
#1412=DIRECTION('center_axis',(-8.52519016323187E-16,0.,-1.));
#1413=DIRECTION('ref_axis',(-1.,0.,8.52519016323187E-16));
#1414=DIRECTION('center_axis',(-8.52519016323187E-16,0.,-1.));
#1415=DIRECTION('ref_axis',(-1.,0.,8.52519016323187E-16));
#1416=DIRECTION('center_axis',(0.,1.,0.));
#1417=DIRECTION('ref_axis',(1.83697019872103E-16,0.,-1.));
#1418=DIRECTION('center_axis',(4.78249886602277E-16,1.,0.));
#1419=DIRECTION('ref_axis',(1.83697019872103E-16,0.,-1.));
#1420=DIRECTION('',(0.,1.,0.));
#1421=DIRECTION('center_axis',(0.,-1.,0.));
#1422=DIRECTION('ref_axis',(1.83697019872103E-16,0.,-1.));
#1423=DIRECTION('center_axis',(0.,1.,0.));
#1424=DIRECTION('ref_axis',(1.,0.,1.22464679914735E-16));
#1425=DIRECTION('center_axis',(4.78249886602277E-16,1.,0.));
#1426=DIRECTION('ref_axis',(1.,0.,1.22464679914735E-16));
#1427=DIRECTION('',(0.,1.,0.));
#1428=DIRECTION('center_axis',(0.,-1.,0.));
#1429=DIRECTION('ref_axis',(1.,0.,1.22464679914735E-16));
#1430=DIRECTION('center_axis',(0.,1.,0.));
#1431=DIRECTION('ref_axis',(-6.12323399573677E-17,0.,1.));
#1432=DIRECTION('center_axis',(4.78249886602277E-16,1.,0.));
#1433=DIRECTION('ref_axis',(-6.12323399573677E-17,0.,1.));
#1434=DIRECTION('',(0.,1.,0.));
#1435=DIRECTION('center_axis',(0.,-1.,0.));
#1436=DIRECTION('ref_axis',(-6.12323399573677E-17,0.,1.));
#1437=DIRECTION('center_axis',(0.,1.,0.));
#1438=DIRECTION('ref_axis',(-1.,0.,0.));
#1439=DIRECTION('center_axis',(4.78249886602277E-16,1.,0.));
#1440=DIRECTION('ref_axis',(-1.,0.,0.));
#1441=DIRECTION('',(0.,1.,0.));
#1442=DIRECTION('center_axis',(0.,-1.,0.));
#1443=DIRECTION('ref_axis',(-1.,0.,0.));
#1444=DIRECTION('center_axis',(0.,-1.,0.));
#1445=DIRECTION('ref_axis',(-1.,0.,0.));
#1446=DIRECTION('center_axis',(0.,-1.,0.));
#1447=DIRECTION('ref_axis',(-1.,0.,0.));
#1448=DIRECTION('',(0.,-1.,0.));
#1449=DIRECTION('center_axis',(4.78249886602277E-16,1.,0.));
#1450=DIRECTION('ref_axis',(-1.,0.,0.));
#1451=DIRECTION('center_axis',(-7.60280834287852E-13,-1.,0.));
#1452=DIRECTION('ref_axis',(1.,-7.60280834287852E-13,0.));
#1453=DIRECTION('',(1.,-7.60280834287852E-13,0.));
#1454=DIRECTION('',(0.,0.,1.));
#1455=DIRECTION('',(1.,-7.60280834287852E-13,0.));
#1456=DIRECTION('',(0.,0.,1.));
#1457=DIRECTION('center_axis',(0.,0.,1.));
#1458=DIRECTION('ref_axis',(-0.999999999981169,6.13701491391586E-6,0.));
#1459=DIRECTION('center_axis',(0.,0.,1.));
#1460=DIRECTION('ref_axis',(-0.999999999981169,6.13701491391586E-6,0.));
#1461=DIRECTION('center_axis',(0.,0.,1.));
#1462=DIRECTION('ref_axis',(-0.999999999981169,6.13701491391586E-6,0.));
#1463=DIRECTION('',(0.,0.,1.));
#1464=DIRECTION('center_axis',(-1.,4.84461042887297E-16,0.));
#1465=DIRECTION('ref_axis',(-4.84461042887297E-16,-1.,0.));
#1466=DIRECTION('',(-4.84461042887297E-16,-1.,0.));
#1467=DIRECTION('',(-4.84461042887297E-16,-1.,0.));
#1468=DIRECTION('',(0.,0.,1.));
#1469=DIRECTION('center_axis',(0.,0.,1.));
#1470=DIRECTION('ref_axis',(-3.83605105008283E-6,0.999999999992642,0.));
#1471=DIRECTION('center_axis',(0.,0.,1.));
#1472=DIRECTION('ref_axis',(-3.83605105008283E-6,0.999999999992642,0.));
#1473=DIRECTION('center_axis',(0.,0.,1.));
#1474=DIRECTION('ref_axis',(-3.83605105008283E-6,0.999999999992642,0.));
#1475=DIRECTION('',(0.,0.,1.));
#1476=DIRECTION('center_axis',(4.78249886602277E-16,1.,0.));
#1477=DIRECTION('ref_axis',(-1.,4.78249886602277E-16,0.));
#1478=DIRECTION('',(-1.,4.78249886602277E-16,0.));
#1479=DIRECTION('',(-1.,4.78249886602277E-16,0.));
#1480=DIRECTION('',(0.,0.,1.));
#1481=DIRECTION('center_axis',(0.,0.,1.));
#1482=DIRECTION('ref_axis',(0.99999999999808,1.95979914963088E-6,0.));
#1483=DIRECTION('center_axis',(0.,0.,1.));
#1484=DIRECTION('ref_axis',(0.99999999999808,1.95979914963088E-6,0.));
#1485=DIRECTION('center_axis',(0.,0.,1.));
#1486=DIRECTION('ref_axis',(0.99999999999808,1.95979914963088E-6,0.));
#1487=DIRECTION('',(0.,0.,1.));
#1488=DIRECTION('center_axis',(1.,-3.2297396521068E-16,0.));
#1489=DIRECTION('ref_axis',(3.2297396521068E-16,1.,0.));
#1490=DIRECTION('',(3.2297396521068E-16,1.,0.));
#1491=DIRECTION('',(3.2297396521068E-16,1.,0.));
#1492=DIRECTION('',(0.,0.,1.));
#1493=DIRECTION('center_axis',(0.,0.,1.));
#1494=DIRECTION('ref_axis',(-5.12780218872186E-6,-0.999999999986853,0.));
#1495=DIRECTION('center_axis',(0.,0.,1.));
#1496=DIRECTION('ref_axis',(-5.12780218872186E-6,-0.999999999986853,0.));
#1497=DIRECTION('center_axis',(0.,0.,1.));
#1498=DIRECTION('ref_axis',(-5.12780218872186E-6,-0.999999999986853,0.));
#1499=DIRECTION('center_axis',(0.,0.,1.));
#1500=DIRECTION('ref_axis',(1.,0.,0.));
#1501=DIRECTION('center_axis',(0.,1.,0.));
#1502=DIRECTION('ref_axis',(-1.,0.,0.));
#1503=DIRECTION('',(1.,0.,0.));
#1504=DIRECTION('',(0.,0.,1.));
#1505=DIRECTION('',(-1.,0.,0.));
#1506=DIRECTION('',(0.,0.,1.));
#1507=DIRECTION('center_axis',(0.,0.,1.));
#1508=DIRECTION('ref_axis',(1.,0.,0.));
#1509=DIRECTION('center_axis',(0.,0.,1.));
#1510=DIRECTION('ref_axis',(1.,0.,0.));
#1511=DIRECTION('center_axis',(0.,0.,1.));
#1512=DIRECTION('ref_axis',(1.,0.,0.));
#1513=DIRECTION('',(0.,0.,1.));
#1514=DIRECTION('center_axis',(1.,-2.42230478100036E-16,0.));
#1515=DIRECTION('ref_axis',(2.42230478100036E-16,1.,0.));
#1516=DIRECTION('',(-2.42230478100036E-16,-1.,0.));
#1517=DIRECTION('',(2.42230478100036E-16,1.,0.));
#1518=DIRECTION('',(0.,0.,1.));
#1519=DIRECTION('center_axis',(0.,0.,1.));
#1520=DIRECTION('ref_axis',(0.,-1.,0.));
#1521=DIRECTION('center_axis',(0.,0.,1.));
#1522=DIRECTION('ref_axis',(0.,-1.,0.));
#1523=DIRECTION('center_axis',(0.,0.,1.));
#1524=DIRECTION('ref_axis',(0.,-1.,0.));
#1525=DIRECTION('',(0.,0.,1.));
#1526=DIRECTION('center_axis',(-3.41607084500051E-16,-1.,0.));
#1527=DIRECTION('ref_axis',(1.,-3.41607084500051E-16,0.));
#1528=DIRECTION('',(-1.,3.41607084500051E-16,0.));
#1529=DIRECTION('',(1.,-3.41607084500051E-16,0.));
#1530=DIRECTION('',(0.,0.,1.));
#1531=DIRECTION('center_axis',(0.,0.,1.));
#1532=DIRECTION('ref_axis',(-1.,-5.32907051820069E-15,0.));
#1533=DIRECTION('center_axis',(0.,0.,1.));
#1534=DIRECTION('ref_axis',(-1.,-5.32907051820069E-15,0.));
#1535=DIRECTION('center_axis',(0.,0.,1.));
#1536=DIRECTION('ref_axis',(-1.,-5.32907051820069E-15,0.));
#1537=DIRECTION('',(0.,0.,1.));
#1538=DIRECTION('center_axis',(-1.,-8.07434927000114E-17,0.));
#1539=DIRECTION('ref_axis',(8.07434927000114E-17,-1.,0.));
#1540=DIRECTION('',(-8.07434927000114E-17,1.,0.));
#1541=DIRECTION('',(8.07434927000114E-17,-1.,0.));
#1542=DIRECTION('',(0.,0.,1.));
#1543=DIRECTION('center_axis',(0.,0.,1.));
#1544=DIRECTION('ref_axis',(0.,1.,0.));
#1545=DIRECTION('center_axis',(0.,0.,1.));
#1546=DIRECTION('ref_axis',(0.,1.,0.));
#1547=DIRECTION('center_axis',(0.,0.,1.));
#1548=DIRECTION('ref_axis',(0.,1.,0.));
#1549=DIRECTION('center_axis',(0.,0.,1.));
#1550=DIRECTION('ref_axis',(1.,0.,0.));
#1551=DIRECTION('center_axis',(0.,0.,1.));
#1552=DIRECTION('ref_axis',(1.,0.,0.));
#1553=DIRECTION('center_axis',(0.,1.,0.));
#1554=DIRECTION('ref_axis',(0.,0.,1.));
#1555=DIRECTION('center_axis',(0.,-1.,0.));
#1556=DIRECTION('ref_axis',(0.,0.,-1.));
#1557=DIRECTION('center_axis',(-1.,0.,0.));
#1558=DIRECTION('ref_axis',(0.,0.,-1.));
#1559=DIRECTION('center_axis',(0.,1.,0.));
#1560=DIRECTION('ref_axis',(0.,0.,-1.));
#1561=DIRECTION('center_axis',(0.,1.,0.));
#1562=DIRECTION('ref_axis',(0.,0.,-1.));
#1563=DIRECTION('center_axis',(0.,1.,0.));
#1564=DIRECTION('ref_axis',(1.83697019872103E-16,0.,-1.));
#1565=DIRECTION('',(0.,-1.,0.));
#1566=DIRECTION('center_axis',(0.,-1.,0.));
#1567=DIRECTION('ref_axis',(1.83697019872103E-16,0.,-1.));
#1568=DIRECTION('center_axis',(0.,1.,0.));
#1569=DIRECTION('ref_axis',(1.83697019872103E-16,0.,-1.));
#1570=DIRECTION('center_axis',(0.,1.,0.));
#1571=DIRECTION('ref_axis',(1.83697019872103E-16,0.,-1.));
#1572=DIRECTION('center_axis',(0.,1.,0.));
#1573=DIRECTION('ref_axis',(1.83697019872103E-16,0.,-1.));
#1574=DIRECTION('',(0.,-1.,0.));
#1575=DIRECTION('center_axis',(0.,1.,0.));
#1576=DIRECTION('ref_axis',(1.83697019872103E-16,0.,-1.));
#1577=DIRECTION('center_axis',(0.,1.,0.));
#1578=DIRECTION('ref_axis',(-1.,0.,0.));
#1579=DIRECTION('center_axis',(0.,1.,0.));
#1580=DIRECTION('ref_axis',(-1.,0.,0.));
#1581=DIRECTION('',(1.,0.,0.));
#1582=DIRECTION('center_axis',(0.,1.,0.));
#1583=DIRECTION('ref_axis',(0.,0.,1.));
#1584=DIRECTION('',(2.70271783238531E-16,0.,-1.));
#1585=DIRECTION('center_axis',(0.,1.,0.));
#1586=DIRECTION('ref_axis',(1.,0.,6.01129278484975E-16));
#1587=DIRECTION('',(-1.,0.,0.));
#1588=DIRECTION('center_axis',(0.,1.,0.));
#1589=DIRECTION('ref_axis',(0.,0.,-1.));
#1590=DIRECTION('',(0.,0.,1.));
#1591=DIRECTION('center_axis',(0.,-1.,0.));
#1592=DIRECTION('ref_axis',(1.,0.,1.22464679914735E-16));
#1593=DIRECTION('center_axis',(0.,-1.,0.));
#1594=DIRECTION('ref_axis',(-1.,0.,0.));
#1595=DIRECTION('center_axis',(0.,-1.,0.));
#1596=DIRECTION('ref_axis',(-6.12323399573677E-17,0.,1.));
#1597=DIRECTION('center_axis',(0.,1.,0.));
#1598=DIRECTION('ref_axis',(0.,0.,1.));
#1599=DIRECTION('center_axis',(0.,-1.,0.));
#1600=DIRECTION('ref_axis',(1.,0.,0.));
#1601=DIRECTION('center_axis',(-1.,0.,0.));
#1602=DIRECTION('ref_axis',(0.,0.,-1.));
#1603=DIRECTION('center_axis',(0.,1.,0.));
#1604=DIRECTION('ref_axis',(1.,0.,0.));
#1605=DIRECTION('center_axis',(0.,1.,0.));
#1606=DIRECTION('ref_axis',(1.,0.,0.));
#1607=DIRECTION('center_axis',(0.,1.,0.));
#1608=DIRECTION('ref_axis',(1.,0.,1.22464679914735E-16));
#1609=DIRECTION('',(0.,-1.,0.));
#1610=DIRECTION('center_axis',(0.,1.,0.));
#1611=DIRECTION('ref_axis',(1.,0.,1.22464679914735E-16));
#1612=DIRECTION('center_axis',(0.,1.,0.));
#1613=DIRECTION('ref_axis',(1.,0.,1.22464679914735E-16));
#1614=DIRECTION('center_axis',(0.,1.,0.));
#1615=DIRECTION('ref_axis',(1.,0.,1.22464679914735E-16));
#1616=DIRECTION('',(0.,-1.,0.));
#1617=DIRECTION('center_axis',(0.,1.,0.));
#1618=DIRECTION('ref_axis',(1.,0.,1.22464679914735E-16));
#1619=DIRECTION('center_axis',(0.,1.,0.));
#1620=DIRECTION('ref_axis',(0.,0.,1.));
#1621=DIRECTION('center_axis',(0.,-1.,0.));
#1622=DIRECTION('ref_axis',(0.,0.,1.));
#1623=DIRECTION('center_axis',(-1.,0.,0.));
#1624=DIRECTION('ref_axis',(0.,0.,-1.));
#1625=DIRECTION('center_axis',(0.,1.,0.));
#1626=DIRECTION('ref_axis',(0.,0.,1.));
#1627=DIRECTION('center_axis',(0.,1.,0.));
#1628=DIRECTION('ref_axis',(-6.12323399573677E-17,0.,1.));
#1629=DIRECTION('',(0.,-1.,0.));
#1630=DIRECTION('center_axis',(0.,1.,0.));
#1631=DIRECTION('ref_axis',(-6.12323399573677E-17,0.,1.));
#1632=DIRECTION('center_axis',(0.,1.,0.));
#1633=DIRECTION('ref_axis',(-6.12323399573677E-17,0.,1.));
#1634=DIRECTION('center_axis',(0.,1.,0.));
#1635=DIRECTION('ref_axis',(-6.12323399573677E-17,0.,1.));
#1636=DIRECTION('',(0.,-1.,0.));
#1637=DIRECTION('center_axis',(0.,1.,0.));
#1638=DIRECTION('ref_axis',(-6.12323399573677E-17,0.,1.));
#1639=DIRECTION('center_axis',(0.,1.,0.));
#1640=DIRECTION('ref_axis',(0.,0.,1.));
#1641=DIRECTION('center_axis',(0.,-1.,0.));
#1642=DIRECTION('ref_axis',(-1.,0.,0.));
#1643=DIRECTION('center_axis',(-1.,0.,0.));
#1644=DIRECTION('ref_axis',(0.,0.,-1.));
#1645=DIRECTION('center_axis',(0.,1.,0.));
#1646=DIRECTION('ref_axis',(-1.,0.,0.));
#1647=DIRECTION('center_axis',(0.,1.,0.));
#1648=DIRECTION('ref_axis',(-1.,0.,0.));
#1649=DIRECTION('center_axis',(0.,1.,0.));
#1650=DIRECTION('ref_axis',(-1.,0.,0.));
#1651=DIRECTION('',(0.,-1.,0.));
#1652=DIRECTION('center_axis',(0.,1.,0.));
#1653=DIRECTION('ref_axis',(-1.,0.,0.));
#1654=DIRECTION('center_axis',(0.,1.,0.));
#1655=DIRECTION('ref_axis',(-1.,0.,0.));
#1656=DIRECTION('center_axis',(0.,1.,0.));
#1657=DIRECTION('ref_axis',(-1.,0.,0.));
#1658=DIRECTION('',(0.,-1.,0.));
#1659=DIRECTION('center_axis',(0.,1.,0.));
#1660=DIRECTION('ref_axis',(-1.,0.,0.));
#1661=DIRECTION('center_axis',(-1.,0.,0.));
#1662=DIRECTION('ref_axis',(0.,0.,1.));
#1663=DIRECTION('',(0.,0.,-1.));
#1664=DIRECTION('',(0.,1.,0.));
#1665=DIRECTION('',(0.,1.,0.));
#1666=DIRECTION('center_axis',(0.,1.,0.));
#1667=DIRECTION('ref_axis',(0.,0.,-1.));
#1668=DIRECTION('center_axis',(0.,1.,0.));
#1669=DIRECTION('ref_axis',(0.,0.,-1.));
#1670=DIRECTION('',(0.,1.,0.));
#1671=DIRECTION('center_axis',(0.,0.,-1.));
#1672=DIRECTION('ref_axis',(-1.,0.,0.));
#1673=DIRECTION('',(1.,0.,0.));
#1674=DIRECTION('',(0.,1.,0.));
#1675=DIRECTION('center_axis',(0.,1.,0.));
#1676=DIRECTION('ref_axis',(1.,0.,6.01129278484975E-16));
#1677=DIRECTION('center_axis',(0.,1.,0.));
#1678=DIRECTION('ref_axis',(1.,0.,6.01129278484975E-16));
#1679=DIRECTION('',(0.,1.,0.));
#1680=DIRECTION('center_axis',(1.,0.,2.70271783238531E-16));
#1681=DIRECTION('ref_axis',(2.70271783238531E-16,0.,-1.));
#1682=DIRECTION('',(-2.70271783238531E-16,0.,1.));
#1683=DIRECTION('',(0.,1.,0.));
#1684=DIRECTION('center_axis',(0.,1.,0.));
#1685=DIRECTION('ref_axis',(0.,0.,1.));
#1686=DIRECTION('center_axis',(0.,1.,0.));
#1687=DIRECTION('ref_axis',(0.,0.,1.));
#1688=DIRECTION('',(0.,1.,0.));
#1689=DIRECTION('center_axis',(0.,0.,1.));
#1690=DIRECTION('ref_axis',(1.,0.,0.));
#1691=DIRECTION('',(-1.,0.,0.));
#1692=DIRECTION('',(0.,1.,0.));
#1693=DIRECTION('center_axis',(0.,1.,0.));
#1694=DIRECTION('ref_axis',(-1.,0.,0.));
#1695=DIRECTION('center_axis',(0.,1.,0.));
#1696=DIRECTION('ref_axis',(-1.,0.,0.));
#1697=DIRECTION('center_axis',(0.,1.,0.));
#1698=DIRECTION('ref_axis',(-1.,0.,0.));
#1699=DIRECTION('',(-4.78249886602277E-16,-1.,1.22464679914735E-16));
#1700=DIRECTION('',(1.,0.,0.));
#1701=DIRECTION('',(-4.78249886602277E-16,-1.,1.22464679914735E-16));
#1702=DIRECTION('',(1.,0.,0.));
#1703=DIRECTION('',(-4.78249886602277E-16,-1.,1.22464679914735E-16));
#1704=DIRECTION('',(1.,0.,0.));
#1705=DIRECTION('',(-4.78249886602277E-16,-1.,1.22464679914735E-16));
#1706=DIRECTION('',(1.,0.,0.));
#1707=CARTESIAN_POINT('',(0.,0.,0.));
#1708=CARTESIAN_POINT('',(0.,0.,0.));
#1709=CARTESIAN_POINT('Origin',(0.,0.,-5.84663750000001));
#1710=CARTESIAN_POINT('',(1.4635,1.79227059055215E-16,-5.75385028398549));
#1711=CARTESIAN_POINT('Origin',(-4.9052667841742E-15,0.,-5.75385028398549));
#1712=CARTESIAN_POINT('',(1.19327500000001,-1.46134040925257E-16,-6.));
#1713=CARTESIAN_POINT('',(1.36163750000003,-1.66752500597404E-16,-5.84663750000001));
#1714=CARTESIAN_POINT('Origin',(0.,0.,-6.));
#1715=CARTESIAN_POINT('Origin',(2.30180134407238E-15,0.,2.69999999999974));
#1716=CARTESIAN_POINT('',(2.75000000000002,-3.36777869765524E-16,2.69999999999974));
#1717=CARTESIAN_POINT('Origin',(2.30180134407238E-15,0.,2.69999999999974));
#1718=CARTESIAN_POINT('',(2.45000000000002,-3.00038465791104E-16,2.99999999999974));
#1719=CARTESIAN_POINT('Origin',(2.45000000000002,-3.00038465791104E-16,
2.69999999999974));
#1720=CARTESIAN_POINT('Origin',(2.55755704896934E-15,0.,2.99999999999974));
#1721=CARTESIAN_POINT('Origin',(-2.75000000000002,0.,2.99999999999974));
#1722=CARTESIAN_POINT('',(-1.25,0.721687836487032,3.));
#1723=CARTESIAN_POINT('',(7.63278329429795E-16,1.44337567297406,3.));
#1724=CARTESIAN_POINT('',(-1.96875000000001,0.306717330506986,2.99999999999974));
#1725=CARTESIAN_POINT('',(1.25,0.721687836487032,3.));
#1726=CARTESIAN_POINT('',(-0.718750000000006,1.85834617895411,2.99999999999974));
#1727=CARTESIAN_POINT('',(1.25,-0.721687836487033,3.));
#1728=CARTESIAN_POINT('',(1.25,0.360843918243516,2.99999999999974));
#1729=CARTESIAN_POINT('',(-2.08166817117217E-16,-1.44337567297406,3.));
#1730=CARTESIAN_POINT('',(-0.093750000000007,-1.4975022607106,2.99999999999974));
#1731=CARTESIAN_POINT('',(-1.25,-0.721687836487032,3.));
#1732=CARTESIAN_POINT('',(-1.34375000000001,-0.667561248750501,2.99999999999974));
#1733=CARTESIAN_POINT('',(-1.25,-0.360843918243516,2.99999999999974));
#1734=CARTESIAN_POINT('Origin',(1.27877852448434E-15,0.,1.49999999999949));
#1735=CARTESIAN_POINT('',(2.75000000000002,-3.36777869765524E-16,-7.67719221528296E-13));
#1736=CARTESIAN_POINT('Origin',(-6.51249330693903E-28,0.,-7.6442506613141E-13));
#1737=CARTESIAN_POINT('',(2.75000000000002,-3.36777869765524E-16,1.49999999999948));
#1738=CARTESIAN_POINT('Origin',(-1.25,-0.721687836487032,1.5));
#1739=CARTESIAN_POINT('',(-1.25,-0.721687836487032,1.5));
#1740=CARTESIAN_POINT('',(-6.93889390390723E-16,5.55111512312578E-16,1.3906391705926));
#1741=CARTESIAN_POINT('',(-0.939283728799943,-0.542295713668082,1.47281584869695));
#1742=CARTESIAN_POINT('',(-2.08166817117217E-16,-1.44337567297406,1.5));
#1743=CARTESIAN_POINT('',(-2.08166817117217E-16,-1.44337567297406,1.5));
#1744=CARTESIAN_POINT('',(-6.93889390390723E-16,-1.08459142733616,1.47281584869695));
#1745=CARTESIAN_POINT('Origin',(-2.08166817117217E-16,-1.44337567297406,
1.5));
#1746=CARTESIAN_POINT('',(1.25,-0.721687836487033,1.5));
#1747=CARTESIAN_POINT('',(1.25,-0.721687836487033,1.5));
#1748=CARTESIAN_POINT('',(0.939283728799943,-0.542295713668083,1.47281584869695));
#1749=CARTESIAN_POINT('Origin',(1.25,-0.721687836487033,1.5));
#1750=CARTESIAN_POINT('',(1.25,0.721687836487032,1.5));
#1751=CARTESIAN_POINT('',(1.25,0.721687836487032,1.5));
#1752=CARTESIAN_POINT('',(0.93928372879994,0.542295713668087,1.47281584869695));
#1753=CARTESIAN_POINT('Origin',(1.25,0.721687836487032,1.5));
#1754=CARTESIAN_POINT('',(7.63278329429795E-16,1.44337567297406,1.5));
#1755=CARTESIAN_POINT('',(7.63278329429795E-16,1.44337567297406,1.5));
#1756=CARTESIAN_POINT('',(9.71445146547012E-16,1.08459142733617,1.47281584869695));
#1757=CARTESIAN_POINT('Origin',(7.63278329429795E-16,1.44337567297406,1.5));
#1758=CARTESIAN_POINT('',(-1.25,0.721687836487032,1.5));
#1759=CARTESIAN_POINT('',(-1.25,0.721687836487033,1.5));
#1760=CARTESIAN_POINT('',(-0.939283728799942,0.542295713668084,1.47281584869695));
#1761=CARTESIAN_POINT('Origin',(-1.25,0.721687836487032,1.5));
#1762=CARTESIAN_POINT('',(-1.25,-0.721687836487032,1.5));
#1763=CARTESIAN_POINT('Origin',(-1.25,0.721687836487033,3.));
#1764=CARTESIAN_POINT('',(-1.25,0.721687836487032,3.));
#1765=CARTESIAN_POINT('',(7.63278329429795E-16,1.44337567297406,3.));
#1766=CARTESIAN_POINT('Origin',(7.63278329429795E-16,1.44337567297406,3.));
#1767=CARTESIAN_POINT('',(1.25,0.721687836487032,3.));
#1768=CARTESIAN_POINT('Origin',(1.25,0.721687836487032,3.));
#1769=CARTESIAN_POINT('',(1.25,-0.721687836487033,3.));
#1770=CARTESIAN_POINT('Origin',(1.25,-0.721687836487033,3.));
#1771=CARTESIAN_POINT('',(-2.08166817117217E-16,-1.44337567297406,3.));
#1772=CARTESIAN_POINT('Origin',(-2.08166817117217E-16,-1.44337567297406,
3.));
#1773=CARTESIAN_POINT('',(-1.25,-0.721687836487032,3.));
#1774=CARTESIAN_POINT('Origin',(-1.25,-0.721687836487032,3.));
#1775=CARTESIAN_POINT('Origin',(-2.55755704896974E-15,0.,-3.00000000000021));
#1776=CARTESIAN_POINT('',(1.4635,1.79227059055215E-16,-4.1847941443408E-13));
#1777=CARTESIAN_POINT('',(1.4635,-1.79227059055215E-16,-3.00000000000021));
#1778=CARTESIAN_POINT('Origin',(-3.54987407349455E-28,0.,-4.16888745746746E-13));
#1779=CARTESIAN_POINT('Origin',(-4.9960036108132E-15,0.,-6.));
#1780=CARTESIAN_POINT('Origin',(-1.50000000000002,0.,-4.15680348456286E-13));
#1781=CARTESIAN_POINT('Origin',(-55.75,120.,91.85));
#1782=CARTESIAN_POINT('',(-55.75,116.000000000051,93.3500000000001));
#1783=CARTESIAN_POINT('Origin',(-55.75,116.000000000051,91.85));
#1784=CARTESIAN_POINT('',(-55.75,120.,93.3500000000001));
#1785=CARTESIAN_POINT('',(-55.75,120.,93.3500000000001));
#1786=CARTESIAN_POINT('Origin',(-55.75,120.,91.85));
#1787=CARTESIAN_POINT('Origin',(-119.75,120.,91.85));
#1788=CARTESIAN_POINT('',(-121.25,116.000000000051,91.85));
#1789=CARTESIAN_POINT('Origin',(-119.75,116.000000000051,91.85));
#1790=CARTESIAN_POINT('',(-121.25,120.,91.85));
#1791=CARTESIAN_POINT('',(-121.25,120.,91.85));
#1792=CARTESIAN_POINT('Origin',(-119.75,120.,91.85));
#1793=CARTESIAN_POINT('Origin',(-119.75,120.,27.85));
#1794=CARTESIAN_POINT('',(-119.75,116.000000000051,26.35));
#1795=CARTESIAN_POINT('Origin',(-119.75,116.000000000051,27.85));
#1796=CARTESIAN_POINT('',(-119.75,120.,26.35));
#1797=CARTESIAN_POINT('',(-119.75,120.,26.35));
#1798=CARTESIAN_POINT('Origin',(-119.75,120.,27.85));
#1799=CARTESIAN_POINT('Origin',(-55.75,120.,27.85));
#1800=CARTESIAN_POINT('',(-54.25,116.000000000051,27.85));
#1801=CARTESIAN_POINT('Origin',(-55.75,116.000000000051,27.85));
#1802=CARTESIAN_POINT('',(-54.25,120.,27.85));
#1803=CARTESIAN_POINT('',(-54.25,120.,27.85));
#1804=CARTESIAN_POINT('Origin',(-55.75,120.,27.85));
#1805=CARTESIAN_POINT('Origin',(-87.75,120.,59.85));
#1806=CARTESIAN_POINT('',(-50.3,120.,59.85));
#1807=CARTESIAN_POINT('Origin',(-87.75,120.,59.85));
#1808=CARTESIAN_POINT('',(-50.3,116.000000000051,59.85));
#1809=CARTESIAN_POINT('',(-50.3,120.,59.85));
#1810=CARTESIAN_POINT('Origin',(-87.75,116.000000000051,59.85));
#1811=CARTESIAN_POINT('Origin',(-129.999994166875,-116.,0.));
#1812=CARTESIAN_POINT('',(129.999969232989,-116.000000000198,336.));
#1813=CARTESIAN_POINT('',(-129.999994166875,-116.,336.));
#1814=CARTESIAN_POINT('',(-64.9999970835127,-116.000000000049,336.));
#1815=CARTESIAN_POINT('',(129.999969232989,-116.000000000198,0.));
#1816=CARTESIAN_POINT('',(129.999969232989,-116.000000000198,0.));
#1817=CARTESIAN_POINT('',(-129.999994166875,-116.,0.));
#1818=CARTESIAN_POINT('',(-64.9999970834819,-116.000000000049,0.));
#1819=CARTESIAN_POINT('',(-129.999994166875,-116.,0.));
#1820=CARTESIAN_POINT('Origin',(-130.,-110.,0.));
#1821=CARTESIAN_POINT('',(-136.,-109.99996317791,336.));
#1822=CARTESIAN_POINT('Origin',(-130.,-110.,336.));
#1823=CARTESIAN_POINT('',(-136.,-109.99996317791,0.));
#1824=CARTESIAN_POINT('Origin',(-130.,-110.,0.));
#1825=CARTESIAN_POINT('',(-136.,-109.99996317791,0.));
#1826=CARTESIAN_POINT('Origin',(-136.,109.999997456302,0.));
#1827=CARTESIAN_POINT('',(-136.,109.999997456302,336.));
#1828=CARTESIAN_POINT('',(-136.,54.9999987280948,336.));
#1829=CARTESIAN_POINT('',(-136.,109.999997456302,0.));
#1830=CARTESIAN_POINT('',(-136.,54.9999987281512,0.));
#1831=CARTESIAN_POINT('',(-136.,109.999997456302,0.));
#1832=CARTESIAN_POINT('Origin',(-130.,110.,0.));
#1833=CARTESIAN_POINT('',(-130.000023016306,116.000000000051,336.));
#1834=CARTESIAN_POINT('Origin',(-130.,110.,336.));
#1835=CARTESIAN_POINT('',(-130.000023016306,116.000000000051,0.));
#1836=CARTESIAN_POINT('Origin',(-130.,110.,0.));
#1837=CARTESIAN_POINT('',(-130.000023016306,116.000000000051,0.));
#1838=CARTESIAN_POINT('Origin',(129.999994216161,116.000000000051,0.));
#1839=CARTESIAN_POINT('',(129.999994216161,116.000000000051,336.));
#1840=CARTESIAN_POINT('',(64.9999971080497,116.000000000051,336.));
#1841=CARTESIAN_POINT('',(129.999994216161,116.000000000051,0.));
#1842=CARTESIAN_POINT('',(64.9999971080806,116.000000000051,0.));
#1843=CARTESIAN_POINT('',(129.999994216161,116.000000000051,0.));
#1844=CARTESIAN_POINT('Origin',(130.,110.,0.));
#1845=CARTESIAN_POINT('',(135.999999999989,110.000011758795,336.));
#1846=CARTESIAN_POINT('Origin',(130.,110.,336.));
#1847=CARTESIAN_POINT('',(135.999999999989,110.000011758795,0.));
#1848=CARTESIAN_POINT('Origin',(130.,110.,0.));
#1849=CARTESIAN_POINT('',(135.999999999989,110.000011758795,0.));
#1850=CARTESIAN_POINT('Origin',(135.999999999989,-109.99999204851,0.));
#1851=CARTESIAN_POINT('',(135.999999999989,-109.99999204851,336.));
#1852=CARTESIAN_POINT('',(135.999999999989,-54.9999960243115,336.));
#1853=CARTESIAN_POINT('',(135.999999999989,-109.99999204851,0.));
#1854=CARTESIAN_POINT('',(135.999999999989,-54.999996024255,0.));
#1855=CARTESIAN_POINT('',(135.999999999989,-109.99999204851,0.));
#1856=CARTESIAN_POINT('Origin',(129.999999999802,-110.000000000196,0.));
#1857=CARTESIAN_POINT('Origin',(129.999999999802,-110.000000000196,336.));
#1858=CARTESIAN_POINT('Origin',(129.999999999802,-110.000000000196,0.));
#1859=CARTESIAN_POINT('Origin',(-6.17994544427347E-11,-1.12931886064871E-10,
336.));
#1860=CARTESIAN_POINT('Origin',(130.,120.,0.));
#1861=CARTESIAN_POINT('',(-130.,120.,0.));
#1862=CARTESIAN_POINT('',(130.,120.,0.));
#1863=CARTESIAN_POINT('',(-130.,120.,0.));
#1864=CARTESIAN_POINT('',(-130.,120.,339.));
#1865=CARTESIAN_POINT('',(-130.,120.,0.));
#1866=CARTESIAN_POINT('',(130.,120.,339.));
#1867=CARTESIAN_POINT('',(-130.,120.,339.));
#1868=CARTESIAN_POINT('',(130.,120.,0.));
#1869=CARTESIAN_POINT('Origin',(130.,110.,0.));
#1870=CARTESIAN_POINT('',(140.,110.,0.));
#1871=CARTESIAN_POINT('Origin',(130.,110.,0.));
#1872=CARTESIAN_POINT('',(140.,110.,339.));
#1873=CARTESIAN_POINT('Origin',(130.,110.,339.));
#1874=CARTESIAN_POINT('',(140.,110.,0.));
#1875=CARTESIAN_POINT('Origin',(140.,-109.999999999998,0.));
#1876=CARTESIAN_POINT('',(140.,-109.999999999998,0.));
#1877=CARTESIAN_POINT('',(140.,110.,0.));
#1878=CARTESIAN_POINT('',(140.,-109.999999999998,339.));
#1879=CARTESIAN_POINT('',(140.,110.,339.));
#1880=CARTESIAN_POINT('',(140.,-109.999999999998,0.));
#1881=CARTESIAN_POINT('Origin',(129.999999999998,-109.999999999998,0.));
#1882=CARTESIAN_POINT('',(129.999999999998,-120.,0.));
#1883=CARTESIAN_POINT('Origin',(129.999999999998,-109.999999999998,0.));
#1884=CARTESIAN_POINT('',(129.999999999998,-120.,339.));
#1885=CARTESIAN_POINT('Origin',(129.999999999998,-109.999999999998,339.));
#1886=CARTESIAN_POINT('',(129.999999999998,-120.,0.));
#1887=CARTESIAN_POINT('Origin',(-130.,-120.,0.));
#1888=CARTESIAN_POINT('',(-130.,-120.,0.));
#1889=CARTESIAN_POINT('',(129.999999999998,-120.,0.));
#1890=CARTESIAN_POINT('',(-130.,-120.,339.));
#1891=CARTESIAN_POINT('',(129.999999999998,-120.,339.));
#1892=CARTESIAN_POINT('',(-130.,-120.,0.));
#1893=CARTESIAN_POINT('Origin',(-130.,-110.,0.));
#1894=CARTESIAN_POINT('',(-140.,-110.,0.));
#1895=CARTESIAN_POINT('Origin',(-130.,-110.,0.));
#1896=CARTESIAN_POINT('',(-140.,-110.,339.));
#1897=CARTESIAN_POINT('Origin',(-130.,-110.,339.));
#1898=CARTESIAN_POINT('',(-140.,-110.,0.));
#1899=CARTESIAN_POINT('Origin',(-140.,110.,0.));
#1900=CARTESIAN_POINT('',(-140.,110.,0.));
#1901=CARTESIAN_POINT('',(-140.,-110.,0.));
#1902=CARTESIAN_POINT('',(-140.,110.,339.));
#1903=CARTESIAN_POINT('',(-140.,-110.,339.));
#1904=CARTESIAN_POINT('',(-140.,110.,0.));
#1905=CARTESIAN_POINT('Origin',(-130.,110.,0.));
#1906=CARTESIAN_POINT('Origin',(-130.,110.,0.));
#1907=CARTESIAN_POINT('Origin',(-130.,110.,339.));
#1908=CARTESIAN_POINT('Origin',(-3.5527136788005E-14,0.,339.));
#1909=CARTESIAN_POINT('Origin',(-3.5527136788005E-14,0.,0.));
#1910=CARTESIAN_POINT('Origin',(-55.75,122.2,91.85));
#1911=CARTESIAN_POINT('',(-55.75,123.2,87.85));
#1912=CARTESIAN_POINT('Origin',(-55.75,123.2,91.85));
#1913=CARTESIAN_POINT('',(-55.75,122.2,86.85));
#1914=CARTESIAN_POINT('Origin',(-55.75,122.2,87.85));
#1915=CARTESIAN_POINT('',(-55.75,122.2,96.85));
#1916=CARTESIAN_POINT('Origin',(-55.75,122.2,91.85));
#1917=CARTESIAN_POINT('Origin',(-55.75,122.2,91.85));
#1918=CARTESIAN_POINT('Origin',(-55.75,120.,91.85));
#1919=CARTESIAN_POINT('',(-55.75,122.,96.85));
#1920=CARTESIAN_POINT('',(-55.75,120.,96.85));
#1921=CARTESIAN_POINT('Origin',(-55.75,122.,91.85));
#1922=CARTESIAN_POINT('Origin',(-55.75,123.2,91.85));
#1923=CARTESIAN_POINT('',(-55.75,123.2,93.1145));
#1924=CARTESIAN_POINT('Origin',(-55.75,123.2,91.85));
#1925=CARTESIAN_POINT('Origin',(-55.75,120.,91.85));
#1926=CARTESIAN_POINT('',(-55.75,120.,93.1145));
#1927=CARTESIAN_POINT('',(-55.75,120.,93.1145));
#1928=CARTESIAN_POINT('Origin',(-55.75,120.,91.85));
#1929=CARTESIAN_POINT('Origin',(-87.75,122.,59.85));
#1930=CARTESIAN_POINT('',(-128.,122.,92.7124175656641));
#1931=CARTESIAN_POINT('',(-120.612417565664,122.,100.1));
#1932=CARTESIAN_POINT('Origin',(-120.612417565664,122.,92.7124175656641));
#1933=CARTESIAN_POINT('',(-54.8875824343359,122.,100.1));
#1934=CARTESIAN_POINT('',(-54.8875824343359,122.,100.1));
#1935=CARTESIAN_POINT('',(-47.5,122.,92.7124175656641));
#1936=CARTESIAN_POINT('Origin',(-54.8875824343359,122.,92.7124175656641));
#1937=CARTESIAN_POINT('',(-47.5,122.,26.9875824343359));
#1938=CARTESIAN_POINT('',(-47.5,122.,26.9875824343359));
#1939=CARTESIAN_POINT('',(-54.8875824343359,122.,19.6));
#1940=CARTESIAN_POINT('Origin',(-54.8875824343359,122.,26.9875824343359));
#1941=CARTESIAN_POINT('',(-120.612417565664,122.,19.6));
#1942=CARTESIAN_POINT('',(-120.612417565664,122.,19.6));
#1943=CARTESIAN_POINT('',(-128.,122.,26.9875824343359));
#1944=CARTESIAN_POINT('Origin',(-120.612417565664,122.,26.9875824343359));
#1945=CARTESIAN_POINT('',(-128.,122.,92.7124175656641));
#1946=CARTESIAN_POINT('',(-124.75,122.,91.85));
#1947=CARTESIAN_POINT('Origin',(-119.75,122.,91.85));
#1948=CARTESIAN_POINT('',(-50.75,122.,27.85));
#1949=CARTESIAN_POINT('Origin',(-55.75,122.,27.85));
#1950=CARTESIAN_POINT('',(-119.75,122.,22.85));
#1951=CARTESIAN_POINT('Origin',(-119.75,122.,27.85));
#1952=CARTESIAN_POINT('Origin',(-119.75,122.2,91.85));
#1953=CARTESIAN_POINT('',(-119.75,123.2,87.85));
#1954=CARTESIAN_POINT('Origin',(-119.75,123.2,91.85));
#1955=CARTESIAN_POINT('',(-119.75,122.2,86.85));
#1956=CARTESIAN_POINT('Origin',(-119.75,122.2,87.85));
#1957=CARTESIAN_POINT('',(-124.75,122.2,91.85));
#1958=CARTESIAN_POINT('Origin',(-119.75,122.2,91.85));
#1959=CARTESIAN_POINT('Origin',(-119.75,122.2,91.85));
#1960=CARTESIAN_POINT('Origin',(-119.75,120.,91.85));
#1961=CARTESIAN_POINT('',(-124.75,120.,91.85));
#1962=CARTESIAN_POINT('Origin',(-119.75,123.2,91.85));
#1963=CARTESIAN_POINT('',(-121.0145,123.2,91.85));
#1964=CARTESIAN_POINT('Origin',(-119.75,123.2,91.85));
#1965=CARTESIAN_POINT('Origin',(-119.75,120.,91.85));
#1966=CARTESIAN_POINT('',(-121.0145,120.,91.85));
#1967=CARTESIAN_POINT('',(-121.0145,120.,91.85));
#1968=CARTESIAN_POINT('Origin',(-119.75,120.,91.85));
#1969=CARTESIAN_POINT('Origin',(-119.75,122.2,27.85));
#1970=CARTESIAN_POINT('',(-119.75,123.2,23.85));
#1971=CARTESIAN_POINT('Origin',(-119.75,123.2,27.85));
#1972=CARTESIAN_POINT('',(-119.75,122.2,22.85));
#1973=CARTESIAN_POINT('Origin',(-119.75,122.2,23.85));
#1974=CARTESIAN_POINT('Origin',(-119.75,122.2,27.85));
#1975=CARTESIAN_POINT('Origin',(-119.75,120.,27.85));
#1976=CARTESIAN_POINT('',(-119.75,120.,22.85));
#1977=CARTESIAN_POINT('Origin',(-119.75,123.2,27.85));
#1978=CARTESIAN_POINT('',(-119.75,123.2,26.5855));
#1979=CARTESIAN_POINT('Origin',(-119.75,123.2,27.85));
#1980=CARTESIAN_POINT('Origin',(-119.75,120.,27.85));
#1981=CARTESIAN_POINT('',(-119.75,120.,26.5855));
#1982=CARTESIAN_POINT('',(-119.75,120.,26.5855));
#1983=CARTESIAN_POINT('Origin',(-119.75,120.,27.85));
#1984=CARTESIAN_POINT('Origin',(-55.75,122.2,27.85));
#1985=CARTESIAN_POINT('',(-55.75,123.2,23.85));
#1986=CARTESIAN_POINT('Origin',(-55.75,123.2,27.85));
#1987=CARTESIAN_POINT('',(-55.75,122.2,22.85));
#1988=CARTESIAN_POINT('Origin',(-55.75,122.2,23.85));
#1989=CARTESIAN_POINT('',(-50.75,122.2,27.85));
#1990=CARTESIAN_POINT('Origin',(-55.75,122.2,27.85));
#1991=CARTESIAN_POINT('Origin',(-55.75,122.2,27.85));
#1992=CARTESIAN_POINT('Origin',(-55.75,120.,27.85));
#1993=CARTESIAN_POINT('',(-50.75,120.,27.85));
#1994=CARTESIAN_POINT('Origin',(-55.75,123.2,27.85));
#1995=CARTESIAN_POINT('',(-54.4855,123.2,27.85));
#1996=CARTESIAN_POINT('Origin',(-55.75,123.2,27.85));
#1997=CARTESIAN_POINT('Origin',(-55.75,120.,27.85));
#1998=CARTESIAN_POINT('',(-54.4855,120.,27.85));
#1999=CARTESIAN_POINT('',(-54.4855,120.,27.85));
#2000=CARTESIAN_POINT('Origin',(-55.75,120.,27.85));
#2001=CARTESIAN_POINT('Origin',(-128.,120.,26.9875824343359));
#2002=CARTESIAN_POINT('',(-128.,120.,92.7124175656641));
#2003=CARTESIAN_POINT('',(-128.,120.,26.9875824343359));
#2004=CARTESIAN_POINT('',(-128.,120.,92.7124175656641));
#2005=CARTESIAN_POINT('',(-128.,120.,92.7124175656641));
#2006=CARTESIAN_POINT('',(-128.,120.,26.9875824343359));
#2007=CARTESIAN_POINT('Origin',(-120.612417565664,120.,26.9875824343359));
#2008=CARTESIAN_POINT('',(-120.612417565664,120.,19.6));
#2009=CARTESIAN_POINT('Origin',(-120.612417565664,120.,26.9875824343359));
#2010=CARTESIAN_POINT('',(-120.612417565664,120.,19.6));
#2011=CARTESIAN_POINT('Origin',(-54.8875824343359,120.,19.6));
#2012=CARTESIAN_POINT('',(-54.8875824343359,120.,19.6));
#2013=CARTESIAN_POINT('',(-120.612417565664,120.,19.6));
#2014=CARTESIAN_POINT('',(-54.8875824343359,120.,19.6));
#2015=CARTESIAN_POINT('Origin',(-54.8875824343359,120.,26.9875824343359));
#2016=CARTESIAN_POINT('',(-47.5,120.,26.9875824343359));
#2017=CARTESIAN_POINT('Origin',(-54.8875824343359,120.,26.9875824343359));
#2018=CARTESIAN_POINT('',(-47.5,120.,26.9875824343359));
#2019=CARTESIAN_POINT('Origin',(-47.5,120.,92.7124175656641));
#2020=CARTESIAN_POINT('',(-47.5,120.,92.7124175656641));
#2021=CARTESIAN_POINT('',(-47.5,120.,26.9875824343359));
#2022=CARTESIAN_POINT('',(-47.5,120.,92.7124175656641));
#2023=CARTESIAN_POINT('Origin',(-54.8875824343359,120.,92.7124175656641));
#2024=CARTESIAN_POINT('',(-54.8875824343359,120.,100.1));
#2025=CARTESIAN_POINT('Origin',(-54.8875824343359,120.,92.7124175656641));
#2026=CARTESIAN_POINT('',(-54.8875824343359,120.,100.1));
#2027=CARTESIAN_POINT('Origin',(-120.612417565664,120.,100.1));
#2028=CARTESIAN_POINT('',(-120.612417565664,120.,100.1));
#2029=CARTESIAN_POINT('',(-54.8875824343359,120.,100.1));
#2030=CARTESIAN_POINT('',(-120.612417565664,120.,100.1));
#2031=CARTESIAN_POINT('Origin',(-120.612417565664,120.,92.7124175656641));
#2032=CARTESIAN_POINT('Origin',(-120.612417565664,120.,92.7124175656641));
#2033=CARTESIAN_POINT('Origin',(-87.75,120.,59.85));
#2034=CARTESIAN_POINT('',(-119.75,116.000000000051,91.85));
#2035=CARTESIAN_POINT('',(-119.75,116.000000000051,27.85));
#2036=CARTESIAN_POINT('',(-55.75,116.000000000051,27.85));
#2037=CARTESIAN_POINT('',(-55.75,116.000000000051,91.85));
#2038=UNCERTAINTY_MEASURE_WITH_UNIT(LENGTH_MEASURE(0.01),#2044,
'DISTANCE_ACCURACY_VALUE',
'Maximum model space distance between geometric entities at asserted c
onnectivities');
#2039=UNCERTAINTY_MEASURE_WITH_UNIT(LENGTH_MEASURE(0.01),#2044,
'DISTANCE_ACCURACY_VALUE',
'Maximum model space distance between geometric entities at asserted c
onnectivities');
#2040=UNCERTAINTY_MEASURE_WITH_UNIT(LENGTH_MEASURE(0.01),#2044,
'DISTANCE_ACCURACY_VALUE',
'Maximum model space distance between geometric entities at asserted c
onnectivities');
#2041=(
GEOMETRIC_REPRESENTATION_CONTEXT(3)
GLOBAL_UNCERTAINTY_ASSIGNED_CONTEXT((#2038))
GLOBAL_UNIT_ASSIGNED_CONTEXT((#2044,#2046,#2047))
REPRESENTATION_CONTEXT('','3D')
);
#2042=(
GEOMETRIC_REPRESENTATION_CONTEXT(3)
GLOBAL_UNCERTAINTY_ASSIGNED_CONTEXT((#2039))
GLOBAL_UNIT_ASSIGNED_CONTEXT((#2044,#2046,#2047))
REPRESENTATION_CONTEXT('','3D')
);
#2043=(
GEOMETRIC_REPRESENTATION_CONTEXT(3)
GLOBAL_UNCERTAINTY_ASSIGNED_CONTEXT((#2040))
GLOBAL_UNIT_ASSIGNED_CONTEXT((#2044,#2046,#2047))
REPRESENTATION_CONTEXT('','3D')
);
#2044=(
LENGTH_UNIT()
NAMED_UNIT(*)
SI_UNIT(.MILLI.,.METRE.)
);
#2045=(
LENGTH_UNIT()
NAMED_UNIT(*)
SI_UNIT($,.METRE.)
);
#2046=(
NAMED_UNIT(*)
PLANE_ANGLE_UNIT()
SI_UNIT($,.RADIAN.)
);
#2047=(
NAMED_UNIT(*)
SI_UNIT($,.STERADIAN.)
SOLID_ANGLE_UNIT()
);
#2048=SHAPE_DEFINITION_REPRESENTATION(#2050,#2056);
#2049=SHAPE_DEFINITION_REPRESENTATION(#2051,#2057);
#2050=PRODUCT_DEFINITION_SHAPE('',$,#2059);
#2051=PRODUCT_DEFINITION_SHAPE('',$,#2060);
#2052=PRODUCT_DEFINITION_SHAPE($,$,#23);
#2053=PRODUCT_DEFINITION_SHAPE($,$,#24);
#2054=PRODUCT_DEFINITION_SHAPE($,$,#25);
#2055=PRODUCT_DEFINITION_SHAPE($,$,#26);
#2056=SHAPE_REPRESENTATION('',(#1190,#1329,#1330,#1331,#1332),#2041);
#2057=SHAPE_REPRESENTATION('',(#1191),#2042);
#2058=PRODUCT_DEFINITION_CONTEXT('part definition',#2066,'design');
#2059=PRODUCT_DEFINITION('Saturn 8K Cover','Saturn 8K Cover v3',#2061,#2058);
#2060=PRODUCT_DEFINITION(
'BSHCS ASME B18.3.1M - M3x0.5 x 6 Steel Grade 2 Plain',
'Broached Hexagon Socket Head Cap Screw ASME B18.3.1M - M3x0.5 x 6 Ste
el Grade 2 Plain v1',#2062,#2058);
#2061=PRODUCT_DEFINITION_FORMATION('',$,#2068);
#2062=PRODUCT_DEFINITION_FORMATION('',$,#2069);
#2063=PRODUCT_RELATED_PRODUCT_CATEGORY('Saturn 8K Cover v3',
'Saturn 8K Cover v3',(#2068));
#2064=PRODUCT_RELATED_PRODUCT_CATEGORY(
'Broached Hexagon Socket Head Cap Screw ASME B18.3.1M - M3x0.5 x 6 Ste
el Grade 2 Plain v1',
'Broached Hexagon Socket Head Cap Screw ASME B18.3.1M - M3x0.5 x 6 Ste
el Grade 2 Plain v1',(#2069));
#2065=APPLICATION_PROTOCOL_DEFINITION('international standard',
'automotive_design',2009,#2066);
#2066=APPLICATION_CONTEXT(
'Core Data for Automotive Mechanical Design Process');
#2067=PRODUCT_CONTEXT('part definition',#2066,'mechanical');
#2068=PRODUCT('Saturn 8K Cover','Saturn 8K Cover v3',$,(#2067));
#2069=PRODUCT('BSHCS ASME B18.3.1M - M3x0.5 x 6 Steel Grade 2 Plain',
'Broached Hexagon Socket Head Cap Screw ASME B18.3.1M - M3x0.5 x 6 Ste
el Grade 2 Plain v1',
'Broached Hexagon Socket Head Cap Screw ASME B18.3.1M - M3x0.5 x 6',(#2067));
#2070=PRESENTATION_STYLE_ASSIGNMENT((#2071));
#2071=SURFACE_STYLE_USAGE(.BOTH.,#2072);
#2072=SURFACE_SIDE_STYLE('',(#2073));
#2073=SURFACE_STYLE_FILL_AREA(#2074);
#2074=FILL_AREA_STYLE('Acrylic (Red)',(#2075));
#2075=FILL_AREA_STYLE_COLOUR('Acrylic (Red)',#2076);
#2076=COLOUR_RGB('Acrylic (Red)',1.,0.47843137254902,0.431372549019608);
ENDSEC;
END-ISO-10303-21;
