ISO-10303-21;
HEADER;
/* Generated by software containing ST-Developer
 * from STEP Tools, Inc. (www.steptools.com) 
 */

FILE_DESCRIPTION(
/* description */ (''),
/* implementation_level */ '2;1');

FILE_NAME(
/* name */ 'W1209_step.stp',
/* time_stamp */ '2025-08-23T16:36:23+02:00',
/* author */ (''),
/* organization */ (''),
/* preprocessor_version */ 'ST-DEVELOPER v20.1',
/* originating_system */ 'Autodesk Translation Framework v14.10.0.0',
/* authorisation */ '');

FILE_SCHEMA (('AUTOMOTIVE_DESIGN { 1 0 10303 214 3 1 1 }'));
ENDSEC;

DATA;
#10=MECHANICAL_DESIGN_GEOMETRIC_PRESENTATION_REPRESENTATION('',(#16,#17,
#18,#19,#20,#21,#22,#23,#24,#25,#26,#27,#28,#29,#30,#31),#1785);
#11=SHAPE_REPRESENTATION_RELATIONSHIP('SRR','None',#1792,#12);
#12=ADVANCED_BREP_SHAPE_REPRESENTATION('',(#32,#33,#34,#35,#36,#37,#38,
#39),#1784);
#13=CONICAL_SURFACE('',#1127,1.625,0.0656948015524647);
#14=CONICAL_SURFACE('',#1137,1.625,0.0656948015524647);
#15=CONICAL_SURFACE('',#1147,1.625,0.0656948015524647);
#16=STYLED_ITEM('',(#1802),#32);
#17=STYLED_ITEM('',(#1804),#1028);
#18=STYLED_ITEM('',(#1803),#33);
#19=STYLED_ITEM('',(#1801),#1036);
#20=STYLED_ITEM('',(#1804),#34);
#21=STYLED_ITEM('',(#1801),#1044);
#22=STYLED_ITEM('',(#1804),#35);
#23=STYLED_ITEM('',(#1801),#1052);
#24=STYLED_ITEM('',(#1804),#36);
#25=STYLED_ITEM('',(#1804),#37);
#26=STYLED_ITEM('',(#1803),#38);
#27=STYLED_ITEM('',(#1801),#1067);
#28=STYLED_ITEM('',(#1801),#1069);
#29=STYLED_ITEM('',(#1801),#1071);
#30=STYLED_ITEM('',(#1801),#1073);
#31=STYLED_ITEM('',(#1805),#39);
#32=MANIFOLD_SOLID_BREP('PCB',#1082);
#33=MANIFOLD_SOLID_BREP('Display',#1083);
#34=MANIFOLD_SOLID_BREP('Button +',#1084);
#35=MANIFOLD_SOLID_BREP('Button -',#1085);
#36=MANIFOLD_SOLID_BREP('Button set',#1086);
#37=MANIFOLD_SOLID_BREP('Relay? \X4\0001F914\X0\ (1)',#1087);
#38=MANIFOLD_SOLID_BREP('JST (1)',#1088);
#39=MANIFOLD_SOLID_BREP('Connectors (1)',#1089);
#40=CYLINDRICAL_SURFACE('',#1108,1.7);
#41=CYLINDRICAL_SURFACE('',#1110,1.7);
#42=CYLINDRICAL_SURFACE('',#1112,1.7);
#43=CYLINDRICAL_SURFACE('',#1114,1.7);
#44=CYLINDRICAL_SURFACE('',#1169,1.65);
#45=CYLINDRICAL_SURFACE('',#1173,1.65);
#46=CYLINDRICAL_SURFACE('',#1177,1.65);
#47=CYLINDRICAL_SURFACE('',#1181,1.65);
#48=FACE_BOUND('',#154,.T.);
#49=FACE_BOUND('',#155,.T.);
#50=FACE_BOUND('',#156,.T.);
#51=FACE_BOUND('',#157,.T.);
#52=FACE_BOUND('',#167,.T.);
#53=FACE_BOUND('',#168,.T.);
#54=FACE_BOUND('',#169,.T.);
#55=FACE_BOUND('',#170,.T.);
#56=FACE_BOUND('',#184,.T.);
#57=FACE_BOUND('',#193,.T.);
#58=FACE_BOUND('',#202,.T.);
#59=FACE_BOUND('',#231,.T.);
#60=FACE_BOUND('',#232,.T.);
#61=FACE_BOUND('',#233,.T.);
#62=FACE_BOUND('',#234,.T.);
#63=CIRCLE('',#1104,1.7);
#64=CIRCLE('',#1105,1.7);
#65=CIRCLE('',#1106,1.7);
#66=CIRCLE('',#1107,1.7);
#67=CIRCLE('',#1109,1.7);
#68=CIRCLE('',#1111,1.7);
#69=CIRCLE('',#1113,1.7);
#70=CIRCLE('',#1115,1.7);
#71=CIRCLE('',#1128,1.5);
#72=CIRCLE('',#1129,1.75);
#73=CIRCLE('',#1138,1.5);
#74=CIRCLE('',#1139,1.75);
#75=CIRCLE('',#1148,1.5);
#76=CIRCLE('',#1149,1.75);
#77=CIRCLE('',#1170,1.65);
#78=CIRCLE('',#1171,1.65);
#79=CIRCLE('',#1174,1.65);
#80=CIRCLE('',#1175,1.65);
#81=CIRCLE('',#1178,1.65);
#82=CIRCLE('',#1179,1.65);
#83=CIRCLE('',#1182,1.65);
#84=CIRCLE('',#1183,1.65);
#85=FACE_OUTER_BOUND('',#153,.T.);
#86=FACE_OUTER_BOUND('',#158,.T.);
#87=FACE_OUTER_BOUND('',#159,.T.);
#88=FACE_OUTER_BOUND('',#160,.T.);
#89=FACE_OUTER_BOUND('',#161,.T.);
#90=FACE_OUTER_BOUND('',#162,.T.);
#91=FACE_OUTER_BOUND('',#163,.T.);
#92=FACE_OUTER_BOUND('',#164,.T.);
#93=FACE_OUTER_BOUND('',#165,.T.);
#94=FACE_OUTER_BOUND('',#166,.T.);
#95=FACE_OUTER_BOUND('',#171,.T.);
#96=FACE_OUTER_BOUND('',#172,.T.);
#97=FACE_OUTER_BOUND('',#173,.T.);
#98=FACE_OUTER_BOUND('',#174,.T.);
#99=FACE_OUTER_BOUND('',#175,.T.);
#100=FACE_OUTER_BOUND('',#176,.T.);
#101=FACE_OUTER_BOUND('',#177,.T.);
#102=FACE_OUTER_BOUND('',#178,.T.);
#103=FACE_OUTER_BOUND('',#179,.T.);
#104=FACE_OUTER_BOUND('',#180,.T.);
#105=FACE_OUTER_BOUND('',#181,.T.);
#106=FACE_OUTER_BOUND('',#182,.T.);
#107=FACE_OUTER_BOUND('',#183,.T.);
#108=FACE_OUTER_BOUND('',#185,.T.);
#109=FACE_OUTER_BOUND('',#186,.T.);
#110=FACE_OUTER_BOUND('',#187,.T.);
#111=FACE_OUTER_BOUND('',#188,.T.);
#112=FACE_OUTER_BOUND('',#189,.T.);
#113=FACE_OUTER_BOUND('',#190,.T.);
#114=FACE_OUTER_BOUND('',#191,.T.);
#115=FACE_OUTER_BOUND('',#192,.T.);
#116=FACE_OUTER_BOUND('',#194,.T.);
#117=FACE_OUTER_BOUND('',#195,.T.);
#118=FACE_OUTER_BOUND('',#196,.T.);
#119=FACE_OUTER_BOUND('',#197,.T.);
#120=FACE_OUTER_BOUND('',#198,.T.);
#121=FACE_OUTER_BOUND('',#199,.T.);
#122=FACE_OUTER_BOUND('',#200,.T.);
#123=FACE_OUTER_BOUND('',#201,.T.);
#124=FACE_OUTER_BOUND('',#203,.T.);
#125=FACE_OUTER_BOUND('',#204,.T.);
#126=FACE_OUTER_BOUND('',#205,.T.);
#127=FACE_OUTER_BOUND('',#206,.T.);
#128=FACE_OUTER_BOUND('',#207,.T.);
#129=FACE_OUTER_BOUND('',#208,.T.);
#130=FACE_OUTER_BOUND('',#209,.T.);
#131=FACE_OUTER_BOUND('',#210,.T.);
#132=FACE_OUTER_BOUND('',#211,.T.);
#133=FACE_OUTER_BOUND('',#212,.T.);
#134=FACE_OUTER_BOUND('',#213,.T.);
#135=FACE_OUTER_BOUND('',#214,.T.);
#136=FACE_OUTER_BOUND('',#215,.T.);
#137=FACE_OUTER_BOUND('',#216,.T.);
#138=FACE_OUTER_BOUND('',#217,.T.);
#139=FACE_OUTER_BOUND('',#218,.T.);
#140=FACE_OUTER_BOUND('',#219,.T.);
#141=FACE_OUTER_BOUND('',#220,.T.);
#142=FACE_OUTER_BOUND('',#221,.T.);
#143=FACE_OUTER_BOUND('',#222,.T.);
#144=FACE_OUTER_BOUND('',#223,.T.);
#145=FACE_OUTER_BOUND('',#224,.T.);
#146=FACE_OUTER_BOUND('',#225,.T.);
#147=FACE_OUTER_BOUND('',#226,.T.);
#148=FACE_OUTER_BOUND('',#227,.T.);
#149=FACE_OUTER_BOUND('',#228,.T.);
#150=FACE_OUTER_BOUND('',#229,.T.);
#151=FACE_OUTER_BOUND('',#230,.T.);
#152=FACE_OUTER_BOUND('',#235,.T.);
#153=EDGE_LOOP('',(#687,#688,#689,#690));
#154=EDGE_LOOP('',(#691));
#155=EDGE_LOOP('',(#692));
#156=EDGE_LOOP('',(#693));
#157=EDGE_LOOP('',(#694));
#158=EDGE_LOOP('',(#695,#696,#697,#698));
#159=EDGE_LOOP('',(#699,#700,#701,#702));
#160=EDGE_LOOP('',(#703,#704,#705,#706));
#161=EDGE_LOOP('',(#707,#708,#709,#710));
#162=EDGE_LOOP('',(#711,#712,#713,#714));
#163=EDGE_LOOP('',(#715,#716,#717,#718));
#164=EDGE_LOOP('',(#719,#720,#721,#722));
#165=EDGE_LOOP('',(#723,#724,#725,#726));
#166=EDGE_LOOP('',(#727,#728,#729,#730));
#167=EDGE_LOOP('',(#731));
#168=EDGE_LOOP('',(#732));
#169=EDGE_LOOP('',(#733));
#170=EDGE_LOOP('',(#734));
#171=EDGE_LOOP('',(#735,#736,#737,#738));
#172=EDGE_LOOP('',(#739,#740,#741,#742));
#173=EDGE_LOOP('',(#743,#744,#745,#746));
#174=EDGE_LOOP('',(#747,#748,#749,#750));
#175=EDGE_LOOP('',(#751,#752,#753,#754));
#176=EDGE_LOOP('',(#755,#756,#757,#758));
#177=EDGE_LOOP('',(#759,#760,#761,#762));
#178=EDGE_LOOP('',(#763));
#179=EDGE_LOOP('',(#764,#765,#766,#767));
#180=EDGE_LOOP('',(#768,#769,#770,#771));
#181=EDGE_LOOP('',(#772,#773,#774,#775));
#182=EDGE_LOOP('',(#776,#777,#778,#779));
#183=EDGE_LOOP('',(#780,#781,#782,#783));
#184=EDGE_LOOP('',(#784));
#185=EDGE_LOOP('',(#785,#786,#787,#788));
#186=EDGE_LOOP('',(#789,#790,#791,#792));
#187=EDGE_LOOP('',(#793));
#188=EDGE_LOOP('',(#794,#795,#796,#797));
#189=EDGE_LOOP('',(#798,#799,#800,#801));
#190=EDGE_LOOP('',(#802,#803,#804,#805));
#191=EDGE_LOOP('',(#806,#807,#808,#809));
#192=EDGE_LOOP('',(#810,#811,#812,#813));
#193=EDGE_LOOP('',(#814));
#194=EDGE_LOOP('',(#815,#816,#817,#818));
#195=EDGE_LOOP('',(#819,#820,#821,#822));
#196=EDGE_LOOP('',(#823));
#197=EDGE_LOOP('',(#824,#825,#826,#827));
#198=EDGE_LOOP('',(#828,#829,#830,#831));
#199=EDGE_LOOP('',(#832,#833,#834,#835));
#200=EDGE_LOOP('',(#836,#837,#838,#839));
#201=EDGE_LOOP('',(#840,#841,#842,#843));
#202=EDGE_LOOP('',(#844));
#203=EDGE_LOOP('',(#845,#846,#847,#848));
#204=EDGE_LOOP('',(#849,#850,#851,#852));
#205=EDGE_LOOP('',(#853,#854,#855,#856));
#206=EDGE_LOOP('',(#857,#858,#859,#860));
#207=EDGE_LOOP('',(#861,#862,#863,#864));
#208=EDGE_LOOP('',(#865,#866,#867,#868));
#209=EDGE_LOOP('',(#869,#870,#871,#872));
#210=EDGE_LOOP('',(#873,#874,#875,#876));
#211=EDGE_LOOP('',(#877,#878,#879,#880));
#212=EDGE_LOOP('',(#881,#882,#883,#884));
#213=EDGE_LOOP('',(#885,#886,#887,#888));
#214=EDGE_LOOP('',(#889,#890,#891,#892));
#215=EDGE_LOOP('',(#893,#894,#895,#896));
#216=EDGE_LOOP('',(#897,#898,#899,#900));
#217=EDGE_LOOP('',(#901));
#218=EDGE_LOOP('',(#902,#903,#904,#905));
#219=EDGE_LOOP('',(#906));
#220=EDGE_LOOP('',(#907,#908,#909,#910));
#221=EDGE_LOOP('',(#911));
#222=EDGE_LOOP('',(#912,#913,#914,#915));
#223=EDGE_LOOP('',(#916));
#224=EDGE_LOOP('',(#917,#918,#919,#920,#921,#922));
#225=EDGE_LOOP('',(#923,#924,#925,#926));
#226=EDGE_LOOP('',(#927,#928,#929,#930));
#227=EDGE_LOOP('',(#931,#932,#933,#934));
#228=EDGE_LOOP('',(#935,#936,#937,#938));
#229=EDGE_LOOP('',(#939,#940,#941,#942));
#230=EDGE_LOOP('',(#943,#944,#945,#946));
#231=EDGE_LOOP('',(#947));
#232=EDGE_LOOP('',(#948));
#233=EDGE_LOOP('',(#949));
#234=EDGE_LOOP('',(#950));
#235=EDGE_LOOP('',(#951,#952,#953,#954,#955,#956));
#236=LINE('',#1492,#349);
#237=LINE('',#1494,#350);
#238=LINE('',#1496,#351);
#239=LINE('',#1497,#352);
#240=LINE('',#1509,#353);
#241=LINE('',#1513,#354);
#242=LINE('',#1517,#355);
#243=LINE('',#1521,#356);
#244=LINE('',#1524,#357);
#245=LINE('',#1526,#358);
#246=LINE('',#1527,#359);
#247=LINE('',#1530,#360);
#248=LINE('',#1531,#361);
#249=LINE('',#1534,#362);
#250=LINE('',#1535,#363);
#251=LINE('',#1537,#364);
#252=LINE('',#1542,#365);
#253=LINE('',#1544,#366);
#254=LINE('',#1546,#367);
#255=LINE('',#1547,#368);
#256=LINE('',#1550,#369);
#257=LINE('',#1552,#370);
#258=LINE('',#1553,#371);
#259=LINE('',#1556,#372);
#260=LINE('',#1558,#373);
#261=LINE('',#1559,#374);
#262=LINE('',#1561,#375);
#263=LINE('',#1562,#376);
#264=LINE('',#1569,#377);
#265=LINE('',#1575,#378);
#266=LINE('',#1577,#379);
#267=LINE('',#1579,#380);
#268=LINE('',#1580,#381);
#269=LINE('',#1583,#382);
#270=LINE('',#1585,#383);
#271=LINE('',#1586,#384);
#272=LINE('',#1589,#385);
#273=LINE('',#1591,#386);
#274=LINE('',#1592,#387);
#275=LINE('',#1594,#388);
#276=LINE('',#1595,#389);
#277=LINE('',#1602,#390);
#278=LINE('',#1608,#391);
#279=LINE('',#1610,#392);
#280=LINE('',#1612,#393);
#281=LINE('',#1613,#394);
#282=LINE('',#1616,#395);
#283=LINE('',#1618,#396);
#284=LINE('',#1619,#397);
#285=LINE('',#1622,#398);
#286=LINE('',#1624,#399);
#287=LINE('',#1625,#400);
#288=LINE('',#1627,#401);
#289=LINE('',#1628,#402);
#290=LINE('',#1635,#403);
#291=LINE('',#1641,#404);
#292=LINE('',#1643,#405);
#293=LINE('',#1645,#406);
#294=LINE('',#1646,#407);
#295=LINE('',#1649,#408);
#296=LINE('',#1651,#409);
#297=LINE('',#1652,#410);
#298=LINE('',#1655,#411);
#299=LINE('',#1657,#412);
#300=LINE('',#1658,#413);
#301=LINE('',#1660,#414);
#302=LINE('',#1661,#415);
#303=LINE('',#1667,#416);
#304=LINE('',#1669,#417);
#305=LINE('',#1671,#418);
#306=LINE('',#1672,#419);
#307=LINE('',#1675,#420);
#308=LINE('',#1677,#421);
#309=LINE('',#1678,#422);
#310=LINE('',#1681,#423);
#311=LINE('',#1683,#424);
#312=LINE('',#1684,#425);
#313=LINE('',#1686,#426);
#314=LINE('',#1687,#427);
#315=LINE('',#1693,#428);
#316=LINE('',#1695,#429);
#317=LINE('',#1697,#430);
#318=LINE('',#1698,#431);
#319=LINE('',#1701,#432);
#320=LINE('',#1703,#433);
#321=LINE('',#1704,#434);
#322=LINE('',#1707,#435);
#323=LINE('',#1709,#436);
#324=LINE('',#1710,#437);
#325=LINE('',#1712,#438);
#326=LINE('',#1713,#439);
#327=LINE('',#1720,#440);
#328=LINE('',#1727,#441);
#329=LINE('',#1734,#442);
#330=LINE('',#1741,#443);
#331=LINE('',#1747,#444);
#332=LINE('',#1749,#445);
#333=LINE('',#1751,#446);
#334=LINE('',#1753,#447);
#335=LINE('',#1755,#448);
#336=LINE('',#1756,#449);
#337=LINE('',#1759,#450);
#338=LINE('',#1761,#451);
#339=LINE('',#1762,#452);
#340=LINE('',#1765,#453);
#341=LINE('',#1766,#454);
#342=LINE('',#1769,#455);
#343=LINE('',#1770,#456);
#344=LINE('',#1773,#457);
#345=LINE('',#1774,#458);
#346=LINE('',#1777,#459);
#347=LINE('',#1778,#460);
#348=LINE('',#1780,#461);
#349=VECTOR('',#1197,10.);
#350=VECTOR('',#1198,10.);
#351=VECTOR('',#1199,10.);
#352=VECTOR('',#1200,10.);
#353=VECTOR('',#1213,1.7);
#354=VECTOR('',#1218,1.7);
#355=VECTOR('',#1223,1.7);
#356=VECTOR('',#1228,1.7);
#357=VECTOR('',#1231,10.);
#358=VECTOR('',#1232,10.);
#359=VECTOR('',#1233,10.);
#360=VECTOR('',#1236,10.);
#361=VECTOR('',#1237,10.);
#362=VECTOR('',#1240,10.);
#363=VECTOR('',#1241,10.);
#364=VECTOR('',#1244,10.);
#365=VECTOR('',#1249,10.);
#366=VECTOR('',#1250,10.);
#367=VECTOR('',#1251,10.);
#368=VECTOR('',#1252,10.);
#369=VECTOR('',#1255,10.);
#370=VECTOR('',#1256,10.);
#371=VECTOR('',#1257,10.);
#372=VECTOR('',#1260,10.);
#373=VECTOR('',#1261,10.);
#374=VECTOR('',#1262,10.);
#375=VECTOR('',#1265,10.);
#376=VECTOR('',#1266,10.);
#377=VECTOR('',#1275,1.625);
#378=VECTOR('',#1282,10.);
#379=VECTOR('',#1283,10.);
#380=VECTOR('',#1284,10.);
#381=VECTOR('',#1285,10.);
#382=VECTOR('',#1288,10.);
#383=VECTOR('',#1289,10.);
#384=VECTOR('',#1290,10.);
#385=VECTOR('',#1293,10.);
#386=VECTOR('',#1294,10.);
#387=VECTOR('',#1295,10.);
#388=VECTOR('',#1298,10.);
#389=VECTOR('',#1299,10.);
#390=VECTOR('',#1308,1.625);
#391=VECTOR('',#1315,10.);
#392=VECTOR('',#1316,10.);
#393=VECTOR('',#1317,10.);
#394=VECTOR('',#1318,10.);
#395=VECTOR('',#1321,10.);
#396=VECTOR('',#1322,10.);
#397=VECTOR('',#1323,10.);
#398=VECTOR('',#1326,10.);
#399=VECTOR('',#1327,10.);
#400=VECTOR('',#1328,10.);
#401=VECTOR('',#1331,10.);
#402=VECTOR('',#1332,10.);
#403=VECTOR('',#1341,1.625);
#404=VECTOR('',#1348,10.);
#405=VECTOR('',#1349,10.);
#406=VECTOR('',#1350,10.);
#407=VECTOR('',#1351,10.);
#408=VECTOR('',#1354,10.);
#409=VECTOR('',#1355,10.);
#410=VECTOR('',#1356,10.);
#411=VECTOR('',#1359,10.);
#412=VECTOR('',#1360,10.);
#413=VECTOR('',#1361,10.);
#414=VECTOR('',#1364,10.);
#415=VECTOR('',#1365,10.);
#416=VECTOR('',#1372,10.);
#417=VECTOR('',#1373,10.);
#418=VECTOR('',#1374,10.);
#419=VECTOR('',#1375,10.);
#420=VECTOR('',#1378,10.);
#421=VECTOR('',#1379,10.);
#422=VECTOR('',#1380,10.);
#423=VECTOR('',#1383,10.);
#424=VECTOR('',#1384,10.);
#425=VECTOR('',#1385,10.);
#426=VECTOR('',#1388,10.);
#427=VECTOR('',#1389,10.);
#428=VECTOR('',#1396,10.);
#429=VECTOR('',#1397,10.);
#430=VECTOR('',#1398,10.);
#431=VECTOR('',#1399,10.);
#432=VECTOR('',#1402,10.);
#433=VECTOR('',#1403,10.);
#434=VECTOR('',#1404,10.);
#435=VECTOR('',#1407,10.);
#436=VECTOR('',#1408,10.);
#437=VECTOR('',#1409,10.);
#438=VECTOR('',#1412,10.);
#439=VECTOR('',#1413,10.);
#440=VECTOR('',#1422,1.65);
#441=VECTOR('',#1431,1.65);
#442=VECTOR('',#1440,1.65);
#443=VECTOR('',#1449,1.65);
#444=VECTOR('',#1456,10.);
#445=VECTOR('',#1457,10.);
#446=VECTOR('',#1458,10.);
#447=VECTOR('',#1459,10.);
#448=VECTOR('',#1460,10.);
#449=VECTOR('',#1461,10.);
#450=VECTOR('',#1464,10.);
#451=VECTOR('',#1465,10.);
#452=VECTOR('',#1466,10.);
#453=VECTOR('',#1469,10.);
#454=VECTOR('',#1470,10.);
#455=VECTOR('',#1473,10.);
#456=VECTOR('',#1474,10.);
#457=VECTOR('',#1477,10.);
#458=VECTOR('',#1478,10.);
#459=VECTOR('',#1481,10.);
#460=VECTOR('',#1482,10.);
#461=VECTOR('',#1485,10.);
#462=VERTEX_POINT('',#1490);
#463=VERTEX_POINT('',#1491);
#464=VERTEX_POINT('',#1493);
#465=VERTEX_POINT('',#1495);
#466=VERTEX_POINT('',#1498);
#467=VERTEX_POINT('',#1500);
#468=VERTEX_POINT('',#1502);
#469=VERTEX_POINT('',#1504);
#470=VERTEX_POINT('',#1507);
#471=VERTEX_POINT('',#1511);
#472=VERTEX_POINT('',#1515);
#473=VERTEX_POINT('',#1519);
#474=VERTEX_POINT('',#1523);
#475=VERTEX_POINT('',#1525);
#476=VERTEX_POINT('',#1529);
#477=VERTEX_POINT('',#1533);
#478=VERTEX_POINT('',#1540);
#479=VERTEX_POINT('',#1541);
#480=VERTEX_POINT('',#1543);
#481=VERTEX_POINT('',#1545);
#482=VERTEX_POINT('',#1549);
#483=VERTEX_POINT('',#1551);
#484=VERTEX_POINT('',#1555);
#485=VERTEX_POINT('',#1557);
#486=VERTEX_POINT('',#1566);
#487=VERTEX_POINT('',#1568);
#488=VERTEX_POINT('',#1573);
#489=VERTEX_POINT('',#1574);
#490=VERTEX_POINT('',#1576);
#491=VERTEX_POINT('',#1578);
#492=VERTEX_POINT('',#1582);
#493=VERTEX_POINT('',#1584);
#494=VERTEX_POINT('',#1588);
#495=VERTEX_POINT('',#1590);
#496=VERTEX_POINT('',#1599);
#497=VERTEX_POINT('',#1601);
#498=VERTEX_POINT('',#1606);
#499=VERTEX_POINT('',#1607);
#500=VERTEX_POINT('',#1609);
#501=VERTEX_POINT('',#1611);
#502=VERTEX_POINT('',#1615);
#503=VERTEX_POINT('',#1617);
#504=VERTEX_POINT('',#1621);
#505=VERTEX_POINT('',#1623);
#506=VERTEX_POINT('',#1632);
#507=VERTEX_POINT('',#1634);
#508=VERTEX_POINT('',#1639);
#509=VERTEX_POINT('',#1640);
#510=VERTEX_POINT('',#1642);
#511=VERTEX_POINT('',#1644);
#512=VERTEX_POINT('',#1648);
#513=VERTEX_POINT('',#1650);
#514=VERTEX_POINT('',#1654);
#515=VERTEX_POINT('',#1656);
#516=VERTEX_POINT('',#1665);
#517=VERTEX_POINT('',#1666);
#518=VERTEX_POINT('',#1668);
#519=VERTEX_POINT('',#1670);
#520=VERTEX_POINT('',#1674);
#521=VERTEX_POINT('',#1676);
#522=VERTEX_POINT('',#1680);
#523=VERTEX_POINT('',#1682);
#524=VERTEX_POINT('',#1691);
#525=VERTEX_POINT('',#1692);
#526=VERTEX_POINT('',#1694);
#527=VERTEX_POINT('',#1696);
#528=VERTEX_POINT('',#1700);
#529=VERTEX_POINT('',#1702);
#530=VERTEX_POINT('',#1706);
#531=VERTEX_POINT('',#1708);
#532=VERTEX_POINT('',#1717);
#533=VERTEX_POINT('',#1719);
#534=VERTEX_POINT('',#1724);
#535=VERTEX_POINT('',#1726);
#536=VERTEX_POINT('',#1731);
#537=VERTEX_POINT('',#1733);
#538=VERTEX_POINT('',#1738);
#539=VERTEX_POINT('',#1740);
#540=VERTEX_POINT('',#1745);
#541=VERTEX_POINT('',#1746);
#542=VERTEX_POINT('',#1748);
#543=VERTEX_POINT('',#1750);
#544=VERTEX_POINT('',#1752);
#545=VERTEX_POINT('',#1754);
#546=VERTEX_POINT('',#1758);
#547=VERTEX_POINT('',#1760);
#548=VERTEX_POINT('',#1764);
#549=VERTEX_POINT('',#1768);
#550=VERTEX_POINT('',#1772);
#551=VERTEX_POINT('',#1776);
#552=EDGE_CURVE('',#462,#463,#236,.T.);
#553=EDGE_CURVE('',#463,#464,#237,.T.);
#554=EDGE_CURVE('',#464,#465,#238,.T.);
#555=EDGE_CURVE('',#465,#462,#239,.T.);
#556=EDGE_CURVE('',#466,#466,#63,.T.);
#557=EDGE_CURVE('',#467,#467,#64,.T.);
#558=EDGE_CURVE('',#468,#468,#65,.T.);
#559=EDGE_CURVE('',#469,#469,#66,.T.);
#560=EDGE_CURVE('',#470,#470,#67,.T.);
#561=EDGE_CURVE('',#470,#469,#240,.T.);
#562=EDGE_CURVE('',#471,#471,#68,.T.);
#563=EDGE_CURVE('',#471,#468,#241,.T.);
#564=EDGE_CURVE('',#472,#472,#69,.T.);
#565=EDGE_CURVE('',#472,#467,#242,.T.);
#566=EDGE_CURVE('',#473,#473,#70,.T.);
#567=EDGE_CURVE('',#473,#466,#243,.T.);
#568=EDGE_CURVE('',#474,#463,#244,.T.);
#569=EDGE_CURVE('',#475,#474,#245,.T.);
#570=EDGE_CURVE('',#464,#475,#246,.T.);
#571=EDGE_CURVE('',#476,#475,#247,.T.);
#572=EDGE_CURVE('',#465,#476,#248,.T.);
#573=EDGE_CURVE('',#477,#476,#249,.T.);
#574=EDGE_CURVE('',#462,#477,#250,.T.);
#575=EDGE_CURVE('',#474,#477,#251,.T.);
#576=EDGE_CURVE('',#478,#479,#252,.T.);
#577=EDGE_CURVE('',#478,#480,#253,.T.);
#578=EDGE_CURVE('',#481,#480,#254,.T.);
#579=EDGE_CURVE('',#479,#481,#255,.T.);
#580=EDGE_CURVE('',#479,#482,#256,.T.);
#581=EDGE_CURVE('',#483,#481,#257,.T.);
#582=EDGE_CURVE('',#482,#483,#258,.T.);
#583=EDGE_CURVE('',#482,#484,#259,.T.);
#584=EDGE_CURVE('',#485,#483,#260,.T.);
#585=EDGE_CURVE('',#484,#485,#261,.T.);
#586=EDGE_CURVE('',#484,#478,#262,.T.);
#587=EDGE_CURVE('',#480,#485,#263,.T.);
#588=EDGE_CURVE('',#486,#486,#71,.T.);
#589=EDGE_CURVE('',#486,#487,#264,.T.);
#590=EDGE_CURVE('',#487,#487,#72,.T.);
#591=EDGE_CURVE('',#488,#489,#265,.T.);
#592=EDGE_CURVE('',#488,#490,#266,.T.);
#593=EDGE_CURVE('',#491,#490,#267,.T.);
#594=EDGE_CURVE('',#489,#491,#268,.T.);
#595=EDGE_CURVE('',#489,#492,#269,.T.);
#596=EDGE_CURVE('',#493,#491,#270,.T.);
#597=EDGE_CURVE('',#492,#493,#271,.T.);
#598=EDGE_CURVE('',#492,#494,#272,.T.);
#599=EDGE_CURVE('',#495,#493,#273,.T.);
#600=EDGE_CURVE('',#494,#495,#274,.T.);
#601=EDGE_CURVE('',#494,#488,#275,.T.);
#602=EDGE_CURVE('',#490,#495,#276,.T.);
#603=EDGE_CURVE('',#496,#496,#73,.T.);
#604=EDGE_CURVE('',#496,#497,#277,.T.);
#605=EDGE_CURVE('',#497,#497,#74,.T.);
#606=EDGE_CURVE('',#498,#499,#278,.T.);
#607=EDGE_CURVE('',#498,#500,#279,.T.);
#608=EDGE_CURVE('',#501,#500,#280,.T.);
#609=EDGE_CURVE('',#499,#501,#281,.T.);
#610=EDGE_CURVE('',#499,#502,#282,.T.);
#611=EDGE_CURVE('',#503,#501,#283,.T.);
#612=EDGE_CURVE('',#502,#503,#284,.T.);
#613=EDGE_CURVE('',#502,#504,#285,.T.);
#614=EDGE_CURVE('',#505,#503,#286,.T.);
#615=EDGE_CURVE('',#504,#505,#287,.T.);
#616=EDGE_CURVE('',#504,#498,#288,.T.);
#617=EDGE_CURVE('',#500,#505,#289,.T.);
#618=EDGE_CURVE('',#506,#506,#75,.T.);
#619=EDGE_CURVE('',#506,#507,#290,.T.);
#620=EDGE_CURVE('',#507,#507,#76,.T.);
#621=EDGE_CURVE('',#508,#509,#291,.T.);
#622=EDGE_CURVE('',#508,#510,#292,.T.);
#623=EDGE_CURVE('',#511,#510,#293,.T.);
#624=EDGE_CURVE('',#509,#511,#294,.T.);
#625=EDGE_CURVE('',#509,#512,#295,.T.);
#626=EDGE_CURVE('',#513,#511,#296,.T.);
#627=EDGE_CURVE('',#512,#513,#297,.T.);
#628=EDGE_CURVE('',#512,#514,#298,.T.);
#629=EDGE_CURVE('',#515,#513,#299,.T.);
#630=EDGE_CURVE('',#514,#515,#300,.T.);
#631=EDGE_CURVE('',#514,#508,#301,.T.);
#632=EDGE_CURVE('',#510,#515,#302,.T.);
#633=EDGE_CURVE('',#516,#517,#303,.T.);
#634=EDGE_CURVE('',#517,#518,#304,.T.);
#635=EDGE_CURVE('',#518,#519,#305,.T.);
#636=EDGE_CURVE('',#516,#519,#306,.T.);
#637=EDGE_CURVE('',#517,#520,#307,.T.);
#638=EDGE_CURVE('',#520,#521,#308,.T.);
#639=EDGE_CURVE('',#521,#518,#309,.T.);
#640=EDGE_CURVE('',#520,#522,#310,.T.);
#641=EDGE_CURVE('',#522,#523,#311,.T.);
#642=EDGE_CURVE('',#523,#521,#312,.T.);
#643=EDGE_CURVE('',#522,#516,#313,.T.);
#644=EDGE_CURVE('',#519,#523,#314,.T.);
#645=EDGE_CURVE('',#524,#525,#315,.T.);
#646=EDGE_CURVE('',#525,#526,#316,.T.);
#647=EDGE_CURVE('',#526,#527,#317,.T.);
#648=EDGE_CURVE('',#524,#527,#318,.T.);
#649=EDGE_CURVE('',#525,#528,#319,.T.);
#650=EDGE_CURVE('',#528,#529,#320,.T.);
#651=EDGE_CURVE('',#529,#526,#321,.T.);
#652=EDGE_CURVE('',#528,#530,#322,.T.);
#653=EDGE_CURVE('',#530,#531,#323,.T.);
#654=EDGE_CURVE('',#531,#529,#324,.T.);
#655=EDGE_CURVE('',#530,#524,#325,.T.);
#656=EDGE_CURVE('',#527,#531,#326,.T.);
#657=EDGE_CURVE('',#532,#532,#77,.T.);
#658=EDGE_CURVE('',#532,#533,#327,.T.);
#659=EDGE_CURVE('',#533,#533,#78,.T.);
#660=EDGE_CURVE('',#534,#534,#79,.T.);
#661=EDGE_CURVE('',#534,#535,#328,.T.);
#662=EDGE_CURVE('',#535,#535,#80,.T.);
#663=EDGE_CURVE('',#536,#536,#81,.T.);
#664=EDGE_CURVE('',#536,#537,#329,.T.);
#665=EDGE_CURVE('',#537,#537,#82,.T.);
#666=EDGE_CURVE('',#538,#538,#83,.T.);
#667=EDGE_CURVE('',#538,#539,#330,.T.);
#668=EDGE_CURVE('',#539,#539,#84,.T.);
#669=EDGE_CURVE('',#540,#541,#331,.T.);
#670=EDGE_CURVE('',#541,#542,#332,.T.);
#671=EDGE_CURVE('',#542,#543,#333,.T.);
#672=EDGE_CURVE('',#543,#544,#334,.T.);
#673=EDGE_CURVE('',#544,#545,#335,.T.);
#674=EDGE_CURVE('',#545,#540,#336,.T.);
#675=EDGE_CURVE('',#544,#546,#337,.T.);
#676=EDGE_CURVE('',#546,#547,#338,.T.);
#677=EDGE_CURVE('',#545,#547,#339,.T.);
#678=EDGE_CURVE('',#547,#548,#340,.T.);
#679=EDGE_CURVE('',#540,#548,#341,.T.);
#680=EDGE_CURVE('',#548,#549,#342,.T.);
#681=EDGE_CURVE('',#541,#549,#343,.T.);
#682=EDGE_CURVE('',#543,#550,#344,.T.);
#683=EDGE_CURVE('',#550,#546,#345,.T.);
#684=EDGE_CURVE('',#542,#551,#346,.T.);
#685=EDGE_CURVE('',#551,#550,#347,.T.);
#686=EDGE_CURVE('',#549,#551,#348,.T.);
#687=ORIENTED_EDGE('',*,*,#552,.T.);
#688=ORIENTED_EDGE('',*,*,#553,.T.);
#689=ORIENTED_EDGE('',*,*,#554,.T.);
#690=ORIENTED_EDGE('',*,*,#555,.T.);
#691=ORIENTED_EDGE('',*,*,#556,.T.);
#692=ORIENTED_EDGE('',*,*,#557,.T.);
#693=ORIENTED_EDGE('',*,*,#558,.T.);
#694=ORIENTED_EDGE('',*,*,#559,.T.);
#695=ORIENTED_EDGE('',*,*,#560,.F.);
#696=ORIENTED_EDGE('',*,*,#561,.T.);
#697=ORIENTED_EDGE('',*,*,#559,.F.);
#698=ORIENTED_EDGE('',*,*,#561,.F.);
#699=ORIENTED_EDGE('',*,*,#562,.F.);
#700=ORIENTED_EDGE('',*,*,#563,.T.);
#701=ORIENTED_EDGE('',*,*,#558,.F.);
#702=ORIENTED_EDGE('',*,*,#563,.F.);
#703=ORIENTED_EDGE('',*,*,#564,.F.);
#704=ORIENTED_EDGE('',*,*,#565,.T.);
#705=ORIENTED_EDGE('',*,*,#557,.F.);
#706=ORIENTED_EDGE('',*,*,#565,.F.);
#707=ORIENTED_EDGE('',*,*,#566,.F.);
#708=ORIENTED_EDGE('',*,*,#567,.T.);
#709=ORIENTED_EDGE('',*,*,#556,.F.);
#710=ORIENTED_EDGE('',*,*,#567,.F.);
#711=ORIENTED_EDGE('',*,*,#568,.F.);
#712=ORIENTED_EDGE('',*,*,#569,.F.);
#713=ORIENTED_EDGE('',*,*,#570,.F.);
#714=ORIENTED_EDGE('',*,*,#553,.F.);
#715=ORIENTED_EDGE('',*,*,#570,.T.);
#716=ORIENTED_EDGE('',*,*,#571,.F.);
#717=ORIENTED_EDGE('',*,*,#572,.F.);
#718=ORIENTED_EDGE('',*,*,#554,.F.);
#719=ORIENTED_EDGE('',*,*,#572,.T.);
#720=ORIENTED_EDGE('',*,*,#573,.F.);
#721=ORIENTED_EDGE('',*,*,#574,.F.);
#722=ORIENTED_EDGE('',*,*,#555,.F.);
#723=ORIENTED_EDGE('',*,*,#574,.T.);
#724=ORIENTED_EDGE('',*,*,#575,.F.);
#725=ORIENTED_EDGE('',*,*,#568,.T.);
#726=ORIENTED_EDGE('',*,*,#552,.F.);
#727=ORIENTED_EDGE('',*,*,#575,.T.);
#728=ORIENTED_EDGE('',*,*,#573,.T.);
#729=ORIENTED_EDGE('',*,*,#571,.T.);
#730=ORIENTED_EDGE('',*,*,#569,.T.);
#731=ORIENTED_EDGE('',*,*,#566,.T.);
#732=ORIENTED_EDGE('',*,*,#564,.T.);
#733=ORIENTED_EDGE('',*,*,#562,.T.);
#734=ORIENTED_EDGE('',*,*,#560,.T.);
#735=ORIENTED_EDGE('',*,*,#576,.F.);
#736=ORIENTED_EDGE('',*,*,#577,.T.);
#737=ORIENTED_EDGE('',*,*,#578,.F.);
#738=ORIENTED_EDGE('',*,*,#579,.F.);
#739=ORIENTED_EDGE('',*,*,#580,.F.);
#740=ORIENTED_EDGE('',*,*,#579,.T.);
#741=ORIENTED_EDGE('',*,*,#581,.F.);
#742=ORIENTED_EDGE('',*,*,#582,.F.);
#743=ORIENTED_EDGE('',*,*,#583,.F.);
#744=ORIENTED_EDGE('',*,*,#582,.T.);
#745=ORIENTED_EDGE('',*,*,#584,.F.);
#746=ORIENTED_EDGE('',*,*,#585,.F.);
#747=ORIENTED_EDGE('',*,*,#586,.F.);
#748=ORIENTED_EDGE('',*,*,#585,.T.);
#749=ORIENTED_EDGE('',*,*,#587,.F.);
#750=ORIENTED_EDGE('',*,*,#577,.F.);
#751=ORIENTED_EDGE('',*,*,#587,.T.);
#752=ORIENTED_EDGE('',*,*,#584,.T.);
#753=ORIENTED_EDGE('',*,*,#581,.T.);
#754=ORIENTED_EDGE('',*,*,#578,.T.);
#755=ORIENTED_EDGE('',*,*,#586,.T.);
#756=ORIENTED_EDGE('',*,*,#576,.T.);
#757=ORIENTED_EDGE('',*,*,#580,.T.);
#758=ORIENTED_EDGE('',*,*,#583,.T.);
#759=ORIENTED_EDGE('',*,*,#588,.F.);
#760=ORIENTED_EDGE('',*,*,#589,.T.);
#761=ORIENTED_EDGE('',*,*,#590,.F.);
#762=ORIENTED_EDGE('',*,*,#589,.F.);
#763=ORIENTED_EDGE('',*,*,#588,.T.);
#764=ORIENTED_EDGE('',*,*,#591,.F.);
#765=ORIENTED_EDGE('',*,*,#592,.T.);
#766=ORIENTED_EDGE('',*,*,#593,.F.);
#767=ORIENTED_EDGE('',*,*,#594,.F.);
#768=ORIENTED_EDGE('',*,*,#595,.F.);
#769=ORIENTED_EDGE('',*,*,#594,.T.);
#770=ORIENTED_EDGE('',*,*,#596,.F.);
#771=ORIENTED_EDGE('',*,*,#597,.F.);
#772=ORIENTED_EDGE('',*,*,#598,.F.);
#773=ORIENTED_EDGE('',*,*,#597,.T.);
#774=ORIENTED_EDGE('',*,*,#599,.F.);
#775=ORIENTED_EDGE('',*,*,#600,.F.);
#776=ORIENTED_EDGE('',*,*,#601,.F.);
#777=ORIENTED_EDGE('',*,*,#600,.T.);
#778=ORIENTED_EDGE('',*,*,#602,.F.);
#779=ORIENTED_EDGE('',*,*,#592,.F.);
#780=ORIENTED_EDGE('',*,*,#602,.T.);
#781=ORIENTED_EDGE('',*,*,#599,.T.);
#782=ORIENTED_EDGE('',*,*,#596,.T.);
#783=ORIENTED_EDGE('',*,*,#593,.T.);
#784=ORIENTED_EDGE('',*,*,#590,.T.);
#785=ORIENTED_EDGE('',*,*,#601,.T.);
#786=ORIENTED_EDGE('',*,*,#591,.T.);
#787=ORIENTED_EDGE('',*,*,#595,.T.);
#788=ORIENTED_EDGE('',*,*,#598,.T.);
#789=ORIENTED_EDGE('',*,*,#603,.F.);
#790=ORIENTED_EDGE('',*,*,#604,.T.);
#791=ORIENTED_EDGE('',*,*,#605,.F.);
#792=ORIENTED_EDGE('',*,*,#604,.F.);
#793=ORIENTED_EDGE('',*,*,#603,.T.);
#794=ORIENTED_EDGE('',*,*,#606,.F.);
#795=ORIENTED_EDGE('',*,*,#607,.T.);
#796=ORIENTED_EDGE('',*,*,#608,.F.);
#797=ORIENTED_EDGE('',*,*,#609,.F.);
#798=ORIENTED_EDGE('',*,*,#610,.F.);
#799=ORIENTED_EDGE('',*,*,#609,.T.);
#800=ORIENTED_EDGE('',*,*,#611,.F.);
#801=ORIENTED_EDGE('',*,*,#612,.F.);
#802=ORIENTED_EDGE('',*,*,#613,.F.);
#803=ORIENTED_EDGE('',*,*,#612,.T.);
#804=ORIENTED_EDGE('',*,*,#614,.F.);
#805=ORIENTED_EDGE('',*,*,#615,.F.);
#806=ORIENTED_EDGE('',*,*,#616,.F.);
#807=ORIENTED_EDGE('',*,*,#615,.T.);
#808=ORIENTED_EDGE('',*,*,#617,.F.);
#809=ORIENTED_EDGE('',*,*,#607,.F.);
#810=ORIENTED_EDGE('',*,*,#617,.T.);
#811=ORIENTED_EDGE('',*,*,#614,.T.);
#812=ORIENTED_EDGE('',*,*,#611,.T.);
#813=ORIENTED_EDGE('',*,*,#608,.T.);
#814=ORIENTED_EDGE('',*,*,#605,.T.);
#815=ORIENTED_EDGE('',*,*,#616,.T.);
#816=ORIENTED_EDGE('',*,*,#606,.T.);
#817=ORIENTED_EDGE('',*,*,#610,.T.);
#818=ORIENTED_EDGE('',*,*,#613,.T.);
#819=ORIENTED_EDGE('',*,*,#618,.F.);
#820=ORIENTED_EDGE('',*,*,#619,.T.);
#821=ORIENTED_EDGE('',*,*,#620,.F.);
#822=ORIENTED_EDGE('',*,*,#619,.F.);
#823=ORIENTED_EDGE('',*,*,#618,.T.);
#824=ORIENTED_EDGE('',*,*,#621,.F.);
#825=ORIENTED_EDGE('',*,*,#622,.T.);
#826=ORIENTED_EDGE('',*,*,#623,.F.);
#827=ORIENTED_EDGE('',*,*,#624,.F.);
#828=ORIENTED_EDGE('',*,*,#625,.F.);
#829=ORIENTED_EDGE('',*,*,#624,.T.);
#830=ORIENTED_EDGE('',*,*,#626,.F.);
#831=ORIENTED_EDGE('',*,*,#627,.F.);
#832=ORIENTED_EDGE('',*,*,#628,.F.);
#833=ORIENTED_EDGE('',*,*,#627,.T.);
#834=ORIENTED_EDGE('',*,*,#629,.F.);
#835=ORIENTED_EDGE('',*,*,#630,.F.);
#836=ORIENTED_EDGE('',*,*,#631,.F.);
#837=ORIENTED_EDGE('',*,*,#630,.T.);
#838=ORIENTED_EDGE('',*,*,#632,.F.);
#839=ORIENTED_EDGE('',*,*,#622,.F.);
#840=ORIENTED_EDGE('',*,*,#632,.T.);
#841=ORIENTED_EDGE('',*,*,#629,.T.);
#842=ORIENTED_EDGE('',*,*,#626,.T.);
#843=ORIENTED_EDGE('',*,*,#623,.T.);
#844=ORIENTED_EDGE('',*,*,#620,.T.);
#845=ORIENTED_EDGE('',*,*,#631,.T.);
#846=ORIENTED_EDGE('',*,*,#621,.T.);
#847=ORIENTED_EDGE('',*,*,#625,.T.);
#848=ORIENTED_EDGE('',*,*,#628,.T.);
#849=ORIENTED_EDGE('',*,*,#633,.T.);
#850=ORIENTED_EDGE('',*,*,#634,.T.);
#851=ORIENTED_EDGE('',*,*,#635,.T.);
#852=ORIENTED_EDGE('',*,*,#636,.F.);
#853=ORIENTED_EDGE('',*,*,#637,.T.);
#854=ORIENTED_EDGE('',*,*,#638,.T.);
#855=ORIENTED_EDGE('',*,*,#639,.T.);
#856=ORIENTED_EDGE('',*,*,#634,.F.);
#857=ORIENTED_EDGE('',*,*,#640,.T.);
#858=ORIENTED_EDGE('',*,*,#641,.T.);
#859=ORIENTED_EDGE('',*,*,#642,.T.);
#860=ORIENTED_EDGE('',*,*,#638,.F.);
#861=ORIENTED_EDGE('',*,*,#643,.T.);
#862=ORIENTED_EDGE('',*,*,#636,.T.);
#863=ORIENTED_EDGE('',*,*,#644,.T.);
#864=ORIENTED_EDGE('',*,*,#641,.F.);
#865=ORIENTED_EDGE('',*,*,#644,.F.);
#866=ORIENTED_EDGE('',*,*,#635,.F.);
#867=ORIENTED_EDGE('',*,*,#639,.F.);
#868=ORIENTED_EDGE('',*,*,#642,.F.);
#869=ORIENTED_EDGE('',*,*,#643,.F.);
#870=ORIENTED_EDGE('',*,*,#640,.F.);
#871=ORIENTED_EDGE('',*,*,#637,.F.);
#872=ORIENTED_EDGE('',*,*,#633,.F.);
#873=ORIENTED_EDGE('',*,*,#645,.T.);
#874=ORIENTED_EDGE('',*,*,#646,.T.);
#875=ORIENTED_EDGE('',*,*,#647,.T.);
#876=ORIENTED_EDGE('',*,*,#648,.F.);
#877=ORIENTED_EDGE('',*,*,#649,.T.);
#878=ORIENTED_EDGE('',*,*,#650,.T.);
#879=ORIENTED_EDGE('',*,*,#651,.T.);
#880=ORIENTED_EDGE('',*,*,#646,.F.);
#881=ORIENTED_EDGE('',*,*,#652,.T.);
#882=ORIENTED_EDGE('',*,*,#653,.T.);
#883=ORIENTED_EDGE('',*,*,#654,.T.);
#884=ORIENTED_EDGE('',*,*,#650,.F.);
#885=ORIENTED_EDGE('',*,*,#655,.T.);
#886=ORIENTED_EDGE('',*,*,#648,.T.);
#887=ORIENTED_EDGE('',*,*,#656,.T.);
#888=ORIENTED_EDGE('',*,*,#653,.F.);
#889=ORIENTED_EDGE('',*,*,#656,.F.);
#890=ORIENTED_EDGE('',*,*,#647,.F.);
#891=ORIENTED_EDGE('',*,*,#651,.F.);
#892=ORIENTED_EDGE('',*,*,#654,.F.);
#893=ORIENTED_EDGE('',*,*,#655,.F.);
#894=ORIENTED_EDGE('',*,*,#652,.F.);
#895=ORIENTED_EDGE('',*,*,#649,.F.);
#896=ORIENTED_EDGE('',*,*,#645,.F.);
#897=ORIENTED_EDGE('',*,*,#657,.T.);
#898=ORIENTED_EDGE('',*,*,#658,.T.);
#899=ORIENTED_EDGE('',*,*,#659,.F.);
#900=ORIENTED_EDGE('',*,*,#658,.F.);
#901=ORIENTED_EDGE('',*,*,#659,.T.);
#902=ORIENTED_EDGE('',*,*,#660,.T.);
#903=ORIENTED_EDGE('',*,*,#661,.T.);
#904=ORIENTED_EDGE('',*,*,#662,.F.);
#905=ORIENTED_EDGE('',*,*,#661,.F.);
#906=ORIENTED_EDGE('',*,*,#662,.T.);
#907=ORIENTED_EDGE('',*,*,#663,.T.);
#908=ORIENTED_EDGE('',*,*,#664,.T.);
#909=ORIENTED_EDGE('',*,*,#665,.F.);
#910=ORIENTED_EDGE('',*,*,#664,.F.);
#911=ORIENTED_EDGE('',*,*,#665,.T.);
#912=ORIENTED_EDGE('',*,*,#666,.T.);
#913=ORIENTED_EDGE('',*,*,#667,.T.);
#914=ORIENTED_EDGE('',*,*,#668,.F.);
#915=ORIENTED_EDGE('',*,*,#667,.F.);
#916=ORIENTED_EDGE('',*,*,#668,.T.);
#917=ORIENTED_EDGE('',*,*,#669,.T.);
#918=ORIENTED_EDGE('',*,*,#670,.T.);
#919=ORIENTED_EDGE('',*,*,#671,.T.);
#920=ORIENTED_EDGE('',*,*,#672,.T.);
#921=ORIENTED_EDGE('',*,*,#673,.T.);
#922=ORIENTED_EDGE('',*,*,#674,.T.);
#923=ORIENTED_EDGE('',*,*,#673,.F.);
#924=ORIENTED_EDGE('',*,*,#675,.T.);
#925=ORIENTED_EDGE('',*,*,#676,.T.);
#926=ORIENTED_EDGE('',*,*,#677,.F.);
#927=ORIENTED_EDGE('',*,*,#674,.F.);
#928=ORIENTED_EDGE('',*,*,#677,.T.);
#929=ORIENTED_EDGE('',*,*,#678,.T.);
#930=ORIENTED_EDGE('',*,*,#679,.F.);
#931=ORIENTED_EDGE('',*,*,#669,.F.);
#932=ORIENTED_EDGE('',*,*,#679,.T.);
#933=ORIENTED_EDGE('',*,*,#680,.T.);
#934=ORIENTED_EDGE('',*,*,#681,.F.);
#935=ORIENTED_EDGE('',*,*,#672,.F.);
#936=ORIENTED_EDGE('',*,*,#682,.T.);
#937=ORIENTED_EDGE('',*,*,#683,.T.);
#938=ORIENTED_EDGE('',*,*,#675,.F.);
#939=ORIENTED_EDGE('',*,*,#671,.F.);
#940=ORIENTED_EDGE('',*,*,#684,.T.);
#941=ORIENTED_EDGE('',*,*,#685,.T.);
#942=ORIENTED_EDGE('',*,*,#682,.F.);
#943=ORIENTED_EDGE('',*,*,#670,.F.);
#944=ORIENTED_EDGE('',*,*,#681,.T.);
#945=ORIENTED_EDGE('',*,*,#686,.T.);
#946=ORIENTED_EDGE('',*,*,#684,.F.);
#947=ORIENTED_EDGE('',*,*,#657,.F.);
#948=ORIENTED_EDGE('',*,*,#660,.F.);
#949=ORIENTED_EDGE('',*,*,#663,.F.);
#950=ORIENTED_EDGE('',*,*,#666,.F.);
#951=ORIENTED_EDGE('',*,*,#680,.F.);
#952=ORIENTED_EDGE('',*,*,#678,.F.);
#953=ORIENTED_EDGE('',*,*,#676,.F.);
#954=ORIENTED_EDGE('',*,*,#683,.F.);
#955=ORIENTED_EDGE('',*,*,#685,.F.);
#956=ORIENTED_EDGE('',*,*,#686,.F.);
#957=PLANE('',#1103);
#958=PLANE('',#1116);
#959=PLANE('',#1117);
#960=PLANE('',#1118);
#961=PLANE('',#1119);
#962=PLANE('',#1120);
#963=PLANE('',#1121);
#964=PLANE('',#1122);
#965=PLANE('',#1123);
#966=PLANE('',#1124);
#967=PLANE('',#1125);
#968=PLANE('',#1126);
#969=PLANE('',#1130);
#970=PLANE('',#1131);
#971=PLANE('',#1132);
#972=PLANE('',#1133);
#973=PLANE('',#1134);
#974=PLANE('',#1135);
#975=PLANE('',#1136);
#976=PLANE('',#1140);
#977=PLANE('',#1141);
#978=PLANE('',#1142);
#979=PLANE('',#1143);
#980=PLANE('',#1144);
#981=PLANE('',#1145);
#982=PLANE('',#1146);
#983=PLANE('',#1150);
#984=PLANE('',#1151);
#985=PLANE('',#1152);
#986=PLANE('',#1153);
#987=PLANE('',#1154);
#988=PLANE('',#1155);
#989=PLANE('',#1156);
#990=PLANE('',#1157);
#991=PLANE('',#1158);
#992=PLANE('',#1159);
#993=PLANE('',#1160);
#994=PLANE('',#1161);
#995=PLANE('',#1162);
#996=PLANE('',#1163);
#997=PLANE('',#1164);
#998=PLANE('',#1165);
#999=PLANE('',#1166);
#1000=PLANE('',#1167);
#1001=PLANE('',#1168);
#1002=PLANE('',#1172);
#1003=PLANE('',#1176);
#1004=PLANE('',#1180);
#1005=PLANE('',#1184);
#1006=PLANE('',#1185);
#1007=PLANE('',#1186);
#1008=PLANE('',#1187);
#1009=PLANE('',#1188);
#1010=PLANE('',#1189);
#1011=PLANE('',#1190);
#1012=PLANE('',#1191);
#1013=PLANE('',#1192);
#1014=ADVANCED_FACE('',(#85,#48,#49,#50,#51),#957,.F.);
#1015=ADVANCED_FACE('',(#86),#40,.F.);
#1016=ADVANCED_FACE('',(#87),#41,.F.);
#1017=ADVANCED_FACE('',(#88),#42,.F.);
#1018=ADVANCED_FACE('',(#89),#43,.F.);
#1019=ADVANCED_FACE('',(#90),#958,.T.);
#1020=ADVANCED_FACE('',(#91),#959,.T.);
#1021=ADVANCED_FACE('',(#92),#960,.T.);
#1022=ADVANCED_FACE('',(#93),#961,.T.);
#1023=ADVANCED_FACE('',(#94,#52,#53,#54,#55),#962,.T.);
#1024=ADVANCED_FACE('',(#95),#963,.T.);
#1025=ADVANCED_FACE('',(#96),#964,.T.);
#1026=ADVANCED_FACE('',(#97),#965,.T.);
#1027=ADVANCED_FACE('',(#98),#966,.T.);
#1028=ADVANCED_FACE('',(#99),#967,.T.);
#1029=ADVANCED_FACE('',(#100),#968,.F.);
#1030=ADVANCED_FACE('',(#101),#13,.T.);
#1031=ADVANCED_FACE('',(#102),#969,.T.);
#1032=ADVANCED_FACE('',(#103),#970,.T.);
#1033=ADVANCED_FACE('',(#104),#971,.T.);
#1034=ADVANCED_FACE('',(#105),#972,.T.);
#1035=ADVANCED_FACE('',(#106),#973,.T.);
#1036=ADVANCED_FACE('',(#107,#56),#974,.T.);
#1037=ADVANCED_FACE('',(#108),#975,.F.);
#1038=ADVANCED_FACE('',(#109),#14,.T.);
#1039=ADVANCED_FACE('',(#110),#976,.T.);
#1040=ADVANCED_FACE('',(#111),#977,.T.);
#1041=ADVANCED_FACE('',(#112),#978,.T.);
#1042=ADVANCED_FACE('',(#113),#979,.T.);
#1043=ADVANCED_FACE('',(#114),#980,.T.);
#1044=ADVANCED_FACE('',(#115,#57),#981,.T.);
#1045=ADVANCED_FACE('',(#116),#982,.F.);
#1046=ADVANCED_FACE('',(#117),#15,.T.);
#1047=ADVANCED_FACE('',(#118),#983,.T.);
#1048=ADVANCED_FACE('',(#119),#984,.T.);
#1049=ADVANCED_FACE('',(#120),#985,.T.);
#1050=ADVANCED_FACE('',(#121),#986,.T.);
#1051=ADVANCED_FACE('',(#122),#987,.T.);
#1052=ADVANCED_FACE('',(#123,#58),#988,.T.);
#1053=ADVANCED_FACE('',(#124),#989,.F.);
#1054=ADVANCED_FACE('',(#125),#990,.F.);
#1055=ADVANCED_FACE('',(#126),#991,.F.);
#1056=ADVANCED_FACE('',(#127),#992,.F.);
#1057=ADVANCED_FACE('',(#128),#993,.F.);
#1058=ADVANCED_FACE('',(#129),#994,.F.);
#1059=ADVANCED_FACE('',(#130),#995,.T.);
#1060=ADVANCED_FACE('',(#131),#996,.F.);
#1061=ADVANCED_FACE('',(#132),#997,.F.);
#1062=ADVANCED_FACE('',(#133),#998,.F.);
#1063=ADVANCED_FACE('',(#134),#999,.F.);
#1064=ADVANCED_FACE('',(#135),#1000,.F.);
#1065=ADVANCED_FACE('',(#136),#1001,.T.);
#1066=ADVANCED_FACE('',(#137),#44,.F.);
#1067=ADVANCED_FACE('',(#138),#1002,.F.);
#1068=ADVANCED_FACE('',(#139),#45,.F.);
#1069=ADVANCED_FACE('',(#140),#1003,.F.);
#1070=ADVANCED_FACE('',(#141),#46,.F.);
#1071=ADVANCED_FACE('',(#142),#1004,.F.);
#1072=ADVANCED_FACE('',(#143),#47,.F.);
#1073=ADVANCED_FACE('',(#144),#1005,.F.);
#1074=ADVANCED_FACE('',(#145),#1006,.T.);
#1075=ADVANCED_FACE('',(#146),#1007,.F.);
#1076=ADVANCED_FACE('',(#147),#1008,.F.);
#1077=ADVANCED_FACE('',(#148),#1009,.F.);
#1078=ADVANCED_FACE('',(#149),#1010,.F.);
#1079=ADVANCED_FACE('',(#150),#1011,.F.);
#1080=ADVANCED_FACE('',(#151,#59,#60,#61,#62),#1012,.F.);
#1081=ADVANCED_FACE('',(#152),#1013,.F.);
#1082=CLOSED_SHELL('',(#1014,#1015,#1016,#1017,#1018,#1019,#1020,#1021,
#1022,#1023));
#1083=CLOSED_SHELL('',(#1024,#1025,#1026,#1027,#1028,#1029));
#1084=CLOSED_SHELL('',(#1030,#1031,#1032,#1033,#1034,#1035,#1036,#1037));
#1085=CLOSED_SHELL('',(#1038,#1039,#1040,#1041,#1042,#1043,#1044,#1045));
#1086=CLOSED_SHELL('',(#1046,#1047,#1048,#1049,#1050,#1051,#1052,#1053));
#1087=CLOSED_SHELL('',(#1054,#1055,#1056,#1057,#1058,#1059));
#1088=CLOSED_SHELL('',(#1060,#1061,#1062,#1063,#1064,#1065));
#1089=CLOSED_SHELL('',(#1066,#1067,#1068,#1069,#1070,#1071,#1072,#1073,
#1074,#1075,#1076,#1077,#1078,#1079,#1080,#1081));
#1090=DERIVED_UNIT_ELEMENT(#1092,1.);
#1091=DERIVED_UNIT_ELEMENT(#1787,-3.);
#1092=(
MASS_UNIT()
NAMED_UNIT(*)
SI_UNIT(.KILO.,.GRAM.)
);
#1093=DERIVED_UNIT((#1090,#1091));
#1094=MEASURE_REPRESENTATION_ITEM('density measure',
POSITIVE_RATIO_MEASURE(7850.),#1093);
#1095=PROPERTY_DEFINITION_REPRESENTATION(#1100,#1097);
#1096=PROPERTY_DEFINITION_REPRESENTATION(#1101,#1098);
#1097=REPRESENTATION('material name',(#1099),#1784);
#1098=REPRESENTATION('density',(#1094),#1784);
#1099=DESCRIPTIVE_REPRESENTATION_ITEM('Steel','Steel');
#1100=PROPERTY_DEFINITION('material property','material name',#1794);
#1101=PROPERTY_DEFINITION('material property','density of part',#1794);
#1102=AXIS2_PLACEMENT_3D('',#1488,#1193,#1194);
#1103=AXIS2_PLACEMENT_3D('',#1489,#1195,#1196);
#1104=AXIS2_PLACEMENT_3D('',#1499,#1201,#1202);
#1105=AXIS2_PLACEMENT_3D('',#1501,#1203,#1204);
#1106=AXIS2_PLACEMENT_3D('',#1503,#1205,#1206);
#1107=AXIS2_PLACEMENT_3D('',#1505,#1207,#1208);
#1108=AXIS2_PLACEMENT_3D('',#1506,#1209,#1210);
#1109=AXIS2_PLACEMENT_3D('',#1508,#1211,#1212);
#1110=AXIS2_PLACEMENT_3D('',#1510,#1214,#1215);
#1111=AXIS2_PLACEMENT_3D('',#1512,#1216,#1217);
#1112=AXIS2_PLACEMENT_3D('',#1514,#1219,#1220);
#1113=AXIS2_PLACEMENT_3D('',#1516,#1221,#1222);
#1114=AXIS2_PLACEMENT_3D('',#1518,#1224,#1225);
#1115=AXIS2_PLACEMENT_3D('',#1520,#1226,#1227);
#1116=AXIS2_PLACEMENT_3D('',#1522,#1229,#1230);
#1117=AXIS2_PLACEMENT_3D('',#1528,#1234,#1235);
#1118=AXIS2_PLACEMENT_3D('',#1532,#1238,#1239);
#1119=AXIS2_PLACEMENT_3D('',#1536,#1242,#1243);
#1120=AXIS2_PLACEMENT_3D('',#1538,#1245,#1246);
#1121=AXIS2_PLACEMENT_3D('',#1539,#1247,#1248);
#1122=AXIS2_PLACEMENT_3D('',#1548,#1253,#1254);
#1123=AXIS2_PLACEMENT_3D('',#1554,#1258,#1259);
#1124=AXIS2_PLACEMENT_3D('',#1560,#1263,#1264);
#1125=AXIS2_PLACEMENT_3D('',#1563,#1267,#1268);
#1126=AXIS2_PLACEMENT_3D('',#1564,#1269,#1270);
#1127=AXIS2_PLACEMENT_3D('',#1565,#1271,#1272);
#1128=AXIS2_PLACEMENT_3D('',#1567,#1273,#1274);
#1129=AXIS2_PLACEMENT_3D('',#1570,#1276,#1277);
#1130=AXIS2_PLACEMENT_3D('',#1571,#1278,#1279);
#1131=AXIS2_PLACEMENT_3D('',#1572,#1280,#1281);
#1132=AXIS2_PLACEMENT_3D('',#1581,#1286,#1287);
#1133=AXIS2_PLACEMENT_3D('',#1587,#1291,#1292);
#1134=AXIS2_PLACEMENT_3D('',#1593,#1296,#1297);
#1135=AXIS2_PLACEMENT_3D('',#1596,#1300,#1301);
#1136=AXIS2_PLACEMENT_3D('',#1597,#1302,#1303);
#1137=AXIS2_PLACEMENT_3D('',#1598,#1304,#1305);
#1138=AXIS2_PLACEMENT_3D('',#1600,#1306,#1307);
#1139=AXIS2_PLACEMENT_3D('',#1603,#1309,#1310);
#1140=AXIS2_PLACEMENT_3D('',#1604,#1311,#1312);
#1141=AXIS2_PLACEMENT_3D('',#1605,#1313,#1314);
#1142=AXIS2_PLACEMENT_3D('',#1614,#1319,#1320);
#1143=AXIS2_PLACEMENT_3D('',#1620,#1324,#1325);
#1144=AXIS2_PLACEMENT_3D('',#1626,#1329,#1330);
#1145=AXIS2_PLACEMENT_3D('',#1629,#1333,#1334);
#1146=AXIS2_PLACEMENT_3D('',#1630,#1335,#1336);
#1147=AXIS2_PLACEMENT_3D('',#1631,#1337,#1338);
#1148=AXIS2_PLACEMENT_3D('',#1633,#1339,#1340);
#1149=AXIS2_PLACEMENT_3D('',#1636,#1342,#1343);
#1150=AXIS2_PLACEMENT_3D('',#1637,#1344,#1345);
#1151=AXIS2_PLACEMENT_3D('',#1638,#1346,#1347);
#1152=AXIS2_PLACEMENT_3D('',#1647,#1352,#1353);
#1153=AXIS2_PLACEMENT_3D('',#1653,#1357,#1358);
#1154=AXIS2_PLACEMENT_3D('',#1659,#1362,#1363);
#1155=AXIS2_PLACEMENT_3D('',#1662,#1366,#1367);
#1156=AXIS2_PLACEMENT_3D('',#1663,#1368,#1369);
#1157=AXIS2_PLACEMENT_3D('',#1664,#1370,#1371);
#1158=AXIS2_PLACEMENT_3D('',#1673,#1376,#1377);
#1159=AXIS2_PLACEMENT_3D('',#1679,#1381,#1382);
#1160=AXIS2_PLACEMENT_3D('',#1685,#1386,#1387);
#1161=AXIS2_PLACEMENT_3D('',#1688,#1390,#1391);
#1162=AXIS2_PLACEMENT_3D('',#1689,#1392,#1393);
#1163=AXIS2_PLACEMENT_3D('',#1690,#1394,#1395);
#1164=AXIS2_PLACEMENT_3D('',#1699,#1400,#1401);
#1165=AXIS2_PLACEMENT_3D('',#1705,#1405,#1406);
#1166=AXIS2_PLACEMENT_3D('',#1711,#1410,#1411);
#1167=AXIS2_PLACEMENT_3D('',#1714,#1414,#1415);
#1168=AXIS2_PLACEMENT_3D('',#1715,#1416,#1417);
#1169=AXIS2_PLACEMENT_3D('',#1716,#1418,#1419);
#1170=AXIS2_PLACEMENT_3D('',#1718,#1420,#1421);
#1171=AXIS2_PLACEMENT_3D('',#1721,#1423,#1424);
#1172=AXIS2_PLACEMENT_3D('',#1722,#1425,#1426);
#1173=AXIS2_PLACEMENT_3D('',#1723,#1427,#1428);
#1174=AXIS2_PLACEMENT_3D('',#1725,#1429,#1430);
#1175=AXIS2_PLACEMENT_3D('',#1728,#1432,#1433);
#1176=AXIS2_PLACEMENT_3D('',#1729,#1434,#1435);
#1177=AXIS2_PLACEMENT_3D('',#1730,#1436,#1437);
#1178=AXIS2_PLACEMENT_3D('',#1732,#1438,#1439);
#1179=AXIS2_PLACEMENT_3D('',#1735,#1441,#1442);
#1180=AXIS2_PLACEMENT_3D('',#1736,#1443,#1444);
#1181=AXIS2_PLACEMENT_3D('',#1737,#1445,#1446);
#1182=AXIS2_PLACEMENT_3D('',#1739,#1447,#1448);
#1183=AXIS2_PLACEMENT_3D('',#1742,#1450,#1451);
#1184=AXIS2_PLACEMENT_3D('',#1743,#1452,#1453);
#1185=AXIS2_PLACEMENT_3D('',#1744,#1454,#1455);
#1186=AXIS2_PLACEMENT_3D('',#1757,#1462,#1463);
#1187=AXIS2_PLACEMENT_3D('',#1763,#1467,#1468);
#1188=AXIS2_PLACEMENT_3D('',#1767,#1471,#1472);
#1189=AXIS2_PLACEMENT_3D('',#1771,#1475,#1476);
#1190=AXIS2_PLACEMENT_3D('',#1775,#1479,#1480);
#1191=AXIS2_PLACEMENT_3D('',#1779,#1483,#1484);
#1192=AXIS2_PLACEMENT_3D('',#1781,#1486,#1487);
#1193=DIRECTION('axis',(0.,0.,1.));
#1194=DIRECTION('refdir',(1.,0.,0.));
#1195=DIRECTION('center_axis',(0.,0.,1.));
#1196=DIRECTION('ref_axis',(1.,0.,0.));
#1197=DIRECTION('',(-1.,7.37077526722096E-16,0.));
#1198=DIRECTION('',(0.,1.,0.));
#1199=DIRECTION('',(1.,0.,0.));
#1200=DIRECTION('',(0.,-1.,0.));
#1201=DIRECTION('center_axis',(0.,0.,1.));
#1202=DIRECTION('ref_axis',(1.,0.,0.));
#1203=DIRECTION('center_axis',(0.,0.,1.));
#1204=DIRECTION('ref_axis',(1.,0.,0.));
#1205=DIRECTION('center_axis',(0.,0.,1.));
#1206=DIRECTION('ref_axis',(1.,0.,0.));
#1207=DIRECTION('center_axis',(0.,0.,1.));
#1208=DIRECTION('ref_axis',(1.,0.,0.));
#1209=DIRECTION('center_axis',(0.,0.,1.));
#1210=DIRECTION('ref_axis',(1.,0.,0.));
#1211=DIRECTION('center_axis',(0.,0.,-1.));
#1212=DIRECTION('ref_axis',(1.,0.,0.));
#1213=DIRECTION('',(0.,0.,-1.));
#1214=DIRECTION('center_axis',(0.,0.,1.));
#1215=DIRECTION('ref_axis',(1.,0.,0.));
#1216=DIRECTION('center_axis',(0.,0.,-1.));
#1217=DIRECTION('ref_axis',(1.,0.,0.));
#1218=DIRECTION('',(0.,0.,-1.));
#1219=DIRECTION('center_axis',(0.,0.,1.));
#1220=DIRECTION('ref_axis',(1.,0.,0.));
#1221=DIRECTION('center_axis',(0.,0.,-1.));
#1222=DIRECTION('ref_axis',(1.,0.,0.));
#1223=DIRECTION('',(0.,0.,-1.));
#1224=DIRECTION('center_axis',(0.,0.,1.));
#1225=DIRECTION('ref_axis',(1.,0.,0.));
#1226=DIRECTION('center_axis',(0.,0.,-1.));
#1227=DIRECTION('ref_axis',(1.,0.,0.));
#1228=DIRECTION('',(0.,0.,-1.));
#1229=DIRECTION('center_axis',(-1.,0.,0.));
#1230=DIRECTION('ref_axis',(0.,-1.,0.));
#1231=DIRECTION('',(0.,0.,-1.));
#1232=DIRECTION('',(0.,-1.,0.));
#1233=DIRECTION('',(0.,0.,1.));
#1234=DIRECTION('center_axis',(0.,1.,0.));
#1235=DIRECTION('ref_axis',(-1.,0.,0.));
#1236=DIRECTION('',(-1.,0.,0.));
#1237=DIRECTION('',(0.,0.,1.));
#1238=DIRECTION('center_axis',(1.,0.,0.));
#1239=DIRECTION('ref_axis',(0.,1.,0.));
#1240=DIRECTION('',(0.,1.,0.));
#1241=DIRECTION('',(0.,0.,1.));
#1242=DIRECTION('center_axis',(-7.37077526722096E-16,-1.,0.));
#1243=DIRECTION('ref_axis',(1.,-7.37077526722096E-16,0.));
#1244=DIRECTION('',(1.,-7.37077526722096E-16,0.));
#1245=DIRECTION('center_axis',(0.,0.,1.));
#1246=DIRECTION('ref_axis',(1.,0.,0.));
#1247=DIRECTION('center_axis',(-1.,0.,0.));
#1248=DIRECTION('ref_axis',(0.,-1.,0.));
#1249=DIRECTION('',(0.,1.,0.));
#1250=DIRECTION('',(0.,0.,1.));
#1251=DIRECTION('',(0.,-1.,0.));
#1252=DIRECTION('',(0.,0.,1.));
#1253=DIRECTION('center_axis',(0.,1.,0.));
#1254=DIRECTION('ref_axis',(-1.,0.,0.));
#1255=DIRECTION('',(1.,0.,0.));
#1256=DIRECTION('',(-1.,0.,0.));
#1257=DIRECTION('',(0.,0.,1.));
#1258=DIRECTION('center_axis',(1.,0.,0.));
#1259=DIRECTION('ref_axis',(0.,1.,0.));
#1260=DIRECTION('',(0.,-1.,0.));
#1261=DIRECTION('',(0.,1.,0.));
#1262=DIRECTION('',(0.,0.,1.));
#1263=DIRECTION('center_axis',(0.,-1.,0.));
#1264=DIRECTION('ref_axis',(1.,0.,0.));
#1265=DIRECTION('',(-1.,0.,0.));
#1266=DIRECTION('',(1.,0.,0.));
#1267=DIRECTION('center_axis',(0.,0.,1.));
#1268=DIRECTION('ref_axis',(1.,0.,0.));
#1269=DIRECTION('center_axis',(0.,0.,1.));
#1270=DIRECTION('ref_axis',(-1.,0.,0.));
#1271=DIRECTION('center_axis',(-1.46081976924363E-16,0.,-1.));
#1272=DIRECTION('ref_axis',(-1.,0.,0.));
#1273=DIRECTION('center_axis',(1.46081976924363E-16,0.,1.));
#1274=DIRECTION('ref_axis',(1.,0.,-1.46081976924363E-16));
#1275=DIRECTION('',(0.0656475574015844,8.03950710436927E-18,-0.997842872504086));
#1276=DIRECTION('center_axis',(0.,0.,-1.));
#1277=DIRECTION('ref_axis',(-1.,0.,0.));
#1278=DIRECTION('center_axis',(1.46081976924363E-16,0.,1.));
#1279=DIRECTION('ref_axis',(1.,0.,-1.46081976924363E-16));
#1280=DIRECTION('center_axis',(-1.,0.,0.));
#1281=DIRECTION('ref_axis',(0.,-1.,0.));
#1282=DIRECTION('',(0.,1.,0.));
#1283=DIRECTION('',(0.,0.,1.));
#1284=DIRECTION('',(0.,-1.,0.));
#1285=DIRECTION('',(0.,0.,1.));
#1286=DIRECTION('center_axis',(0.,1.,0.));
#1287=DIRECTION('ref_axis',(-1.,0.,0.));
#1288=DIRECTION('',(1.,0.,0.));
#1289=DIRECTION('',(-1.,0.,0.));
#1290=DIRECTION('',(0.,0.,1.));
#1291=DIRECTION('center_axis',(1.,0.,0.));
#1292=DIRECTION('ref_axis',(0.,1.,0.));
#1293=DIRECTION('',(0.,-1.,0.));
#1294=DIRECTION('',(0.,1.,0.));
#1295=DIRECTION('',(0.,0.,1.));
#1296=DIRECTION('center_axis',(0.,-1.,0.));
#1297=DIRECTION('ref_axis',(1.,0.,0.));
#1298=DIRECTION('',(-1.,0.,0.));
#1299=DIRECTION('',(1.,0.,0.));
#1300=DIRECTION('center_axis',(0.,0.,1.));
#1301=DIRECTION('ref_axis',(1.,0.,0.));
#1302=DIRECTION('center_axis',(0.,0.,1.));
#1303=DIRECTION('ref_axis',(-1.,0.,0.));
#1304=DIRECTION('center_axis',(-1.46081976924363E-16,0.,-1.));
#1305=DIRECTION('ref_axis',(-1.,0.,0.));
#1306=DIRECTION('center_axis',(1.46081976924363E-16,0.,1.));
#1307=DIRECTION('ref_axis',(1.,0.,-1.46081976924363E-16));
#1308=DIRECTION('',(0.0656475574015844,8.03950710436927E-18,-0.997842872504086));
#1309=DIRECTION('center_axis',(0.,0.,-1.));
#1310=DIRECTION('ref_axis',(-1.,0.,0.));
#1311=DIRECTION('center_axis',(1.46081976924363E-16,0.,1.));
#1312=DIRECTION('ref_axis',(1.,0.,-1.46081976924363E-16));
#1313=DIRECTION('center_axis',(-1.,0.,0.));
#1314=DIRECTION('ref_axis',(0.,-1.,0.));
#1315=DIRECTION('',(0.,1.,0.));
#1316=DIRECTION('',(0.,0.,1.));
#1317=DIRECTION('',(0.,-1.,0.));
#1318=DIRECTION('',(0.,0.,1.));
#1319=DIRECTION('center_axis',(0.,1.,0.));
#1320=DIRECTION('ref_axis',(-1.,0.,0.));
#1321=DIRECTION('',(1.,0.,0.));
#1322=DIRECTION('',(-1.,0.,0.));
#1323=DIRECTION('',(0.,0.,1.));
#1324=DIRECTION('center_axis',(1.,0.,0.));
#1325=DIRECTION('ref_axis',(0.,1.,0.));
#1326=DIRECTION('',(0.,-1.,0.));
#1327=DIRECTION('',(0.,1.,0.));
#1328=DIRECTION('',(0.,0.,1.));
#1329=DIRECTION('center_axis',(0.,-1.,0.));
#1330=DIRECTION('ref_axis',(1.,0.,0.));
#1331=DIRECTION('',(-1.,0.,0.));
#1332=DIRECTION('',(1.,0.,0.));
#1333=DIRECTION('center_axis',(0.,0.,1.));
#1334=DIRECTION('ref_axis',(1.,0.,0.));
#1335=DIRECTION('center_axis',(0.,0.,1.));
#1336=DIRECTION('ref_axis',(-1.,0.,0.));
#1337=DIRECTION('center_axis',(-1.46081976924363E-16,0.,-1.));
#1338=DIRECTION('ref_axis',(-1.,0.,0.));
#1339=DIRECTION('center_axis',(1.46081976924363E-16,0.,1.));
#1340=DIRECTION('ref_axis',(1.,0.,-1.46081976924363E-16));
#1341=DIRECTION('',(0.0656475574015844,8.03950710436927E-18,-0.997842872504086));
#1342=DIRECTION('center_axis',(0.,0.,-1.));
#1343=DIRECTION('ref_axis',(-1.,0.,0.));
#1344=DIRECTION('center_axis',(1.46081976924363E-16,0.,1.));
#1345=DIRECTION('ref_axis',(1.,0.,-1.46081976924363E-16));
#1346=DIRECTION('center_axis',(-1.,0.,0.));
#1347=DIRECTION('ref_axis',(0.,-1.,0.));
#1348=DIRECTION('',(0.,1.,0.));
#1349=DIRECTION('',(0.,0.,1.));
#1350=DIRECTION('',(0.,-1.,0.));
#1351=DIRECTION('',(0.,0.,1.));
#1352=DIRECTION('center_axis',(0.,1.,0.));
#1353=DIRECTION('ref_axis',(-1.,0.,0.));
#1354=DIRECTION('',(1.,0.,0.));
#1355=DIRECTION('',(-1.,0.,0.));
#1356=DIRECTION('',(0.,0.,1.));
#1357=DIRECTION('center_axis',(1.,0.,0.));
#1358=DIRECTION('ref_axis',(0.,1.,0.));
#1359=DIRECTION('',(0.,-1.,0.));
#1360=DIRECTION('',(0.,1.,0.));
#1361=DIRECTION('',(0.,0.,1.));
#1362=DIRECTION('center_axis',(0.,-1.,0.));
#1363=DIRECTION('ref_axis',(1.,0.,0.));
#1364=DIRECTION('',(-1.,0.,0.));
#1365=DIRECTION('',(1.,0.,0.));
#1366=DIRECTION('center_axis',(0.,0.,1.));
#1367=DIRECTION('ref_axis',(1.,0.,0.));
#1368=DIRECTION('center_axis',(0.,0.,1.));
#1369=DIRECTION('ref_axis',(-1.,0.,0.));
#1370=DIRECTION('center_axis',(1.,0.,0.));
#1371=DIRECTION('ref_axis',(0.,-1.,0.));
#1372=DIRECTION('',(0.,1.,0.));
#1373=DIRECTION('',(0.,0.,-1.));
#1374=DIRECTION('',(0.,-1.,0.));
#1375=DIRECTION('',(0.,0.,-1.));
#1376=DIRECTION('center_axis',(0.,-1.,0.));
#1377=DIRECTION('ref_axis',(-1.,0.,0.));
#1378=DIRECTION('',(1.,0.,0.));
#1379=DIRECTION('',(0.,0.,-1.));
#1380=DIRECTION('',(-1.,0.,0.));
#1381=DIRECTION('center_axis',(-1.,0.,0.));
#1382=DIRECTION('ref_axis',(0.,1.,0.));
#1383=DIRECTION('',(0.,-1.,0.));
#1384=DIRECTION('',(0.,0.,-1.));
#1385=DIRECTION('',(0.,1.,0.));
#1386=DIRECTION('center_axis',(0.,1.,0.));
#1387=DIRECTION('ref_axis',(1.,0.,0.));
#1388=DIRECTION('',(-1.,0.,0.));
#1389=DIRECTION('',(1.,0.,0.));
#1390=DIRECTION('center_axis',(0.,0.,1.));
#1391=DIRECTION('ref_axis',(1.,0.,0.));
#1392=DIRECTION('center_axis',(0.,0.,1.));
#1393=DIRECTION('ref_axis',(-1.,0.,0.));
#1394=DIRECTION('center_axis',(1.,0.,0.));
#1395=DIRECTION('ref_axis',(0.,-1.,0.));
#1396=DIRECTION('',(0.,1.,0.));
#1397=DIRECTION('',(0.,0.,-1.));
#1398=DIRECTION('',(0.,-1.,0.));
#1399=DIRECTION('',(0.,0.,-1.));
#1400=DIRECTION('center_axis',(0.,-1.,0.));
#1401=DIRECTION('ref_axis',(-1.,0.,0.));
#1402=DIRECTION('',(1.,0.,0.));
#1403=DIRECTION('',(0.,0.,-1.));
#1404=DIRECTION('',(-1.,0.,0.));
#1405=DIRECTION('center_axis',(-1.,0.,0.));
#1406=DIRECTION('ref_axis',(0.,1.,0.));
#1407=DIRECTION('',(0.,-1.,0.));
#1408=DIRECTION('',(0.,0.,-1.));
#1409=DIRECTION('',(0.,1.,0.));
#1410=DIRECTION('center_axis',(0.,1.,0.));
#1411=DIRECTION('ref_axis',(1.,0.,0.));
#1412=DIRECTION('',(-1.,0.,0.));
#1413=DIRECTION('',(1.,0.,0.));
#1414=DIRECTION('center_axis',(0.,0.,1.));
#1415=DIRECTION('ref_axis',(1.,0.,0.));
#1416=DIRECTION('center_axis',(0.,0.,1.));
#1417=DIRECTION('ref_axis',(-1.,0.,0.));
#1418=DIRECTION('center_axis',(0.,0.,-1.));
#1419=DIRECTION('ref_axis',(-1.,0.,0.));
#1420=DIRECTION('center_axis',(0.,0.,-1.));
#1421=DIRECTION('ref_axis',(-1.,0.,0.));
#1422=DIRECTION('',(0.,0.,1.));
#1423=DIRECTION('center_axis',(0.,0.,-1.));
#1424=DIRECTION('ref_axis',(-1.,0.,0.));
#1425=DIRECTION('center_axis',(0.,0.,1.));
#1426=DIRECTION('ref_axis',(-1.,0.,0.));
#1427=DIRECTION('center_axis',(0.,0.,-1.));
#1428=DIRECTION('ref_axis',(-1.,0.,0.));
#1429=DIRECTION('center_axis',(0.,0.,-1.));
#1430=DIRECTION('ref_axis',(-1.,0.,0.));
#1431=DIRECTION('',(0.,0.,1.));
#1432=DIRECTION('center_axis',(0.,0.,-1.));
#1433=DIRECTION('ref_axis',(-1.,0.,0.));
#1434=DIRECTION('center_axis',(0.,0.,1.));
#1435=DIRECTION('ref_axis',(-1.,0.,0.));
#1436=DIRECTION('center_axis',(0.,0.,-1.));
#1437=DIRECTION('ref_axis',(-1.,0.,0.));
#1438=DIRECTION('center_axis',(0.,0.,-1.));
#1439=DIRECTION('ref_axis',(-1.,0.,0.));
#1440=DIRECTION('',(0.,0.,1.));
#1441=DIRECTION('center_axis',(0.,0.,-1.));
#1442=DIRECTION('ref_axis',(-1.,0.,0.));
#1443=DIRECTION('center_axis',(0.,0.,1.));
#1444=DIRECTION('ref_axis',(-1.,0.,0.));
#1445=DIRECTION('center_axis',(0.,0.,-1.));
#1446=DIRECTION('ref_axis',(-1.,0.,0.));
#1447=DIRECTION('center_axis',(0.,0.,-1.));
#1448=DIRECTION('ref_axis',(-1.,0.,0.));
#1449=DIRECTION('',(0.,0.,1.));
#1450=DIRECTION('center_axis',(0.,0.,-1.));
#1451=DIRECTION('ref_axis',(-1.,0.,0.));
#1452=DIRECTION('center_axis',(0.,0.,1.));
#1453=DIRECTION('ref_axis',(-1.,0.,0.));
#1454=DIRECTION('center_axis',(-1.,0.,0.));
#1455=DIRECTION('ref_axis',(0.,0.,1.));
#1456=DIRECTION('',(0.,-0.436903962736908,-0.899508158576));
#1457=DIRECTION('',(0.,-1.,0.));
#1458=DIRECTION('',(0.,-0.249041039810626,0.968492932596848));
#1459=DIRECTION('',(0.,0.,1.));
#1460=DIRECTION('',(0.,1.,0.));
#1461=DIRECTION('',(0.,0.,-1.));
#1462=DIRECTION('center_axis',(0.,0.,-1.));
#1463=DIRECTION('ref_axis',(0.,1.,0.));
#1464=DIRECTION('',(1.,0.,0.));
#1465=DIRECTION('',(0.,1.,0.));
#1466=DIRECTION('',(1.,0.,0.));
#1467=DIRECTION('center_axis',(0.,-1.,0.));
#1468=DIRECTION('ref_axis',(0.,0.,-1.));
#1469=DIRECTION('',(0.,0.,-1.));
#1470=DIRECTION('',(1.,0.,0.));
#1471=DIRECTION('center_axis',(0.,-0.899508158576,0.436903962736908));
#1472=DIRECTION('ref_axis',(0.,-0.436903962736908,-0.899508158576));
#1473=DIRECTION('',(0.,-0.436903962736908,-0.899508158576));
#1474=DIRECTION('',(1.,0.,0.));
#1475=DIRECTION('center_axis',(0.,1.,0.));
#1476=DIRECTION('ref_axis',(0.,0.,1.));
#1477=DIRECTION('',(1.,0.,0.));
#1478=DIRECTION('',(0.,0.,1.));
#1479=DIRECTION('center_axis',(0.,0.968492932596848,0.249041039810626));
#1480=DIRECTION('ref_axis',(0.,-0.249041039810626,0.968492932596848));
#1481=DIRECTION('',(1.,0.,0.));
#1482=DIRECTION('',(0.,-0.249041039810626,0.968492932596848));
#1483=DIRECTION('center_axis',(0.,0.,1.));
#1484=DIRECTION('ref_axis',(0.,-1.,0.));
#1485=DIRECTION('',(0.,-1.,0.));
#1486=DIRECTION('center_axis',(-1.,0.,0.));
#1487=DIRECTION('ref_axis',(0.,0.,1.));
#1488=CARTESIAN_POINT('',(0.,0.,0.));
#1489=CARTESIAN_POINT('Origin',(0.,-8.88178419700125E-15,-0.45));
#1490=CARTESIAN_POINT('',(24.1,-20.15,-0.45));
#1491=CARTESIAN_POINT('',(-24.1,-20.15,-0.45));
#1492=CARTESIAN_POINT('',(24.1,-20.15,-0.45));
#1493=CARTESIAN_POINT('',(-24.1,20.15,-0.45));
#1494=CARTESIAN_POINT('',(-24.1,-20.15,-0.45));
#1495=CARTESIAN_POINT('',(24.1,20.15,-0.45));
#1496=CARTESIAN_POINT('',(-24.1,20.15,-0.45));
#1497=CARTESIAN_POINT('',(24.1,20.15,-0.45));
#1498=CARTESIAN_POINT('',(18.55,16.,-0.45));
#1499=CARTESIAN_POINT('Origin',(20.25,16.,-0.45));
#1500=CARTESIAN_POINT('',(18.55,-16.,-0.45));
#1501=CARTESIAN_POINT('Origin',(20.25,-16.,-0.45));
#1502=CARTESIAN_POINT('',(-21.95,16.,-0.45));
#1503=CARTESIAN_POINT('Origin',(-20.25,16.,-0.45));
#1504=CARTESIAN_POINT('',(-21.95,-16.,-0.45));
#1505=CARTESIAN_POINT('Origin',(-20.25,-16.,-0.45));
#1506=CARTESIAN_POINT('Origin',(-20.25,-16.,0.));
#1507=CARTESIAN_POINT('',(-21.95,-16.,0.45));
#1508=CARTESIAN_POINT('Origin',(-20.25,-16.,0.45));
#1509=CARTESIAN_POINT('',(-21.95,-16.,0.));
#1510=CARTESIAN_POINT('Origin',(-20.25,16.,0.));
#1511=CARTESIAN_POINT('',(-21.95,16.,0.45));
#1512=CARTESIAN_POINT('Origin',(-20.25,16.,0.45));
#1513=CARTESIAN_POINT('',(-21.95,16.,0.));
#1514=CARTESIAN_POINT('Origin',(20.25,-16.,0.));
#1515=CARTESIAN_POINT('',(18.55,-16.,0.45));
#1516=CARTESIAN_POINT('Origin',(20.25,-16.,0.45));
#1517=CARTESIAN_POINT('',(18.55,-16.,0.));
#1518=CARTESIAN_POINT('Origin',(20.25,16.,0.));
#1519=CARTESIAN_POINT('',(18.55,16.,0.45));
#1520=CARTESIAN_POINT('Origin',(20.25,16.,0.45));
#1521=CARTESIAN_POINT('',(18.55,16.,0.));
#1522=CARTESIAN_POINT('Origin',(-24.1,20.15,0.));
#1523=CARTESIAN_POINT('',(-24.1,-20.15,0.45));
#1524=CARTESIAN_POINT('',(-24.1,-20.15,0.));
#1525=CARTESIAN_POINT('',(-24.1,20.15,0.45));
#1526=CARTESIAN_POINT('',(-24.1,-20.15,0.45));
#1527=CARTESIAN_POINT('',(-24.1,20.15,0.));
#1528=CARTESIAN_POINT('Origin',(24.1,20.15,0.));
#1529=CARTESIAN_POINT('',(24.1,20.15,0.45));
#1530=CARTESIAN_POINT('',(-24.1,20.15,0.45));
#1531=CARTESIAN_POINT('',(24.1,20.15,0.));
#1532=CARTESIAN_POINT('Origin',(24.1,-20.15,0.));
#1533=CARTESIAN_POINT('',(24.1,-20.15,0.45));
#1534=CARTESIAN_POINT('',(24.1,20.15,0.45));
#1535=CARTESIAN_POINT('',(24.1,-20.15,0.));
#1536=CARTESIAN_POINT('Origin',(-24.1,-20.15,0.));
#1537=CARTESIAN_POINT('',(24.1,-20.15,0.45));
#1538=CARTESIAN_POINT('Origin',(0.,-8.88178419700125E-15,0.45));
#1539=CARTESIAN_POINT('Origin',(-11.7,19.55,0.45));
#1540=CARTESIAN_POINT('',(-11.7,9.54999999999999,0.45));
#1541=CARTESIAN_POINT('',(-11.7,19.55,0.45));
#1542=CARTESIAN_POINT('',(-11.7,9.54999999999999,0.45));
#1543=CARTESIAN_POINT('',(-11.7,9.54999999999999,6.35));
#1544=CARTESIAN_POINT('',(-11.7,9.54999999999999,0.45));
#1545=CARTESIAN_POINT('',(-11.7,19.55,6.35));
#1546=CARTESIAN_POINT('',(-11.7,9.54999999999999,6.35));
#1547=CARTESIAN_POINT('',(-11.7,19.55,0.45));
#1548=CARTESIAN_POINT('Origin',(11.,19.55,0.45));
#1549=CARTESIAN_POINT('',(11.,19.55,0.45));
#1550=CARTESIAN_POINT('',(-11.7,19.55,0.45));
#1551=CARTESIAN_POINT('',(11.,19.55,6.35));
#1552=CARTESIAN_POINT('',(-11.7,19.55,6.35));
#1553=CARTESIAN_POINT('',(11.,19.55,0.45));
#1554=CARTESIAN_POINT('Origin',(11.,9.54999999999999,0.45));
#1555=CARTESIAN_POINT('',(11.,9.54999999999999,0.45));
#1556=CARTESIAN_POINT('',(11.,19.55,0.45));
#1557=CARTESIAN_POINT('',(11.,9.54999999999999,6.35));
#1558=CARTESIAN_POINT('',(11.,19.55,6.35));
#1559=CARTESIAN_POINT('',(11.,9.54999999999999,0.45));
#1560=CARTESIAN_POINT('Origin',(-11.7,9.54999999999999,0.45));
#1561=CARTESIAN_POINT('',(11.,9.54999999999999,0.45));
#1562=CARTESIAN_POINT('',(11.,9.54999999999999,6.35));
#1563=CARTESIAN_POINT('Origin',(-0.350000000000001,14.55,6.35));
#1564=CARTESIAN_POINT('Origin',(-0.350000000000001,14.55,0.45));
#1565=CARTESIAN_POINT('Origin',(1.05,1.8,6.65));
#1566=CARTESIAN_POINT('',(2.55,1.8,8.55));
#1567=CARTESIAN_POINT('Origin',(1.05,1.8,8.55));
#1568=CARTESIAN_POINT('',(2.8,1.8,4.75));
#1569=CARTESIAN_POINT('',(2.675,1.8,6.65));
#1570=CARTESIAN_POINT('Origin',(1.05,1.8,4.75));
#1571=CARTESIAN_POINT('Origin',(1.05,1.8,8.55));
#1572=CARTESIAN_POINT('Origin',(-1.95,4.8,0.45));
#1573=CARTESIAN_POINT('',(-1.95,-1.2,0.45));
#1574=CARTESIAN_POINT('',(-1.95,4.8,0.45));
#1575=CARTESIAN_POINT('',(-1.95,-1.2,0.45));
#1576=CARTESIAN_POINT('',(-1.95,-1.2,4.75));
#1577=CARTESIAN_POINT('',(-1.95,-1.2,0.45));
#1578=CARTESIAN_POINT('',(-1.95,4.8,4.75));
#1579=CARTESIAN_POINT('',(-1.95,-1.2,4.75));
#1580=CARTESIAN_POINT('',(-1.95,4.8,0.45));
#1581=CARTESIAN_POINT('Origin',(4.05,4.8,0.45));
#1582=CARTESIAN_POINT('',(4.05,4.8,0.45));
#1583=CARTESIAN_POINT('',(-1.95,4.8,0.45));
#1584=CARTESIAN_POINT('',(4.05,4.8,4.75));
#1585=CARTESIAN_POINT('',(-1.95,4.8,4.75));
#1586=CARTESIAN_POINT('',(4.05,4.8,0.45));
#1587=CARTESIAN_POINT('Origin',(4.05,-1.2,0.45));
#1588=CARTESIAN_POINT('',(4.05,-1.2,0.45));
#1589=CARTESIAN_POINT('',(4.05,4.8,0.45));
#1590=CARTESIAN_POINT('',(4.05,-1.2,4.75));
#1591=CARTESIAN_POINT('',(4.05,4.8,4.75));
#1592=CARTESIAN_POINT('',(4.05,-1.2,0.45));
#1593=CARTESIAN_POINT('Origin',(-1.95,-1.2,0.45));
#1594=CARTESIAN_POINT('',(4.05,-1.2,0.45));
#1595=CARTESIAN_POINT('',(4.05,-1.2,4.75));
#1596=CARTESIAN_POINT('Origin',(1.05,1.8,4.75));
#1597=CARTESIAN_POINT('Origin',(1.05,1.8,0.45));
#1598=CARTESIAN_POINT('Origin',(11.85,1.8,6.65));
#1599=CARTESIAN_POINT('',(13.35,1.8,8.55));
#1600=CARTESIAN_POINT('Origin',(11.85,1.8,8.55));
#1601=CARTESIAN_POINT('',(13.6,1.8,4.75));
#1602=CARTESIAN_POINT('',(13.475,1.8,6.65));
#1603=CARTESIAN_POINT('Origin',(11.85,1.8,4.75));
#1604=CARTESIAN_POINT('Origin',(11.85,1.8,8.55));
#1605=CARTESIAN_POINT('Origin',(8.85,4.8,0.45));
#1606=CARTESIAN_POINT('',(8.85,-1.2,0.45));
#1607=CARTESIAN_POINT('',(8.85,4.8,0.45));
#1608=CARTESIAN_POINT('',(8.85,-1.2,0.45));
#1609=CARTESIAN_POINT('',(8.85,-1.2,4.75));
#1610=CARTESIAN_POINT('',(8.85,-1.2,0.45));
#1611=CARTESIAN_POINT('',(8.85,4.8,4.75));
#1612=CARTESIAN_POINT('',(8.85,-1.2,4.75));
#1613=CARTESIAN_POINT('',(8.85,4.8,0.45));
#1614=CARTESIAN_POINT('Origin',(14.85,4.8,0.45));
#1615=CARTESIAN_POINT('',(14.85,4.8,0.45));
#1616=CARTESIAN_POINT('',(8.85,4.8,0.45));
#1617=CARTESIAN_POINT('',(14.85,4.8,4.75));
#1618=CARTESIAN_POINT('',(8.85,4.8,4.75));
#1619=CARTESIAN_POINT('',(14.85,4.8,0.45));
#1620=CARTESIAN_POINT('Origin',(14.85,-1.2,0.45));
#1621=CARTESIAN_POINT('',(14.85,-1.2,0.45));
#1622=CARTESIAN_POINT('',(14.85,4.8,0.45));
#1623=CARTESIAN_POINT('',(14.85,-1.2,4.75));
#1624=CARTESIAN_POINT('',(14.85,4.8,4.75));
#1625=CARTESIAN_POINT('',(14.85,-1.2,0.45));
#1626=CARTESIAN_POINT('Origin',(8.85,-1.2,0.45));
#1627=CARTESIAN_POINT('',(14.85,-1.2,0.45));
#1628=CARTESIAN_POINT('',(14.85,-1.2,4.75));
#1629=CARTESIAN_POINT('Origin',(11.85,1.8,4.75));
#1630=CARTESIAN_POINT('Origin',(11.85,1.8,0.45));
#1631=CARTESIAN_POINT('Origin',(-9.75,1.8,6.65));
#1632=CARTESIAN_POINT('',(-8.25,1.8,8.55));
#1633=CARTESIAN_POINT('Origin',(-9.75,1.8,8.55));
#1634=CARTESIAN_POINT('',(-8.,1.8,4.75));
#1635=CARTESIAN_POINT('',(-8.125,1.8,6.65));
#1636=CARTESIAN_POINT('Origin',(-9.75,1.8,4.75));
#1637=CARTESIAN_POINT('Origin',(-9.75,1.8,8.55));
#1638=CARTESIAN_POINT('Origin',(-12.75,4.8,0.45));
#1639=CARTESIAN_POINT('',(-12.75,-1.2,0.45));
#1640=CARTESIAN_POINT('',(-12.75,4.8,0.45));
#1641=CARTESIAN_POINT('',(-12.75,-1.2,0.45));
#1642=CARTESIAN_POINT('',(-12.75,-1.2,4.75));
#1643=CARTESIAN_POINT('',(-12.75,-1.2,0.45));
#1644=CARTESIAN_POINT('',(-12.75,4.8,4.75));
#1645=CARTESIAN_POINT('',(-12.75,-1.2,4.75));
#1646=CARTESIAN_POINT('',(-12.75,4.8,0.45));
#1647=CARTESIAN_POINT('Origin',(-6.75,4.8,0.45));
#1648=CARTESIAN_POINT('',(-6.75,4.8,0.45));
#1649=CARTESIAN_POINT('',(-12.75,4.8,0.45));
#1650=CARTESIAN_POINT('',(-6.75,4.8,4.75));
#1651=CARTESIAN_POINT('',(-12.75,4.8,4.75));
#1652=CARTESIAN_POINT('',(-6.75,4.8,0.45));
#1653=CARTESIAN_POINT('Origin',(-6.75,-1.2,0.45));
#1654=CARTESIAN_POINT('',(-6.75,-1.2,0.45));
#1655=CARTESIAN_POINT('',(-6.75,4.8,0.45));
#1656=CARTESIAN_POINT('',(-6.75,-1.2,4.75));
#1657=CARTESIAN_POINT('',(-6.75,4.8,4.75));
#1658=CARTESIAN_POINT('',(-6.75,-1.2,0.45));
#1659=CARTESIAN_POINT('Origin',(-12.75,-1.2,0.45));
#1660=CARTESIAN_POINT('',(-6.75,-1.2,0.45));
#1661=CARTESIAN_POINT('',(-6.75,-1.2,4.75));
#1662=CARTESIAN_POINT('Origin',(-9.75,1.8,4.75));
#1663=CARTESIAN_POINT('Origin',(-9.75,1.8,0.45));
#1664=CARTESIAN_POINT('Origin',(-16.6,-3.94999999999998,-0.45));
#1665=CARTESIAN_POINT('',(-16.6,-19.45,-0.45));
#1666=CARTESIAN_POINT('',(-16.6,-3.94999999999998,-0.45));
#1667=CARTESIAN_POINT('',(-16.6,-19.45,-0.45));
#1668=CARTESIAN_POINT('',(-16.6,-3.94999999999998,-14.15));
#1669=CARTESIAN_POINT('',(-16.6,-3.94999999999998,-0.45));
#1670=CARTESIAN_POINT('',(-16.6,-19.45,-14.15));
#1671=CARTESIAN_POINT('',(-16.6,-19.45,-14.15));
#1672=CARTESIAN_POINT('',(-16.6,-19.45,-0.45));
#1673=CARTESIAN_POINT('Origin',(-4.3,-3.94999999999998,-0.45));
#1674=CARTESIAN_POINT('',(-4.3,-3.94999999999998,-0.45));
#1675=CARTESIAN_POINT('',(-16.6,-3.94999999999998,-0.45));
#1676=CARTESIAN_POINT('',(-4.3,-3.94999999999998,-14.15));
#1677=CARTESIAN_POINT('',(-4.3,-3.94999999999998,-0.45));
#1678=CARTESIAN_POINT('',(-16.6,-3.94999999999998,-14.15));
#1679=CARTESIAN_POINT('Origin',(-4.3,-19.45,-0.45));
#1680=CARTESIAN_POINT('',(-4.3,-19.45,-0.45));
#1681=CARTESIAN_POINT('',(-4.3,-3.94999999999998,-0.45));
#1682=CARTESIAN_POINT('',(-4.3,-19.45,-14.15));
#1683=CARTESIAN_POINT('',(-4.3,-19.45,-0.45));
#1684=CARTESIAN_POINT('',(-4.3,-3.94999999999998,-14.15));
#1685=CARTESIAN_POINT('Origin',(-16.6,-19.45,-0.45));
#1686=CARTESIAN_POINT('',(-4.3,-19.45,-0.45));
#1687=CARTESIAN_POINT('',(-4.3,-19.45,-14.15));
#1688=CARTESIAN_POINT('Origin',(-10.45,-11.7,-14.15));
#1689=CARTESIAN_POINT('Origin',(-10.45,-11.7,-0.45));
#1690=CARTESIAN_POINT('Origin',(18.4,12.65,-0.45));
#1691=CARTESIAN_POINT('',(18.4,5.24999999999999,-0.45));
#1692=CARTESIAN_POINT('',(18.4,12.65,-0.45));
#1693=CARTESIAN_POINT('',(18.4,5.24999999999999,-0.45));
#1694=CARTESIAN_POINT('',(18.4,12.65,-10.15));
#1695=CARTESIAN_POINT('',(18.4,12.65,-0.45));
#1696=CARTESIAN_POINT('',(18.4,5.24999999999999,-10.15));
#1697=CARTESIAN_POINT('',(18.4,5.24999999999999,-10.15));
#1698=CARTESIAN_POINT('',(18.4,5.24999999999999,-0.45));
#1699=CARTESIAN_POINT('Origin',(24.1,12.65,-0.45));
#1700=CARTESIAN_POINT('',(24.1,12.65,-0.45));
#1701=CARTESIAN_POINT('',(18.4,12.65,-0.45));
#1702=CARTESIAN_POINT('',(24.1,12.65,-10.15));
#1703=CARTESIAN_POINT('',(24.1,12.65,-0.45));
#1704=CARTESIAN_POINT('',(18.4,12.65,-10.15));
#1705=CARTESIAN_POINT('Origin',(24.1,5.24999999999999,-0.45));
#1706=CARTESIAN_POINT('',(24.1,5.24999999999999,-0.45));
#1707=CARTESIAN_POINT('',(24.1,12.65,-0.45));
#1708=CARTESIAN_POINT('',(24.1,5.24999999999999,-10.15));
#1709=CARTESIAN_POINT('',(24.1,5.24999999999999,-0.45));
#1710=CARTESIAN_POINT('',(24.1,12.65,-10.15));
#1711=CARTESIAN_POINT('Origin',(18.4,5.24999999999999,-0.45));
#1712=CARTESIAN_POINT('',(24.1,5.24999999999999,-0.45));
#1713=CARTESIAN_POINT('',(24.1,5.24999999999999,-10.15));
#1714=CARTESIAN_POINT('Origin',(21.25,8.94999999999999,-10.15));
#1715=CARTESIAN_POINT('Origin',(21.25,8.94999999999999,-0.45));
#1716=CARTESIAN_POINT('Origin',(3.8375,-15.45,-10.55));
#1717=CARTESIAN_POINT('',(5.4875,-15.45,-10.55));
#1718=CARTESIAN_POINT('Origin',(3.8375,-15.45,-10.55));
#1719=CARTESIAN_POINT('',(5.4875,-15.45,-8.05));
#1720=CARTESIAN_POINT('',(5.4875,-15.45,-10.55));
#1721=CARTESIAN_POINT('Origin',(3.8375,-15.45,-8.05));
#1722=CARTESIAN_POINT('Origin',(3.8375,-15.45,-8.05));
#1723=CARTESIAN_POINT('Origin',(8.8625,-15.45,-10.55));
#1724=CARTESIAN_POINT('',(10.5125,-15.45,-10.55));
#1725=CARTESIAN_POINT('Origin',(8.8625,-15.45,-10.55));
#1726=CARTESIAN_POINT('',(10.5125,-15.45,-8.05));
#1727=CARTESIAN_POINT('',(10.5125,-15.45,-10.55));
#1728=CARTESIAN_POINT('Origin',(8.8625,-15.45,-8.05));
#1729=CARTESIAN_POINT('Origin',(8.8625,-15.45,-8.05));
#1730=CARTESIAN_POINT('Origin',(-1.1875,-15.45,-10.55));
#1731=CARTESIAN_POINT('',(0.462499999999997,-15.45,-10.55));
#1732=CARTESIAN_POINT('Origin',(-1.1875,-15.45,-10.55));
#1733=CARTESIAN_POINT('',(0.462499999999997,-15.45,-8.05));
#1734=CARTESIAN_POINT('',(0.462499999999997,-15.45,-10.55));
#1735=CARTESIAN_POINT('Origin',(-1.1875,-15.45,-8.05));
#1736=CARTESIAN_POINT('Origin',(-1.1875,-15.45,-8.05));
#1737=CARTESIAN_POINT('Origin',(13.8875,-15.45,-10.55));
#1738=CARTESIAN_POINT('',(15.5375,-15.45,-10.55));
#1739=CARTESIAN_POINT('Origin',(13.8875,-15.45,-10.55));
#1740=CARTESIAN_POINT('',(15.5375,-15.45,-8.05));
#1741=CARTESIAN_POINT('',(15.5375,-15.45,-10.55));
#1742=CARTESIAN_POINT('Origin',(13.8875,-15.45,-8.05));
#1743=CARTESIAN_POINT('Origin',(13.8875,-15.45,-8.05));
#1744=CARTESIAN_POINT('Origin',(-3.7,-15.05,-5.5));
#1745=CARTESIAN_POINT('',(-3.7,-11.25,-7.05));
#1746=CARTESIAN_POINT('',(-3.7,-12.95,-10.55));
#1747=CARTESIAN_POINT('',(-3.7,-11.308107661823,-7.16963342140025));
#1748=CARTESIAN_POINT('',(-3.7,-17.95,-10.55));
#1749=CARTESIAN_POINT('',(-3.7,-14.,-10.55));
#1750=CARTESIAN_POINT('',(-3.7,-18.85,-7.05));
#1751=CARTESIAN_POINT('',(-3.7,-18.469084992343,-8.53133614088822));
#1752=CARTESIAN_POINT('',(-3.7,-18.85,-0.449999999999999));
#1753=CARTESIAN_POINT('',(-3.7,-18.85,-6.275));
#1754=CARTESIAN_POINT('',(-3.7,-11.25,-0.449999999999999));
#1755=CARTESIAN_POINT('',(-3.7,-16.95,-0.45));
#1756=CARTESIAN_POINT('',(-3.7,-11.25,-2.975));
#1757=CARTESIAN_POINT('Origin',(-4.3,-18.85,-0.45));
#1758=CARTESIAN_POINT('',(16.4,-18.85,-0.449999999999999));
#1759=CARTESIAN_POINT('',(-4.3,-18.85,-0.45));
#1760=CARTESIAN_POINT('',(16.4,-11.25,-0.449999999999999));
#1761=CARTESIAN_POINT('',(16.4,-3.94999999999998,-0.45));
#1762=CARTESIAN_POINT('',(-4.3,-11.25,-0.45));
#1763=CARTESIAN_POINT('Origin',(-4.3,-11.25,-0.45));
#1764=CARTESIAN_POINT('',(16.4,-11.25,-7.05));
#1765=CARTESIAN_POINT('',(16.4,-11.25,-7.05));
#1766=CARTESIAN_POINT('',(-4.3,-11.25,-7.05));
#1767=CARTESIAN_POINT('Origin',(-4.3,-11.25,-7.05));
#1768=CARTESIAN_POINT('',(16.4,-12.95,-10.55));
#1769=CARTESIAN_POINT('',(16.4,-12.95,-10.55));
#1770=CARTESIAN_POINT('',(-4.3,-12.95,-10.55));
#1771=CARTESIAN_POINT('Origin',(-4.3,-18.85,-7.05));
#1772=CARTESIAN_POINT('',(16.4,-18.85,-7.05));
#1773=CARTESIAN_POINT('',(-4.3,-18.85,-7.05));
#1774=CARTESIAN_POINT('',(16.4,-18.85,-0.45));
#1775=CARTESIAN_POINT('Origin',(-4.3,-17.95,-10.55));
#1776=CARTESIAN_POINT('',(16.4,-17.95,-10.55));
#1777=CARTESIAN_POINT('',(-4.3,-17.95,-10.55));
#1778=CARTESIAN_POINT('',(16.4,-18.85,-7.05));
#1779=CARTESIAN_POINT('Origin',(-4.3,-12.95,-10.55));
#1780=CARTESIAN_POINT('',(16.4,-17.95,-10.55));
#1781=CARTESIAN_POINT('Origin',(16.4,-15.05,-5.5));
#1782=UNCERTAINTY_MEASURE_WITH_UNIT(LENGTH_MEASURE(0.01),#1786,
'DISTANCE_ACCURACY_VALUE',
'Maximum model space distance between geometric entities at asserted c
onnectivities');
#1783=UNCERTAINTY_MEASURE_WITH_UNIT(LENGTH_MEASURE(0.01),#1786,
'DISTANCE_ACCURACY_VALUE',
'Maximum model space distance between geometric entities at asserted c
onnectivities');
#1784=(
GEOMETRIC_REPRESENTATION_CONTEXT(3)
GLOBAL_UNCERTAINTY_ASSIGNED_CONTEXT((#1782))
GLOBAL_UNIT_ASSIGNED_CONTEXT((#1786,#1788,#1789))
REPRESENTATION_CONTEXT('','3D')
);
#1785=(
GEOMETRIC_REPRESENTATION_CONTEXT(3)
GLOBAL_UNCERTAINTY_ASSIGNED_CONTEXT((#1783))
GLOBAL_UNIT_ASSIGNED_CONTEXT((#1786,#1788,#1789))
REPRESENTATION_CONTEXT('','3D')
);
#1786=(
LENGTH_UNIT()
NAMED_UNIT(*)
SI_UNIT(.MILLI.,.METRE.)
);
#1787=(
LENGTH_UNIT()
NAMED_UNIT(*)
SI_UNIT($,.METRE.)
);
#1788=(
NAMED_UNIT(*)
PLANE_ANGLE_UNIT()
SI_UNIT($,.RADIAN.)
);
#1789=(
NAMED_UNIT(*)
SI_UNIT($,.STERADIAN.)
SOLID_ANGLE_UNIT()
);
#1790=SHAPE_DEFINITION_REPRESENTATION(#1791,#1792);
#1791=PRODUCT_DEFINITION_SHAPE('',$,#1794);
#1792=SHAPE_REPRESENTATION('',(#1102),#1784);
#1793=PRODUCT_DEFINITION_CONTEXT('part definition',#1798,'design');
#1794=PRODUCT_DEFINITION('W1209','W1209 v4',#1795,#1793);
#1795=PRODUCT_DEFINITION_FORMATION('',$,#1800);
#1796=PRODUCT_RELATED_PRODUCT_CATEGORY('W1209 v4','W1209 v4',(#1800));
#1797=APPLICATION_PROTOCOL_DEFINITION('international standard',
'automotive_design',2009,#1798);
#1798=APPLICATION_CONTEXT(
'Core Data for Automotive Mechanical Design Process');
#1799=PRODUCT_CONTEXT('part definition',#1798,'mechanical');
#1800=PRODUCT('W1209','W1209 v4',$,(#1799));
#1801=PRESENTATION_STYLE_ASSIGNMENT((#1806));
#1802=PRESENTATION_STYLE_ASSIGNMENT((#1807));
#1803=PRESENTATION_STYLE_ASSIGNMENT((#1808));
#1804=PRESENTATION_STYLE_ASSIGNMENT((#1809));
#1805=PRESENTATION_STYLE_ASSIGNMENT((#1810));
#1806=SURFACE_STYLE_USAGE(.BOTH.,#1811);
#1807=SURFACE_STYLE_USAGE(.BOTH.,#1812);
#1808=SURFACE_STYLE_USAGE(.BOTH.,#1813);
#1809=SURFACE_STYLE_USAGE(.BOTH.,#1814);
#1810=SURFACE_STYLE_USAGE(.BOTH.,#1815);
#1811=SURFACE_SIDE_STYLE('',(#1816));
#1812=SURFACE_SIDE_STYLE('',(#1817));
#1813=SURFACE_SIDE_STYLE('',(#1818));
#1814=SURFACE_SIDE_STYLE('',(#1819));
#1815=SURFACE_SIDE_STYLE('',(#1820));
#1816=SURFACE_STYLE_FILL_AREA(#1821);
#1817=SURFACE_STYLE_FILL_AREA(#1822);
#1818=SURFACE_STYLE_FILL_AREA(#1823);
#1819=SURFACE_STYLE_FILL_AREA(#1824);
#1820=SURFACE_STYLE_FILL_AREA(#1825);
#1821=FILL_AREA_STYLE('Steel - Satin',(#1826));
#1822=FILL_AREA_STYLE('FR4',(#1827));
#1823=FILL_AREA_STYLE('ABS (White)',(#1828));
#1824=FILL_AREA_STYLE('ABS (Black)',(#1829));
#1825=FILL_AREA_STYLE('ABS (White) (1)',(#1830));
#1826=FILL_AREA_STYLE_COLOUR('Steel - Satin',#1831);
#1827=FILL_AREA_STYLE_COLOUR('FR4',#1832);
#1828=FILL_AREA_STYLE_COLOUR('ABS (White)',#1833);
#1829=FILL_AREA_STYLE_COLOUR('ABS (Black)',#1834);
#1830=FILL_AREA_STYLE_COLOUR('ABS (White) (1)',#1835);
#1831=COLOUR_RGB('Steel - Satin',0.627450980392157,0.627450980392157,0.627450980392157);
#1832=COLOUR_RGB('FR4',0.266666666666667,0.466666666666667,0.4);
#1833=COLOUR_RGB('ABS (White)',0.964705882352941,0.964705882352941,0.952941176470588);
#1834=COLOUR_RGB('ABS (Black)',0.152941176470588,0.152941176470588,0.152941176470588);
#1835=COLOUR_RGB('ABS (White) (1)',0.243137254901961,0.517647058823529,
0.235294117647059);
ENDSEC;
END-ISO-10303-21;
