ISO-10303-21;
HEADER;
/* Generated by software containing ST-Developer
 * from STEP Tools, Inc. (www.steptools.com) 
 */

FILE_DESCRIPTION(
/* description */ ('',
'CAx-IF Rec.Pracs.---Representation and Presentation of Product Manufa
cturing Information (PMI)---4.0---2014-10-13'),
/* implementation_level */ '2;1');

FILE_NAME(
/* name */ 'Elegoo Mercury X Cure Station.step',
/* time_stamp */ '2025-02-16T19:08:55+01:00',
/* author */ (''),
/* organization */ (''),
/* preprocessor_version */ 'ST-DEVELOPER v20',
/* originating_system */ 'Autodesk Translation Framework v13.20.0.188',

/* authorisation */ '');

FILE_SCHEMA (('AP242_MANAGED_MODEL_BASED_3D_ENGINEERING_MIM_LF { 1 0 10303 442 1 1 4 }'));
ENDSEC;

DATA;
#10=MECHANICAL_DESIGN_GEOMETRIC_PRESENTATION_REPRESENTATION('',(#902,#903,
#904,#905,#906,#907,#908),#1614);
#11=SHAPE_REPRESENTATION_RELATIONSHIP('SRR','None',#1621,#12);
#12=ADVANCED_BREP_SHAPE_REPRESENTATION('',(#17,#18),#1613);
#13=CONICAL_SURFACE('',#1049,95.5945924499695,0.261799387799131);
#14=CONICAL_SURFACE('',#1055,17.5749999999982,0.0269165746683482);
#15=CONICAL_SURFACE('',#1059,20.425,0.0269165746680543);
#16=CONICAL_SURFACE('',#1063,97.7329954366657,0.261799387799224);
#17=MANIFOLD_SOLID_BREP('Main',#965);
#18=MANIFOLD_SOLID_BREP('Plate',#966);
#19=FACE_BOUND('',#128,.T.);
#20=FACE_BOUND('',#130,.T.);
#21=FACE_BOUND('',#149,.T.);
#22=FACE_BOUND('',#150,.T.);
#23=FACE_BOUND('',#171,.T.);
#24=FACE_BOUND('',#176,.T.);
#25=FACE_BOUND('',#183,.T.);
#26=FACE_BOUND('',#186,.T.);
#27=FACE_BOUND('',#189,.T.);
#28=PLANE('',#986);
#29=PLANE('',#987);
#30=PLANE('',#988);
#31=PLANE('',#989);
#32=PLANE('',#990);
#33=PLANE('',#991);
#34=PLANE('',#992);
#35=PLANE('',#993);
#36=PLANE('',#994);
#37=PLANE('',#995);
#38=PLANE('',#996);
#39=PLANE('',#997);
#40=PLANE('',#998);
#41=PLANE('',#999);
#42=PLANE('',#1000);
#43=PLANE('',#1001);
#44=PLANE('',#1002);
#45=PLANE('',#1003);
#46=PLANE('',#1004);
#47=PLANE('',#1005);
#48=PLANE('',#1010);
#49=PLANE('',#1011);
#50=PLANE('',#1012);
#51=PLANE('',#1013);
#52=PLANE('',#1014);
#53=PLANE('',#1018);
#54=PLANE('',#1019);
#55=PLANE('',#1022);
#56=PLANE('',#1025);
#57=PLANE('',#1028);
#58=PLANE('',#1031);
#59=PLANE('',#1035);
#60=PLANE('',#1039);
#61=PLANE('',#1043);
#62=PLANE('',#1047);
#63=PLANE('',#1048);
#64=PLANE('',#1052);
#65=PLANE('',#1053);
#66=PLANE('',#1057);
#67=PLANE('',#1061);
#68=PLANE('',#1065);
#69=FACE_OUTER_BOUND('',#125,.T.);
#70=FACE_OUTER_BOUND('',#126,.T.);
#71=FACE_OUTER_BOUND('',#127,.T.);
#72=FACE_OUTER_BOUND('',#129,.T.);
#73=FACE_OUTER_BOUND('',#131,.T.);
#74=FACE_OUTER_BOUND('',#132,.T.);
#75=FACE_OUTER_BOUND('',#133,.T.);
#76=FACE_OUTER_BOUND('',#134,.T.);
#77=FACE_OUTER_BOUND('',#135,.T.);
#78=FACE_OUTER_BOUND('',#136,.T.);
#79=FACE_OUTER_BOUND('',#137,.T.);
#80=FACE_OUTER_BOUND('',#138,.T.);
#81=FACE_OUTER_BOUND('',#139,.T.);
#82=FACE_OUTER_BOUND('',#140,.T.);
#83=FACE_OUTER_BOUND('',#141,.T.);
#84=FACE_OUTER_BOUND('',#142,.T.);
#85=FACE_OUTER_BOUND('',#143,.T.);
#86=FACE_OUTER_BOUND('',#144,.T.);
#87=FACE_OUTER_BOUND('',#145,.T.);
#88=FACE_OUTER_BOUND('',#146,.T.);
#89=FACE_OUTER_BOUND('',#147,.T.);
#90=FACE_OUTER_BOUND('',#148,.T.);
#91=FACE_OUTER_BOUND('',#151,.T.);
#92=FACE_OUTER_BOUND('',#152,.T.);
#93=FACE_OUTER_BOUND('',#153,.T.);
#94=FACE_OUTER_BOUND('',#154,.T.);
#95=FACE_OUTER_BOUND('',#155,.T.);
#96=FACE_OUTER_BOUND('',#156,.T.);
#97=FACE_OUTER_BOUND('',#157,.T.);
#98=FACE_OUTER_BOUND('',#158,.T.);
#99=FACE_OUTER_BOUND('',#159,.T.);
#100=FACE_OUTER_BOUND('',#160,.T.);
#101=FACE_OUTER_BOUND('',#161,.T.);
#102=FACE_OUTER_BOUND('',#162,.T.);
#103=FACE_OUTER_BOUND('',#163,.T.);
#104=FACE_OUTER_BOUND('',#164,.T.);
#105=FACE_OUTER_BOUND('',#165,.T.);
#106=FACE_OUTER_BOUND('',#166,.T.);
#107=FACE_OUTER_BOUND('',#167,.T.);
#108=FACE_OUTER_BOUND('',#168,.T.);
#109=FACE_OUTER_BOUND('',#169,.T.);
#110=FACE_OUTER_BOUND('',#170,.T.);
#111=FACE_OUTER_BOUND('',#172,.T.);
#112=FACE_OUTER_BOUND('',#173,.T.);
#113=FACE_OUTER_BOUND('',#174,.T.);
#114=FACE_OUTER_BOUND('',#175,.T.);
#115=FACE_OUTER_BOUND('',#177,.T.);
#116=FACE_OUTER_BOUND('',#178,.T.);
#117=FACE_OUTER_BOUND('',#179,.T.);
#118=FACE_OUTER_BOUND('',#180,.T.);
#119=FACE_OUTER_BOUND('',#181,.T.);
#120=FACE_OUTER_BOUND('',#182,.T.);
#121=FACE_OUTER_BOUND('',#184,.T.);
#122=FACE_OUTER_BOUND('',#185,.T.);
#123=FACE_OUTER_BOUND('',#187,.T.);
#124=FACE_OUTER_BOUND('',#188,.T.);
#125=EDGE_LOOP('',(#633,#634,#635,#636));
#126=EDGE_LOOP('',(#637,#638,#639,#640));
#127=EDGE_LOOP('',(#641));
#128=EDGE_LOOP('',(#642));
#129=EDGE_LOOP('',(#643,#644,#645,#646));
#130=EDGE_LOOP('',(#647));
#131=EDGE_LOOP('',(#648,#649,#650));
#132=EDGE_LOOP('',(#651,#652,#653));
#133=EDGE_LOOP('',(#654,#655,#656,#657));
#134=EDGE_LOOP('',(#658,#659,#660,#661));
#135=EDGE_LOOP('',(#662,#663,#664));
#136=EDGE_LOOP('',(#665,#666,#667));
#137=EDGE_LOOP('',(#668,#669,#670,#671));
#138=EDGE_LOOP('',(#672,#673,#674,#675));
#139=EDGE_LOOP('',(#676,#677,#678,#679,#680,#681,#682,#683,#684,#685,#686,
#687));
#140=EDGE_LOOP('',(#688,#689,#690,#691));
#141=EDGE_LOOP('',(#692,#693,#694,#695));
#142=EDGE_LOOP('',(#696,#697,#698));
#143=EDGE_LOOP('',(#699,#700,#701));
#144=EDGE_LOOP('',(#702,#703,#704,#705));
#145=EDGE_LOOP('',(#706,#707,#708,#709));
#146=EDGE_LOOP('',(#710,#711,#712));
#147=EDGE_LOOP('',(#713,#714,#715));
#148=EDGE_LOOP('',(#716,#717,#718,#719,#720,#721,#722,#723));
#149=EDGE_LOOP('',(#724,#725,#726,#727,#728,#729,#730,#731,#732,#733,#734,
#735));
#150=EDGE_LOOP('',(#736,#737,#738,#739,#740,#741,#742,#743,#744,#745,#746,
#747));
#151=EDGE_LOOP('',(#748,#749,#750,#751));
#152=EDGE_LOOP('',(#752,#753,#754,#755));
#153=EDGE_LOOP('',(#756,#757,#758,#759,#760,#761,#762,#763,#764,#765,#766,
#767));
#154=EDGE_LOOP('',(#768,#769,#770,#771));
#155=EDGE_LOOP('',(#772,#773,#774,#775));
#156=EDGE_LOOP('',(#776,#777,#778,#779));
#157=EDGE_LOOP('',(#780));
#158=EDGE_LOOP('',(#781,#782,#783,#784));
#159=EDGE_LOOP('',(#785,#786,#787,#788));
#160=EDGE_LOOP('',(#789,#790,#791,#792));
#161=EDGE_LOOP('',(#793,#794,#795,#796));
#162=EDGE_LOOP('',(#797,#798,#799,#800));
#163=EDGE_LOOP('',(#801,#802,#803,#804));
#164=EDGE_LOOP('',(#805,#806,#807,#808));
#165=EDGE_LOOP('',(#809,#810,#811,#812));
#166=EDGE_LOOP('',(#813));
#167=EDGE_LOOP('',(#814,#815,#816,#817));
#168=EDGE_LOOP('',(#818,#819,#820,#821));
#169=EDGE_LOOP('',(#822,#823,#824,#825));
#170=EDGE_LOOP('',(#826,#827,#828,#829));
#171=EDGE_LOOP('',(#830));
#172=EDGE_LOOP('',(#831,#832,#833,#834));
#173=EDGE_LOOP('',(#835,#836,#837,#838));
#174=EDGE_LOOP('',(#839,#840,#841,#842));
#175=EDGE_LOOP('',(#843,#844,#845,#846,#847,#848,#849,#850));
#176=EDGE_LOOP('',(#851,#852,#853,#854,#855,#856,#857,#858));
#177=EDGE_LOOP('',(#859,#860,#861,#862,#863,#864,#865,#866));
#178=EDGE_LOOP('',(#867,#868,#869,#870));
#179=EDGE_LOOP('',(#871));
#180=EDGE_LOOP('',(#872));
#181=EDGE_LOOP('',(#873,#874,#875,#876));
#182=EDGE_LOOP('',(#877));
#183=EDGE_LOOP('',(#878));
#184=EDGE_LOOP('',(#879,#880,#881,#882));
#185=EDGE_LOOP('',(#883));
#186=EDGE_LOOP('',(#884));
#187=EDGE_LOOP('',(#885,#886,#887,#888));
#188=EDGE_LOOP('',(#889));
#189=EDGE_LOOP('',(#890));
#190=LINE('',#1344,#289);
#191=LINE('',#1350,#290);
#192=LINE('',#1356,#291);
#193=LINE('',#1358,#292);
#194=LINE('',#1360,#293);
#195=LINE('',#1361,#294);
#196=LINE('',#1365,#295);
#197=LINE('',#1367,#296);
#198=LINE('',#1368,#297);
#199=LINE('',#1372,#298);
#200=LINE('',#1374,#299);
#201=LINE('',#1375,#300);
#202=LINE('',#1378,#301);
#203=LINE('',#1380,#302);
#204=LINE('',#1381,#303);
#205=LINE('',#1384,#304);
#206=LINE('',#1386,#305);
#207=LINE('',#1387,#306);
#208=LINE('',#1390,#307);
#209=LINE('',#1391,#308);
#210=LINE('',#1394,#309);
#211=LINE('',#1395,#310);
#212=LINE('',#1399,#311);
#213=LINE('',#1401,#312);
#214=LINE('',#1403,#313);
#215=LINE('',#1404,#314);
#216=LINE('',#1407,#315);
#217=LINE('',#1409,#316);
#218=LINE('',#1410,#317);
#219=LINE('',#1412,#318);
#220=LINE('',#1414,#319);
#221=LINE('',#1416,#320);
#222=LINE('',#1417,#321);
#223=LINE('',#1418,#322);
#224=LINE('',#1420,#323);
#225=LINE('',#1421,#324);
#226=LINE('',#1426,#325);
#227=LINE('',#1428,#326);
#228=LINE('',#1429,#327);
#229=LINE('',#1433,#328);
#230=LINE('',#1435,#329);
#231=LINE('',#1436,#330);
#232=LINE('',#1439,#331);
#233=LINE('',#1441,#332);
#234=LINE('',#1442,#333);
#235=LINE('',#1445,#334);
#236=LINE('',#1447,#335);
#237=LINE('',#1448,#336);
#238=LINE('',#1451,#337);
#239=LINE('',#1452,#338);
#240=LINE('',#1455,#339);
#241=LINE('',#1456,#340);
#242=LINE('',#1462,#341);
#243=LINE('',#1466,#342);
#244=LINE('',#1470,#343);
#245=LINE('',#1473,#344);
#246=LINE('',#1474,#345);
#247=LINE('',#1476,#346);
#248=LINE('',#1478,#347);
#249=LINE('',#1480,#348);
#250=LINE('',#1482,#349);
#251=LINE('',#1483,#350);
#252=LINE('',#1486,#351);
#253=LINE('',#1488,#352);
#254=LINE('',#1489,#353);
#255=LINE('',#1492,#354);
#256=LINE('',#1493,#355);
#257=LINE('',#1496,#356);
#258=LINE('',#1497,#357);
#259=LINE('',#1499,#358);
#260=LINE('',#1505,#359);
#261=LINE('',#1511,#360);
#262=LINE('',#1512,#361);
#263=LINE('',#1513,#362);
#264=LINE('',#1517,#363);
#265=LINE('',#1520,#364);
#266=LINE('',#1521,#365);
#267=LINE('',#1525,#366);
#268=LINE('',#1528,#367);
#269=LINE('',#1529,#368);
#270=LINE('',#1533,#369);
#271=LINE('',#1536,#370);
#272=LINE('',#1537,#371);
#273=LINE('',#1546,#372);
#274=LINE('',#1549,#373);
#275=LINE('',#1551,#374);
#276=LINE('',#1552,#375);
#277=LINE('',#1558,#376);
#278=LINE('',#1561,#377);
#279=LINE('',#1563,#378);
#280=LINE('',#1564,#379);
#281=LINE('',#1570,#380);
#282=LINE('',#1573,#381);
#283=LINE('',#1575,#382);
#284=LINE('',#1576,#383);
#285=LINE('',#1586,#384);
#286=LINE('',#1594,#385);
#287=LINE('',#1602,#386);
#288=LINE('',#1609,#387);
#289=VECTOR('',#1072,2.8);
#290=VECTOR('',#1079,6.25);
#291=VECTOR('',#1086,10.);
#292=VECTOR('',#1087,10.);
#293=VECTOR('',#1088,10.);
#294=VECTOR('',#1089,10.);
#295=VECTOR('',#1092,10.);
#296=VECTOR('',#1093,10.);
#297=VECTOR('',#1094,10.);
#298=VECTOR('',#1097,10.);
#299=VECTOR('',#1098,10.);
#300=VECTOR('',#1099,10.);
#301=VECTOR('',#1102,10.);
#302=VECTOR('',#1103,10.);
#303=VECTOR('',#1104,10.);
#304=VECTOR('',#1107,10.);
#305=VECTOR('',#1108,10.);
#306=VECTOR('',#1109,10.);
#307=VECTOR('',#1112,10.);
#308=VECTOR('',#1113,10.);
#309=VECTOR('',#1116,10.);
#310=VECTOR('',#1117,10.);
#311=VECTOR('',#1120,10.);
#312=VECTOR('',#1121,10.);
#313=VECTOR('',#1122,10.);
#314=VECTOR('',#1123,10.);
#315=VECTOR('',#1126,10.);
#316=VECTOR('',#1127,10.);
#317=VECTOR('',#1128,10.);
#318=VECTOR('',#1131,10.);
#319=VECTOR('',#1132,10.);
#320=VECTOR('',#1133,10.);
#321=VECTOR('',#1134,10.);
#322=VECTOR('',#1135,10.);
#323=VECTOR('',#1138,10.);
#324=VECTOR('',#1139,10.);
#325=VECTOR('',#1144,10.);
#326=VECTOR('',#1145,10.);
#327=VECTOR('',#1146,10.);
#328=VECTOR('',#1149,10.);
#329=VECTOR('',#1150,10.);
#330=VECTOR('',#1151,10.);
#331=VECTOR('',#1154,10.);
#332=VECTOR('',#1155,10.);
#333=VECTOR('',#1156,10.);
#334=VECTOR('',#1159,10.);
#335=VECTOR('',#1160,10.);
#336=VECTOR('',#1161,10.);
#337=VECTOR('',#1164,10.);
#338=VECTOR('',#1165,10.);
#339=VECTOR('',#1168,10.);
#340=VECTOR('',#1169,10.);
#341=VECTOR('',#1174,10.);
#342=VECTOR('',#1177,10.);
#343=VECTOR('',#1180,10.);
#344=VECTOR('',#1183,10.);
#345=VECTOR('',#1184,10.);
#346=VECTOR('',#1185,10.);
#347=VECTOR('',#1186,10.);
#348=VECTOR('',#1187,10.);
#349=VECTOR('',#1188,10.);
#350=VECTOR('',#1189,10.);
#351=VECTOR('',#1192,10.);
#352=VECTOR('',#1193,10.);
#353=VECTOR('',#1194,10.);
#354=VECTOR('',#1197,10.);
#355=VECTOR('',#1198,10.);
#356=VECTOR('',#1201,10.);
#357=VECTOR('',#1202,10.);
#358=VECTOR('',#1205,10.);
#359=VECTOR('',#1212,23.35);
#360=VECTOR('',#1219,10.);
#361=VECTOR('',#1220,10.);
#362=VECTOR('',#1221,10.);
#363=VECTOR('',#1226,10.);
#364=VECTOR('',#1229,10.);
#365=VECTOR('',#1230,10.);
#366=VECTOR('',#1235,10.);
#367=VECTOR('',#1238,10.);
#368=VECTOR('',#1239,10.);
#369=VECTOR('',#1244,10.);
#370=VECTOR('',#1247,10.);
#371=VECTOR('',#1248,10.);
#372=VECTOR('',#1261,10.);
#373=VECTOR('',#1264,10.);
#374=VECTOR('',#1265,10.);
#375=VECTOR('',#1266,10.);
#376=VECTOR('',#1273,10.);
#377=VECTOR('',#1276,10.);
#378=VECTOR('',#1277,10.);
#379=VECTOR('',#1278,10.);
#380=VECTOR('',#1285,10.);
#381=VECTOR('',#1288,10.);
#382=VECTOR('',#1289,10.);
#383=VECTOR('',#1290,10.);
#384=VECTOR('',#1305,95.5945924499695);
#385=VECTOR('',#1316,17.5749999999982);
#386=VECTOR('',#1327,20.425);
#387=VECTOR('',#1336,97.7329954366657);
#388=CIRCLE('',#981,2.8);
#389=CIRCLE('',#982,2.8);
#390=CIRCLE('',#984,6.25);
#391=CIRCLE('',#985,6.25);
#392=CIRCLE('',#1006,6.5);
#393=CIRCLE('',#1007,6.49999999999999);
#394=CIRCLE('',#1008,6.50000000000004);
#395=CIRCLE('',#1009,6.5);
#396=CIRCLE('',#1016,23.35);
#397=CIRCLE('',#1017,23.35);
#398=CIRCLE('',#1021,6.5);
#399=CIRCLE('',#1024,6.50000000000004);
#400=CIRCLE('',#1027,6.49999999999999);
#401=CIRCLE('',#1030,6.5);
#402=CIRCLE('',#1033,10.);
#403=CIRCLE('',#1034,10.);
#404=CIRCLE('',#1037,10.);
#405=CIRCLE('',#1038,10.);
#406=CIRCLE('',#1041,10.);
#407=CIRCLE('',#1042,10.);
#408=CIRCLE('',#1045,10.);
#409=CIRCLE('',#1046,10.);
#410=CIRCLE('',#1050,95.8082819309333);
#411=CIRCLE('',#1051,95.3809029690057);
#412=CIRCLE('',#1054,17.3999999999963);
#413=CIRCLE('',#1056,17.7500000000001);
#414=CIRCLE('',#1058,20.2500000000001);
#415=CIRCLE('',#1060,20.6);
#416=CIRCLE('',#1062,96.9659908733314);
#417=CIRCLE('',#1064,98.5);
#418=VERTEX_POINT('',#1341);
#419=VERTEX_POINT('',#1343);
#420=VERTEX_POINT('',#1347);
#421=VERTEX_POINT('',#1349);
#422=VERTEX_POINT('',#1354);
#423=VERTEX_POINT('',#1355);
#424=VERTEX_POINT('',#1357);
#425=VERTEX_POINT('',#1359);
#426=VERTEX_POINT('',#1363);
#427=VERTEX_POINT('',#1364);
#428=VERTEX_POINT('',#1366);
#429=VERTEX_POINT('',#1370);
#430=VERTEX_POINT('',#1371);
#431=VERTEX_POINT('',#1373);
#432=VERTEX_POINT('',#1377);
#433=VERTEX_POINT('',#1379);
#434=VERTEX_POINT('',#1383);
#435=VERTEX_POINT('',#1385);
#436=VERTEX_POINT('',#1389);
#437=VERTEX_POINT('',#1393);
#438=VERTEX_POINT('',#1397);
#439=VERTEX_POINT('',#1398);
#440=VERTEX_POINT('',#1400);
#441=VERTEX_POINT('',#1402);
#442=VERTEX_POINT('',#1406);
#443=VERTEX_POINT('',#1408);
#444=VERTEX_POINT('',#1413);
#445=VERTEX_POINT('',#1415);
#446=VERTEX_POINT('',#1424);
#447=VERTEX_POINT('',#1425);
#448=VERTEX_POINT('',#1427);
#449=VERTEX_POINT('',#1431);
#450=VERTEX_POINT('',#1432);
#451=VERTEX_POINT('',#1434);
#452=VERTEX_POINT('',#1438);
#453=VERTEX_POINT('',#1440);
#454=VERTEX_POINT('',#1444);
#455=VERTEX_POINT('',#1446);
#456=VERTEX_POINT('',#1450);
#457=VERTEX_POINT('',#1454);
#458=VERTEX_POINT('',#1458);
#459=VERTEX_POINT('',#1459);
#460=VERTEX_POINT('',#1461);
#461=VERTEX_POINT('',#1463);
#462=VERTEX_POINT('',#1465);
#463=VERTEX_POINT('',#1467);
#464=VERTEX_POINT('',#1469);
#465=VERTEX_POINT('',#1471);
#466=VERTEX_POINT('',#1475);
#467=VERTEX_POINT('',#1477);
#468=VERTEX_POINT('',#1479);
#469=VERTEX_POINT('',#1481);
#470=VERTEX_POINT('',#1485);
#471=VERTEX_POINT('',#1487);
#472=VERTEX_POINT('',#1491);
#473=VERTEX_POINT('',#1495);
#474=VERTEX_POINT('',#1502);
#475=VERTEX_POINT('',#1504);
#476=VERTEX_POINT('',#1509);
#477=VERTEX_POINT('',#1510);
#478=VERTEX_POINT('',#1515);
#479=VERTEX_POINT('',#1519);
#480=VERTEX_POINT('',#1523);
#481=VERTEX_POINT('',#1527);
#482=VERTEX_POINT('',#1531);
#483=VERTEX_POINT('',#1535);
#484=VERTEX_POINT('',#1542);
#485=VERTEX_POINT('',#1544);
#486=VERTEX_POINT('',#1548);
#487=VERTEX_POINT('',#1550);
#488=VERTEX_POINT('',#1554);
#489=VERTEX_POINT('',#1556);
#490=VERTEX_POINT('',#1560);
#491=VERTEX_POINT('',#1562);
#492=VERTEX_POINT('',#1566);
#493=VERTEX_POINT('',#1568);
#494=VERTEX_POINT('',#1572);
#495=VERTEX_POINT('',#1574);
#496=VERTEX_POINT('',#1583);
#497=VERTEX_POINT('',#1585);
#498=VERTEX_POINT('',#1590);
#499=VERTEX_POINT('',#1593);
#500=VERTEX_POINT('',#1597);
#501=VERTEX_POINT('',#1600);
#502=VERTEX_POINT('',#1604);
#503=VERTEX_POINT('',#1607);
#504=EDGE_CURVE('',#418,#418,#388,.T.);
#505=EDGE_CURVE('',#418,#419,#190,.T.);
#506=EDGE_CURVE('',#419,#419,#389,.T.);
#507=EDGE_CURVE('',#420,#420,#390,.T.);
#508=EDGE_CURVE('',#420,#421,#191,.T.);
#509=EDGE_CURVE('',#421,#421,#391,.T.);
#510=EDGE_CURVE('',#422,#423,#192,.T.);
#511=EDGE_CURVE('',#422,#424,#193,.T.);
#512=EDGE_CURVE('',#425,#424,#194,.T.);
#513=EDGE_CURVE('',#423,#425,#195,.T.);
#514=EDGE_CURVE('',#426,#427,#196,.T.);
#515=EDGE_CURVE('',#428,#427,#197,.T.);
#516=EDGE_CURVE('',#428,#426,#198,.T.);
#517=EDGE_CURVE('',#429,#430,#199,.T.);
#518=EDGE_CURVE('',#430,#431,#200,.T.);
#519=EDGE_CURVE('',#429,#431,#201,.T.);
#520=EDGE_CURVE('',#432,#428,#202,.T.);
#521=EDGE_CURVE('',#432,#433,#203,.T.);
#522=EDGE_CURVE('',#433,#426,#204,.T.);
#523=EDGE_CURVE('',#430,#434,#205,.T.);
#524=EDGE_CURVE('',#434,#435,#206,.T.);
#525=EDGE_CURVE('',#431,#435,#207,.T.);
#526=EDGE_CURVE('',#436,#433,#208,.T.);
#527=EDGE_CURVE('',#436,#432,#209,.T.);
#528=EDGE_CURVE('',#434,#437,#210,.T.);
#529=EDGE_CURVE('',#435,#437,#211,.T.);
#530=EDGE_CURVE('',#438,#439,#212,.T.);
#531=EDGE_CURVE('',#438,#440,#213,.T.);
#532=EDGE_CURVE('',#440,#441,#214,.T.);
#533=EDGE_CURVE('',#439,#441,#215,.T.);
#534=EDGE_CURVE('',#442,#438,#216,.T.);
#535=EDGE_CURVE('',#442,#443,#217,.T.);
#536=EDGE_CURVE('',#443,#440,#218,.T.);
#537=EDGE_CURVE('',#427,#429,#219,.T.);
#538=EDGE_CURVE('',#444,#436,#220,.T.);
#539=EDGE_CURVE('',#444,#445,#221,.T.);
#540=EDGE_CURVE('',#445,#443,#222,.T.);
#541=EDGE_CURVE('',#437,#442,#223,.T.);
#542=EDGE_CURVE('',#439,#444,#224,.T.);
#543=EDGE_CURVE('',#441,#445,#225,.T.);
#544=EDGE_CURVE('',#446,#447,#226,.T.);
#545=EDGE_CURVE('',#448,#446,#227,.T.);
#546=EDGE_CURVE('',#447,#448,#228,.T.);
#547=EDGE_CURVE('',#449,#450,#229,.T.);
#548=EDGE_CURVE('',#451,#449,#230,.T.);
#549=EDGE_CURVE('',#450,#451,#231,.T.);
#550=EDGE_CURVE('',#452,#446,#232,.T.);
#551=EDGE_CURVE('',#453,#452,#233,.T.);
#552=EDGE_CURVE('',#448,#453,#234,.T.);
#553=EDGE_CURVE('',#454,#451,#235,.T.);
#554=EDGE_CURVE('',#455,#454,#236,.T.);
#555=EDGE_CURVE('',#450,#455,#237,.T.);
#556=EDGE_CURVE('',#456,#452,#238,.T.);
#557=EDGE_CURVE('',#453,#456,#239,.T.);
#558=EDGE_CURVE('',#455,#457,#240,.T.);
#559=EDGE_CURVE('',#457,#454,#241,.T.);
#560=EDGE_CURVE('',#458,#459,#392,.T.);
#561=EDGE_CURVE('',#459,#460,#242,.T.);
#562=EDGE_CURVE('',#460,#461,#393,.T.);
#563=EDGE_CURVE('',#461,#462,#243,.T.);
#564=EDGE_CURVE('',#462,#463,#394,.T.);
#565=EDGE_CURVE('',#463,#464,#244,.T.);
#566=EDGE_CURVE('',#464,#465,#395,.T.);
#567=EDGE_CURVE('',#465,#458,#245,.T.);
#568=EDGE_CURVE('',#449,#447,#246,.T.);
#569=EDGE_CURVE('',#456,#466,#247,.T.);
#570=EDGE_CURVE('',#466,#467,#248,.T.);
#571=EDGE_CURVE('',#467,#468,#249,.T.);
#572=EDGE_CURVE('',#468,#469,#250,.T.);
#573=EDGE_CURVE('',#469,#457,#251,.T.);
#574=EDGE_CURVE('',#467,#470,#252,.T.);
#575=EDGE_CURVE('',#471,#470,#253,.T.);
#576=EDGE_CURVE('',#468,#471,#254,.T.);
#577=EDGE_CURVE('',#472,#471,#255,.T.);
#578=EDGE_CURVE('',#469,#472,#256,.T.);
#579=EDGE_CURVE('',#473,#472,#257,.T.);
#580=EDGE_CURVE('',#466,#473,#258,.T.);
#581=EDGE_CURVE('',#470,#473,#259,.T.);
#582=EDGE_CURVE('',#474,#474,#396,.T.);
#583=EDGE_CURVE('',#474,#475,#260,.T.);
#584=EDGE_CURVE('',#475,#475,#397,.T.);
#585=EDGE_CURVE('',#476,#477,#261,.T.);
#586=EDGE_CURVE('',#476,#458,#262,.T.);
#587=EDGE_CURVE('',#477,#465,#263,.T.);
#588=EDGE_CURVE('',#477,#478,#398,.T.);
#589=EDGE_CURVE('',#478,#464,#264,.T.);
#590=EDGE_CURVE('',#478,#479,#265,.T.);
#591=EDGE_CURVE('',#479,#463,#266,.T.);
#592=EDGE_CURVE('',#479,#480,#399,.T.);
#593=EDGE_CURVE('',#480,#462,#267,.T.);
#594=EDGE_CURVE('',#480,#481,#268,.T.);
#595=EDGE_CURVE('',#481,#461,#269,.T.);
#596=EDGE_CURVE('',#481,#482,#400,.T.);
#597=EDGE_CURVE('',#482,#460,#270,.T.);
#598=EDGE_CURVE('',#482,#483,#271,.T.);
#599=EDGE_CURVE('',#483,#459,#272,.T.);
#600=EDGE_CURVE('',#483,#476,#401,.T.);
#601=EDGE_CURVE('',#484,#423,#402,.T.);
#602=EDGE_CURVE('',#485,#425,#403,.T.);
#603=EDGE_CURVE('',#484,#485,#273,.T.);
#604=EDGE_CURVE('',#484,#486,#274,.T.);
#605=EDGE_CURVE('',#487,#485,#275,.T.);
#606=EDGE_CURVE('',#486,#487,#276,.T.);
#607=EDGE_CURVE('',#488,#486,#404,.T.);
#608=EDGE_CURVE('',#489,#487,#405,.T.);
#609=EDGE_CURVE('',#488,#489,#277,.T.);
#610=EDGE_CURVE('',#488,#490,#278,.T.);
#611=EDGE_CURVE('',#491,#489,#279,.T.);
#612=EDGE_CURVE('',#490,#491,#280,.T.);
#613=EDGE_CURVE('',#492,#490,#406,.T.);
#614=EDGE_CURVE('',#493,#491,#407,.T.);
#615=EDGE_CURVE('',#492,#493,#281,.T.);
#616=EDGE_CURVE('',#492,#494,#282,.T.);
#617=EDGE_CURVE('',#495,#493,#283,.T.);
#618=EDGE_CURVE('',#494,#495,#284,.T.);
#619=EDGE_CURVE('',#422,#494,#408,.T.);
#620=EDGE_CURVE('',#424,#495,#409,.T.);
#621=EDGE_CURVE('',#496,#496,#410,.T.);
#622=EDGE_CURVE('',#496,#497,#285,.T.);
#623=EDGE_CURVE('',#497,#497,#411,.T.);
#624=EDGE_CURVE('',#498,#498,#412,.T.);
#625=EDGE_CURVE('',#498,#499,#286,.T.);
#626=EDGE_CURVE('',#499,#499,#413,.T.);
#627=EDGE_CURVE('',#500,#500,#414,.T.);
#628=EDGE_CURVE('',#501,#501,#415,.T.);
#629=EDGE_CURVE('',#501,#500,#287,.T.);
#630=EDGE_CURVE('',#502,#502,#416,.T.);
#631=EDGE_CURVE('',#503,#503,#417,.T.);
#632=EDGE_CURVE('',#503,#502,#288,.T.);
#633=ORIENTED_EDGE('',*,*,#504,.F.);
#634=ORIENTED_EDGE('',*,*,#505,.T.);
#635=ORIENTED_EDGE('',*,*,#506,.F.);
#636=ORIENTED_EDGE('',*,*,#505,.F.);
#637=ORIENTED_EDGE('',*,*,#507,.F.);
#638=ORIENTED_EDGE('',*,*,#508,.T.);
#639=ORIENTED_EDGE('',*,*,#509,.F.);
#640=ORIENTED_EDGE('',*,*,#508,.F.);
#641=ORIENTED_EDGE('',*,*,#507,.T.);
#642=ORIENTED_EDGE('',*,*,#504,.T.);
#643=ORIENTED_EDGE('',*,*,#510,.F.);
#644=ORIENTED_EDGE('',*,*,#511,.T.);
#645=ORIENTED_EDGE('',*,*,#512,.F.);
#646=ORIENTED_EDGE('',*,*,#513,.F.);
#647=ORIENTED_EDGE('',*,*,#509,.T.);
#648=ORIENTED_EDGE('',*,*,#514,.T.);
#649=ORIENTED_EDGE('',*,*,#515,.F.);
#650=ORIENTED_EDGE('',*,*,#516,.T.);
#651=ORIENTED_EDGE('',*,*,#517,.T.);
#652=ORIENTED_EDGE('',*,*,#518,.T.);
#653=ORIENTED_EDGE('',*,*,#519,.F.);
#654=ORIENTED_EDGE('',*,*,#516,.F.);
#655=ORIENTED_EDGE('',*,*,#520,.F.);
#656=ORIENTED_EDGE('',*,*,#521,.T.);
#657=ORIENTED_EDGE('',*,*,#522,.T.);
#658=ORIENTED_EDGE('',*,*,#518,.F.);
#659=ORIENTED_EDGE('',*,*,#523,.T.);
#660=ORIENTED_EDGE('',*,*,#524,.T.);
#661=ORIENTED_EDGE('',*,*,#525,.F.);
#662=ORIENTED_EDGE('',*,*,#526,.T.);
#663=ORIENTED_EDGE('',*,*,#521,.F.);
#664=ORIENTED_EDGE('',*,*,#527,.F.);
#665=ORIENTED_EDGE('',*,*,#528,.T.);
#666=ORIENTED_EDGE('',*,*,#529,.F.);
#667=ORIENTED_EDGE('',*,*,#524,.F.);
#668=ORIENTED_EDGE('',*,*,#530,.F.);
#669=ORIENTED_EDGE('',*,*,#531,.T.);
#670=ORIENTED_EDGE('',*,*,#532,.T.);
#671=ORIENTED_EDGE('',*,*,#533,.F.);
#672=ORIENTED_EDGE('',*,*,#534,.F.);
#673=ORIENTED_EDGE('',*,*,#535,.T.);
#674=ORIENTED_EDGE('',*,*,#536,.T.);
#675=ORIENTED_EDGE('',*,*,#531,.F.);
#676=ORIENTED_EDGE('',*,*,#528,.F.);
#677=ORIENTED_EDGE('',*,*,#523,.F.);
#678=ORIENTED_EDGE('',*,*,#517,.F.);
#679=ORIENTED_EDGE('',*,*,#537,.F.);
#680=ORIENTED_EDGE('',*,*,#514,.F.);
#681=ORIENTED_EDGE('',*,*,#522,.F.);
#682=ORIENTED_EDGE('',*,*,#526,.F.);
#683=ORIENTED_EDGE('',*,*,#538,.F.);
#684=ORIENTED_EDGE('',*,*,#539,.T.);
#685=ORIENTED_EDGE('',*,*,#540,.T.);
#686=ORIENTED_EDGE('',*,*,#535,.F.);
#687=ORIENTED_EDGE('',*,*,#541,.F.);
#688=ORIENTED_EDGE('',*,*,#542,.F.);
#689=ORIENTED_EDGE('',*,*,#533,.T.);
#690=ORIENTED_EDGE('',*,*,#543,.T.);
#691=ORIENTED_EDGE('',*,*,#539,.F.);
#692=ORIENTED_EDGE('',*,*,#543,.F.);
#693=ORIENTED_EDGE('',*,*,#532,.F.);
#694=ORIENTED_EDGE('',*,*,#536,.F.);
#695=ORIENTED_EDGE('',*,*,#540,.F.);
#696=ORIENTED_EDGE('',*,*,#544,.F.);
#697=ORIENTED_EDGE('',*,*,#545,.F.);
#698=ORIENTED_EDGE('',*,*,#546,.F.);
#699=ORIENTED_EDGE('',*,*,#547,.F.);
#700=ORIENTED_EDGE('',*,*,#548,.F.);
#701=ORIENTED_EDGE('',*,*,#549,.F.);
#702=ORIENTED_EDGE('',*,*,#545,.T.);
#703=ORIENTED_EDGE('',*,*,#550,.F.);
#704=ORIENTED_EDGE('',*,*,#551,.F.);
#705=ORIENTED_EDGE('',*,*,#552,.F.);
#706=ORIENTED_EDGE('',*,*,#549,.T.);
#707=ORIENTED_EDGE('',*,*,#553,.F.);
#708=ORIENTED_EDGE('',*,*,#554,.F.);
#709=ORIENTED_EDGE('',*,*,#555,.F.);
#710=ORIENTED_EDGE('',*,*,#556,.F.);
#711=ORIENTED_EDGE('',*,*,#557,.F.);
#712=ORIENTED_EDGE('',*,*,#551,.T.);
#713=ORIENTED_EDGE('',*,*,#558,.F.);
#714=ORIENTED_EDGE('',*,*,#554,.T.);
#715=ORIENTED_EDGE('',*,*,#559,.F.);
#716=ORIENTED_EDGE('',*,*,#560,.T.);
#717=ORIENTED_EDGE('',*,*,#561,.T.);
#718=ORIENTED_EDGE('',*,*,#562,.T.);
#719=ORIENTED_EDGE('',*,*,#563,.T.);
#720=ORIENTED_EDGE('',*,*,#564,.T.);
#721=ORIENTED_EDGE('',*,*,#565,.T.);
#722=ORIENTED_EDGE('',*,*,#566,.T.);
#723=ORIENTED_EDGE('',*,*,#567,.T.);
#724=ORIENTED_EDGE('',*,*,#530,.T.);
#725=ORIENTED_EDGE('',*,*,#542,.T.);
#726=ORIENTED_EDGE('',*,*,#538,.T.);
#727=ORIENTED_EDGE('',*,*,#527,.T.);
#728=ORIENTED_EDGE('',*,*,#520,.T.);
#729=ORIENTED_EDGE('',*,*,#515,.T.);
#730=ORIENTED_EDGE('',*,*,#537,.T.);
#731=ORIENTED_EDGE('',*,*,#519,.T.);
#732=ORIENTED_EDGE('',*,*,#525,.T.);
#733=ORIENTED_EDGE('',*,*,#529,.T.);
#734=ORIENTED_EDGE('',*,*,#541,.T.);
#735=ORIENTED_EDGE('',*,*,#534,.T.);
#736=ORIENTED_EDGE('',*,*,#559,.T.);
#737=ORIENTED_EDGE('',*,*,#553,.T.);
#738=ORIENTED_EDGE('',*,*,#548,.T.);
#739=ORIENTED_EDGE('',*,*,#568,.T.);
#740=ORIENTED_EDGE('',*,*,#546,.T.);
#741=ORIENTED_EDGE('',*,*,#552,.T.);
#742=ORIENTED_EDGE('',*,*,#557,.T.);
#743=ORIENTED_EDGE('',*,*,#569,.T.);
#744=ORIENTED_EDGE('',*,*,#570,.T.);
#745=ORIENTED_EDGE('',*,*,#571,.T.);
#746=ORIENTED_EDGE('',*,*,#572,.T.);
#747=ORIENTED_EDGE('',*,*,#573,.T.);
#748=ORIENTED_EDGE('',*,*,#571,.F.);
#749=ORIENTED_EDGE('',*,*,#574,.T.);
#750=ORIENTED_EDGE('',*,*,#575,.F.);
#751=ORIENTED_EDGE('',*,*,#576,.F.);
#752=ORIENTED_EDGE('',*,*,#572,.F.);
#753=ORIENTED_EDGE('',*,*,#576,.T.);
#754=ORIENTED_EDGE('',*,*,#577,.F.);
#755=ORIENTED_EDGE('',*,*,#578,.F.);
#756=ORIENTED_EDGE('',*,*,#558,.T.);
#757=ORIENTED_EDGE('',*,*,#573,.F.);
#758=ORIENTED_EDGE('',*,*,#578,.T.);
#759=ORIENTED_EDGE('',*,*,#579,.F.);
#760=ORIENTED_EDGE('',*,*,#580,.F.);
#761=ORIENTED_EDGE('',*,*,#569,.F.);
#762=ORIENTED_EDGE('',*,*,#556,.T.);
#763=ORIENTED_EDGE('',*,*,#550,.T.);
#764=ORIENTED_EDGE('',*,*,#544,.T.);
#765=ORIENTED_EDGE('',*,*,#568,.F.);
#766=ORIENTED_EDGE('',*,*,#547,.T.);
#767=ORIENTED_EDGE('',*,*,#555,.T.);
#768=ORIENTED_EDGE('',*,*,#570,.F.);
#769=ORIENTED_EDGE('',*,*,#580,.T.);
#770=ORIENTED_EDGE('',*,*,#581,.F.);
#771=ORIENTED_EDGE('',*,*,#574,.F.);
#772=ORIENTED_EDGE('',*,*,#581,.T.);
#773=ORIENTED_EDGE('',*,*,#579,.T.);
#774=ORIENTED_EDGE('',*,*,#577,.T.);
#775=ORIENTED_EDGE('',*,*,#575,.T.);
#776=ORIENTED_EDGE('',*,*,#582,.F.);
#777=ORIENTED_EDGE('',*,*,#583,.T.);
#778=ORIENTED_EDGE('',*,*,#584,.F.);
#779=ORIENTED_EDGE('',*,*,#583,.F.);
#780=ORIENTED_EDGE('',*,*,#582,.T.);
#781=ORIENTED_EDGE('',*,*,#585,.F.);
#782=ORIENTED_EDGE('',*,*,#586,.T.);
#783=ORIENTED_EDGE('',*,*,#567,.F.);
#784=ORIENTED_EDGE('',*,*,#587,.F.);
#785=ORIENTED_EDGE('',*,*,#588,.F.);
#786=ORIENTED_EDGE('',*,*,#587,.T.);
#787=ORIENTED_EDGE('',*,*,#566,.F.);
#788=ORIENTED_EDGE('',*,*,#589,.F.);
#789=ORIENTED_EDGE('',*,*,#590,.F.);
#790=ORIENTED_EDGE('',*,*,#589,.T.);
#791=ORIENTED_EDGE('',*,*,#565,.F.);
#792=ORIENTED_EDGE('',*,*,#591,.F.);
#793=ORIENTED_EDGE('',*,*,#592,.F.);
#794=ORIENTED_EDGE('',*,*,#591,.T.);
#795=ORIENTED_EDGE('',*,*,#564,.F.);
#796=ORIENTED_EDGE('',*,*,#593,.F.);
#797=ORIENTED_EDGE('',*,*,#594,.F.);
#798=ORIENTED_EDGE('',*,*,#593,.T.);
#799=ORIENTED_EDGE('',*,*,#563,.F.);
#800=ORIENTED_EDGE('',*,*,#595,.F.);
#801=ORIENTED_EDGE('',*,*,#596,.F.);
#802=ORIENTED_EDGE('',*,*,#595,.T.);
#803=ORIENTED_EDGE('',*,*,#562,.F.);
#804=ORIENTED_EDGE('',*,*,#597,.F.);
#805=ORIENTED_EDGE('',*,*,#598,.F.);
#806=ORIENTED_EDGE('',*,*,#597,.T.);
#807=ORIENTED_EDGE('',*,*,#561,.F.);
#808=ORIENTED_EDGE('',*,*,#599,.F.);
#809=ORIENTED_EDGE('',*,*,#600,.F.);
#810=ORIENTED_EDGE('',*,*,#599,.T.);
#811=ORIENTED_EDGE('',*,*,#560,.F.);
#812=ORIENTED_EDGE('',*,*,#586,.F.);
#813=ORIENTED_EDGE('',*,*,#506,.T.);
#814=ORIENTED_EDGE('',*,*,#601,.T.);
#815=ORIENTED_EDGE('',*,*,#513,.T.);
#816=ORIENTED_EDGE('',*,*,#602,.F.);
#817=ORIENTED_EDGE('',*,*,#603,.F.);
#818=ORIENTED_EDGE('',*,*,#604,.F.);
#819=ORIENTED_EDGE('',*,*,#603,.T.);
#820=ORIENTED_EDGE('',*,*,#605,.F.);
#821=ORIENTED_EDGE('',*,*,#606,.F.);
#822=ORIENTED_EDGE('',*,*,#607,.T.);
#823=ORIENTED_EDGE('',*,*,#606,.T.);
#824=ORIENTED_EDGE('',*,*,#608,.F.);
#825=ORIENTED_EDGE('',*,*,#609,.F.);
#826=ORIENTED_EDGE('',*,*,#610,.F.);
#827=ORIENTED_EDGE('',*,*,#609,.T.);
#828=ORIENTED_EDGE('',*,*,#611,.F.);
#829=ORIENTED_EDGE('',*,*,#612,.F.);
#830=ORIENTED_EDGE('',*,*,#584,.T.);
#831=ORIENTED_EDGE('',*,*,#613,.T.);
#832=ORIENTED_EDGE('',*,*,#612,.T.);
#833=ORIENTED_EDGE('',*,*,#614,.F.);
#834=ORIENTED_EDGE('',*,*,#615,.F.);
#835=ORIENTED_EDGE('',*,*,#616,.F.);
#836=ORIENTED_EDGE('',*,*,#615,.T.);
#837=ORIENTED_EDGE('',*,*,#617,.F.);
#838=ORIENTED_EDGE('',*,*,#618,.F.);
#839=ORIENTED_EDGE('',*,*,#619,.T.);
#840=ORIENTED_EDGE('',*,*,#618,.T.);
#841=ORIENTED_EDGE('',*,*,#620,.F.);
#842=ORIENTED_EDGE('',*,*,#511,.F.);
#843=ORIENTED_EDGE('',*,*,#620,.T.);
#844=ORIENTED_EDGE('',*,*,#617,.T.);
#845=ORIENTED_EDGE('',*,*,#614,.T.);
#846=ORIENTED_EDGE('',*,*,#611,.T.);
#847=ORIENTED_EDGE('',*,*,#608,.T.);
#848=ORIENTED_EDGE('',*,*,#605,.T.);
#849=ORIENTED_EDGE('',*,*,#602,.T.);
#850=ORIENTED_EDGE('',*,*,#512,.T.);
#851=ORIENTED_EDGE('',*,*,#585,.T.);
#852=ORIENTED_EDGE('',*,*,#588,.T.);
#853=ORIENTED_EDGE('',*,*,#590,.T.);
#854=ORIENTED_EDGE('',*,*,#592,.T.);
#855=ORIENTED_EDGE('',*,*,#594,.T.);
#856=ORIENTED_EDGE('',*,*,#596,.T.);
#857=ORIENTED_EDGE('',*,*,#598,.T.);
#858=ORIENTED_EDGE('',*,*,#600,.T.);
#859=ORIENTED_EDGE('',*,*,#619,.F.);
#860=ORIENTED_EDGE('',*,*,#510,.T.);
#861=ORIENTED_EDGE('',*,*,#601,.F.);
#862=ORIENTED_EDGE('',*,*,#604,.T.);
#863=ORIENTED_EDGE('',*,*,#607,.F.);
#864=ORIENTED_EDGE('',*,*,#610,.T.);
#865=ORIENTED_EDGE('',*,*,#613,.F.);
#866=ORIENTED_EDGE('',*,*,#616,.T.);
#867=ORIENTED_EDGE('',*,*,#621,.T.);
#868=ORIENTED_EDGE('',*,*,#622,.T.);
#869=ORIENTED_EDGE('',*,*,#623,.F.);
#870=ORIENTED_EDGE('',*,*,#622,.F.);
#871=ORIENTED_EDGE('',*,*,#623,.T.);
#872=ORIENTED_EDGE('',*,*,#624,.F.);
#873=ORIENTED_EDGE('',*,*,#624,.T.);
#874=ORIENTED_EDGE('',*,*,#625,.T.);
#875=ORIENTED_EDGE('',*,*,#626,.F.);
#876=ORIENTED_EDGE('',*,*,#625,.F.);
#877=ORIENTED_EDGE('',*,*,#627,.F.);
#878=ORIENTED_EDGE('',*,*,#626,.T.);
#879=ORIENTED_EDGE('',*,*,#628,.F.);
#880=ORIENTED_EDGE('',*,*,#629,.T.);
#881=ORIENTED_EDGE('',*,*,#627,.T.);
#882=ORIENTED_EDGE('',*,*,#629,.F.);
#883=ORIENTED_EDGE('',*,*,#630,.F.);
#884=ORIENTED_EDGE('',*,*,#628,.T.);
#885=ORIENTED_EDGE('',*,*,#631,.F.);
#886=ORIENTED_EDGE('',*,*,#632,.T.);
#887=ORIENTED_EDGE('',*,*,#630,.T.);
#888=ORIENTED_EDGE('',*,*,#632,.F.);
#889=ORIENTED_EDGE('',*,*,#631,.T.);
#890=ORIENTED_EDGE('',*,*,#621,.F.);
#891=CYLINDRICAL_SURFACE('',#980,2.8);
#892=CYLINDRICAL_SURFACE('',#983,6.25);
#893=CYLINDRICAL_SURFACE('',#1015,23.35);
#894=CYLINDRICAL_SURFACE('',#1020,6.5);
#895=CYLINDRICAL_SURFACE('',#1023,6.50000000000004);
#896=CYLINDRICAL_SURFACE('',#1026,6.49999999999999);
#897=CYLINDRICAL_SURFACE('',#1029,6.5);
#898=CYLINDRICAL_SURFACE('',#1032,10.);
#899=CYLINDRICAL_SURFACE('',#1036,10.);
#900=CYLINDRICAL_SURFACE('',#1040,10.);
#901=CYLINDRICAL_SURFACE('',#1044,10.);
#902=STYLED_ITEM('',(#1632),#909);
#903=STYLED_ITEM('',(#1632),#910);
#904=STYLED_ITEM('',(#1632),#911);
#905=STYLED_ITEM('',(#1632),#936);
#906=STYLED_ITEM('',(#1633),#937);
#907=STYLED_ITEM('',(#1631),#17);
#908=STYLED_ITEM('',(#1634),#18);
#909=ADVANCED_FACE('',(#69),#891,.F.);
#910=ADVANCED_FACE('',(#70),#892,.T.);
#911=ADVANCED_FACE('',(#71,#19),#28,.T.);
#912=ADVANCED_FACE('',(#72,#20),#29,.T.);
#913=ADVANCED_FACE('',(#73),#30,.T.);
#914=ADVANCED_FACE('',(#74),#31,.T.);
#915=ADVANCED_FACE('',(#75),#32,.F.);
#916=ADVANCED_FACE('',(#76),#33,.F.);
#917=ADVANCED_FACE('',(#77),#34,.F.);
#918=ADVANCED_FACE('',(#78),#35,.F.);
#919=ADVANCED_FACE('',(#79),#36,.F.);
#920=ADVANCED_FACE('',(#80),#37,.F.);
#921=ADVANCED_FACE('',(#81),#38,.F.);
#922=ADVANCED_FACE('',(#82),#39,.F.);
#923=ADVANCED_FACE('',(#83),#40,.F.);
#924=ADVANCED_FACE('',(#84),#41,.F.);
#925=ADVANCED_FACE('',(#85),#42,.F.);
#926=ADVANCED_FACE('',(#86),#43,.T.);
#927=ADVANCED_FACE('',(#87),#44,.T.);
#928=ADVANCED_FACE('',(#88),#45,.T.);
#929=ADVANCED_FACE('',(#89),#46,.T.);
#930=ADVANCED_FACE('',(#90,#21,#22),#47,.T.);
#931=ADVANCED_FACE('',(#91),#48,.T.);
#932=ADVANCED_FACE('',(#92),#49,.T.);
#933=ADVANCED_FACE('',(#93),#50,.T.);
#934=ADVANCED_FACE('',(#94),#51,.T.);
#935=ADVANCED_FACE('',(#95),#52,.T.);
#936=ADVANCED_FACE('',(#96),#893,.T.);
#937=ADVANCED_FACE('',(#97),#53,.T.);
#938=ADVANCED_FACE('',(#98),#54,.T.);
#939=ADVANCED_FACE('',(#99),#894,.T.);
#940=ADVANCED_FACE('',(#100),#55,.T.);
#941=ADVANCED_FACE('',(#101),#895,.T.);
#942=ADVANCED_FACE('',(#102),#56,.T.);
#943=ADVANCED_FACE('',(#103),#896,.T.);
#944=ADVANCED_FACE('',(#104),#57,.T.);
#945=ADVANCED_FACE('',(#105),#897,.T.);
#946=ADVANCED_FACE('',(#106),#58,.T.);
#947=ADVANCED_FACE('',(#107),#898,.T.);
#948=ADVANCED_FACE('',(#108),#59,.T.);
#949=ADVANCED_FACE('',(#109),#899,.T.);
#950=ADVANCED_FACE('',(#110,#23),#60,.T.);
#951=ADVANCED_FACE('',(#111),#900,.T.);
#952=ADVANCED_FACE('',(#112),#61,.T.);
#953=ADVANCED_FACE('',(#113),#901,.T.);
#954=ADVANCED_FACE('',(#114,#24),#62,.T.);
#955=ADVANCED_FACE('',(#115),#63,.F.);
#956=ADVANCED_FACE('',(#116),#13,.F.);
#957=ADVANCED_FACE('',(#117),#64,.T.);
#958=ADVANCED_FACE('',(#118),#65,.T.);
#959=ADVANCED_FACE('',(#119),#14,.F.);
#960=ADVANCED_FACE('',(#120,#25),#66,.T.);
#961=ADVANCED_FACE('',(#121),#15,.T.);
#962=ADVANCED_FACE('',(#122,#26),#67,.T.);
#963=ADVANCED_FACE('',(#123),#16,.T.);
#964=ADVANCED_FACE('',(#124,#27),#68,.T.);
#965=CLOSED_SHELL('',(#909,#910,#911,#912,#913,#914,#915,#916,#917,#918,
#919,#920,#921,#922,#923,#924,#925,#926,#927,#928,#929,#930,#931,#932,#933,
#934,#935,#936,#937,#938,#939,#940,#941,#942,#943,#944,#945,#946,#947,#948,
#949,#950,#951,#952,#953,#954,#955));
#966=CLOSED_SHELL('',(#956,#957,#958,#959,#960,#961,#962,#963,#964));
#967=DERIVED_UNIT_ELEMENT(#969,1.);
#968=DERIVED_UNIT_ELEMENT(#1616,-3.);
#969=(
MASS_UNIT()
NAMED_UNIT(*)
SI_UNIT(.KILO.,.GRAM.)
);
#970=DERIVED_UNIT((#967,#968));
#971=MEASURE_REPRESENTATION_ITEM('density measure',
POSITIVE_RATIO_MEASURE(7850.),#970);
#972=PROPERTY_DEFINITION_REPRESENTATION(#977,#974);
#973=PROPERTY_DEFINITION_REPRESENTATION(#978,#975);
#974=REPRESENTATION('material name',(#976),#1613);
#975=REPRESENTATION('density',(#971),#1613);
#976=DESCRIPTIVE_REPRESENTATION_ITEM('Steel','Steel');
#977=PROPERTY_DEFINITION('material property','material name',#1623);
#978=PROPERTY_DEFINITION('material property','density of part',#1623);
#979=AXIS2_PLACEMENT_3D('',#1339,#1066,#1067);
#980=AXIS2_PLACEMENT_3D('',#1340,#1068,#1069);
#981=AXIS2_PLACEMENT_3D('',#1342,#1070,#1071);
#982=AXIS2_PLACEMENT_3D('',#1345,#1073,#1074);
#983=AXIS2_PLACEMENT_3D('',#1346,#1075,#1076);
#984=AXIS2_PLACEMENT_3D('',#1348,#1077,#1078);
#985=AXIS2_PLACEMENT_3D('',#1351,#1080,#1081);
#986=AXIS2_PLACEMENT_3D('',#1352,#1082,#1083);
#987=AXIS2_PLACEMENT_3D('',#1353,#1084,#1085);
#988=AXIS2_PLACEMENT_3D('',#1362,#1090,#1091);
#989=AXIS2_PLACEMENT_3D('',#1369,#1095,#1096);
#990=AXIS2_PLACEMENT_3D('',#1376,#1100,#1101);
#991=AXIS2_PLACEMENT_3D('',#1382,#1105,#1106);
#992=AXIS2_PLACEMENT_3D('',#1388,#1110,#1111);
#993=AXIS2_PLACEMENT_3D('',#1392,#1114,#1115);
#994=AXIS2_PLACEMENT_3D('',#1396,#1118,#1119);
#995=AXIS2_PLACEMENT_3D('',#1405,#1124,#1125);
#996=AXIS2_PLACEMENT_3D('',#1411,#1129,#1130);
#997=AXIS2_PLACEMENT_3D('',#1419,#1136,#1137);
#998=AXIS2_PLACEMENT_3D('',#1422,#1140,#1141);
#999=AXIS2_PLACEMENT_3D('',#1423,#1142,#1143);
#1000=AXIS2_PLACEMENT_3D('',#1430,#1147,#1148);
#1001=AXIS2_PLACEMENT_3D('',#1437,#1152,#1153);
#1002=AXIS2_PLACEMENT_3D('',#1443,#1157,#1158);
#1003=AXIS2_PLACEMENT_3D('',#1449,#1162,#1163);
#1004=AXIS2_PLACEMENT_3D('',#1453,#1166,#1167);
#1005=AXIS2_PLACEMENT_3D('',#1457,#1170,#1171);
#1006=AXIS2_PLACEMENT_3D('',#1460,#1172,#1173);
#1007=AXIS2_PLACEMENT_3D('',#1464,#1175,#1176);
#1008=AXIS2_PLACEMENT_3D('',#1468,#1178,#1179);
#1009=AXIS2_PLACEMENT_3D('',#1472,#1181,#1182);
#1010=AXIS2_PLACEMENT_3D('',#1484,#1190,#1191);
#1011=AXIS2_PLACEMENT_3D('',#1490,#1195,#1196);
#1012=AXIS2_PLACEMENT_3D('',#1494,#1199,#1200);
#1013=AXIS2_PLACEMENT_3D('',#1498,#1203,#1204);
#1014=AXIS2_PLACEMENT_3D('',#1500,#1206,#1207);
#1015=AXIS2_PLACEMENT_3D('',#1501,#1208,#1209);
#1016=AXIS2_PLACEMENT_3D('',#1503,#1210,#1211);
#1017=AXIS2_PLACEMENT_3D('',#1506,#1213,#1214);
#1018=AXIS2_PLACEMENT_3D('',#1507,#1215,#1216);
#1019=AXIS2_PLACEMENT_3D('',#1508,#1217,#1218);
#1020=AXIS2_PLACEMENT_3D('',#1514,#1222,#1223);
#1021=AXIS2_PLACEMENT_3D('',#1516,#1224,#1225);
#1022=AXIS2_PLACEMENT_3D('',#1518,#1227,#1228);
#1023=AXIS2_PLACEMENT_3D('',#1522,#1231,#1232);
#1024=AXIS2_PLACEMENT_3D('',#1524,#1233,#1234);
#1025=AXIS2_PLACEMENT_3D('',#1526,#1236,#1237);
#1026=AXIS2_PLACEMENT_3D('',#1530,#1240,#1241);
#1027=AXIS2_PLACEMENT_3D('',#1532,#1242,#1243);
#1028=AXIS2_PLACEMENT_3D('',#1534,#1245,#1246);
#1029=AXIS2_PLACEMENT_3D('',#1538,#1249,#1250);
#1030=AXIS2_PLACEMENT_3D('',#1539,#1251,#1252);
#1031=AXIS2_PLACEMENT_3D('',#1540,#1253,#1254);
#1032=AXIS2_PLACEMENT_3D('',#1541,#1255,#1256);
#1033=AXIS2_PLACEMENT_3D('',#1543,#1257,#1258);
#1034=AXIS2_PLACEMENT_3D('',#1545,#1259,#1260);
#1035=AXIS2_PLACEMENT_3D('',#1547,#1262,#1263);
#1036=AXIS2_PLACEMENT_3D('',#1553,#1267,#1268);
#1037=AXIS2_PLACEMENT_3D('',#1555,#1269,#1270);
#1038=AXIS2_PLACEMENT_3D('',#1557,#1271,#1272);
#1039=AXIS2_PLACEMENT_3D('',#1559,#1274,#1275);
#1040=AXIS2_PLACEMENT_3D('',#1565,#1279,#1280);
#1041=AXIS2_PLACEMENT_3D('',#1567,#1281,#1282);
#1042=AXIS2_PLACEMENT_3D('',#1569,#1283,#1284);
#1043=AXIS2_PLACEMENT_3D('',#1571,#1286,#1287);
#1044=AXIS2_PLACEMENT_3D('',#1577,#1291,#1292);
#1045=AXIS2_PLACEMENT_3D('',#1578,#1293,#1294);
#1046=AXIS2_PLACEMENT_3D('',#1579,#1295,#1296);
#1047=AXIS2_PLACEMENT_3D('',#1580,#1297,#1298);
#1048=AXIS2_PLACEMENT_3D('',#1581,#1299,#1300);
#1049=AXIS2_PLACEMENT_3D('',#1582,#1301,#1302);
#1050=AXIS2_PLACEMENT_3D('',#1584,#1303,#1304);
#1051=AXIS2_PLACEMENT_3D('',#1587,#1306,#1307);
#1052=AXIS2_PLACEMENT_3D('',#1588,#1308,#1309);
#1053=AXIS2_PLACEMENT_3D('',#1589,#1310,#1311);
#1054=AXIS2_PLACEMENT_3D('',#1591,#1312,#1313);
#1055=AXIS2_PLACEMENT_3D('',#1592,#1314,#1315);
#1056=AXIS2_PLACEMENT_3D('',#1595,#1317,#1318);
#1057=AXIS2_PLACEMENT_3D('',#1596,#1319,#1320);
#1058=AXIS2_PLACEMENT_3D('',#1598,#1321,#1322);
#1059=AXIS2_PLACEMENT_3D('',#1599,#1323,#1324);
#1060=AXIS2_PLACEMENT_3D('',#1601,#1325,#1326);
#1061=AXIS2_PLACEMENT_3D('',#1603,#1328,#1329);
#1062=AXIS2_PLACEMENT_3D('',#1605,#1330,#1331);
#1063=AXIS2_PLACEMENT_3D('',#1606,#1332,#1333);
#1064=AXIS2_PLACEMENT_3D('',#1608,#1334,#1335);
#1065=AXIS2_PLACEMENT_3D('',#1610,#1337,#1338);
#1066=DIRECTION('axis',(0.,0.,1.));
#1067=DIRECTION('refdir',(1.,0.,0.));
#1068=DIRECTION('center_axis',(0.,1.,0.));
#1069=DIRECTION('ref_axis',(-1.,0.,0.));
#1070=DIRECTION('center_axis',(0.,-1.,0.));
#1071=DIRECTION('ref_axis',(-1.,0.,0.));
#1072=DIRECTION('',(0.,-1.,0.));
#1073=DIRECTION('center_axis',(0.,1.,0.));
#1074=DIRECTION('ref_axis',(-1.,0.,0.));
#1075=DIRECTION('center_axis',(0.,1.,0.));
#1076=DIRECTION('ref_axis',(-1.,0.,0.));
#1077=DIRECTION('center_axis',(0.,1.,0.));
#1078=DIRECTION('ref_axis',(-1.,0.,0.));
#1079=DIRECTION('',(0.,-1.,0.));
#1080=DIRECTION('center_axis',(0.,-1.,0.));
#1081=DIRECTION('ref_axis',(-1.,0.,0.));
#1082=DIRECTION('center_axis',(0.,1.,0.));
#1083=DIRECTION('ref_axis',(-1.,0.,0.));
#1084=DIRECTION('center_axis',(0.,1.,0.));
#1085=DIRECTION('ref_axis',(-1.,0.,0.));
#1086=DIRECTION('',(1.,0.,0.));
#1087=DIRECTION('',(0.,0.,1.));
#1088=DIRECTION('',(-1.,0.,0.));
#1089=DIRECTION('',(0.,0.,1.));
#1090=DIRECTION('center_axis',(0.669130606358821,-0.743144825477428,0.));
#1091=DIRECTION('ref_axis',(0.,0.,-1.));
#1092=DIRECTION('',(0.,0.,-1.));
#1093=DIRECTION('',(-0.743144825477427,-0.669130606358821,0.));
#1094=DIRECTION('',(-0.161521683241134,-0.145434776832097,0.976093987037493));
#1095=DIRECTION('center_axis',(-0.669130606358821,0.743144825477428,0.));
#1096=DIRECTION('ref_axis',(0.,0.,1.));
#1097=DIRECTION('',(0.,0.,1.));
#1098=DIRECTION('',(0.161521683241134,0.145434776832097,-0.976093987037493));
#1099=DIRECTION('',(0.743144825477427,0.669130606358821,0.));
#1100=DIRECTION('center_axis',(-0.725379195646544,-0.653134361409597,-0.217348863510373));
#1101=DIRECTION('ref_axis',(0.161521683241134,0.145434776832097,-0.976093987037493));
#1102=DIRECTION('',(0.669130606358821,-0.743144825477428,0.));
#1103=DIRECTION('',(-0.161521683241134,-0.145434776832097,0.976093987037493));
#1104=DIRECTION('',(0.669130606358859,-0.743144825477394,-2.28584035589423E-13));
#1105=DIRECTION('center_axis',(-0.725379195646544,-0.653134361409597,-0.217348863510373));
#1106=DIRECTION('ref_axis',(0.161521683241134,0.145434776832097,-0.976093987037493));
#1107=DIRECTION('',(0.669130606358859,-0.743144825477394,-2.28584035589423E-13));
#1108=DIRECTION('',(0.161521683241134,0.145434776832097,-0.976093987037493));
#1109=DIRECTION('',(0.669130606358821,-0.743144825477428,0.));
#1110=DIRECTION('center_axis',(0.669130606358821,-0.743144825477428,0.));
#1111=DIRECTION('ref_axis',(0.,0.,-1.));
#1112=DIRECTION('',(0.,0.,1.));
#1113=DIRECTION('',(0.743144825477428,0.669130606358821,0.));
#1114=DIRECTION('center_axis',(-0.669130606358821,0.743144825477428,0.));
#1115=DIRECTION('ref_axis',(0.,0.,1.));
#1116=DIRECTION('',(0.,0.,-1.));
#1117=DIRECTION('',(-0.743144825477428,-0.669130606358821,0.));
#1118=DIRECTION('center_axis',(0.743144825477394,0.669130606358859,0.));
#1119=DIRECTION('ref_axis',(-0.669130606358859,0.743144825477394,0.));
#1120=DIRECTION('',(-0.669130606358859,0.743144825477394,0.));
#1121=DIRECTION('',(0.,0.,1.));
#1122=DIRECTION('',(-0.669130606358859,0.743144825477394,0.));
#1123=DIRECTION('',(0.,0.,1.));
#1124=DIRECTION('center_axis',(-0.681951741292078,0.731397171548197,0.));
#1125=DIRECTION('ref_axis',(-0.731397171548197,-0.681951741292078,0.));
#1126=DIRECTION('',(-0.731397171548197,-0.681951741292078,0.));
#1127=DIRECTION('',(0.,0.,1.));
#1128=DIRECTION('',(-0.731397171548197,-0.681951741292078,0.));
#1129=DIRECTION('center_axis',(-0.743144825477394,-0.669130606358859,0.));
#1130=DIRECTION('ref_axis',(0.669130606358859,-0.743144825477394,0.));
#1131=DIRECTION('',(0.669130606358859,-0.743144825477394,0.));
#1132=DIRECTION('',(0.669130606358859,-0.743144825477394,0.));
#1133=DIRECTION('',(0.,0.,1.));
#1134=DIRECTION('',(0.669130606358859,-0.743144825477394,0.));
#1135=DIRECTION('',(0.669130606358859,-0.743144825477394,0.));
#1136=DIRECTION('center_axis',(0.656107133775069,-0.7546677606798,0.));
#1137=DIRECTION('ref_axis',(0.7546677606798,0.656107133775069,0.));
#1138=DIRECTION('',(0.7546677606798,0.656107133775069,0.));
#1139=DIRECTION('',(0.7546677606798,0.656107133775069,0.));
#1140=DIRECTION('center_axis',(0.,0.,-1.));
#1141=DIRECTION('ref_axis',(-1.,0.,0.));
#1142=DIRECTION('center_axis',(0.669130606358821,0.743144825477428,0.));
#1143=DIRECTION('ref_axis',(0.,0.,-1.));
#1144=DIRECTION('',(0.,0.,-1.));
#1145=DIRECTION('',(0.161521683241134,-0.145434776832097,0.976093987037493));
#1146=DIRECTION('',(-0.743144825477428,0.669130606358821,0.));
#1147=DIRECTION('center_axis',(-0.669130606358821,-0.743144825477428,0.));
#1148=DIRECTION('ref_axis',(0.,0.,1.));
#1149=DIRECTION('',(0.,0.,1.));
#1150=DIRECTION('',(0.743144825477428,-0.669130606358821,0.));
#1151=DIRECTION('',(-0.161521683241134,0.145434776832097,-0.976093987037493));
#1152=DIRECTION('center_axis',(-0.725379195646544,0.653134361409597,0.217348863510373));
#1153=DIRECTION('ref_axis',(-0.161521683241134,0.145434776832097,-0.976093987037493));
#1154=DIRECTION('',(-0.669130606358859,-0.743144825477394,-2.28584035589423E-13));
#1155=DIRECTION('',(0.161521683241134,-0.145434776832097,0.976093987037493));
#1156=DIRECTION('',(0.669130606358821,0.743144825477428,0.));
#1157=DIRECTION('center_axis',(-0.725379195646544,0.653134361409597,0.217348863510373));
#1158=DIRECTION('ref_axis',(-0.161521683241134,0.145434776832097,-0.976093987037493));
#1159=DIRECTION('',(0.669130606358821,0.743144825477428,0.));
#1160=DIRECTION('',(-0.161521683241134,0.145434776832097,-0.976093987037493));
#1161=DIRECTION('',(-0.669130606358859,-0.743144825477394,-2.28584035589423E-13));
#1162=DIRECTION('center_axis',(0.669130606358821,0.743144825477428,0.));
#1163=DIRECTION('ref_axis',(0.,0.,-1.));
#1164=DIRECTION('',(0.,0.,1.));
#1165=DIRECTION('',(0.743144825477428,-0.669130606358821,0.));
#1166=DIRECTION('center_axis',(-0.669130606358821,-0.743144825477428,0.));
#1167=DIRECTION('ref_axis',(0.,0.,1.));
#1168=DIRECTION('',(0.,0.,-1.));
#1169=DIRECTION('',(-0.743144825477428,0.669130606358821,0.));
#1170=DIRECTION('center_axis',(0.,0.,1.));
#1171=DIRECTION('ref_axis',(-1.,0.,0.));
#1172=DIRECTION('center_axis',(0.,0.,1.));
#1173=DIRECTION('ref_axis',(-1.,0.,0.));
#1174=DIRECTION('',(1.,1.57199720300907E-16,0.));
#1175=DIRECTION('center_axis',(0.,0.,1.));
#1176=DIRECTION('ref_axis',(0.,-1.,0.));
#1177=DIRECTION('',(1.69176841847643E-16,1.,0.));
#1178=DIRECTION('center_axis',(0.,0.,1.));
#1179=DIRECTION('ref_axis',(1.,0.,0.));
#1180=DIRECTION('',(-1.,0.,0.));
#1181=DIRECTION('center_axis',(0.,0.,1.));
#1182=DIRECTION('ref_axis',(0.,1.,0.));
#1183=DIRECTION('',(8.45884209238214E-17,-1.,0.));
#1184=DIRECTION('',(0.669130606358821,0.743144825477427,0.));
#1185=DIRECTION('',(0.669130606358859,0.743144825477394,0.));
#1186=DIRECTION('',(0.7546677606798,-0.656107133775069,0.));
#1187=DIRECTION('',(-0.669130606358859,-0.743144825477394,0.));
#1188=DIRECTION('',(-0.731397171548197,0.681951741292078,0.));
#1189=DIRECTION('',(0.669130606358859,0.743144825477394,0.));
#1190=DIRECTION('center_axis',(0.743144825477394,-0.669130606358859,0.));
#1191=DIRECTION('ref_axis',(0.669130606358859,0.743144825477394,0.));
#1192=DIRECTION('',(0.,0.,1.));
#1193=DIRECTION('',(0.669130606358859,0.743144825477394,0.));
#1194=DIRECTION('',(0.,0.,1.));
#1195=DIRECTION('center_axis',(-0.681951741292078,-0.731397171548197,0.));
#1196=DIRECTION('ref_axis',(0.731397171548197,-0.681951741292078,0.));
#1197=DIRECTION('',(0.731397171548197,-0.681951741292078,0.));
#1198=DIRECTION('',(0.,0.,1.));
#1199=DIRECTION('center_axis',(-0.743144825477394,0.669130606358859,0.));
#1200=DIRECTION('ref_axis',(-0.669130606358859,-0.743144825477394,0.));
#1201=DIRECTION('',(-0.669130606358859,-0.743144825477394,0.));
#1202=DIRECTION('',(0.,0.,1.));
#1203=DIRECTION('center_axis',(0.656107133775069,0.7546677606798,0.));
#1204=DIRECTION('ref_axis',(-0.7546677606798,0.656107133775069,0.));
#1205=DIRECTION('',(-0.7546677606798,0.656107133775069,0.));
#1206=DIRECTION('center_axis',(0.,0.,1.));
#1207=DIRECTION('ref_axis',(1.,0.,0.));
#1208=DIRECTION('center_axis',(0.,-1.,0.));
#1209=DIRECTION('ref_axis',(1.,0.,0.));
#1210=DIRECTION('center_axis',(0.,-1.,0.));
#1211=DIRECTION('ref_axis',(1.,0.,0.));
#1212=DIRECTION('',(0.,1.,0.));
#1213=DIRECTION('center_axis',(0.,1.,0.));
#1214=DIRECTION('ref_axis',(1.,0.,0.));
#1215=DIRECTION('center_axis',(0.,-1.,0.));
#1216=DIRECTION('ref_axis',(1.,0.,0.));
#1217=DIRECTION('center_axis',(-1.,-8.45884209238214E-17,0.));
#1218=DIRECTION('ref_axis',(8.45884209238214E-17,-1.,0.));
#1219=DIRECTION('',(-8.45884209238214E-17,1.,0.));
#1220=DIRECTION('',(0.,0.,1.));
#1221=DIRECTION('',(0.,0.,1.));
#1222=DIRECTION('center_axis',(0.,0.,1.));
#1223=DIRECTION('ref_axis',(0.,1.,0.));
#1224=DIRECTION('center_axis',(0.,0.,-1.));
#1225=DIRECTION('ref_axis',(0.,1.,0.));
#1226=DIRECTION('',(0.,0.,1.));
#1227=DIRECTION('center_axis',(0.,1.,0.));
#1228=DIRECTION('ref_axis',(-1.,0.,0.));
#1229=DIRECTION('',(1.,0.,0.));
#1230=DIRECTION('',(0.,0.,1.));
#1231=DIRECTION('center_axis',(0.,0.,1.));
#1232=DIRECTION('ref_axis',(1.,0.,0.));
#1233=DIRECTION('center_axis',(0.,0.,-1.));
#1234=DIRECTION('ref_axis',(1.,0.,0.));
#1235=DIRECTION('',(0.,0.,1.));
#1236=DIRECTION('center_axis',(1.,-1.69176841847643E-16,0.));
#1237=DIRECTION('ref_axis',(1.69176841847643E-16,1.,0.));
#1238=DIRECTION('',(-1.69176841847643E-16,-1.,0.));
#1239=DIRECTION('',(0.,0.,1.));
#1240=DIRECTION('center_axis',(0.,0.,1.));
#1241=DIRECTION('ref_axis',(0.,-1.,0.));
#1242=DIRECTION('center_axis',(0.,0.,-1.));
#1243=DIRECTION('ref_axis',(0.,-1.,0.));
#1244=DIRECTION('',(0.,0.,1.));
#1245=DIRECTION('center_axis',(1.57199720300907E-16,-1.,0.));
#1246=DIRECTION('ref_axis',(1.,1.57199720300907E-16,0.));
#1247=DIRECTION('',(-1.,-1.57199720300907E-16,0.));
#1248=DIRECTION('',(0.,0.,1.));
#1249=DIRECTION('center_axis',(0.,0.,1.));
#1250=DIRECTION('ref_axis',(-1.,0.,0.));
#1251=DIRECTION('center_axis',(0.,0.,-1.));
#1252=DIRECTION('ref_axis',(-1.,0.,0.));
#1253=DIRECTION('center_axis',(0.,1.,0.));
#1254=DIRECTION('ref_axis',(-1.,0.,0.));
#1255=DIRECTION('center_axis',(0.,0.,1.));
#1256=DIRECTION('ref_axis',(1.,0.,0.));
#1257=DIRECTION('center_axis',(0.,0.,1.));
#1258=DIRECTION('ref_axis',(1.,0.,0.));
#1259=DIRECTION('center_axis',(0.,0.,1.));
#1260=DIRECTION('ref_axis',(1.,0.,0.));
#1261=DIRECTION('',(0.,0.,1.));
#1262=DIRECTION('center_axis',(1.,0.,0.));
#1263=DIRECTION('ref_axis',(0.,1.,0.));
#1264=DIRECTION('',(0.,-1.,0.));
#1265=DIRECTION('',(0.,1.,0.));
#1266=DIRECTION('',(0.,0.,1.));
#1267=DIRECTION('center_axis',(0.,0.,1.));
#1268=DIRECTION('ref_axis',(0.,-1.,0.));
#1269=DIRECTION('center_axis',(0.,0.,1.));
#1270=DIRECTION('ref_axis',(0.,-1.,0.));
#1271=DIRECTION('center_axis',(0.,0.,1.));
#1272=DIRECTION('ref_axis',(0.,-1.,0.));
#1273=DIRECTION('',(0.,0.,1.));
#1274=DIRECTION('center_axis',(0.,-1.,0.));
#1275=DIRECTION('ref_axis',(1.,0.,0.));
#1276=DIRECTION('',(-1.,0.,0.));
#1277=DIRECTION('',(1.,0.,0.));
#1278=DIRECTION('',(0.,0.,1.));
#1279=DIRECTION('center_axis',(0.,0.,1.));
#1280=DIRECTION('ref_axis',(-1.,0.,0.));
#1281=DIRECTION('center_axis',(0.,0.,1.));
#1282=DIRECTION('ref_axis',(-1.,0.,0.));
#1283=DIRECTION('center_axis',(0.,0.,1.));
#1284=DIRECTION('ref_axis',(-1.,0.,0.));
#1285=DIRECTION('',(0.,0.,1.));
#1286=DIRECTION('center_axis',(-1.,0.,0.));
#1287=DIRECTION('ref_axis',(0.,-1.,0.));
#1288=DIRECTION('',(0.,1.,0.));
#1289=DIRECTION('',(0.,-1.,0.));
#1290=DIRECTION('',(0.,0.,1.));
#1291=DIRECTION('center_axis',(0.,0.,1.));
#1292=DIRECTION('ref_axis',(0.,1.,0.));
#1293=DIRECTION('center_axis',(0.,0.,1.));
#1294=DIRECTION('ref_axis',(0.,1.,0.));
#1295=DIRECTION('center_axis',(0.,0.,1.));
#1296=DIRECTION('ref_axis',(0.,1.,0.));
#1297=DIRECTION('center_axis',(0.,0.,1.));
#1298=DIRECTION('ref_axis',(1.,0.,0.));
#1299=DIRECTION('center_axis',(0.,0.,1.));
#1300=DIRECTION('ref_axis',(1.,0.,0.));
#1301=DIRECTION('center_axis',(4.30110614866888E-15,0.,1.));
#1302=DIRECTION('ref_axis',(1.,0.,-4.30032193854635E-15));
#1303=DIRECTION('center_axis',(4.30110614866888E-15,0.,1.));
#1304=DIRECTION('ref_axis',(1.,0.,-4.30110614866889E-15));
#1305=DIRECTION('',(0.258819045102499,3.16961915143155E-17,-0.965925826289074));
#1306=DIRECTION('center_axis',(4.30110614866888E-15,0.,1.));
#1307=DIRECTION('ref_axis',(1.,0.,-4.30110614866889E-15));
#1308=DIRECTION('center_axis',(4.30110614866888E-15,0.,1.));
#1309=DIRECTION('ref_axis',(1.,0.,-4.30110614866888E-15));
#1310=DIRECTION('center_axis',(-4.30110614866888E-15,0.,-1.));
#1311=DIRECTION('ref_axis',(-1.,0.,4.30110614866888E-15));
#1312=DIRECTION('center_axis',(4.30110614866888E-15,0.,1.));
#1313=DIRECTION('ref_axis',(1.,0.,-4.30110614866889E-15));
#1314=DIRECTION('center_axis',(-4.30110614866888E-15,0.,-1.));
#1315=DIRECTION('ref_axis',(1.,0.,-4.30032193854635E-15));
#1316=DIRECTION('',(-0.0269133246007618,-3.29593168267314E-18,-0.999637770874497));
#1317=DIRECTION('center_axis',(4.30110614866888E-15,0.,1.));
#1318=DIRECTION('ref_axis',(1.,0.,-4.30110614866889E-15));
#1319=DIRECTION('center_axis',(-4.30110614866888E-15,0.,-1.));
#1320=DIRECTION('ref_axis',(-1.,0.,4.30110614866888E-15));
#1321=DIRECTION('center_axis',(4.30110614866888E-15,0.,1.));
#1322=DIRECTION('ref_axis',(1.,0.,-4.30110614866888E-15));
#1323=DIRECTION('center_axis',(4.30110614866888E-15,0.,1.));
#1324=DIRECTION('ref_axis',(1.,0.,-4.30032193854635E-15));
#1325=DIRECTION('center_axis',(4.30110614866888E-15,0.,1.));
#1326=DIRECTION('ref_axis',(1.,0.,-4.30110614866888E-15));
#1327=DIRECTION('',(0.0269133246004594,3.29593168263716E-18,-0.999637770874506));
#1328=DIRECTION('center_axis',(-4.30110614866888E-15,0.,-1.));
#1329=DIRECTION('ref_axis',(-1.,0.,4.30110614866888E-15));
#1330=DIRECTION('center_axis',(4.30110614866888E-15,0.,1.));
#1331=DIRECTION('ref_axis',(1.,0.,-4.30110614866888E-15));
#1332=DIRECTION('center_axis',(4.30110614866888E-15,0.,1.));
#1333=DIRECTION('ref_axis',(1.,0.,-4.30032193854635E-15));
#1334=DIRECTION('center_axis',(4.30110614866888E-15,0.,1.));
#1335=DIRECTION('ref_axis',(1.,0.,-4.30110614866888E-15));
#1336=DIRECTION('',(0.258819045102589,3.16961915143265E-17,-0.96592582628905));
#1337=DIRECTION('center_axis',(4.30110614866888E-15,0.,1.));
#1338=DIRECTION('ref_axis',(1.,0.,-4.30110614866888E-15));
#1339=CARTESIAN_POINT('',(0.,0.,0.));
#1340=CARTESIAN_POINT('Origin',(-62.75,115.,39.95));
#1341=CARTESIAN_POINT('',(-59.95,117.1,39.95));
#1342=CARTESIAN_POINT('Origin',(-62.75,117.1,39.95));
#1343=CARTESIAN_POINT('',(-59.95,115.,39.95));
#1344=CARTESIAN_POINT('',(-59.95,115.,39.95));
#1345=CARTESIAN_POINT('Origin',(-62.75,115.,39.95));
#1346=CARTESIAN_POINT('Origin',(-62.75,115.,39.95));
#1347=CARTESIAN_POINT('',(-56.5,117.1,39.95));
#1348=CARTESIAN_POINT('Origin',(-62.75,117.1,39.95));
#1349=CARTESIAN_POINT('',(-56.5,115.,39.95));
#1350=CARTESIAN_POINT('',(-56.5,115.,39.95));
#1351=CARTESIAN_POINT('Origin',(-62.75,115.,39.95));
#1352=CARTESIAN_POINT('Origin',(-62.75,117.1,39.95));
#1353=CARTESIAN_POINT('Origin',(113.,115.,0.));
#1354=CARTESIAN_POINT('',(-113.,115.,0.));
#1355=CARTESIAN_POINT('',(113.,115.,0.));
#1356=CARTESIAN_POINT('',(-113.,115.,0.));
#1357=CARTESIAN_POINT('',(-113.,115.,81.5));
#1358=CARTESIAN_POINT('',(-113.,115.,0.));
#1359=CARTESIAN_POINT('',(113.,115.,81.5));
#1360=CARTESIAN_POINT('',(-113.,115.,81.5));
#1361=CARTESIAN_POINT('',(113.,115.,0.));
#1362=CARTESIAN_POINT('Origin',(91.3821393647672,100.767739721981,110.2));
#1363=CARTESIAN_POINT('',(87.2948428246413,97.0875213870075,134.9));
#1364=CARTESIAN_POINT('',(87.2948428246413,97.0875213870075,85.5));
#1365=CARTESIAN_POINT('',(87.2948428246413,97.0875213870075,85.5));
#1366=CARTESIAN_POINT('',(95.469435904893,104.447958056955,85.5));
#1367=CARTESIAN_POINT('',(41.0946649990256,55.4886944255479,85.5));
#1368=CARTESIAN_POINT('',(89.3384910947042,98.9276305544943,122.55));
#1369=CARTESIAN_POINT('Origin',(108.444969826917,81.8175466723066,110.2));
#1370=CARTESIAN_POINT('',(104.357673286791,78.1373283373331,85.5));
#1371=CARTESIAN_POINT('',(104.357673286791,78.1373283373331,134.9));
#1372=CARTESIAN_POINT('',(104.357673286791,78.1373283373331,85.5));
#1373=CARTESIAN_POINT('',(112.532266367043,85.4977650072802,85.5));
#1374=CARTESIAN_POINT('',(106.401321556854,79.9774375048198,122.55));
#1375=CARTESIAN_POINT('',(58.1574954611756,36.5385013758735,85.5));
#1376=CARTESIAN_POINT('Origin',(95.8262580557163,87.6124248621703,134.9));
#1377=CARTESIAN_POINT('',(94.2984573437651,105.74846150154,85.5));
#1378=CARTESIAN_POINT('',(104.331548203789,94.6055852299785,85.5));
#1379=CARTESIAN_POINT('',(86.1238642635134,98.388024831593,134.9));
#1380=CARTESIAN_POINT('',(86.1238642635134,98.388024831593,134.9));
#1381=CARTESIAN_POINT('',(90.3393870835763,93.7062124310806,134.900000000006));
#1382=CARTESIAN_POINT('Origin',(95.8262580557163,87.6124248621703,134.9));
#1383=CARTESIAN_POINT('',(105.528651847919,76.8368248927476,134.9));
#1384=CARTESIAN_POINT('',(90.3393870835763,93.7062124310806,134.900000000006));
#1385=CARTESIAN_POINT('',(113.703244928171,84.1972615626946,85.5));
#1386=CARTESIAN_POINT('',(105.528651847919,76.8368248927476,134.9));
#1387=CARTESIAN_POINT('',(104.331548203789,94.6055852299785,85.5));
#1388=CARTESIAN_POINT('Origin',(90.2111608036392,102.068243166567,110.2));
#1389=CARTESIAN_POINT('',(86.1238642635134,98.388024831593,85.5));
#1390=CARTESIAN_POINT('',(86.1238642635122,98.3880248315919,97.85));
#1391=CARTESIAN_POINT('',(39.9236864378977,56.7891978701334,85.5));
#1392=CARTESIAN_POINT('Origin',(109.615948388045,80.5170432277211,110.2));
#1393=CARTESIAN_POINT('',(105.528651847919,76.8368248927476,85.5));
#1394=CARTESIAN_POINT('',(105.528651847919,76.8368248927475,97.85));
#1395=CARTESIAN_POINT('',(59.3284740223035,35.237997931288,85.5));
#1396=CARTESIAN_POINT('Origin',(89.9753212565627,59.7375878478976,85.5));
#1397=CARTESIAN_POINT('',(89.9753212565627,59.7375878478976,85.5));
#1398=CARTESIAN_POINT('',(67.4925328829051,84.7072539839381,85.5));
#1399=CARTESIAN_POINT('',(84.6853212309675,65.6127280797705,85.5));
#1400=CARTESIAN_POINT('',(89.9753212565627,59.7375878478976,310.5));
#1401=CARTESIAN_POINT('',(89.9753212565627,59.7375878478976,85.5));
#1402=CARTESIAN_POINT('',(67.4925328829051,84.7072539839381,310.5));
#1403=CARTESIAN_POINT('',(67.4925328829051,84.7072539839381,310.5));
#1404=CARTESIAN_POINT('',(67.4925328829051,84.7072539839381,85.5));
#1405=CARTESIAN_POINT('Origin',(106.8,75.4248497243414,85.5));
#1406=CARTESIAN_POINT('',(106.8,75.4248497243414,85.5));
#1407=CARTESIAN_POINT('',(59.4239948665847,31.2516556609761,85.5));
#1408=CARTESIAN_POINT('',(106.8,75.4248497243414,310.5));
#1409=CARTESIAN_POINT('',(106.8,75.4248497243414,85.5));
#1410=CARTESIAN_POINT('',(89.9753212565627,59.7375878478976,310.5));
#1411=CARTESIAN_POINT('Origin',(84.8525161114295,99.8,85.5));
#1412=CARTESIAN_POINT('',(90.6700841513909,93.3389361289485,85.5));
#1413=CARTESIAN_POINT('',(84.8525161114295,99.8,85.5));
#1414=CARTESIAN_POINT('',(90.6700841513909,93.3389361289485,85.5));
#1415=CARTESIAN_POINT('',(84.8525161114295,99.8,310.5));
#1416=CARTESIAN_POINT('',(84.8525161114295,99.8,85.5));
#1417=CARTESIAN_POINT('',(106.8,75.4248497243414,310.5));
#1418=CARTESIAN_POINT('',(90.6700841513909,93.3389361289485,85.5));
#1419=CARTESIAN_POINT('Origin',(67.4925328829051,84.7072539839381,85.5));
#1420=CARTESIAN_POINT('',(27.3021457487738,49.7657855897773,85.5));
#1421=CARTESIAN_POINT('',(84.8525161114295,99.8,310.5));
#1422=CARTESIAN_POINT('Origin',(87.1462664414526,79.7687939239488,310.5));
#1423=CARTESIAN_POINT('Origin',(-91.3821393647672,100.767739721981,110.2));
#1424=CARTESIAN_POINT('',(-87.2948428246413,97.0875213870075,134.9));
#1425=CARTESIAN_POINT('',(-87.2948428246413,97.0875213870075,85.5));
#1426=CARTESIAN_POINT('',(-87.2948428246413,97.0875213870075,85.5));
#1427=CARTESIAN_POINT('',(-95.469435904893,104.447958056955,85.5));
#1428=CARTESIAN_POINT('',(-89.3384910947042,98.9276305544943,122.55));
#1429=CARTESIAN_POINT('',(-95.469435904893,104.447958056955,85.5));
#1430=CARTESIAN_POINT('Origin',(-108.444969826917,81.8175466723066,110.2));
#1431=CARTESIAN_POINT('',(-104.357673286791,78.1373283373331,85.5));
#1432=CARTESIAN_POINT('',(-104.357673286791,78.1373283373331,134.9));
#1433=CARTESIAN_POINT('',(-104.357673286791,78.1373283373331,85.5));
#1434=CARTESIAN_POINT('',(-112.532266367043,85.4977650072802,85.5));
#1435=CARTESIAN_POINT('',(-112.532266367043,85.4977650072802,85.5));
#1436=CARTESIAN_POINT('',(-106.401321556854,79.9774375048198,122.55));
#1437=CARTESIAN_POINT('Origin',(-95.8262580557163,87.6124248621703,134.9));
#1438=CARTESIAN_POINT('',(-86.1238642635134,98.388024831593,134.9));
#1439=CARTESIAN_POINT('',(-90.3393870835763,93.7062124310806,134.900000000006));
#1440=CARTESIAN_POINT('',(-94.2984573437651,105.74846150154,85.5));
#1441=CARTESIAN_POINT('',(-86.1238642635134,98.388024831593,134.9));
#1442=CARTESIAN_POINT('',(-104.331548203789,94.6055852299785,85.5));
#1443=CARTESIAN_POINT('Origin',(-95.8262580557163,87.6124248621703,134.9));
#1444=CARTESIAN_POINT('',(-113.703244928171,84.1972615626946,85.5));
#1445=CARTESIAN_POINT('',(-104.331548203789,94.6055852299785,85.5));
#1446=CARTESIAN_POINT('',(-105.528651847919,76.8368248927476,134.9));
#1447=CARTESIAN_POINT('',(-105.528651847919,76.8368248927476,134.9));
#1448=CARTESIAN_POINT('',(-90.3393870835763,93.7062124310806,134.900000000006));
#1449=CARTESIAN_POINT('Origin',(-90.2111608036392,102.068243166567,110.2));
#1450=CARTESIAN_POINT('',(-86.1238642635134,98.388024831593,85.5));
#1451=CARTESIAN_POINT('',(-86.1238642635122,98.3880248315919,97.85));
#1452=CARTESIAN_POINT('',(-39.9236864378977,56.7891978701334,85.5));
#1453=CARTESIAN_POINT('Origin',(-109.615948388045,80.5170432277211,110.2));
#1454=CARTESIAN_POINT('',(-105.528651847919,76.8368248927476,85.5));
#1455=CARTESIAN_POINT('',(-105.528651847919,76.8368248927475,97.85));
#1456=CARTESIAN_POINT('',(-59.3284740223035,35.237997931288,85.5));
#1457=CARTESIAN_POINT('Origin',(0.,0.,85.5));
#1458=CARTESIAN_POINT('',(-119.5,-105.,85.5));
#1459=CARTESIAN_POINT('',(-113.,-111.5,85.5));
#1460=CARTESIAN_POINT('Origin',(-113.,-105.,85.5));
#1461=CARTESIAN_POINT('',(113.,-111.5,85.5));
#1462=CARTESIAN_POINT('',(-113.,-111.5,85.5));
#1463=CARTESIAN_POINT('',(119.5,-105.,85.5));
#1464=CARTESIAN_POINT('Origin',(113.,-105.,85.5));
#1465=CARTESIAN_POINT('',(119.5,105.,85.5));
#1466=CARTESIAN_POINT('',(119.5,-105.,85.5));
#1467=CARTESIAN_POINT('',(113.,111.5,85.5));
#1468=CARTESIAN_POINT('Origin',(113.,105.,85.5));
#1469=CARTESIAN_POINT('',(-113.,111.5,85.5));
#1470=CARTESIAN_POINT('',(113.,111.5,85.5));
#1471=CARTESIAN_POINT('',(-119.5,105.,85.5));
#1472=CARTESIAN_POINT('Origin',(-113.,105.,85.5));
#1473=CARTESIAN_POINT('',(-119.5,105.,85.5));
#1474=CARTESIAN_POINT('',(-95.8262580557163,87.6124248621703,85.5));
#1475=CARTESIAN_POINT('',(-84.8525161114295,99.8,85.5));
#1476=CARTESIAN_POINT('',(-90.6700841513909,93.3389361289485,85.5));
#1477=CARTESIAN_POINT('',(-67.4925328829051,84.7072539839381,85.5));
#1478=CARTESIAN_POINT('',(-27.3021457487738,49.7657855897773,85.5));
#1479=CARTESIAN_POINT('',(-89.9753212565627,59.7375878478976,85.5));
#1480=CARTESIAN_POINT('',(-84.6853212309675,65.6127280797705,85.5));
#1481=CARTESIAN_POINT('',(-106.8,75.4248497243414,85.5));
#1482=CARTESIAN_POINT('',(-59.4239948665847,31.2516556609761,85.5));
#1483=CARTESIAN_POINT('',(-90.6700841513909,93.3389361289485,85.5));
#1484=CARTESIAN_POINT('Origin',(-89.9753212565627,59.7375878478976,85.5));
#1485=CARTESIAN_POINT('',(-67.4925328829051,84.7072539839381,310.5));
#1486=CARTESIAN_POINT('',(-67.4925328829051,84.7072539839381,85.5));
#1487=CARTESIAN_POINT('',(-89.9753212565627,59.7375878478976,310.5));
#1488=CARTESIAN_POINT('',(-67.4925328829051,84.7072539839381,310.5));
#1489=CARTESIAN_POINT('',(-89.9753212565627,59.7375878478976,85.5));
#1490=CARTESIAN_POINT('Origin',(-106.8,75.4248497243414,85.5));
#1491=CARTESIAN_POINT('',(-106.8,75.4248497243414,310.5));
#1492=CARTESIAN_POINT('',(-89.9753212565627,59.7375878478976,310.5));
#1493=CARTESIAN_POINT('',(-106.8,75.4248497243414,85.5));
#1494=CARTESIAN_POINT('Origin',(-84.8525161114295,99.8,85.5));
#1495=CARTESIAN_POINT('',(-84.8525161114295,99.8,310.5));
#1496=CARTESIAN_POINT('',(-106.8,75.4248497243414,310.5));
#1497=CARTESIAN_POINT('',(-84.8525161114295,99.8,85.5));
#1498=CARTESIAN_POINT('Origin',(-67.4925328829051,84.7072539839381,85.5));
#1499=CARTESIAN_POINT('',(-84.8525161114295,99.8,310.5));
#1500=CARTESIAN_POINT('Origin',(-87.1462664414526,79.7687939239488,310.5));
#1501=CARTESIAN_POINT('Origin',(-7.94951378190529E-15,-115.,43.15));
#1502=CARTESIAN_POINT('',(-23.35,-137.,43.15));
#1503=CARTESIAN_POINT('Origin',(-7.94951378190529E-15,-137.,43.15));
#1504=CARTESIAN_POINT('',(-23.35,-115.,43.15));
#1505=CARTESIAN_POINT('',(-23.35,-115.,43.15));
#1506=CARTESIAN_POINT('Origin',(-7.94951378190529E-15,-115.,43.15));
#1507=CARTESIAN_POINT('Origin',(-8.88178419700125E-15,-137.,43.15));
#1508=CARTESIAN_POINT('Origin',(-119.5,105.,81.5));
#1509=CARTESIAN_POINT('',(-119.5,-105.,81.5));
#1510=CARTESIAN_POINT('',(-119.5,105.,81.5));
#1511=CARTESIAN_POINT('',(-119.5,52.5,81.5));
#1512=CARTESIAN_POINT('',(-119.5,-105.,81.5));
#1513=CARTESIAN_POINT('',(-119.5,105.,81.5));
#1514=CARTESIAN_POINT('Origin',(-113.,105.,81.5));
#1515=CARTESIAN_POINT('',(-113.,111.5,81.5));
#1516=CARTESIAN_POINT('Origin',(-113.,105.,81.5));
#1517=CARTESIAN_POINT('',(-113.,111.5,81.5));
#1518=CARTESIAN_POINT('Origin',(113.,111.5,81.5));
#1519=CARTESIAN_POINT('',(113.,111.5,81.5));
#1520=CARTESIAN_POINT('',(56.5,111.5,81.5));
#1521=CARTESIAN_POINT('',(113.,111.5,81.5));
#1522=CARTESIAN_POINT('Origin',(113.,105.,81.5));
#1523=CARTESIAN_POINT('',(119.5,105.,81.5));
#1524=CARTESIAN_POINT('Origin',(113.,105.,81.5));
#1525=CARTESIAN_POINT('',(119.5,105.,81.5));
#1526=CARTESIAN_POINT('Origin',(119.5,-105.,81.5));
#1527=CARTESIAN_POINT('',(119.5,-105.,81.5));
#1528=CARTESIAN_POINT('',(119.5,-52.5,81.5));
#1529=CARTESIAN_POINT('',(119.5,-105.,81.5));
#1530=CARTESIAN_POINT('Origin',(113.,-105.,81.5));
#1531=CARTESIAN_POINT('',(113.,-111.5,81.5));
#1532=CARTESIAN_POINT('Origin',(113.,-105.,81.5));
#1533=CARTESIAN_POINT('',(113.,-111.5,81.5));
#1534=CARTESIAN_POINT('Origin',(-113.,-111.5,81.5));
#1535=CARTESIAN_POINT('',(-113.,-111.5,81.5));
#1536=CARTESIAN_POINT('',(-56.5,-111.5,81.5));
#1537=CARTESIAN_POINT('',(-113.,-111.5,81.5));
#1538=CARTESIAN_POINT('Origin',(-113.,-105.,81.5));
#1539=CARTESIAN_POINT('Origin',(-113.,-105.,81.5));
#1540=CARTESIAN_POINT('Origin',(113.,115.,0.));
#1541=CARTESIAN_POINT('Origin',(113.,105.,0.));
#1542=CARTESIAN_POINT('',(123.,105.,0.));
#1543=CARTESIAN_POINT('Origin',(113.,105.,0.));
#1544=CARTESIAN_POINT('',(123.,105.,81.5));
#1545=CARTESIAN_POINT('Origin',(113.,105.,81.5));
#1546=CARTESIAN_POINT('',(123.,105.,0.));
#1547=CARTESIAN_POINT('Origin',(123.,-105.,0.));
#1548=CARTESIAN_POINT('',(123.,-105.,0.));
#1549=CARTESIAN_POINT('',(123.,105.,0.));
#1550=CARTESIAN_POINT('',(123.,-105.,81.5));
#1551=CARTESIAN_POINT('',(123.,105.,81.5));
#1552=CARTESIAN_POINT('',(123.,-105.,0.));
#1553=CARTESIAN_POINT('Origin',(113.,-105.,0.));
#1554=CARTESIAN_POINT('',(113.,-115.,0.));
#1555=CARTESIAN_POINT('Origin',(113.,-105.,0.));
#1556=CARTESIAN_POINT('',(113.,-115.,81.5));
#1557=CARTESIAN_POINT('Origin',(113.,-105.,81.5));
#1558=CARTESIAN_POINT('',(113.,-115.,0.));
#1559=CARTESIAN_POINT('Origin',(-113.,-115.,0.));
#1560=CARTESIAN_POINT('',(-113.,-115.,0.));
#1561=CARTESIAN_POINT('',(113.,-115.,0.));
#1562=CARTESIAN_POINT('',(-113.,-115.,81.5));
#1563=CARTESIAN_POINT('',(113.,-115.,81.5));
#1564=CARTESIAN_POINT('',(-113.,-115.,0.));
#1565=CARTESIAN_POINT('Origin',(-113.,-105.,0.));
#1566=CARTESIAN_POINT('',(-123.,-105.,0.));
#1567=CARTESIAN_POINT('Origin',(-113.,-105.,0.));
#1568=CARTESIAN_POINT('',(-123.,-105.,81.5));
#1569=CARTESIAN_POINT('Origin',(-113.,-105.,81.5));
#1570=CARTESIAN_POINT('',(-123.,-105.,0.));
#1571=CARTESIAN_POINT('Origin',(-123.,105.,0.));
#1572=CARTESIAN_POINT('',(-123.,105.,0.));
#1573=CARTESIAN_POINT('',(-123.,-105.,0.));
#1574=CARTESIAN_POINT('',(-123.,105.,81.5));
#1575=CARTESIAN_POINT('',(-123.,-105.,81.5));
#1576=CARTESIAN_POINT('',(-123.,105.,0.));
#1577=CARTESIAN_POINT('Origin',(-113.,105.,0.));
#1578=CARTESIAN_POINT('Origin',(-113.,105.,0.));
#1579=CARTESIAN_POINT('Origin',(-113.,105.,81.5));
#1580=CARTESIAN_POINT('Origin',(-1.77635683940025E-14,-1.77635683940025E-14,
81.5));
#1581=CARTESIAN_POINT('Origin',(-1.77635683940025E-14,-1.77635683940025E-14,
0.));
#1582=CARTESIAN_POINT('Origin',(4.26680482713327E-13,0.,99.2025000000004));
#1583=CARTESIAN_POINT('',(-95.8082819309328,-1.17331305798525E-14,100.000000000001));
#1584=CARTESIAN_POINT('Origin',(4.3011061486689E-13,0.,100.));
#1585=CARTESIAN_POINT('',(-95.3809029690053,-1.16807917520777E-14,98.4050000000008));
#1586=CARTESIAN_POINT('',(-95.594592449969,-1.17069611659651E-14,99.2025000000008));
#1587=CARTESIAN_POINT('Origin',(4.23250350559763E-13,0.,98.4050000000004));
#1588=CARTESIAN_POINT('Origin',(4.2632564145606E-13,0.,98.405));
#1589=CARTESIAN_POINT('Origin',(17.3999999999967,0.,94.275));
#1590=CARTESIAN_POINT('',(-17.3999999999959,-2.13088543051594E-15,94.2750000000001));
#1591=CARTESIAN_POINT('Origin',(4.05486782165759E-13,0.,94.2750000000001));
#1592=CARTESIAN_POINT('Origin',(3.77529592199412E-13,0.,87.7750000000001));
#1593=CARTESIAN_POINT('',(-17.7499999999997,-2.17374806848656E-15,81.2750000000001));
#1594=CARTESIAN_POINT('',(-17.5749999999978,-2.15231674950125E-15,87.7750000000001));
#1595=CARTESIAN_POINT('Origin',(3.49572402233064E-13,0.,81.2750000000001));
#1596=CARTESIAN_POINT('Origin',(20.2500000000004,0.,81.2750000000001));
#1597=CARTESIAN_POINT('',(-20.2499999999997,-2.4799097682734E-15,81.2750000000002));
#1598=CARTESIAN_POINT('Origin',(3.49572402233064E-13,0.,81.2750000000001));
#1599=CARTESIAN_POINT('Origin',(3.77529592199412E-13,0.,87.7750000000001));
#1600=CARTESIAN_POINT('',(-20.5999999999996,-2.52277240624355E-15,94.2750000000002));
#1601=CARTESIAN_POINT('Origin',(4.05486782165759E-13,0.,94.2750000000001));
#1602=CARTESIAN_POINT('',(-20.4249999999997,-2.50134108725847E-15,87.7750000000002));
#1603=CARTESIAN_POINT('Origin',(96.9659908733318,0.,94.275));
#1604=CARTESIAN_POINT('',(-96.9659908733309,-1.18749090349177E-14,94.2750000000008));
#1605=CARTESIAN_POINT('Origin',(4.05486782165761E-13,0.,94.2750000000004));
#1606=CARTESIAN_POINT('Origin',(4.17798698516326E-13,0.,97.1375000000004));
#1607=CARTESIAN_POINT('',(-98.4999999999995,-1.20627709716014E-14,100.000000000001));
#1608=CARTESIAN_POINT('Origin',(4.3011061486689E-13,0.,100.));
#1609=CARTESIAN_POINT('',(-97.7329954366652,-1.19688400032596E-14,97.1375000000009));
#1610=CARTESIAN_POINT('Origin',(95.8082819309337,0.,100.));
#1611=UNCERTAINTY_MEASURE_WITH_UNIT(LENGTH_MEASURE(0.01),#1615,
'DISTANCE_ACCURACY_VALUE',
'Maximum model space distance between geometric entities at asserted c
onnectivities');
#1612=UNCERTAINTY_MEASURE_WITH_UNIT(LENGTH_MEASURE(0.01),#1615,
'DISTANCE_ACCURACY_VALUE',
'Maximum model space distance between geometric entities at asserted c
onnectivities');
#1613=(
GEOMETRIC_REPRESENTATION_CONTEXT(3)
GLOBAL_UNCERTAINTY_ASSIGNED_CONTEXT((#1611))
GLOBAL_UNIT_ASSIGNED_CONTEXT((#1615,#1617,#1618))
REPRESENTATION_CONTEXT('','3D')
);
#1614=(
GEOMETRIC_REPRESENTATION_CONTEXT(3)
GLOBAL_UNCERTAINTY_ASSIGNED_CONTEXT((#1612))
GLOBAL_UNIT_ASSIGNED_CONTEXT((#1615,#1617,#1618))
REPRESENTATION_CONTEXT('','3D')
);
#1615=(
LENGTH_UNIT()
NAMED_UNIT(*)
SI_UNIT(.MILLI.,.METRE.)
);
#1616=(
LENGTH_UNIT()
NAMED_UNIT(*)
SI_UNIT($,.METRE.)
);
#1617=(
NAMED_UNIT(*)
PLANE_ANGLE_UNIT()
SI_UNIT($,.RADIAN.)
);
#1618=(
NAMED_UNIT(*)
SI_UNIT($,.STERADIAN.)
SOLID_ANGLE_UNIT()
);
#1619=SHAPE_DEFINITION_REPRESENTATION(#1620,#1621);
#1620=PRODUCT_DEFINITION_SHAPE('',$,#1623);
#1621=SHAPE_REPRESENTATION('',(#979),#1613);
#1622=PRODUCT_DEFINITION_CONTEXT('part definition',#1627,'design');
#1623=PRODUCT_DEFINITION('Elegoo Mercury X','Elegoo Mercury X v3',#1624,
#1622);
#1624=PRODUCT_DEFINITION_FORMATION('',$,#1629);
#1625=PRODUCT_RELATED_PRODUCT_CATEGORY('Elegoo Mercury X v3',
'Elegoo Mercury X v3',(#1629));
#1626=APPLICATION_PROTOCOL_DEFINITION('international standard',
'ap242_managed_model_based_3d_engineering',2011,#1627);
#1627=APPLICATION_CONTEXT('Managed model based 3d engineering');
#1628=PRODUCT_CONTEXT('part definition',#1627,'mechanical');
#1629=PRODUCT('Elegoo Mercury X','Elegoo Mercury X v3',$,(#1628));
#1630=PRESENTATION_STYLE_ASSIGNMENT((#1635));
#1631=PRESENTATION_STYLE_ASSIGNMENT((#1636));
#1632=PRESENTATION_STYLE_ASSIGNMENT((#1637));
#1633=PRESENTATION_STYLE_ASSIGNMENT((#1638));
#1634=PRESENTATION_STYLE_ASSIGNMENT((#1639));
#1635=SURFACE_STYLE_USAGE(.BOTH.,#1640);
#1636=SURFACE_STYLE_USAGE(.BOTH.,#1641);
#1637=SURFACE_STYLE_USAGE(.BOTH.,#1642);
#1638=SURFACE_STYLE_USAGE(.BOTH.,#1643);
#1639=SURFACE_STYLE_USAGE(.BOTH.,#1644);
#1640=SURFACE_SIDE_STYLE('',(#1645));
#1641=SURFACE_SIDE_STYLE('',(#1646));
#1642=SURFACE_SIDE_STYLE('',(#1647));
#1643=SURFACE_SIDE_STYLE('',(#1648));
#1644=SURFACE_SIDE_STYLE('',(#1649));
#1645=SURFACE_STYLE_FILL_AREA(#1650);
#1646=SURFACE_STYLE_FILL_AREA(#1651);
#1647=SURFACE_STYLE_FILL_AREA(#1652);
#1648=SURFACE_STYLE_FILL_AREA(#1653);
#1649=SURFACE_STYLE_FILL_AREA(#1654);
#1650=FILL_AREA_STYLE('Steel - Satin',(#1655));
#1651=FILL_AREA_STYLE('ABS (White)',(#1656));
#1652=FILL_AREA_STYLE('Aluminum - Polished',(#1657));
#1653=FILL_AREA_STYLE('Aluminum - Anodized Glossy (Grey)',(#1658));
#1654=FILL_AREA_STYLE('Acrylic (Clear)',(#1659));
#1655=FILL_AREA_STYLE_COLOUR('Steel - Satin',#1660);
#1656=FILL_AREA_STYLE_COLOUR('ABS (White)',#1661);
#1657=FILL_AREA_STYLE_COLOUR('Aluminum - Polished',#1662);
#1658=FILL_AREA_STYLE_COLOUR('Aluminum - Anodized Glossy (Grey)',#1663);
#1659=FILL_AREA_STYLE_COLOUR('Acrylic (Clear)',#1664);
#1660=COLOUR_RGB('Steel - Satin',0.627450980392157,0.627450980392157,0.627450980392157);
#1661=COLOUR_RGB('ABS (White)',0.964705882352941,0.964705882352941,0.952941176470588);
#1662=COLOUR_RGB('Aluminum - Polished',0.96078431372549,0.96078431372549,
0.964705882352941);
#1663=COLOUR_RGB('Aluminum - Anodized Glossy (Grey)',0.537254901960784,
0.537254901960784,0.537254901960784);
#1664=COLOUR_RGB('Acrylic (Clear)',0.964705882352941,0.964705882352941,
0.952941176470588);
ENDSEC;
END-ISO-10303-21;
